<?xml version="1.0" standalone="no"?>
<!DOCTYPE svg PUBLIC "-//W3C//DTD SVG 1.1//EN" "http://www.w3.org/Graphics/SVG/1.1/DTD/svg11.dtd" >
<svg xmlns="http://www.w3.org/2000/svg">
<metadata>Generated by IcoMoon</metadata>
<defs>
<font id="laposte_bold" horiz-adv-x="1024">
<font-face units-per-em="1024" ascent="960" descent="-64" />
<missing-glyph horiz-adv-x="1024" />
<glyph unicode="&#x20;" horiz-adv-x="512" d="" />
<glyph unicode="&#xe900;" glyph-name="action_alert" d="M970.236 234.667l-310.613 535.042c-14.967 25.919-36.484 47.447-62.396 62.424s-55.305 22.878-85.231 22.909c-29.931-0.031-59.324-7.931-85.235-22.909s-47.429-36.506-62.393-62.424l-310.613-535.042c-15.278-25.839-23.337-55.313-23.337-85.333s8.060-59.49 23.337-85.333c14.928-25.856 36.378-47.343 62.208-62.315 25.83-14.976 55.136-22.912 84.992-23.019h622.082c29.926 0.034 59.319 7.932 85.231 22.912 25.911 14.976 47.428 36.506 62.396 62.421 15.211 25.882 23.198 55.373 23.121 85.393-0.073 30.020-8.209 59.473-23.548 85.274zM543.569 320c-0.111-8.452-3.52-16.525-9.498-22.502s-14.050-9.387-22.502-9.498c-8.452 0.111-16.529 3.52-22.507 9.498s-9.382 14.050-9.493 22.502l-10.24 256.002c0 11.316 4.493 22.168 12.497 30.17 8 8.001 18.85 12.497 30.17 12.497 11.315 0 22.165-4.495 30.17-12.497 8-8.002 12.497-18.854 12.497-30.17l-11.093-256.002zM554.662 192c0-11.315-4.497-22.165-12.497-30.17-8.004-8-18.854-12.497-30.17-12.497-11.319 0-22.17 4.497-30.17 12.497-8.004 8.004-12.497 18.854-12.497 30.17 0 11.319 4.493 22.17 12.497 30.17 8 8.004 18.85 12.497 30.17 12.497 11.315 0 22.165-4.493 30.17-12.497 8-8 12.497-18.85 12.497-30.17z" />
<glyph unicode="&#xe901;" glyph-name="action_check_surrounded" d="M512 917.333c-124.475 0-243.852-49.447-331.869-137.464s-137.465-207.394-137.465-331.869c0-124.476 49.448-243.853 137.465-331.87s207.394-137.463 331.869-137.463c124.476 0 243.853 49.446 331.87 137.463s137.463 207.394 137.463 331.87c0 124.475-49.446 243.852-137.463 331.869s-207.394 137.464-331.87 137.464zM755.627 545.707l-256-256c-3.985-3.955-8.717-7.083-13.914-9.207-5.197-2.121-10.765-3.2-16.38-3.166-5.615-0.034-11.183 1.045-16.38 3.166-5.197 2.125-9.929 5.252-13.914 9.207l-128 128c-3.999 3.968-7.173 8.687-9.339 13.884-2.166 5.201-3.281 10.778-3.281 16.41s1.115 11.209 3.281 16.41c2.166 5.197 5.34 9.916 9.339 13.884 3.966 3.998 8.685 7.172 13.885 9.34s10.776 3.281 16.409 3.281c5.632 0 11.209-1.114 16.409-3.281s9.918-5.342 13.885-9.34l97.707-97.707 225.707 225.707c3.968 3.999 8.687 7.173 13.884 9.339 5.201 2.166 10.778 3.281 16.41 3.281s11.209-1.115 16.41-3.281c5.197-2.166 9.916-5.34 13.884-9.339 3.998-3.966 7.172-8.685 9.34-13.885s3.281-10.776 3.281-16.409c0-5.632-1.114-11.209-3.281-16.409s-5.342-9.918-9.34-13.885z" />
<glyph unicode="&#xe902;" glyph-name="action_check" d="M871.006 721.673c33.327-33.324 33.327-87.355 0-120.679l-384-384c-33.323-33.327-87.354-33.327-120.679 0l-213.333 213.333c-33.325 33.323-33.325 87.356 0 120.679 33.324 33.325 87.355 33.325 120.679 0l152.994-152.995 323.661 323.661c33.323 33.325 87.356 33.325 120.678 0z" />
<glyph unicode="&#xe903;" glyph-name="action_close_surrounded" d="M42.667 448c0-259.2 210.15-469.333 469.333-469.333s469.333 210.133 469.333 469.333c0 259.198-210.15 469.333-469.333 469.333s-469.333-210.135-469.333-469.333zM311.163 648.837c15.381 15.38 39.583 16.564 56.32 3.549l4.020-3.549 140.497-140.497 140.497 140.497c16.661 16.662 43.678 16.662 60.339 0 15.381-15.381 16.567-39.583 3.55-56.32l-3.55-4.020-140.463-140.497 140.463-140.497c15.381-15.381 16.567-39.582 3.55-56.32l-3.55-4.019c-15.377-15.381-39.582-16.563-56.32-3.55l-4.019 3.55-140.497 140.497-140.497-140.497c-16.663-16.661-43.677-16.661-60.34 0-15.38 15.381-16.564 39.582-3.549 56.32l3.549 4.019 140.463 140.497-140.463 140.497c-15.38 15.381-16.564 39.583-3.549 56.32l3.549 4.020z" />
<glyph unicode="&#xe904;" glyph-name="action_close" d="M238.33 721.673c33.325 33.325 87.355 33.325 120.679 0l422.379-422.379c33.323-33.323 33.323-87.356 0-120.678-33.327-33.327-87.356-33.327-120.678 0l-422.38 422.378c-33.325 33.325-33.325 87.354 0 120.679zM781.385 721.673c33.327-33.325 33.327-87.355 0-120.679l-422.378-422.378c-33.325-33.327-87.355-33.327-120.679 0-33.325 33.323-33.325 87.356 0 120.678l422.379 422.379c33.323 33.325 87.356 33.325 120.678 0z" />
<glyph unicode="&#xe905;" glyph-name="action_help" d="M938.667 512c0 200.204-162.462 362.667-362.667 362.667h-128l-10.88-0.16c-195.178-5.76-351.787-165.942-351.787-362.506 0-97.395 38.678-188.617 106.363-256.303 30.342-30.345 65.54-54.933 104.114-72.623l0.185-3.75c0.051-10.714-3.122-17.178-18.094-32.909l-9.388-9.579c-26.878-26.88-7.842-72.836 30.17-72.836 100.39 0 175.654 17.711 229.167 48.29 21.124 12.066 36.919 24.853 48.149 37.043l10.88 0.162c195.179 5.76 351.787 165.939 351.787 362.505zM512 704c70.669 0 128-57.332 128-128 0-52.749-31.945-98.065-77.53-117.658l-7.804-3.046v-7.296h-85.333v42.667l42.667 42.667c23.539 0 42.667 19.127 42.667 42.667s-19.127 42.667-42.667 42.667c-21.858 0-39.91-16.492-42.381-37.695l-0.286-4.972h-85.333c0 70.668 57.331 128 128 128zM512 405.333c23.595 0 42.667-19.115 42.667-42.667s-19.072-42.667-42.667-42.667c-23.595 0-42.667 19.115-42.667 42.667s19.072 42.667 42.667 42.667z" />
<glyph unicode="&#xe906;" glyph-name="action_information" d="M512 917.333c-124.475 0-243.852-49.447-331.869-137.464s-137.465-207.394-137.465-331.869c0-124.476 49.448-243.853 137.465-331.87s207.394-137.463 331.869-137.463c124.476 0 243.853 49.446 331.87 137.463s137.463 207.394 137.463 331.87c0 124.475-49.446 243.852-137.463 331.869s-207.394 137.464-331.87 137.464zM469.333 490.667c0 11.315 4.497 22.17 12.497 30.17s18.854 12.497 30.17 12.497c11.315 0 22.17-4.497 30.17-12.497s12.497-18.854 12.497-30.17v-256c0-11.315-4.497-22.17-12.497-30.17s-18.854-12.497-30.17-12.497c-11.315 0-22.17 4.497-30.17 12.497s-12.497 18.854-12.497 30.17v256zM512 618.667c-11.315 0-22.17 4.495-30.17 12.497s-12.497 18.854-12.497 30.17c0 11.316 4.497 22.168 12.497 30.17s18.854 12.497 30.17 12.497c11.315 0 22.17-4.495 30.17-12.497s12.497-18.854 12.497-30.17c0-11.316-4.497-22.168-12.497-30.17s-18.854-12.497-30.17-12.497z" />
<glyph unicode="&#xe907;" glyph-name="action_less_surrounded" d="M981.333 448c0-259.2-210.15-469.333-469.333-469.333s-469.333 210.133-469.333 469.333c0 259.198 210.15 469.333 469.333 469.333s469.333-210.135 469.333-469.333zM725.333 448c0 23.565-19.102 42.667-42.667 42.667l-346.309-0.286c-21.22-2.466-37.691-20.501-37.691-42.381 0-23.565 19.103-42.667 42.667-42.667l346.308 0.286c21.222 2.466 37.692 20.501 37.692 42.381z" />
<glyph unicode="&#xe908;" glyph-name="action_less" d="M256 448c0 47.13 38.205 85.333 85.333 85.333h341.333c47.13 0 85.333-38.204 85.333-85.333s-38.204-85.333-85.333-85.333h-341.333c-47.128 0-85.333 38.204-85.333 85.333z" />
<glyph unicode="&#xe909;" glyph-name="action_messenger" d="M895.765 795.701c-3.255 44.151-40.090 78.965-85.099 78.965l-603.705-0.234c-44.172-3.258-78.962-40.117-78.962-85.099v-597.333l0.234-6.37 0.737-6.549c6.223-40.994 41.605-72.414 84.362-72.414h461.611l221.056-82.901v765.568l-0.235 6.368zM668.164 360.132c20.083 7.283 42.88-1.481 52.663-21.052 10.539-21.077 1.997-46.703-19.081-57.242l-10.743-5.077-13.559-5.798-16.137-6.276-8.96-3.234-9.523-3.264c-43.994-14.665-88.282-23.522-130.825-23.522s-86.83 8.858-130.826 23.522c-6.526 2.176-12.7 4.356-18.483 6.498l-16.137 6.276-13.557 5.798-10.745 5.077-4.322 2.479c-17.877 11.695-24.544 35.191-14.759 54.763 10.538 21.077 36.167 29.619 57.243 19.081l5.914-2.769 6.479-2.842 11.038-4.548c7.625-3.025 15.766-6.007 24.314-8.858 36.005-12.002 71.717-19.145 103.841-19.145s67.836 7.142 103.842 19.145c12.821 4.275 24.725 8.853 35.349 13.406l16.973 7.582z" />
<glyph unicode="&#xe90a;" glyph-name="action_mobile_chat" d="M717.653 832h50.347c67.895 0 133.009-26.971 181.018-74.981 48.013-48.009 74.982-113.124 74.982-181.019v-42.667c0-67.895-26.97-133.009-74.982-181.018-48.009-48.013-113.122-74.982-181.018-74.982h-42.667v-170.667c0-33.946-13.487-66.505-37.491-90.509s-56.563-37.491-90.509-37.491h-384c-33.948 0-66.505 13.487-90.51 37.491s-37.49 56.563-37.49 90.509v682.667c0 33.948 13.486 66.505 37.49 90.51s56.562 37.49 90.51 37.49h384c26.406-0.074 52.147-8.315 73.69-23.592 21.538-15.277 37.828-36.843 46.63-61.741zM627.503 76.497c8 8 12.497 18.854 12.497 30.17v170.667h-170.667v298.667c-0.017 51.321 15.394 101.461 44.228 143.916s69.764 75.261 117.478 94.164c-3.84 5.399-8.887 9.83-14.737 12.94s-12.348 4.815-18.97 4.98h-384c-11.316 0-22.168-4.495-30.17-12.497s-12.497-18.854-12.497-30.17v-682.667c0-11.315 4.495-22.17 12.497-30.17s18.854-12.497 30.17-12.497h384c11.315 0 22.17 4.497 30.17 12.497zM682.667 448h85.333c11.315 0 22.17 4.497 30.17 12.497s12.497 18.854 12.497 30.17c0 11.315-4.497 22.17-12.497 30.17s-18.854 12.497-30.17 12.497h-85.333c-11.315 0-22.17-4.497-30.17-12.497s-12.497-18.854-12.497-30.17c0-11.315 4.497-22.17 12.497-30.17s18.854-12.497 30.17-12.497zM682.667 576h128c11.315 0 22.17 4.495 30.17 12.497s12.497 18.854 12.497 30.17c0 11.316-4.497 22.168-12.497 30.17s-18.854 12.497-30.17 12.497h-128c-11.315 0-22.17-4.495-30.17-12.497s-12.497-18.854-12.497-30.17c0-11.316 4.497-22.168 12.497-30.17s18.854-12.497 30.17-12.497zM384 192h42.667c11.315 0 22.17-4.497 30.17-12.497s12.497-18.854 12.497-30.17c0-11.315-4.497-22.17-12.497-30.17s-18.854-12.497-30.17-12.497h-42.667c-11.316 0-22.168 4.497-30.17 12.497s-12.497 18.854-12.497 30.17c0 11.315 4.495 22.17 12.497 30.17s18.854 12.497 30.17 12.497z" />
<glyph unicode="&#xe90b;" glyph-name="action_more_surrounded" d="M981.333 448c0 259.198-210.15 469.333-469.333 469.333s-469.333-210.135-469.333-469.333c0-259.2 210.15-469.333 469.333-469.333s469.333 210.133 469.333 469.333zM512 661.333c21.879 0 39.915-16.471 42.381-37.691l0.286-4.976v-128h128c23.565 0 42.667-19.102 42.667-42.667 0-21.879-16.469-39.915-37.692-42.381l-4.975-0.286h-128v-128c0-23.565-19.102-42.667-42.667-42.667-21.879 0-39.915 16.469-42.381 37.692l-0.286 4.975v128h-128c-23.564 0-42.667 19.102-42.667 42.667 0 21.879 16.471 39.915 37.691 42.381l4.976 0.286h128v128c0 23.564 19.102 42.667 42.667 42.667z" />
<glyph unicode="&#xe90c;" glyph-name="action_more" d="M512 746.667c47.13 0 85.333-38.205 85.333-85.333v-426.667c0-47.13-38.204-85.333-85.333-85.333s-85.333 38.204-85.333 85.333v426.667c0 47.128 38.204 85.333 85.333 85.333zM213.333 448c0 47.13 38.205 85.333 85.333 85.333h426.667c47.13 0 85.333-38.204 85.333-85.333s-38.204-85.333-85.333-85.333h-426.667c-47.128 0-85.333 38.204-85.333 85.333z" />
<glyph unicode="&#xe90d;" glyph-name="action_notification" d="M512 874.667c34.607 0 67.085-13.772 89.916-37.26 18.236-17.743 30.541-40.445 35.554-65.289l1.165-7.063 3.221-1.289c122.607-50.34 206.703-168.409 211.281-304.094l0.196-11.674 0.030-92.634c49.69-17.587 85.303-65.003 85.303-120.7 0-68.143-53.308-123.887-120.482-127.782l-7.518-0.218-176.358-0.030c-16.695-47.262-60.361-81.711-112.439-85.039l-9.869-0.265c-55.723 0-103.122 35.597-120.704 85.291l-177.963 0.043c-70.668 0-128 57.331-128 128 0 55.714 35.635 103.138 85.347 120.717l-0.013 92.617c0 91.99 36.23 177.637 99.963 241.37 30.193 30.193 65.602 54.485 104.322 71.433l10.413 4.338 0.56 3.683c10.124 57.602 58.99 102.153 118.574 105.624l7.501 0.218z" />
<glyph unicode="&#xe90e;" glyph-name="action_pen" d="M908.373 751.792l-92.587 92.587c-24 23.97-56.533 37.434-90.453 37.434s-66.453-13.464-90.453-37.434l-451.839-451.414c-5.526-5.666-9.367-12.757-11.093-20.48l-64-277.333c-1.728-7.074-1.616-14.477 0.326-21.495 1.942-7.023 5.649-13.427 10.768-18.611 3.987-3.955 8.715-7.083 13.913-9.207 5.199-2.121 10.765-3.196 16.38-3.166h9.387l277.332 64c7.868 1.92 15.083 5.897 20.907 11.52l451.413 452.694c24.013 23.982 37.517 56.517 37.547 90.453-0.030 33.936-13.534 66.472-37.547 90.453zM848.213 631.045l-80.213-79.787-152.747 152.747 79.787 80.213c3.968 3.999 8.687 7.173 13.884 9.339 5.201 2.166 10.778 3.281 16.41 3.281s11.209-1.115 16.41-3.281c5.201-2.166 9.92-5.34 13.884-9.339l92.587-92.587c3.955-3.987 7.083-8.715 9.207-13.913s3.2-10.765 3.166-16.38c0.034-5.615-1.041-11.182-3.166-16.38s-5.252-9.926-9.207-13.913z" />
<glyph unicode="&#xe90f;" glyph-name="action_share" d="M725.333 405.333c-24.299-0.137-48.286-5.461-70.362-15.616-22.071-10.155-41.724-24.905-57.638-43.264l-131.84 65.707c2.586 11.772 3.874 23.791 3.84 35.84 0.034 12.049-1.254 24.068-3.84 35.84l131.84 65.707c15.915-18.359 35.567-33.109 57.638-43.264 22.076-10.155 46.063-15.479 70.362-15.616 45.265 0 88.674 17.98 120.678 49.987 32.009 32.006 49.988 75.416 49.988 120.68s-17.98 88.673-49.988 120.68c-32.004 32.006-75.413 49.987-120.678 49.987s-88.674-17.981-120.678-49.987c-32.009-32.006-49.988-75.416-49.988-120.68-0.034-12.051 1.254-24.070 3.84-35.84l-131.84-65.707c-15.915 18.36-35.566 33.111-57.641 43.265s-46.062 15.478-70.359 15.615c-45.264 0-88.673-17.981-120.68-49.987s-49.987-75.415-49.987-120.68c0-45.265 17.981-88.674 49.987-120.678 32.006-32.009 75.416-49.988 120.68-49.988 24.297 0.137 48.285 5.461 70.359 15.616s41.726 24.905 57.641 43.264l131.84-65.707c-2.586-11.772-3.874-23.791-3.84-35.84 0-45.265 17.98-88.674 49.988-120.678 32.004-32.009 75.413-49.988 120.678-49.988s88.674 17.98 120.678 49.988c32.009 32.004 49.988 75.413 49.988 120.678s-17.98 88.674-49.988 120.678c-32.004 32.009-75.413 49.988-120.678 49.988z" />
<glyph unicode="&#xe910;" glyph-name="action_star" d="M471.215 844.548c11.819 38.412 64.346 40.083 79.706 5.010l1.856-5.010 76.041-247.215h309.845c38.835 0 55.974-46.341 31.117-71.991l-3.482-3.221-3.968-2.957-230.558-153.681 77.449-290.487c9.604-36.006-27.597-64.529-58.842-49.937l-4.041 2.15-3.942 2.658-230.4 172.8-230.4-172.8c-29.811-22.357-70.164 1.493-68.304 35.925l0.486 4.553 0.991 4.651 77.408 290.487-230.515 153.681c-32.315 21.545-20.869 69.61 14.041 77.163l4.685 0.75 4.941 0.257h309.803l76.084 247.215z" />
<glyph unicode="&#xe911;" glyph-name="action_tips" d="M542.17 801.83c-8-8.001-18.854-12.497-30.17-12.497s-22.17 4.495-30.17 12.497c-8 8.002-12.497 18.854-12.497 30.17v42.667c0 11.316 4.497 22.168 12.497 30.17s18.854 12.497 30.17 12.497c11.315 0 22.17-4.495 30.17-12.497s12.497-18.854 12.497-30.17v-42.667c0-11.316-4.497-22.168-12.497-30.17zM170.667 448c0 11.315-4.495 22.17-12.497 30.17s-18.854 12.497-30.17 12.497h-42.667c-11.316 0-22.168-4.497-30.17-12.497s-12.497-18.854-12.497-30.17c0-11.315 4.495-22.17 12.497-30.17s18.854-12.497 30.17-12.497h42.667c11.316 0 22.168 4.497 30.17 12.497s12.497 18.854 12.497 30.17zM938.667 490.667h-42.667c-11.315 0-22.17-4.497-30.17-12.497s-12.497-18.854-12.497-30.17c0-11.315 4.497-22.17 12.497-30.17s18.854-12.497 30.17-12.497h42.667c11.315 0 22.17 4.497 30.17 12.497s12.497 18.854 12.497 30.17c0 11.315-4.497 22.17-12.497 30.17s-18.854 12.497-30.17 12.497zM789.329 682.669c5.615-0.032 11.183 1.044 16.38 3.167 5.201 2.123 9.929 5.252 13.914 9.206l42.667 42.667c8.034 8.034 12.548 18.931 12.548 30.293s-4.514 22.259-12.548 30.293c-8.034 8.034-18.931 12.548-30.293 12.548s-22.259-4.514-30.293-12.548l-42.667-42.667c-3.998-3.966-7.172-8.685-9.34-13.885-2.163-5.199-3.281-10.776-3.281-16.409s1.118-11.209 3.281-16.409c2.167-5.199 5.342-9.918 9.34-13.885 3.989-3.954 8.717-7.083 13.914-9.206 5.201-2.124 10.765-3.2 16.38-3.167zM218.255 685.703c-5.199 2.166-9.918 5.34-13.885 9.339l-42.667 42.667c-8.034 8.034-12.548 18.931-12.548 30.293s4.514 22.259 12.548 30.293c8.035 8.034 18.931 12.548 30.293 12.548s22.259-4.514 30.293-12.548l42.667-42.667c3.999-3.966 7.173-8.685 9.339-13.885s3.281-10.776 3.281-16.409c0-5.632-1.115-11.209-3.281-16.409s-5.34-9.918-9.339-13.885c-3.966-3.999-8.685-7.173-13.885-9.339s-10.776-3.281-16.409-3.281c-5.632 0-11.209 1.115-16.409 3.281zM840.956 222.298c-8.034 8.034-18.931 12.548-30.293 12.548s-22.259-4.514-30.293-12.548c-8.034-8.034-12.548-18.931-12.548-30.293s4.514-22.259 12.548-30.293l42.667-42.667c3.968-4.002 8.687-7.177 13.888-9.34 5.197-2.167 10.773-3.281 16.405-3.281 5.636 0 11.213 1.114 16.41 3.281 5.201 2.163 9.92 5.338 13.884 9.34 4.002 3.964 7.177 8.683 9.34 13.884 2.167 5.197 3.281 10.773 3.281 16.41 0 5.632-1.114 11.209-3.281 16.405-2.163 5.201-5.338 9.92-9.34 13.888l-42.667 42.667zM140.371 179.631l42.667 42.667c8.034 8.034 18.931 12.548 30.293 12.548s22.259-4.514 30.293-12.548c8.034-8.034 12.548-18.931 12.548-30.293s-4.514-22.259-12.548-30.293l-42.667-42.667c-3.966-4.002-8.685-7.177-13.885-9.34-5.199-2.167-10.776-3.281-16.409-3.281s-11.209 1.114-16.409 3.281c-5.199 2.163-9.918 5.338-13.885 9.34-3.999 3.964-7.173 8.683-9.339 13.884-2.166 5.197-3.281 10.773-3.281 16.41 0 5.632 1.115 11.209 3.281 16.405 2.166 5.201 5.34 9.92 9.339 13.888zM512.004 746.667c-63.535-0.059-125.391-20.376-176.585-57.998s-89.058-90.588-108.089-151.202c-19.031-60.616-18.238-125.716 2.264-185.851 20.503-60.13 59.645-112.158 111.741-148.523v-53.76c0-22.63 8.991-44.335 24.994-60.339s37.708-24.994 60.342-24.994c0-11.315 4.493-22.17 12.493-30.17 8.004-8 18.854-12.497 30.174-12.497h85.333c11.315 0 22.165 4.497 30.17 12.497 8 8 12.497 18.854 12.497 30.17 22.63 0 44.335 8.99 60.339 24.994 16 16.004 24.994 37.709 24.994 60.339v53.76c52.092 36.365 91.238 88.393 111.74 148.523 20.501 60.134 21.295 125.235 2.266 185.851-19.034 60.614-56.896 113.58-108.092 151.202-51.191 37.622-113.050 57.938-176.58 57.998zM396.802 269.227c-38.807 24.896-68.503 61.696-84.64 104.887s-17.847 90.449-4.875 134.694c12.973 44.243 39.931 83.093 76.836 110.731s81.771 42.576 127.881 42.576c46.106 0 90.97-14.938 127.876-42.576s63.863-66.488 76.838-110.731c12.971-44.245 11.26-91.503-4.877-134.694s-45.833-79.991-84.638-104.887h-230.402zM481.83 606.17c8 8.001 18.854 12.497 30.17 12.497 45.265 0 88.674-17.981 120.678-49.987 32.009-32.006 49.988-75.415 49.988-120.68 0-11.315-4.497-22.17-12.497-30.17s-18.854-12.497-30.17-12.497c-11.315 0-22.17 4.497-30.17 12.497s-12.497 18.854-12.497 30.17c0 22.63-8.99 44.335-24.994 60.339s-37.709 24.994-60.339 24.994c-11.315 0-22.17 4.495-30.17 12.497s-12.497 18.854-12.497 30.17c0 11.316 4.497 22.168 12.497 30.17z" />
<glyph unicode="&#xe912;" glyph-name="actions_favorite_surrounded" d="M512 906.667c253.293 0 458.667-205.36 458.667-458.667s-205.374-458.667-458.667-458.667c-253.293 0-458.667 205.36-458.667 458.667s205.374 458.667 458.667 458.667zM614.976 615.501l-8.527-0.303c-25.16-1.789-49.263-11.473-68.784-28.078l-7.099-6.549-18.61-18.523-18.525 18.523-6.369 5.923c-21.831 18.875-49.518 29.006-78.040 29.006-31.375 0-61.738-12.259-84.409-34.93-44.771-44.715-46.637-115.863-5.596-162.832l5.596-5.985 187.36-187.36 187.41 187.36 5.596 5.985c41.040 46.969 39.174 118.118-5.611 162.846-20.597 20.597-47.563 32.601-75.868 34.613l-8.527 0.303z" />
<glyph unicode="&#xe913;" glyph-name="actions_favorite" d="M725.333 799.573c58.829 0 115.716-22.949 158.17-65.403 84.989-84.989 87.418-220.817 7.285-308.711l-7.285-7.628-371.503-371.503-371.503 371.503c-87.489 87.489-87.489 228.851 0 316.34 42.454 42.454 99.34 65.403 158.17 65.403 55.153 0 108.597-20.17 150.044-57.673l8.126-7.731 55.163-55.13 55.163 55.13c39.801 39.801 92.286 62.459 147.165 65.135l11.005 0.268z" />
<glyph unicode="&#xe914;" glyph-name="arrow_bent" d="M725.572 669.228c-25.122 19.535-61.419 17.777-84.501-5.306-23.078-23.082-24.841-59.376-5.303-84.5l0.41-0.526 4.425-5.012 61.841-61.884-367.69 0.201c-55.835 3.388-100.085 49.768-100.085 106.467v21.333h-128.459l0.656-31.042 0.019-0.455c5.331-124.894 108.253-224.504 234.45-224.504h361.108l-61.841-61.884-4.425-5.009-0.41-0.529c-17.92-23.044-17.92-55.445 0-78.49l0.41-0.525 4.868-5.513 5.513-4.868 0.525-0.41c23.044-17.92 55.445-17.92 78.49 0l0.529 0.41 5.013 4.429 216.388 216.388-216.388 216.39-5.013 4.429-0.529 0.409z" />
<glyph unicode="&#xe915;" glyph-name="arrow_bottom" d="M295.245 626.562c-25.124 19.535-61.418 17.777-84.5-5.306-24.994-24.993-24.994-65.516 0-90.508l301.255-301.257 301.722 301.722 4.429 5.017 0.41 0.526c19.537 25.124 17.779 61.418-5.303 84.5l-0.469 0.468-5.018 4.429-0.525 0.409c-25.122 19.535-61.419 17.777-84.501-5.306l-210.743-210.713-211.214 211.181-5.015 4.428-0.527 0.409z" />
<glyph unicode="&#xe916;" glyph-name="arrow_double_left" d="M514.598 749.255c-24.994 24.994-65.515 24.994-90.51 0l-301.255-301.255 301.723-301.722 5.016-4.429 0.525-0.41c25.126-19.537 61.419-17.779 84.501 5.303l0.469 0.469 4.429 5.018 0.405 0.525c19.537 25.122 17.779 61.419-5.303 84.501l-210.714 210.743 211.184 211.214 4.429 5.015 0.405 0.526c19.537 25.124 17.779 61.418-5.303 84.5zM813.265 749.255c-24.994 24.994-65.515 24.994-90.509 0l-301.256-301.255 301.721-301.722 5.018-4.429 0.525-0.41c25.126-19.537 61.419-17.779 84.501 5.303l0.469 0.469 4.429 5.018 0.405 0.525c19.537 25.122 17.779 61.419-5.303 84.501l-210.714 210.743 211.183 211.214 4.429 5.015 0.405 0.526c19.537 25.124 17.779 61.418-5.303 84.5z" />
<glyph unicode="&#xe917;" glyph-name="arrow_double_right" d="M295.244 754.562c-25.124 19.535-61.418 17.777-84.5-5.306l-0.468-0.468-4.429-5.015-0.409-0.527c-19.535-25.123-17.775-61.417 5.306-84.5l210.714-210.746-211.182-211.213-4.428-5.013-0.409-0.529c-19.535-25.122-17.777-61.414 5.306-84.497 24.994-24.994 65.516-24.994 90.51 0l301.255 301.252-301.723 301.724-5.015 4.429-0.526 0.409zM593.911 754.562c-25.126 19.535-61.419 17.777-84.501-5.306l-0.469-0.468-4.425-5.015-0.41-0.527c-19.537-25.124-17.779-61.417 5.303-84.5l210.714-210.746-211.183-211.213-4.425-5.013-0.41-0.529c-19.537-25.122-17.779-61.414 5.303-84.497 24.994-24.994 65.519-24.994 90.509 0l301.257 301.252-301.722 301.724-5.018 4.429-0.525 0.409z" />
<glyph unicode="&#xe918;" glyph-name="arrow_dragndrop" d="M531.038 772.392l3.589-3.098 85.333-85.333c12.497-12.497 12.497-32.758 0-45.255-11.361-11.361-29.138-12.393-41.666-3.098l-3.589 3.098-20.039 20.025v-168.064h168.064l-20.025 20.039c-11.361 11.361-12.393 29.138-3.098 41.666l3.098 3.589c11.361 11.361 29.138 12.393 41.666 3.098l3.589-3.098 85.333-85.333c11.361-11.361 12.393-29.138 3.098-41.666l-3.098-3.589-85.333-85.333c-12.497-12.497-32.758-12.497-45.255 0-11.361 11.361-12.393 29.138-3.098 41.666l3.098 3.589 19.982 20.039h-168.021v-168.021l20.039 19.982c11.361 11.361 29.138 12.393 41.666 3.098l3.589-3.098c11.361-11.361 12.393-29.138 3.098-41.666l-3.098-3.589-85.333-85.333c-11.361-11.361-29.138-12.393-41.666-3.098l-3.589 3.098-85.333 85.333c-12.497 12.497-12.497 32.758 0 45.255 11.361 11.361 29.138 12.393 41.666 3.098l3.589-3.098 20.039-20.025v168.064h-168.064l20.025-20.039c11.361-11.361 12.393-29.138 3.098-41.666l-3.098-3.589c-11.361-11.361-29.138-12.393-41.666-3.098l-3.589 3.098-85.333 85.333c-11.361 11.361-12.393 29.138-3.098 41.666l3.098 3.589 85.333 85.333c12.497 12.497 32.758 12.497 45.255 0 11.361-11.361 12.393-29.138 3.098-41.666l-3.098-3.589-20.067-20.039h168.107v168.107l-20.039-20.067c-11.361-11.361-29.138-12.393-41.666-3.098l-3.589 3.098c-11.361 11.361-12.393 29.138-3.098 41.666l3.098 3.589 85.333 85.333c11.361 11.361 29.138 12.393 41.666 3.098z" />
<glyph unicode="&#xe919;" glyph-name="arrow_large_back" d="M386.598 749.255c-24.994 24.994-65.516 24.994-90.51 0l-215.921-215.921 216.39-216.388 5.015-4.429 0.526-0.41c25.124-19.537 61.418-17.779 84.5 5.303l0.468 0.469 4.428 5.018 0.409 0.525c19.535 25.122 17.775 61.419-5.306 84.501l-61.396 61.41 406.724-0.201c55.829-3.388 100.083-49.775 100.083-106.466 0-58.906-47.761-106.667-106.667-106.667h-106.667v-128l106.667-0.004 9.711 0.201 0.452 0.021c124.894 5.329 224.503 108.258 224.503 234.449 0 129.596-105.067 234.667-234.667 234.667h-400.14l61.865 61.881 4.428 5.014 0.409 0.527c19.535 25.124 17.777 61.418-5.306 84.5z" />
<glyph unicode="&#xe91a;" glyph-name="arrow_large_left" d="M405.098 754.562c25.123 19.535 61.42 17.777 84.498-5.306l0.469-0.468 4.429-5.015 0.41-0.527c19.533-25.123 17.775-61.417-5.308-84.5l-146.682-146.746h592.096v-128h-592.096l147.156-147.213 4.425-5.013 0.41-0.529c19.537-25.122 17.775-61.414-5.308-84.497-24.99-24.994-65.514-24.994-90.508 0l-301.255 301.252 301.723 301.724 5.015 4.429 0.527 0.409z" />
<glyph unicode="&#xe91b;" glyph-name="arrow_large_right" d="M636.578 754.562c-25.122 19.535-61.419 17.777-84.501-5.306l-0.465-0.468-4.429-5.015-0.41-0.527c-19.533-25.123-17.775-61.417 5.303-84.5l146.684-146.746h-592.094v-128h592.094l-147.153-147.213-4.425-5.013-0.41-0.529c-19.537-25.122-17.779-61.414 5.303-84.497 24.994-24.994 65.519-24.994 90.513 0l301.252 301.252-301.722 301.724-5.018 4.429-0.525 0.409z" />
<glyph unicode="&#xe91c;" glyph-name="editing-alignment-right" d="M170.667 874.667h682.667c47.13 0 85.333-38.205 85.333-85.333v-682.667c0-47.13-38.204-85.333-85.333-85.333h-682.667c-47.128 0-85.333 38.204-85.333 85.333v682.667c0 47.128 38.205 85.333 85.333 85.333zM800 661.333c0 17.673-14.327 32-32 32s-32-14.327-32-32v-426.667c0-17.673 14.327-32 32-32s32 14.327 32 32v426.667zM341.333 565.333c-41.237 0-74.667-33.429-74.667-74.667v-85.333c0-41.237 33.429-74.667 74.667-74.667h256c41.237 0 74.667 33.429 74.667 74.667v85.333c0 41.237-33.429 74.667-74.667 74.667h-256zM330.667 490.667c0 5.892 4.776 10.667 10.667 10.667h256c5.892 0 10.667-4.774 10.667-10.667v-85.333c0-5.892-4.774-10.667-10.667-10.667h-256c-5.891 0-10.667 4.774-10.667 10.667v85.333z" />
<glyph unicode="&#xe91d;" glyph-name="arrow_left" d="M642.598 749.255c-24.994 24.994-65.515 24.994-90.509 0l-301.256-301.255 301.721-301.722 5.018-4.429 0.525-0.41c25.126-19.537 61.419-17.779 84.501 5.303l0.469 0.469 4.429 5.018 0.405 0.525c19.537 25.122 17.779 61.419-5.303 84.501l-210.714 210.743 211.183 211.214 4.429 5.015 0.405 0.526c19.537 25.124 17.779 61.418-5.303 84.5z" />
<glyph unicode="&#xe91e;" glyph-name="arrow_right" d="M423.244 754.562c-25.124 19.535-61.418 17.777-84.5-5.306l-0.468-0.468-4.429-5.015-0.409-0.527c-19.535-25.123-17.775-61.417 5.306-84.5l210.713-210.746-211.181-211.213-4.428-5.013-0.409-0.529c-19.535-25.122-17.777-61.414 5.306-84.497 24.993-24.994 65.516-24.994 90.508 0l301.257 301.252-301.722 301.724-5.017 4.429-0.526 0.409z" />
<glyph unicode="&#xe91f;" glyph-name="arrow_surrounded_bent" d="M85.333 448c0-235.648 191.061-426.667 426.667-426.667s426.667 191.019 426.667 426.667c0 235.648-191.061 426.667-426.667 426.667s-426.667-191.019-426.667-426.667zM617.374 598.627c11.358 11.361 29.137 12.393 41.664 3.098l3.588-3.098 150.63-150.627-150.63-150.626c-12.497-12.497-32.755-12.497-45.252 0-11.362 11.358-12.395 29.137-3.098 41.664l3.098 3.588 73.361 73.374h-264.068c-85.521 0-155.361 67.081-159.778 151.502l-0.222 8.498h64c0-50.816 39.468-92.403 89.426-95.778l6.574-0.222h264.068l-73.361 73.373c-11.362 11.361-12.395 29.138-3.098 41.666l3.098 3.589z" />
<glyph unicode="&#xe920;" glyph-name="arrow_surrounded_double_left" d="M512 874.667c-235.605 0-426.667-191.019-426.667-426.667s191.061-426.667 426.667-426.667c235.605 0 426.667 191.019 426.667 426.667s-191.061 426.667-426.667 426.667zM705.293 641.294c11.362-11.361 12.395-29.138 3.098-41.666l-3.098-3.589-148.023-148.039 148.023-148.041c11.362-11.358 12.395-29.137 3.098-41.664l-3.098-3.588c-11.358-11.362-29.137-12.395-41.664-3.098l-3.588 3.098-193.297 193.293 193.297 193.294c12.497 12.497 32.755 12.497 45.252 0zM491.959 641.294c11.362-11.361 12.395-29.138 3.098-41.666l-3.098-3.589-148.024-148.039 148.024-148.041c11.362-11.358 12.395-29.137 3.098-41.664l-3.098-3.588c-11.358-11.362-29.137-12.395-41.664-3.098l-3.588 3.098-193.296 193.293 193.296 193.294c12.497 12.497 32.755 12.497 45.252 0z" />
<glyph unicode="&#xe921;" glyph-name="arrow_surrounded_double_right" d="M512 874.667c-235.605 0-426.667-191.019-426.667-426.667s191.061-426.667 426.667-426.667c235.605 0 426.667 191.019 426.667 426.667s-191.061 426.667-426.667 426.667zM360.372 644.393l3.589-3.098 193.296-193.294-193.296-193.293c-12.497-12.497-32.758-12.497-45.255 0-11.361 11.358-12.393 29.137-3.098 41.664l3.098 3.588 148.025 148.041-148.025 148.039c-11.361 11.361-12.393 29.138-3.098 41.666l3.098 3.589c11.361 11.361 29.138 12.393 41.666 3.098zM573.705 644.393l3.588-3.098 193.297-193.294-193.297-193.293c-12.497-12.497-32.755-12.497-45.252 0-11.362 11.358-12.395 29.137-3.098 41.664l3.098 3.588 148.023 148.041-148.023 148.039c-11.362 11.361-12.395 29.138-3.098 41.666l3.098 3.589c11.358 11.361 29.137 12.393 41.664 3.098z" />
<glyph unicode="&#xe922;" glyph-name="arrow_surrounded_down" d="M938.667 448c0 235.648-191.061 426.667-426.667 426.667s-426.667-191.019-426.667-426.667c0-235.648 191.061-426.667 426.667-426.667s426.667 191.019 426.667 426.667zM660.041 555.961l4.006 3.404c11.238 8.058 26.522 7.956 37.658-0.306l3.588-3.098 3.405-4.009c8.060-11.238 7.957-26.521-0.307-37.657l-3.098-3.588-193.293-193.297-193.294 193.297-3.098 3.588c-9.295 12.527-8.262 30.304 3.098 41.665s29.138 12.393 41.666 3.098l3.589-3.098 148.039-148.025 148.041 148.025z" />
<glyph unicode="&#xe923;" glyph-name="arrow_surrounded_large_back" d="M938.667 448c0 235.648-191.061 426.667-426.667 426.667s-426.667-191.019-426.667-426.667c0-235.648 191.061-426.667 426.667-426.667s426.667 191.019 426.667 426.667zM364.962 644.393c12.527 9.295 30.305 8.262 41.666-3.098s12.393-29.138 3.098-41.666l-3.098-3.589-73.386-73.373 335.964-0.218c72.93-4.079 130.795-64.495 130.795-138.449s-57.865-134.37-130.795-138.449l-7.872-0.218h-54.656v64h54.656l6.127 0.247c38.379 3.115 68.54 35.234 68.54 74.419s-30.161 71.305-68.54 74.419l-6.127 0.247h-328.092l73.386-73.374 3.404-4.006c8.058-11.238 7.956-26.522-0.306-37.658l-3.098-3.588-4.009-3.405c-11.238-8.060-26.522-7.957-37.657 0.307l-3.589 3.098-150.627 150.626 150.627 150.627 3.589 3.098z" />
<glyph unicode="&#xe924;" glyph-name="arrow_surrounded_large_left" d="M938.667 448c0 235.648-191.061 426.667-426.667 426.667s-426.667-191.019-426.667-426.667c0-235.648 191.061-426.667 426.667-426.667s426.667 191.019 426.667 426.667zM471.629 687.059c12.527 9.295 30.306 8.262 41.664-3.098 11.362-11.361 12.395-29.138 3.098-41.666l-3.098-3.589-158.718-158.706h456.092v-64h-456.092l158.718-158.707 3.405-4.006c8.060-11.238 7.957-26.522-0.307-37.658l-3.098-3.588-4.006-3.405c-11.238-8.060-26.522-7.957-37.658 0.307l-3.588 3.098-235.962 235.959 235.962 235.961 3.588 3.098z" />
<glyph unicode="&#xe925;" glyph-name="arrow_surrounded_large_right" d="M938.667 448c0 235.648-191.061 426.667-426.667 426.667s-426.667-191.019-426.667-426.667c0-235.648 191.061-426.667 426.667-426.667s426.667 191.019 426.667 426.667zM514.714 687.365c11.238 8.058 26.522 7.956 37.658-0.306l3.588-3.098 235.964-235.961-235.964-235.959-3.588-3.098c-12.527-9.297-30.306-8.265-41.664 3.098-11.362 11.358-12.395 29.137-3.098 41.664l3.098 3.588 158.647 158.707h-456.021v64h456.107l-158.733 158.706-3.405 4.009c-8.060 11.238-7.957 26.522 0.307 37.657l3.098 3.589 4.006 3.404z" />
<glyph unicode="&#xe926;" glyph-name="arrow_surrounded_large_up_right" d="M938.667 448c0 235.648-191.061 426.667-426.667 426.667s-426.667-191.019-426.667-426.667c0-235.648 191.061-426.667 426.667-426.667s426.667 191.019 426.667 426.667zM426.667 650.667h288v-288l-0.29-4.343c-2.121-15.616-15.509-27.657-31.71-27.657s-29.589 12.041-31.71 27.657l-0.29 4.343-0.013 178.773-329.36-329.399-45.255 45.252 329.345 329.374h-178.718l-4.342 0.292c-14.199 1.926-25.44 13.166-27.366 27.366l-0.292 4.342 0.292 4.342c1.926 14.199 13.166 25.44 27.366 27.366l4.342 0.292z" />
<glyph unicode="&#xe927;" glyph-name="arrow_surrounded_left" d="M938.667 448c0 235.648-191.061 426.667-426.667 426.667s-426.667-191.019-426.667-426.667c0-235.648 191.061-426.667 426.667-426.667s426.667 191.019 426.667 426.667zM535.629 644.393c12.527 9.295 30.306 8.262 41.664-3.098 11.362-11.361 12.395-29.138 3.098-41.666l-3.098-3.589-148.023-148.039 148.023-148.041 3.405-4.006c8.060-11.238 7.957-26.522-0.307-37.658l-3.098-3.588-4.006-3.405c-11.238-8.060-26.522-7.957-37.658 0.307l-3.588 3.098-193.295 193.293 193.295 193.294 3.588 3.098z" />
<glyph unicode="&#xe928;" glyph-name="arrow_surrounded_right" horiz-adv-x="1045" d="M938.982 448c0 235.648-191.061 426.667-426.667 426.667s-426.667-191.019-426.667-426.667c0-235.648 191.062-426.667 426.667-426.667s426.667 191.019 426.667 426.667zM447.021 641.295l4.009 3.403c11.238 8.060 26.522 7.957 37.658-0.305l3.588-3.098 193.295-193.295-193.295-193.295-3.588-3.098c-12.527-9.295-30.306-8.262-41.666 3.098-11.36 11.362-12.393 29.139-3.098 41.666l3.098 3.59 148.026 148.038-148.026 148.038-3.405 4.009c-8.058 11.238-7.955 26.522 0.307 37.658l3.098 3.59z" />
<glyph unicode="&#xe929;" glyph-name="arrow_surrounded_top" d="M938.667 448c0 235.648-191.061 426.667-426.667 426.667s-426.667-191.019-426.667-426.667c0-235.648 191.061-426.667 426.667-426.667s426.667 191.019 426.667 426.667zM318.706 385.293l193.294 193.295 193.293-193.295 3.098-3.588c9.297-12.527 8.265-30.306-3.098-41.664-11.358-11.362-29.137-12.395-41.664-3.098l-3.588 3.098-148.041 148.023-148.039-148.023-4.009-3.405c-11.238-8.060-26.522-7.957-37.657 0.307l-3.589 3.098-3.404 4.006c-8.058 11.238-7.956 26.522 0.306 37.658l3.098 3.588z" />
<glyph unicode="&#xe92a;" glyph-name="arrow_top" d="M813.252 365.244l-301.252 301.256-301.724-301.721-4.429-5.018-0.409-0.525c-19.535-25.126-17.777-61.419 5.306-84.501l0.468-0.469 5.015-4.429 0.527-0.405c25.124-19.537 61.417-17.779 84.5 5.303l210.746 210.714 211.213-211.183 5.013-4.429 0.529-0.405c25.122-19.537 61.414-17.779 84.497 5.303 24.994 24.994 24.994 65.515 0 90.509z" />
<glyph unicode="&#xe92b;" glyph-name="brands_digiposte" d="M938.667 768c0 58.91-47.757 106.667-106.667 106.667h-640c-58.91 0-106.667-47.756-106.667-106.667v-640c0-58.91 47.756-106.667 106.667-106.667h640c58.91 0 106.667 47.757 106.667 106.667v640zM298.667 696.889h231.113c127.637 0 231.108-103.472 231.108-231.11 0-127.642-103.471-231.113-231.108-231.113h-88.892v71.113h88.892c88.363 0 160 71.633 160 160 0 88.364-71.637 159.999-160 159.999h-160.001v-391.111h-71.111v462.222z" />
<glyph unicode="&#xe92c;" glyph-name="brands_facebook" d="M938.667 768c0 58.91-47.757 106.667-106.667 106.667h-640c-58.91 0-106.667-47.756-106.667-106.667v-640c0-58.91 47.756-106.667 106.667-106.667h640c58.91 0 106.667 47.757 106.667 106.667v640zM569.463 768h84.164v-104.172h-52.608c-39.351 0-41.954-14.556-41.954-41.723l-0.145-52.133h95.3l-11.149-104.16h-84.151v-302.259h-126.127v302.246h-63.016v104.16h63.016v62.537c0 84.974 35.58 135.502 136.67 135.502z" />
<glyph unicode="&#xe92d;" glyph-name="brands_instagram" d="M512 550.4c56.55 0 102.4-45.841 102.4-102.4 0-56.55-45.85-102.4-102.4-102.4-56.559 0-102.4 45.85-102.4 102.4 0 56.559 45.841 102.4 102.4 102.4zM366.933 721.067c-70.692 0-128-57.308-128-128v-290.133c0-70.694 57.308-128 128-128h290.133c70.694 0 128 57.306 128 128v290.133c0 70.692-57.306 128-128 128h-290.133zM512 618.667c94.251 0 170.667-76.405 170.667-170.667 0-94.251-76.416-170.667-170.667-170.667-94.261 0-170.667 76.416-170.667 170.667 0 94.261 76.405 170.667 170.667 170.667zM640 618.674c0 23.567 19.11 42.659 42.667 42.659s42.667-19.1 42.667-42.659c0-23.56-19.11-42.674-42.667-42.674s-42.667 19.114-42.667 42.674zM832 874.667h-640c-58.91 0-106.667-47.756-106.667-106.667v-640c0-58.91 47.756-106.667 106.667-106.667h640c58.91 0 106.667 47.757 106.667 106.667v640c0 58.91-47.757 106.667-106.667 106.667zM170.667 576c0 117.821 95.513 213.333 213.333 213.333h256c117.82 0 213.333-95.513 213.333-213.333v-256c0-117.82-95.514-213.333-213.333-213.333h-256c-117.821 0-213.333 95.514-213.333 213.333v256z" />
<glyph unicode="&#xe92e;" glyph-name="brands_lapostenet" d="M938.667 768c0 58.91-47.757 106.667-106.667 106.667h-640c-58.91 0-106.667-47.756-106.667-106.667v-640c0-58.91 47.756-106.667 106.667-106.667h640c58.91 0 106.667 47.757 106.667 106.667v640zM177.411 677.516c4.393 13.582 15.413 23.425 28.589 26.279 2.893 0.635 4.446 0.829 5.665 0.878l451.665-0.003c21.235 0 38.451-18.717 38.451-40.674 0-21.962-17.216-38.921-38.451-38.921h-353.292c4.052-0.188 21.826-3.419 49.201-23.185l175.276-135.915 273.707 171.712c12.122 7.233 17.421 8.55 25.421 8.672 21.239 0.329 38.455-17.805 38.455-39.762v-307.133c0-51.9-40.806-92.557-92.898-92.557h-525.318c-52.094 0-92.895 40.657-92.895 92.557v198.622c0 21.961 17.215 39.766 38.454 39.766 21.235 0 38.45-17.806 38.45-39.766v-198.622c0-10.287 10.056-13.030 15.991-13.030h525.318c5.939 0 15.996 2.743 15.996 13.030v215.612c0.516 14.315 9.792 25.612 13.15 29.247l1.199 1.237-257.357-161.518c-6.148-3.861-13.052-5.769-19.942-5.769-8.149 0-16.269 2.671-23.074 7.953l-318.362 246.866c-13.253 10.276-18.652 28.175-13.399 44.422z" />
<glyph unicode="&#xe92f;" glyph-name="brands_linkedin" d="M938.667 768v-640c0-58.91-47.757-106.667-106.667-106.667h-640c-58.91 0-106.667 47.757-106.667 106.667v640c0 58.91 47.756 106.667 106.667 106.667h640c58.91 0 106.667-47.756 106.667-106.667zM234.766 558.971v-359.85h121.935v359.85h-121.935zM656.051 567.421c-58.854 0-88.158-28.866-105.161-52.524l-4.749-6.903v50.968h-121.948l0.379-17.332c0.298-24.357 0.367-68.137 0.323-116.436l-0.702-226.082h121.948v200.969c0 10.756 0.794 21.483 4.019 29.184 8.811 21.487 28.877 43.729 62.562 43.729 42.223 0 60.203-30.191 61.687-75.136l0.098-6.217v-192.521h121.933l0.004 206.327c0 110.528-60.156 161.973-140.395 161.973zM227.555 670.288c0-32.825 23.884-59.418 61.37-61.995l6.81-0.205c42.516 0 68.996 27.648 68.996 62.2-0.791 35.283-26.479 62.157-68.192 62.157s-68.984-26.874-68.984-62.157z" />
<glyph unicode="&#xe930;" glyph-name="brands_twitter" d="M500.908 587.767l1.665-25.836-27.746 3.164c-100.996 12.127-189.229 53.255-264.143 122.327l-36.625 34.273-9.434-25.309c-19.977-56.418-7.214-116 34.405-156.073 22.197-22.145 17.203-25.309-21.087-12.127-13.318 4.218-24.972 7.382-26.081 5.8-3.884-3.691 9.434-51.673 19.977-70.655 14.428-26.364 43.839-52.2 76.024-67.491l27.191-12.127-32.185-0.527c-31.076 0-32.185-0.527-28.856-11.6 11.098-34.273 54.937-70.655 103.77-86.473l34.405-11.073-29.966-16.873c-44.394-24.255-96.556-37.964-148.719-39.018-24.972-0.527-45.504-2.636-45.504-4.218 0-5.273 67.701-34.8 107.1-46.4 118.198-34.273 258.594-19.509 364.029 39.018 74.915 41.655 149.829 124.436 184.789 204.582 18.867 42.709 37.735 120.745 37.735 158.182 0 24.255 1.665 27.418 32.74 56.418 18.312 16.873 35.515 35.327 38.845 40.6 5.549 10.018 4.994 10.018-23.307 1.055-47.168-15.818-53.827-13.709-30.521 10.018 17.203 16.873 37.735 47.455 37.735 56.418 0 1.582-8.324-1.055-17.758-5.8-9.989-5.273-32.185-13.182-48.833-17.927l-29.966-8.964-27.191 17.4c-14.983 9.491-36.070 20.036-47.168 23.2-28.301 7.382-71.585 6.327-97.111-2.109-69.365-23.727-113.204-84.891-108.21-151.854z" />
<glyph unicode="&#xe931;" glyph-name="brands_youtube" d="M875.759 789.13l-8.316 0.204-719.485-0.218c-79.718-4.045-143.568-63.989-147.741-138.76l-0.217-7.796v-389.12l0.232-8.064c4.315-74.735 68.255-134.592 148.011-138.505l8.315-0.205 719.482 0.218c79.718 4.045 143.569 63.987 147.742 138.761l0.218 7.795v389.12l-0.23 8.062c-4.318 74.736-68.258 134.596-148.011 138.508zM682.667 448l-298.667-170.667v341.333l298.667-170.667z" />
<glyph unicode="&#xe932;" glyph-name="cart_add" d="M768 448c141.396 0 256-114.62 256-256s-114.604-256-256-256c-141.396 0-256 114.62-256 256s114.604 256 256 256zM512 917.333c91.406 0 166.020-71.843 170.458-162.148l0.209-8.519v-42.667h170.667v-213.333h-85.333v128h-85.333v-85.333h-85.333v85.333h-170.667v-85.333h-85.333v85.333h-85.333v-512c0-21.858 16.492-39.912 37.695-42.379l4.971-0.287h213.333v-85.333h-213.333c-68.144 0-123.888 53.31-127.783 120.481l-0.217 7.519v597.333h170.667v42.667c0 94.263 76.404 170.667 170.667 170.667zM768 362.667c-94.265 0-170.667-76.412-170.667-170.667s76.402-170.667 170.667-170.667c94.265 0 170.667 76.412 170.667 170.667s-76.402 170.667-170.667 170.667zM768 320c21.881 0 39.915-16.471 42.38-37.691l0.287-4.976v-42.667h42.667c23.564 0 42.667-19.103 42.667-42.667 0-21.881-16.471-39.915-37.691-42.38l-4.976-0.287h-42.667v-42.667c0-23.564-19.103-42.667-42.667-42.667-21.881 0-39.915 16.471-42.38 37.691l-0.287 4.976v42.667h-42.667c-23.564 0-42.667 19.103-42.667 42.667 0 21.881 16.471 39.915 37.691 42.38l4.976 0.287h42.667v42.667c0 23.564 19.103 42.667 42.667 42.667zM512 832c-44.992 0-81.842-34.805-85.099-78.964l-0.234-6.369v-42.667h170.667v42.667c0 47.135-38.199 85.333-85.333 85.333z" />
<glyph unicode="&#xe933;" glyph-name="cart_credit_card" d="M853.333 789.333c68.144 0 123.888-53.31 127.783-120.481l0.217-7.519v-426.667c0-68.144-53.31-123.888-120.481-127.783l-7.519-0.217h-682.667c-68.144 0-123.888 53.31-127.783 120.481l-0.217 7.519v426.667c0 68.144 53.31 123.888 120.481 127.783l7.519 0.217h682.667zM896 533.333h-768v-298.667c0-21.858 16.492-39.912 37.695-42.379l4.971-0.287h682.667c21.858 0 39.912 16.492 42.379 37.695l0.287 4.971v298.667zM725.333 448c47.104 0 85.333-38.229 85.333-85.333s-38.229-85.333-85.333-85.333c-25.483 0-48.369 11.189-64.009 28.919-15.622-17.73-38.508-28.919-63.991-28.919-47.104 0-85.333 38.229-85.333 85.333s38.229 85.333 85.333 85.333c25.483 0 48.369-11.189 64.009-28.919 15.622 17.73 38.508 28.919 63.991 28.919zM298.667 405.333c23.564 0 42.667-19.103 42.667-42.667 0-21.881-16.471-39.915-37.691-42.38l-4.976-0.287h-85.333c-23.564 0-42.667 19.103-42.667 42.667 0 21.881 16.471 39.915 37.691 42.38l4.976 0.287h85.333zM853.333 704h-682.667c-21.858 0-39.912-16.492-42.379-37.695l-0.287-4.971v-42.667h768v42.667c0 23.54-19.127 42.667-42.667 42.667z" />
<glyph unicode="&#xe934;" glyph-name="cart_feedback" d="M512 917.333c91.406 0 166.020-71.843 170.458-162.148l0.209-8.519v-42.667h170.667v-597.333c0-68.144-53.31-123.888-120.481-127.783l-7.519-0.217h-426.667c-68.144 0-123.888 53.31-127.783 120.481l-0.217 7.519v597.333h170.667v42.667c0 94.263 76.404 170.667 170.667 170.667zM341.333 618.667h-85.333v-512c0-20.177 14.052-37.112 32.891-41.539l4.804-0.841 4.971-0.287h426.667c21.858 0 39.912 16.492 42.379 37.695l0.287 4.971v512h-85.333v-85.333h-85.333v85.333h-170.667v-85.333h-85.333v85.333zM670.17 435.503c15.381-15.381 16.564-39.583 3.549-56.32l-3.549-4.020-170.667-170.667c-15.381-15.381-39.583-16.564-56.32-3.549l-4.020 3.549-85.333 85.333c-16.662 16.662-16.662 43.677 0 60.34 15.381 15.381 39.583 16.564 56.32 3.549l4.020-3.549 55.163-55.13 140.497 140.463c16.662 16.662 43.677 16.662 60.34 0zM512 832c-44.992 0-81.842-34.805-85.099-78.964l-0.234-6.369v-42.667h170.667v42.667c0 47.135-38.199 85.333-85.333 85.333z" />
<glyph unicode="&#xe935;" glyph-name="cart_full" d="M512 917.333c91.406 0 166.020-71.843 170.458-162.148l0.209-8.519v-42.667h128v-85.333h-128v-85.333h-85.333v85.333h-170.667v-85.333h-85.333v85.333h-85.333v-512c0-21.858 16.492-39.912 37.695-42.379l4.971-0.287h426.667c21.858 0 39.912 16.492 42.379 37.695l0.287 4.971h85.333c0-68.144-53.31-123.888-120.481-127.783l-7.519-0.217h-426.667c-68.144 0-123.888 53.31-127.783 120.481l-0.217 7.519v597.333h170.667v42.667c0 94.263 76.404 170.667 170.667 170.667zM512 832c-44.992 0-81.842-34.805-85.099-78.964l-0.234-6.369v-42.667h170.667v42.667c0 47.135-38.199 85.333-85.333 85.333z" />
<glyph unicode="&#xe936;" glyph-name="cart_lock" d="M512 789.333c91.406 0 166.020-71.843 170.458-162.148l0.209-8.519v-85.333h42.667c45.007 0 81.844-34.814 85.099-78.965l0.234-6.368v-298.667c0-44.982-34.79-81.841-78.962-85.099l-6.371-0.234h-426.667c-45.007 0-81.844 34.814-85.099 78.965l-0.234 6.368v298.667c0 44.982 34.79 81.841 78.962 85.099l6.371 0.234h42.667v85.333c0 94.263 76.404 170.667 170.667 170.667zM725.333 448h-426.667v-298.667h426.667v298.667zM512 704c-44.992 0-81.842-34.805-85.099-78.964l-0.234-6.369v-85.333h170.667v85.333c0 47.135-38.199 85.333-85.333 85.333z" />
<glyph unicode="&#xe937;" glyph-name="cart_piggybank" d="M754.849 742.179c81.181-46.134 140.814-121.133 167.795-208.795l5.846-0.010 6.322 0.375 3.897 0.694 0.244 3.867c2.275 19.587 17.816 35.129 37.404 37.404l4.976 0.287c23.564 0 42.667-19.103 42.667-42.667 0-43.384-25.689-71.367-62.373-81.157-8.413-2.245-15.626-3.342-23.632-3.83 0.442-7.154 0.659-14.389 0.659-21.662 0-107.018-46.835-206.384-125.717-273.854l-2.313-1.875 0.030-172.271c0-21.881-16.471-39.915-37.691-42.38l-4.976-0.287h-128c-21.881 0-39.915 16.471-42.38 37.691l-0.287 4.976-0.030 22.81-10.541-2.599c-47.067-10.61-102.764-10.527-149.797 0.248l-10.329 2.607 0.030-23.066c0-21.881-16.471-39.915-37.691-42.38l-4.976-0.287h-128c-21.881 0-39.915 16.471-42.38 37.691l-0.287 4.976-0.030 133.53-7.805 2.175c-25.342 8.020-48.12 21.982-68.246 40.362l-7.423 7.097c-7.381 7.381-13.836 14.756-19.401 21.853l-6.225 8.343-61.538-0.026c-21.881 0-39.915 16.471-42.38 37.691l-0.287 4.976v256c0 21.881 16.471 39.915 37.691 42.38l4.976 0.287 58.765 0.026 1.028 3.436c26.165 81.854 80.795 152.019 153.738 197.634l11.077 6.656c20.411 11.776 46.503 4.777 58.279-15.634s4.777-46.503-15.634-58.279c-68.663-39.616-117.721-107.033-133.676-185.053-3.722-18.203-18.714-31.703-36.799-33.826l-5.003-0.292-49.139 0.026v-170.667l42.697-0.026c14.365 0 27.635-7.214 35.482-18.97l2.68-4.616c3.449-6.899 11.691-19.261 24.008-31.578 17.134-17.134 36.253-27.646 57.684-29.77l8.146-0.4c21.881 0 39.915-16.471 42.38-37.691l0.287-4.976-0.030-127.974h42.667l0.030 49.468c0 37.904 45.146 56.257 71.638 31.354l3.344-3.495c25.601-29.698 165.795-29.852 191.499-0.317 24.822 28.52 70.812 12.885 74.601-23.191l0.25-4.82-0.030-48.998h42.667l0.030 150.161c0 11.824 4.901 23.036 13.399 31.046l3.858 3.229c69.092 51.221 110.743 132.541 110.743 220.872 0 100.868-54.401 192.301-140.633 241.305-20.487 11.642-27.657 37.689-16.015 58.176s37.689 27.657 58.176 16.015zM512 960c70.668 0 128-57.332 128-128 0-38.867-17.343-73.701-44.709-97.18 22.647-6.497 44.454-15.755 65.001-27.526 20.447-11.714 27.526-37.785 15.812-58.231s-37.785-27.526-58.231-15.812c-31.993 18.329-68.197 28.104-105.895 28.104-38.289 0-75.031-10.081-107.398-28.961-20.354-11.873-46.48-4.998-58.353 15.356s-4.998 46.48 15.356 58.353c21.158 12.342 43.677 22.006 67.118 28.802-27.367 23.409-44.702 58.236-44.702 97.095 0 70.668 57.332 128 128 128zM512 874.667c-23.54 0-42.667-19.127-42.667-42.667s19.127-42.667 42.667-42.667c23.54 0 42.667 19.127 42.667 42.667s-19.127 42.667-42.667 42.667z" />
<glyph unicode="&#xe938;" glyph-name="cart_reload" d="M768 448c141.385 0 256-114.615 256-256s-114.615-256-256-256c-138.172 0-250.776 109.465-255.823 246.403l-0.177 9.597v3.669l-33.83-33.839c-15.381-15.381-39.583-16.564-56.32-3.549l-4.020 3.549c-15.381 15.381-16.564 39.583-3.549 56.32l3.549 4.020 106.667 106.667c15.381 15.381 39.583 16.564 56.32 3.549l4.020-3.549 106.667-106.667c16.662-16.662 16.662-43.677 0-60.34-15.381-15.381-39.583-16.564-56.32-3.549l-4.020 3.549-33.83 33.797v-3.627c0-94.257 76.41-170.667 170.667-170.667s170.667 76.41 170.667 170.667c0 94.257-76.41 170.667-170.667 170.667-42.865 0-73.288-9.042-93.098-25.816l-4.732-4.354-60.34 60.34c37.331 37.331 90.829 55.163 158.17 55.163zM512 917.333c91.4 0 166.019-71.849 170.458-162.149l0.209-8.518v-42.667h170.667v-213.333h-85.333v128h-85.333v-64h-85.333v64h-170.667v-64h-85.333v64h-85.333v-512c0-21.881 16.471-39.915 37.691-42.38l4.976-0.287h213.333v-85.333h-213.333c-68.168 0-123.89 53.287-127.783 120.479l-0.217 7.521v597.333h170.667v42.667c0 94.257 76.41 170.667 170.667 170.667zM512 832c-44.986 0-81.842-34.811-85.099-78.965l-0.234-6.369v-42.667h170.667v42.667c0 47.128-38.205 85.333-85.333 85.333z" />
<glyph unicode="&#xe939;" glyph-name="cart_savings" d="M760.159 936.477c41.907-13.969 53.517-53.722 54.911-113.613 0.338-14.511-0.106-29.571-1.124-44.656l-0.378-4.533 9.259-5.061c34.994-20.263 62.096-49.248 81.871-84.566l5.212-9.787c13.369-26.414 21.671-52.523 26.383-75.955l0.582-3.362h1.792c45.015 0 81.844-34.783 85.099-78.961l0.234-6.372v-168.277c0-44.982-34.79-81.841-78.962-85.099l-6.371-0.234h-19.243l-0.356-0.57c-16.408-23.76-40.133-52.128-71.386-80.903l-10.697-9.601c-7.973-6.977-16.149-13.698-24.529-20.145l18.716-93.747c4.621-23.107-10.364-45.584-33.47-50.206-21.456-4.291-42.37 8.323-48.948 28.648l-1.257 4.823-12.395 62.142c-7.978-3.93-16.101-7.63-24.367-11.090-34.603-14.47-73.008-21.351-113.4-21.351-2.785 0-5.508 0.267-8.145 0.777-31.559-78.65-151.804-128.777-290.522-128.777-161.917 0-298.667 68.296-298.667 170.667v256l0.22 7.081c6.154 98.358 140.301 163.585 298.446 163.585s292.292-65.227 298.446-163.585l0.22-7.081v-213.333c29.621 0 56.911 4.889 80.468 14.741 37.678 15.767 72.038 37.989 102.991 65.072 23.127 20.236 42.994 41.965 59.492 63.619l7.46 10.089 5.764 8.318 5.448 8.663c6.752 11.817 18.673 19.612 31.992 21.198l5.053 0.3h42.667v168.277h-39.893c-21.599 0-39.502 16.064-42.29 36.979l-0.71 10.686-0.965 8.554c-0.442 3.272-1.014 6.943-1.739 10.951-3.667 20.272-9.951 40.48-19.297 58.945-17.249 34.080-42.76 58.295-79.265 70.464-19.53 6.51-31.626 26.037-28.758 46.422l2.018 18.295c1.561 17.069 2.358 34.29 1.993 49.971-0.3 12.873-1.393 23.814-3.15 31.9l-0.85 3.244-3.208-0.598-3.731-0.973c-14.134-4.24-31.898-15.563-50.552-31.848-9.747-8.509-19.045-17.74-27.488-26.967l-7.292-8.216-2.837-3.407c-8.974-11.217-22.897-17.072-36.978-15.857l-12.204 1.98-7.855 1.055c-62.213 7.556-133.332 0.707-199.696-31.182-69.732-33.508-125.808-91.623-164.034-180.816-9.282-21.659-34.365-31.692-56.024-22.41s-31.692 34.365-22.41 56.024c46.402 108.272 117.268 181.715 205.509 224.116 78.296 37.623 159.754 47.238 233.257 40.442l10.264-1.088 3.525 3.717c6.080 6.36 12.925 13.115 20.427 19.988l7.717 6.902c27.008 23.578 54.211 40.917 82.152 49.299 22.402 6.721 44.667 7.357 65.859 0.293zM512 113.218l-8.918-4.91c-54.146-28.347-126.751-44.308-204.416-44.308-82.101 0-158.547 17.836-213.321 49.124l-0.012-6.458c0-39.135 92.503-85.333 213.333-85.333s213.333 46.198 213.333 85.333v6.551zM512.019 240.815c-54.689-31.019-130.747-48.815-213.352-48.815-82.584 0-158.624 17.787-213.31 48.791l-0.023-6.125c0-9.321 5.756-19.838 19.813-31.737 36.841-31.882 110.465-53.597 193.52-53.597s156.679 21.715 193.88 53.904c13.698 11.591 19.454 22.108 19.454 31.429l0.019 6.148zM298.667 448c-120.828 0-213.333-46.247-213.333-85.333s92.505-85.333 213.333-85.333c120.828 0 213.333 46.247 213.333 85.333s-92.505 85.333-213.333 85.333zM725.333 661.333c23.595 0 42.667-19.115 42.667-42.667s-19.072-42.667-42.667-42.667c-23.595 0-42.667 19.115-42.667 42.667s19.072 42.667 42.667 42.667z" />
<glyph unicode="&#xe93a;" glyph-name="cart_simple" d="M512 917.333c91.406 0 166.020-71.843 170.458-162.148l0.209-8.519v-42.667h170.667v-597.333c0-68.144-53.31-123.888-120.481-127.783l-7.519-0.217h-426.667c-68.144 0-123.888 53.31-127.783 120.481l-0.217 7.519v597.333h170.667v42.667c0 94.263 76.404 170.667 170.667 170.667zM768 618.667h-85.333v-85.333h-85.333v85.333h-170.667v-85.333h-85.333v85.333h-85.333v-512c0-20.177 14.052-37.112 32.891-41.539l4.804-0.841 4.971-0.287h426.667c21.858 0 39.912 16.492 42.379 37.695l0.287 4.971v512zM512 832c-44.992 0-81.842-34.805-85.099-78.964l-0.234-6.369v-42.667h170.667v42.667c0 47.135-38.199 85.333-85.333 85.333z" />
<glyph unicode="&#xe93b;" glyph-name="editing_account_activ" d="M647.076 397.825l7.712-1.076c5.179-0.877 10.312-2.074 15.367-3.59 4.106-1.219 8.142-2.655 12.11-4.299l8.362-3.826 21.269-10.592c34.883-17.492 65.069-42.519 88.551-73.155 14.335-18.702 10.795-45.484-7.907-59.819s-45.484-10.795-59.819 7.907c-13.416 17.503-30.114 32.259-49.22 43.443l-9.749 5.291-21.289 10.602c-6.716 3.372-14.145 4.866-21.54 4.425l-5.52-0.699-5.446-1.426-54.016-18.005c-17.499-5.833-35.72-8.75-53.94-8.75-14.585 0.004-29.162 1.871-43.369 5.604l-10.58 3.15-54.016 18.005c-1.989 0.663-4.008 1.175-6.042 1.537-3.492 0.614-6.999 0.793-10.477 0.543l-6.985-1.082c-1.301-0.326-2.608-0.71-3.899-1.158l-5.199-2.196-21.089-10.523c-55.072-27.536-90.819-82.438-94.098-143.448l-0.247-9.195v-38.827c0-21.858 16.492-39.912 37.695-42.379l4.971-0.287h213.333c23.564 0 42.667-19.103 42.667-42.667 0-21.881-16.471-39.915-37.691-42.38l-4.976-0.287h-213.333c-68.144 0-123.888 53.31-127.783 120.481l-0.217 7.519v38.827c0 93.506 50.939 179.259 132.374 224.163l9.173 4.82 21.048 10.511c7.467 3.741 15.218 6.715 23.142 8.912 9.666 2.678 19.583 4.202 29.554 4.559 12.124 0.437 24.305-0.851 36.2-3.886l8.861-2.604 54.016-18.005c14.985-4.995 31.046-5.708 46.338-2.141l7.573 2.141 54.016 18.005c14.664 4.888 29.929 7.036 45.058 6.5l9.055-0.644zM883.503 179.503c15.381-15.381 16.564-39.583 3.549-56.32l-3.549-4.020-128-128c-15.381-15.381-39.583-16.564-56.32-3.549l-4.020 3.549-85.333 85.333c-16.662 16.662-16.662 43.677 0 60.34 15.381 15.381 39.583 16.564 56.32 3.549l4.020-3.549 55.163-55.13 97.83 97.797c16.662 16.662 43.677 16.662 60.34 0zM512 874.667c117.815 0 213.333-95.519 213.333-213.333s-95.519-213.333-213.333-213.333c-117.815 0-213.333 95.519-213.333 213.333s95.519 213.333 213.333 213.333zM512 789.333c-70.687 0-128-57.313-128-128s57.313-128 128-128c70.687 0 128 57.313 128 128s-57.313 128-128 128z" />
<glyph unicode="&#xe93c;" glyph-name="editing_address_book_add" d="M810.667 874.667c45.007 0 81.844-34.814 85.099-78.965l0.234-6.368v-298.667c0-3.475-0.416-6.854-1.2-10.088 78.046-53.851 129.2-143.921 129.2-245.912 0-164.919-133.748-298.667-298.667-298.667-81.456 0-155.308 32.628-209.196 85.526l-4.137-0.192h-256c-45.007 0-81.844 34.814-85.099 78.965l-0.234 6.368v42.667h-42.667c-23.564 0-42.667 19.103-42.667 42.667 0 21.881 16.471 39.915 37.691 42.38l4.976 0.287h42.667v85.333h-42.667c-23.564 0-42.667 19.103-42.667 42.667 0 21.881 16.471 39.915 37.691 42.38l4.976 0.287h42.667v85.333h-42.667c-23.564 0-42.667 19.103-42.667 42.667 0 21.881 16.471 39.915 37.691 42.38l4.976 0.287h42.667v85.333h-42.667c-23.564 0-42.667 19.103-42.667 42.667 0 21.881 16.471 39.915 37.691 42.38l4.976 0.287h42.667v42.667c0 44.982 34.79 81.841 78.962 85.099l6.371 0.234h554.667zM725.333 448c-117.791 0-213.333-95.543-213.333-213.333s95.543-213.333 213.333-213.333c117.791 0 213.333 95.543 213.333 213.333s-95.543 213.333-213.333 213.333zM810.667 789.333h-554.667v-682.667l199.428-0.018c-18.442 38.802-28.762 82.207-28.762 128.018 0 52.659 13.636 102.14 37.569 145.104l-16.227-0.024c-26.069 0-46.933 20.907-46.933 46.933v15.36c0 37.547 20.864 71.253 54.187 87.893l8.533 4.267c0.427 0 0.427 0 0.427 0.427 11.051 5.12 23.040 5.973 34.56 2.56v-0.427h0.853l21.76-7.253c7.68-2.56 16.171-2.56 23.893 0l21.76 7.253c11.947 3.84 24.747 2.987 35.84-2.56l8.533-4.267c6.707-3.422 12.931-7.503 18.588-12.158 29.908 10.090 61.979 15.558 95.324 15.558 29.663 0 58.318-4.327 85.367-12.384l-0.034 268.384zM725.333 362.667c21.881 0 39.915-16.471 42.38-37.691l0.287-4.976v-42.667h42.667c23.564 0 42.667-19.103 42.667-42.667 0-21.881-16.471-39.915-37.691-42.38l-4.976-0.287h-42.667v-42.667c0-23.564-19.103-42.667-42.667-42.667-21.881 0-39.915 16.471-42.38 37.691l-0.287 4.976v42.667h-42.667c-23.564 0-42.667 19.103-42.667 42.667 0 21.881 16.471 39.915 37.691 42.38l4.976 0.287h42.667v42.667c0 23.564 19.103 42.667 42.667 42.667zM533.316 729.609c44.715 0 81.109-36.352 81.109-81.067s-36.395-81.067-81.109-81.067c-44.672 0-81.067 36.352-81.067 81.067s36.395 81.067 81.067 81.067z" />
<glyph unicode="&#xe93d;" glyph-name="editing_address_book_added" d="M810.667 874.667c45.007 0 81.844-34.814 85.099-78.965l0.234-6.368v-298.667c0-3.475-0.416-6.854-1.2-10.088 78.046-53.851 129.2-143.921 129.2-245.912 0-164.919-133.748-298.667-298.667-298.667-81.456 0-155.308 32.628-209.196 85.526l-4.137-0.192h-256c-45.007 0-81.844 34.814-85.099 78.965l-0.234 6.368v42.667h-42.667c-23.564 0-42.667 19.103-42.667 42.667 0 21.881 16.471 39.915 37.691 42.38l4.976 0.287h42.667v85.333h-42.667c-23.564 0-42.667 19.103-42.667 42.667 0 21.881 16.471 39.915 37.691 42.38l4.976 0.287h42.667v85.333h-42.667c-23.564 0-42.667 19.103-42.667 42.667 0 21.881 16.471 39.915 37.691 42.38l4.976 0.287h42.667v85.333h-42.667c-23.564 0-42.667 19.103-42.667 42.667 0 21.881 16.471 39.915 37.691 42.38l4.976 0.287h42.667v42.667c0 44.982 34.79 81.841 78.962 85.099l6.371 0.234h554.667zM725.333 448c-117.791 0-213.333-95.543-213.333-213.333s95.543-213.333 213.333-213.333c117.791 0 213.333 95.543 213.333 213.333s-95.543 213.333-213.333 213.333zM810.667 789.333h-554.667v-682.667l199.428-0.018c-18.442 38.802-28.762 82.207-28.762 128.018 0 52.659 13.636 102.14 37.569 145.104l-16.227-0.024c-26.069 0-46.933 20.907-46.933 46.933v15.36c0 37.547 20.864 71.253 54.187 87.893l8.533 4.267c0.427 0 0.427 0 0.427 0.427 11.051 5.12 23.040 5.973 34.56 2.56v-0.427h0.853l21.76-7.253c7.68-2.56 16.171-2.56 23.893 0l21.76 7.253c11.947 3.84 24.747 2.987 35.84-2.56l8.533-4.267c6.707-3.422 12.931-7.503 18.588-12.158 29.908 10.090 61.979 15.558 95.324 15.558 29.663 0 58.318-4.327 85.367-12.384l-0.034 268.384zM862.17 328.837c15.381-15.381 16.564-39.583 3.549-56.32l-3.549-4.020-106.667-106.667c-15.381-15.381-39.583-16.564-56.32-3.549l-4.020 3.549-64 64c-16.662 16.662-16.662 43.677 0 60.34 15.381 15.381 39.583 16.564 56.32 3.549l4.020-3.549 33.83-33.797 76.497 76.463c16.662 16.662 43.677 16.662 60.34 0zM533.316 729.609c44.715 0 81.109-36.352 81.109-81.067s-36.395-81.067-81.109-81.067c-44.672 0-81.067 36.352-81.067 81.067s36.395 81.067 81.067 81.067z" />
<glyph unicode="&#xe93e;" glyph-name="editing_address_book" d="M810.667 874.667c45.007 0 81.844-34.814 85.099-78.965l0.234-6.368v-682.667c0-44.982-34.79-81.841-78.962-85.099l-6.371-0.234h-554.667c-45.007 0-81.844 34.814-85.099 78.965l-0.234 6.368v42.667h-42.667c-23.564 0-42.667 19.103-42.667 42.667 0 21.881 16.471 39.915 37.691 42.38l4.976 0.287h42.667v85.333h-42.667c-23.564 0-42.667 19.103-42.667 42.667 0 21.881 16.471 39.915 37.691 42.38l4.976 0.287h42.667v85.333h-42.667c-23.564 0-42.667 19.103-42.667 42.667 0 21.881 16.471 39.915 37.691 42.38l4.976 0.287h42.667v85.333h-42.667c-23.564 0-42.667 19.103-42.667 42.667 0 21.881 16.471 39.915 37.691 42.38l4.976 0.287h42.667v42.667c0 44.982 34.79 81.841 78.962 85.099l6.371 0.234h554.667zM810.667 789.333h-554.667v-682.667h554.667v682.667zM602.948 534.199l8.405-4.267c33.451-16.725 54.229-50.347 54.229-87.723v-15.531c0-25.941-20.949-46.933-46.933-46.933h-170.667c-25.941 0-46.891 20.992-46.891 46.933v15.531c0 37.376 20.779 70.997 54.229 87.723l9.045 4.608c10.752 5.12 22.869 5.973 34.304 2.56l0.213-0.171h0.341l0.128-0.171 21.845-7.168c7.893-2.731 16.384-2.56 24.277 0l21.632 7.168c11.819 3.925 24.619 3.072 35.84-2.56zM533.316 729.609c44.715 0 81.109-36.352 81.109-81.067s-36.395-81.067-81.109-81.067c-44.672 0-81.067 36.352-81.067 81.067s36.395 81.067 81.067 81.067z" />
<glyph unicode="&#xe93f;" glyph-name="editing_adjustment" d="M640 384c67.661 0 124.799-44.977 143.152-106.669l112.848 0.002c23.564 0 42.667-19.103 42.667-42.667 0-21.881-16.471-39.915-37.691-42.38l-4.976-0.287-112.86-0.040c-18.367-61.671-75.494-106.626-143.14-106.626s-124.772 44.956-143.14 106.626l-368.86 0.040c-23.564 0-42.667 19.103-42.667 42.667 0 21.881 16.471 39.915 37.691 42.38l4.976 0.287 368.848-0.002c18.354 61.692 75.491 106.669 143.152 106.669zM640 298.667c-35.359 0-64-28.641-64-64s28.641-64 64-64c35.359 0 64 28.641 64 64s-28.641 64-64 64zM384 810.667c67.661 0 124.799-44.977 143.152-106.669l368.848 0.002c23.564 0 42.667-19.103 42.667-42.667 0-21.881-16.471-39.915-37.691-42.38l-4.976-0.287-368.86-0.040c-18.367-61.671-75.494-106.626-143.14-106.626s-124.772 44.956-143.14 106.626l-112.86 0.040c-23.564 0-42.667 19.103-42.667 42.667 0 21.881 16.471 39.915 37.691 42.38l4.976 0.287 112.848-0.002c18.354 61.692 75.491 106.669 143.152 106.669zM384 725.333c-35.359 0-64-28.641-64-64s28.641-64 64-64c35.359 0 64 28.641 64 64s-28.641 64-64 64z" />
<glyph unicode="&#xe940;" glyph-name="editing_birthday" d="M896 21.333c23.564 0 42.667-19.103 42.667-42.667 0-21.881-16.471-39.915-37.691-42.38l-4.976-0.287h-768c-23.564 0-42.667 19.103-42.667 42.667 0 21.881 16.471 39.915 37.691 42.38l4.976 0.287h768zM768 704c21.881 0 39.915-16.471 42.38-37.691l0.287-4.976v-42.641l42.667-0.026c45.007 0 81.844-34.814 85.099-78.965l0.234-6.368v-341.333c0-68.144-53.31-123.888-120.481-127.783l-7.519-0.217h-597.333c-68.144 0-123.888 53.31-127.783 120.481l-0.217 7.519v341.333c0 44.982 34.79 81.841 78.962 85.099l6.371 0.234 42.667 0.026v42.641c0 23.564 19.103 42.667 42.667 42.667 21.881 0 39.915-16.471 42.38-37.691l0.287-4.976v-42.641h170.667v42.641c0 23.564 19.103 42.667 42.667 42.667 21.881 0 39.915-16.471 42.38-37.691l0.287-4.976v-42.641h170.667v42.641c0 23.564 19.103 42.667 42.667 42.667zM853.333 302.336l-24.998-25.007c-31.59-31.59-81.7-33.253-115.24-4.988l-5.43 4.988-24.998 24.965-24.998-24.965c-31.59-31.59-81.7-33.253-115.24-4.988l-5.43 4.988-24.998 24.965-24.998-24.965c-31.59-31.59-81.7-33.253-115.24-4.988l-5.43 4.988-24.998 24.965-24.998-24.965c-31.59-31.59-81.7-33.253-115.24-4.988l-5.43 4.988-24.998 24.99v-110.319c0-21.858 16.492-39.912 37.695-42.379l4.971-0.287h597.333c21.858 0 39.912 16.492 42.379 37.695l0.287 4.971v110.336zM853.333 533.333h-682.667l0.021-145.653c19.526-0.005 39.051-6.678 54.883-20.021l5.43-4.988 24.998-24.965 24.998 24.965c31.59 31.59 81.7 33.253 115.24 4.988l5.43-4.988 24.998-24.965 24.998 24.965c31.59 31.59 81.7 33.253 115.24 4.988l5.43-4.988 24.998-24.965 24.998 24.965c31.59 31.59 81.7 33.253 115.24 4.988l5.43-4.988 24.998-24.965 24.998 24.965c16.678 16.678 38.518 25.014 60.357 25.009l-0.021 145.653zM516.77 873.541c6.275-3.138 15.185-9.077 24.106-17.998 15.181-15.181 24.458-33.734 24.458-55.542 0-25.332-17.735-46.818-42.36-52.14l-5.378-0.889-5.595-0.305c-29.473 0-53.333 23.877-53.333 53.333 0 21.808 9.277 40.361 24.458 55.542 7.137 7.137 14.266 12.365 20.045 15.778l4.060 2.22h9.541zM260.77 873.541c6.275-3.138 15.185-9.077 24.106-17.998 15.181-15.181 24.458-33.734 24.458-55.542 0-25.332-17.735-46.818-42.36-52.14l-5.378-0.889-5.595-0.305c-29.473 0-53.333 23.877-53.333 53.333 0 21.808 9.277 40.361 24.458 55.542 7.137 7.137 14.266 12.365 20.045 15.778l4.060 2.22h9.541zM772.77 873.541c6.275-3.138 15.185-9.077 24.106-17.998 15.181-15.181 24.458-33.734 24.458-55.542 0-25.332-17.735-46.818-42.36-52.14l-5.378-0.889-5.595-0.305c-29.473 0-53.333 23.877-53.333 53.333 0 21.808 9.277 40.361 24.458 55.542 7.137 7.137 14.266 12.365 20.045 15.778l4.060 2.22h9.541z" />
<glyph unicode="&#xe941;" glyph-name="editing_calendar_reload" d="M696.896 405.342c61.012 0 117.079-25.85 156.462-68.263l-0.024 25.588c0 21.881 16.471 39.915 37.691 42.38l4.976 0.287c21.881 0 39.915-16.471 42.38-37.691l0.287-4.976v-128c0-21.881-16.471-39.915-37.691-42.38l-4.976-0.287h-113.749c-23.564 0-42.667 19.103-42.667 42.667 0 21.881 16.471 39.915 37.691 42.38l4.976 0.287 10.099 0.010c-23.709 26.457-58.038 42.665-95.454 42.665-70.66 0-128-57.33-128-128s57.34-128 128-128c35.521 0 68.636 14.481 92.694 39.695 16.267 17.048 43.275 17.681 60.323 1.414s17.681-43.275 1.414-60.323c-39.997-41.918-95.338-66.119-154.431-66.119-117.785 0-213.333 95.532-213.333 213.333s95.548 213.333 213.333 213.333zM682.667 874.667c21.881 0 39.915-16.471 42.38-37.691l0.287-4.976v-42.667h128c45.007 0 81.844-34.814 85.099-78.965l0.234-6.368v-256h-85.333v85.333h-682.667v-384h256v-85.333h-341.333v640c0 44.982 34.79 81.841 78.962 85.099l6.371 0.234h128v42.667c0 23.564 19.103 42.667 42.667 42.667 21.881 0 39.915-16.471 42.38-37.691l0.287-4.976v-42.667h256v42.667c0 23.564 19.103 42.667 42.667 42.667zM256 320c23.595 0 42.667-19.115 42.667-42.667s-19.072-42.667-42.667-42.667c-23.595 0-42.667 19.115-42.667 42.667s19.072 42.667 42.667 42.667zM384 320c23.595 0 42.667-19.115 42.667-42.667s-19.072-42.667-42.667-42.667c-23.595 0-42.667 19.115-42.667 42.667s19.072 42.667 42.667 42.667zM256 448c23.595 0 42.667-19.115 42.667-42.667s-19.072-42.667-42.667-42.667c-23.595 0-42.667 19.115-42.667 42.667s19.072 42.667 42.667 42.667zM384 448c23.595 0 42.667-19.115 42.667-42.667s-19.072-42.667-42.667-42.667c-23.595 0-42.667 19.115-42.667 42.667s19.072 42.667 42.667 42.667zM512 448c23.595 0 42.667-19.115 42.667-42.667s-19.072-42.667-42.667-42.667c-23.595 0-42.667 19.115-42.667 42.667s19.072 42.667 42.667 42.667zM853.333 704h-682.667v-85.333h682.667v85.333z" />
<glyph unicode="&#xe942;" glyph-name="editing_calendar" d="M682.667 874.667c21.881 0 39.915-16.471 42.38-37.691l0.287-4.976v-42.667h128c45.007 0 81.844-34.814 85.099-78.965l0.234-6.368v-640h-853.333v640c0 44.982 34.79 81.841 78.962 85.099l6.371 0.234h128v42.667c0 23.564 19.103 42.667 42.667 42.667 21.881 0 39.915-16.471 42.38-37.691l0.287-4.976v-42.667h256v42.667c0 23.564 19.103 42.667 42.667 42.667zM853.333 533.333h-682.667v-384h682.667v384zM256 320c23.595 0 42.667-19.115 42.667-42.667s-19.072-42.667-42.667-42.667c-23.595 0-42.667 19.115-42.667 42.667s19.072 42.667 42.667 42.667zM384 320c23.595 0 42.667-19.115 42.667-42.667s-19.072-42.667-42.667-42.667c-23.595 0-42.667 19.115-42.667 42.667s19.072 42.667 42.667 42.667zM512 320c23.595 0 42.667-19.115 42.667-42.667s-19.072-42.667-42.667-42.667c-23.595 0-42.667 19.115-42.667 42.667s19.072 42.667 42.667 42.667zM768 320c23.595 0 42.667-19.115 42.667-42.667s-19.072-42.667-42.667-42.667c-23.595 0-42.667 19.115-42.667 42.667s19.072 42.667 42.667 42.667zM640 320c23.595 0 42.667-19.115 42.667-42.667s-19.072-42.667-42.667-42.667c-23.595 0-42.667 19.115-42.667 42.667s19.072 42.667 42.667 42.667zM256 448c23.595 0 42.667-19.115 42.667-42.667s-19.072-42.667-42.667-42.667c-23.595 0-42.667 19.115-42.667 42.667s19.072 42.667 42.667 42.667zM384 448c23.595 0 42.667-19.115 42.667-42.667s-19.072-42.667-42.667-42.667c-23.595 0-42.667 19.115-42.667 42.667s19.072 42.667 42.667 42.667zM512 448c23.595 0 42.667-19.115 42.667-42.667s-19.072-42.667-42.667-42.667c-23.595 0-42.667 19.115-42.667 42.667s19.072 42.667 42.667 42.667zM768 448c23.595 0 42.667-19.115 42.667-42.667s-19.072-42.667-42.667-42.667c-23.595 0-42.667 19.115-42.667 42.667s19.072 42.667 42.667 42.667zM640 448c23.595 0 42.667-19.115 42.667-42.667s-19.072-42.667-42.667-42.667c-23.595 0-42.667 19.115-42.667 42.667s19.072 42.667 42.667 42.667zM853.333 704h-682.667v-85.333h682.667v85.333z" />
<glyph unicode="&#xe943;" glyph-name="editing_certification" d="M512 917.329c176.737 0 320-143.263 320-320 0-87.314-35.341-169.114-95.767-228.25l-8.802-8.292-2.098-1.833v-294.959c0-31.883-33.007-51.358-60.133-38.979l-4.228 2.222-3.905 2.624-145.067 108.804-145.067-108.804c-25.506-19.13-60.89-4.409-67.263 24.719l-0.759 4.716-0.244 4.698v294.959l-2.098 1.833c-59.652 54.092-97.106 129.374-103.568 211.145l-0.761 12.963-0.239 12.434c0 176.737 143.263 320 320 320zM512 831.996c-129.609 0-234.667-105.057-234.667-234.667 0-73.198 33.801-140.995 90.164-184.75 8.924-6.928 14.674-17.057 16.135-28.11l0.368-5.593v-229.542l102.4 76.796c12.136 9.102 27.913 10.923 41.506 5.461l4.983-2.389 4.71-3.072 102.4-76.796v229.542c0 9.414 3.108 18.451 8.678 25.792l3.632 4.19 4.192 3.72c56.363 43.755 90.164 111.552 90.164 184.75 0 129.609-105.057 234.667-234.667 234.667zM619.961 683.961c11.361-11.361 12.393-29.138 3.098-41.666l-3.098-3.589-128-128c-11.361-11.361-29.138-12.393-41.666-3.098l-3.589 3.098-64 64c-12.497 12.497-12.497 32.758 0 45.255 11.361 11.361 29.138 12.393 41.666 3.098l3.589-3.098 41.373-41.358 105.373 105.358c12.497 12.497 32.758 12.497 45.255 0z" />
<glyph unicode="&#xe944;" glyph-name="editing_cloud" d="M685.124 277.333c21.881 0 39.915-16.471 42.38-37.691l0.287-4.976-0.001-110.464 12.25 12.384c15.253 15.507 39.445 16.89 56.289 4.014l4.049-3.516c15.507-15.253 16.89-39.445 4.014-56.289l-3.516-4.049-114.826-116.736-116.436 116.494c-16.658 16.667-16.652 43.682 0.015 60.34 15.384 15.377 39.587 16.554 56.321 3.535l4.019-3.55 12.488-12.498 0.001 110.336c0 23.564 19.103 42.667 42.667 42.667zM557.124 960c9.43 0 18.538-3.122 25.943-8.793l4.227-3.704 170.667-170.667c6.668-6.668 10.901-15.316 12.127-24.562l0.37-5.608v-128c0-23.564-19.103-42.667-42.667-42.667-21.881 0-39.915 16.471-42.38 37.691l-0.287 4.976-0.026 110.336-145.664 145.664h-454.119l2.347-767.973 256.128-0.027c23.564 0 42.667-19.103 42.667-42.667 0-21.881-16.471-39.915-37.691-42.38l-4.976-0.287h-256.128c-44.879 0-81.676 34.661-85.077 78.72l-0.256 6.355-2.348 767.977c-0.161 45.075 34.717 82.107 78.954 85.38l6.38 0.235h471.809zM578.453 576.009c87.63 0 164.641-52.458 204.793-131.069l5.191-10.806 1.757 0.752c17.54 7.324 36.373 11.734 55.82 12.845l9.772 0.279c94.391 0 170.667-76.276 170.667-170.667 0-76.558-50.594-142.979-123.001-163.948-22.634-6.555-46.296 6.48-52.851 29.114-6.087 21.017 4.718 42.921 24.415 51.191l4.7 1.66c36.135 10.465 61.405 43.639 61.405 81.983 0 47.263-38.071 85.333-85.333 85.333-20.346 0-39.572-7.212-54.776-19.997l-5.507-5.053c-24.061-24.061-65.226-11.656-71.986 21.694-15.6 76.962-76.18 131.356-145.064 131.356-81.517 0-149.333-75.421-149.333-170.667 0-55.749 23.508-106.602 62.047-138.467 18.16-15.016 20.71-41.91 5.694-60.071s-41.91-20.71-60.071-5.694c-58.314 48.216-93.004 123.256-93.004 204.232 0 140.471 103.88 256 234.667 256z" />
<glyph unicode="&#xe945;" glyph-name="editing_contract" d="M682.667 874.667c45.007 0 81.844-34.814 85.099-78.965l0.234-6.368v-42.667c0-23.564-19.103-42.667-42.667-42.667-21.881 0-39.915 16.471-42.38 37.691l-0.287 4.976v42.667h-597.333v-768h597.333v256c0 23.564 19.103 42.667 42.667 42.667 21.881 0 39.915-16.471 42.38-37.691l0.287-4.976v-256c0-44.982-34.79-81.841-78.962-85.099l-6.371-0.234h-597.333c-45.007 0-81.844 34.814-85.099 78.965l-0.234 6.368v768c0 44.982 34.79 81.841 78.962 85.099l6.371 0.234h597.333zM341.333 362.667c34.826 0 54.288-25.533 55.375-56.273l0.070-6.899-0.4-6.687-1.001-7.729-1.732-10.025-4.27-22.476-0.622-3.593c-0.601-3.609-1.038-6.8-1.342-9.549l-0.424-4.514 0.966 0.052c6.969 1.021 15.768 4.555 25.27 10.213l5.776 3.647c9.354 6.236 16.659 12.497 20.164 16.002 16.662 16.662 43.677 16.662 60.34 0 21.188-21.188 40.74-28.882 52.234-30.018l2.93-0.152c23.564 0 42.667-19.103 42.667-42.667s-19.103-42.667-42.667-42.667c-23.309 0-52.559 7.678-82.626 27.897l-3.262 2.311-2.445-1.709c-23.437-15.625-47.614-25.99-72.829-28.101l-9.505-0.399c-66.454 0-87.377 41.595-81.294 99.933l1.422 10.958-3.372-3.18c-5.050-5-10.063-10.897-15.005-17.66l-4.918-7.051c-7.875-11.813-14.764-24.729-20.512-37.661l-4.802-11.484-1.71-4.679c-7.452-22.355-31.615-34.436-53.97-26.985s-34.436 31.615-26.985 53.97c6.429 19.287 18.518 46.488 36.976 74.175 33.767 50.65 76.899 82.999 131.501 82.999zM870.251 730.044c26.112 26.112 68.523 26.112 94.677-0.043 24.48-24.48 26.010-63.247 4.59-89.584l-4.59-5.094-294.592-294.417-103.68-20.693-2.52-0.184-2.77 0.562c-1.264 0.508-2.099 1.007-2.845 1.614-2.033 1.648-3.41 4.091-3.64 6.833l0.17 2.824 20.693 103.637 294.507 294.545z" />
<glyph unicode="&#xe946;" glyph-name="editing_display_framed_grid_big" d="M938.667 917.333c21.881 0 39.915-16.471 42.38-37.691l0.287-4.976v-853.333c0-21.881-16.471-39.915-37.691-42.38l-4.976-0.287h-853.333c-21.881 0-39.915 16.471-42.38 37.691l-0.287 4.976v853.333c0 21.881 16.471 39.915 37.691 42.38l4.976 0.287h853.333zM896 832h-768v-768h768v768zM426.667 405.333c21.881 0 39.915-16.471 42.38-37.691l0.287-4.976v-170.667c0-21.881-16.471-39.915-37.691-42.38l-4.976-0.287h-170.667c-21.881 0-39.915 16.471-42.38 37.691l-0.287 4.976v170.667c0 21.881 16.471 39.915 37.691 42.38l4.976 0.287h170.667zM768 405.333c21.881 0 39.915-16.471 42.38-37.691l0.287-4.976v-170.667c0-21.881-16.471-39.915-37.691-42.38l-4.976-0.287h-170.667c-21.881 0-39.915 16.471-42.38 37.691l-0.287 4.976v170.667c0 21.881 16.471 39.915 37.691 42.38l4.976 0.287h170.667zM384 320h-85.333v-85.333h85.333v85.333zM725.333 320h-85.333v-85.333h85.333v85.333zM426.667 746.667c21.881 0 39.915-16.471 42.38-37.691l0.287-4.976v-170.667c0-21.881-16.471-39.915-37.691-42.38l-4.976-0.287h-170.667c-21.881 0-39.915 16.471-42.38 37.691l-0.287 4.976v170.667c0 21.881 16.471 39.915 37.691 42.38l4.976 0.287h170.667zM768 746.667c21.881 0 39.915-16.471 42.38-37.691l0.287-4.976v-170.667c0-21.881-16.471-39.915-37.691-42.38l-4.976-0.287h-170.667c-21.881 0-39.915 16.471-42.38 37.691l-0.287 4.976v170.667c0 21.881 16.471 39.915 37.691 42.38l4.976 0.287h170.667zM384 661.333h-85.333v-85.333h85.333v85.333zM725.333 661.333h-85.333v-85.333h85.333v85.333z" />
<glyph unicode="&#xe947;" glyph-name="editing_display_framed_grid_small" d="M938.667 917.333c21.881 0 39.915-16.471 42.38-37.691l0.287-4.976v-853.333c0-21.881-16.471-39.915-37.691-42.38l-4.976-0.287h-853.333c-21.881 0-39.915 16.471-42.38 37.691l-0.287 4.976v853.333c0 21.881 16.471 39.915 37.691 42.38l4.976 0.287h853.333zM896 832h-768v-768h768v768zM341.333 320c21.881 0 39.915-16.471 42.38-37.691l0.287-4.976v-85.333c0-21.881-16.471-39.915-37.691-42.38l-4.976-0.287h-85.333c-21.881 0-39.915 16.471-42.38 37.691l-0.287 4.976v85.333c0 21.881 16.471 39.915 37.691 42.38l4.976 0.287h85.333zM554.667 320c21.881 0 39.915-16.471 42.38-37.691l0.287-4.976v-85.333c0-21.881-16.471-39.915-37.691-42.38l-4.976-0.287h-85.333c-21.881 0-39.915 16.471-42.38 37.691l-0.287 4.976v85.333c0 21.881 16.471 39.915 37.691 42.38l4.976 0.287h85.333zM768 320c21.881 0 39.915-16.471 42.38-37.691l0.287-4.976v-85.333c0-21.881-16.471-39.915-37.691-42.38l-4.976-0.287h-85.333c-21.881 0-39.915 16.471-42.38 37.691l-0.287 4.976v85.333c0 21.881 16.471 39.915 37.691 42.38l4.976 0.287h85.333zM341.333 533.333c21.881 0 39.915-16.471 42.38-37.691l0.287-4.976v-85.333c0-21.881-16.471-39.915-37.691-42.38l-4.976-0.287h-85.333c-21.881 0-39.915 16.471-42.38 37.691l-0.287 4.976v85.333c0 21.881 16.471 39.915 37.691 42.38l4.976 0.287h85.333zM554.667 533.333c21.881 0 39.915-16.471 42.38-37.691l0.287-4.976v-85.333c0-21.881-16.471-39.915-37.691-42.38l-4.976-0.287h-85.333c-21.881 0-39.915 16.471-42.38 37.691l-0.287 4.976v85.333c0 21.881 16.471 39.915 37.691 42.38l4.976 0.287h85.333zM768 533.333c21.881 0 39.915-16.471 42.38-37.691l0.287-4.976v-85.333c0-21.881-16.471-39.915-37.691-42.38l-4.976-0.287h-85.333c-21.881 0-39.915 16.471-42.38 37.691l-0.287 4.976v85.333c0 21.881 16.471 39.915 37.691 42.38l4.976 0.287h85.333zM341.333 746.667c21.881 0 39.915-16.471 42.38-37.691l0.287-4.976v-85.333c0-21.881-16.471-39.915-37.691-42.38l-4.976-0.287h-85.333c-21.881 0-39.915 16.471-42.38 37.691l-0.287 4.976v85.333c0 21.881 16.471 39.915 37.691 42.38l4.976 0.287h85.333zM554.667 746.667c21.881 0 39.915-16.471 42.38-37.691l0.287-4.976v-85.333c0-21.881-16.471-39.915-37.691-42.38l-4.976-0.287h-85.333c-21.881 0-39.915 16.471-42.38 37.691l-0.287 4.976v85.333c0 21.881 16.471 39.915 37.691 42.38l4.976 0.287h85.333zM768 746.667c21.881 0 39.915-16.471 42.38-37.691l0.287-4.976v-85.333c0-21.881-16.471-39.915-37.691-42.38l-4.976-0.287h-85.333c-21.881 0-39.915 16.471-42.38 37.691l-0.287 4.976v85.333c0 21.881 16.471 39.915 37.691 42.38l4.976 0.287h85.333z" />
<glyph unicode="&#xe948;" glyph-name="editing_display_framed_list" d="M938.667 917.333c21.881 0 39.915-16.471 42.38-37.691l0.287-4.976v-853.333c0-21.881-16.471-39.915-37.691-42.38l-4.976-0.287h-853.333c-21.881 0-39.915 16.471-42.38 37.691l-0.287 4.976v853.333c0 21.881 16.471 39.915 37.691 42.38l4.976 0.287h853.333zM896 832h-768v-768h768v768zM768 298.667c21.881 0 39.915-16.471 42.38-37.691l0.287-4.976v-42.667c0-21.881-16.471-39.915-37.691-42.38l-4.976-0.287h-512c-21.881 0-39.915 16.471-42.38 37.691l-0.287 4.976v42.667c0 21.881 16.471 39.915 37.691 42.38l4.976 0.287h512zM768 512c21.881 0 39.915-16.471 42.38-37.691l0.287-4.976v-42.667c0-21.881-16.471-39.915-37.691-42.38l-4.976-0.287h-512c-21.881 0-39.915 16.471-42.38 37.691l-0.287 4.976v42.667c0 21.881 16.471 39.915 37.691 42.38l4.976 0.287h512zM768 725.333c21.881 0 39.915-16.471 42.38-37.691l0.287-4.976v-42.667c0-21.881-16.471-39.915-37.691-42.38l-4.976-0.287h-512c-21.881 0-39.915 16.471-42.38 37.691l-0.287 4.976v42.667c0 21.881 16.471 39.915 37.691 42.38l4.976 0.287h512z" />
<glyph unicode="&#xe949;" glyph-name="editing_display_grid_big" d="M426.667 405.333c21.881 0 39.915-16.471 42.38-37.691l0.287-4.976v-298.667c0-21.881-16.471-39.915-37.691-42.38l-4.976-0.287h-298.667c-21.881 0-39.915 16.471-42.38 37.691l-0.287 4.976v298.667c0 21.881 16.471 39.915 37.691 42.38l4.976 0.287h298.667zM896 405.333c21.881 0 39.915-16.471 42.38-37.691l0.287-4.976v-298.667c0-21.881-16.471-39.915-37.691-42.38l-4.976-0.287h-298.667c-21.881 0-39.915 16.471-42.38 37.691l-0.287 4.976v298.667c0 21.881 16.471 39.915 37.691 42.38l4.976 0.287h298.667zM384 320h-213.333v-213.333h213.333v213.333zM853.333 320h-213.333v-213.333h213.333v213.333zM426.667 874.667c21.881 0 39.915-16.471 42.38-37.691l0.287-4.976v-298.667c0-21.881-16.471-39.915-37.691-42.38l-4.976-0.287h-298.667c-21.881 0-39.915 16.471-42.38 37.691l-0.287 4.976v298.667c0 21.881 16.471 39.915 37.691 42.38l4.976 0.287h298.667zM896 874.667c21.881 0 39.915-16.471 42.38-37.691l0.287-4.976v-298.667c0-21.881-16.471-39.915-37.691-42.38l-4.976-0.287h-298.667c-21.881 0-39.915 16.471-42.38 37.691l-0.287 4.976v298.667c0 21.881 16.471 39.915 37.691 42.38l4.976 0.287h298.667zM384 789.333h-213.333v-213.333h213.333v213.333zM853.333 789.333h-213.333v-213.333h213.333v213.333z" />
<glyph unicode="&#xe94a;" glyph-name="editing_display_grid_small" d="M298.667 277.333c21.881 0 39.915-16.471 42.38-37.691l0.287-4.976v-170.667c0-21.881-16.471-39.915-37.691-42.38l-4.976-0.287h-170.667c-21.881 0-39.915 16.471-42.38 37.691l-0.287 4.976v170.667c0 21.881 16.471 39.915 37.691 42.38l4.976 0.287h170.667zM597.333 277.333c21.881 0 39.915-16.471 42.38-37.691l0.287-4.976v-170.667c0-21.881-16.471-39.915-37.691-42.38l-4.976-0.287h-170.667c-21.881 0-39.915 16.471-42.38 37.691l-0.287 4.976v170.667c0 21.881 16.471 39.915 37.691 42.38l4.976 0.287h170.667zM896 277.333c21.881 0 39.915-16.471 42.38-37.691l0.287-4.976v-170.667c0-21.881-16.471-39.915-37.691-42.38l-4.976-0.287h-170.667c-21.881 0-39.915 16.471-42.38 37.691l-0.287 4.976v170.667c0 21.881 16.471 39.915 37.691 42.38l4.976 0.287h170.667zM256 192h-85.333v-85.333h85.333v85.333zM554.667 192h-85.333v-85.333h85.333v85.333zM853.333 192h-85.333v-85.333h85.333v85.333zM298.667 576c21.881 0 39.915-16.471 42.38-37.691l0.287-4.976v-170.667c0-21.881-16.471-39.915-37.691-42.38l-4.976-0.287h-170.667c-21.881 0-39.915 16.471-42.38 37.691l-0.287 4.976v170.667c0 21.881 16.471 39.915 37.691 42.38l4.976 0.287h170.667zM597.333 576c21.881 0 39.915-16.471 42.38-37.691l0.287-4.976v-170.667c0-21.881-16.471-39.915-37.691-42.38l-4.976-0.287h-170.667c-21.881 0-39.915 16.471-42.38 37.691l-0.287 4.976v170.667c0 21.881 16.471 39.915 37.691 42.38l4.976 0.287h170.667zM896 576c21.881 0 39.915-16.471 42.38-37.691l0.287-4.976v-170.667c0-21.881-16.471-39.915-37.691-42.38l-4.976-0.287h-170.667c-21.881 0-39.915 16.471-42.38 37.691l-0.287 4.976v170.667c0 21.881 16.471 39.915 37.691 42.38l4.976 0.287h170.667zM256 490.667h-85.333v-85.333h85.333v85.333zM554.667 490.667h-85.333v-85.333h85.333v85.333zM853.333 490.667h-85.333v-85.333h85.333v85.333zM298.667 874.667c21.881 0 39.915-16.471 42.38-37.691l0.287-4.976v-170.667c0-21.881-16.471-39.915-37.691-42.38l-4.976-0.287h-170.667c-21.881 0-39.915 16.471-42.38 37.691l-0.287 4.976v170.667c0 21.881 16.471 39.915 37.691 42.38l4.976 0.287h170.667zM597.333 874.667c21.881 0 39.915-16.471 42.38-37.691l0.287-4.976v-170.667c0-21.881-16.471-39.915-37.691-42.38l-4.976-0.287h-170.667c-21.881 0-39.915 16.471-42.38 37.691l-0.287 4.976v170.667c0 21.881 16.471 39.915 37.691 42.38l4.976 0.287h170.667zM896 874.667c21.881 0 39.915-16.471 42.38-37.691l0.287-4.976v-170.667c0-21.881-16.471-39.915-37.691-42.38l-4.976-0.287h-170.667c-21.881 0-39.915 16.471-42.38 37.691l-0.287 4.976v170.667c0 21.881 16.471 39.915 37.691 42.38l4.976 0.287h170.667zM256 789.333h-85.333v-85.333h85.333v85.333zM554.667 789.333h-85.333v-85.333h85.333v85.333zM853.333 789.333h-85.333v-85.333h85.333v85.333z" />
<glyph unicode="&#xe94b;" glyph-name="editing_display_list" d="M842.667 256c35.34 0 64-28.66 64-64 0-33.261-25.387-60.605-57.837-63.707l-6.163-0.293h-426.667c-35.34 0-64 28.66-64 64 0 33.261 25.387 60.605 57.837 63.707l6.163 0.293h426.667zM181.333 256c35.34 0 64-28.66 64-64 0-29.121-19.575-54.151-50.105-62.122l-6.249-1.363-7.646-0.515c-35.34 0-64 28.66-64 64s28.66 64 64 64zM842.667 512c35.34 0 64-28.66 64-64 0-33.261-25.387-60.605-57.837-63.707l-6.163-0.293h-426.667c-35.34 0-64 28.66-64 64 0 33.261 25.387 60.605 57.837 63.707l6.163 0.293h426.667zM181.333 512c35.34 0 64-28.66 64-64 0-29.121-19.575-54.151-50.105-62.122l-6.249-1.363-7.646-0.515c-35.34 0-64 28.66-64 64s28.66 64 64 64zM842.667 768c35.34 0 64-28.66 64-64 0-33.261-25.387-60.605-57.837-63.707l-6.163-0.293h-426.667c-35.34 0-64 28.66-64 64 0 33.261 25.387 60.605 57.837 63.707l6.163 0.293h426.667zM181.333 768c35.34 0 64-28.66 64-64 0-29.121-19.575-54.151-50.105-62.122l-6.249-1.363-7.646-0.515c-35.34 0-64 28.66-64 64s28.66 64 64 64z" />
<glyph unicode="&#xe94c;" glyph-name="editing_download" d="M727.791 533.333c164.919 0 298.667-133.748 298.667-298.667s-133.748-298.667-298.667-298.667c-164.919 0-298.667 133.748-298.667 298.667s133.748 298.667 298.667 298.667zM557.124 960c9.43 0 18.538-3.122 25.943-8.793l4.227-3.704 170.667-170.667c6.668-6.668 10.901-15.316 12.127-24.562l0.37-5.608v-128c0-23.564-19.103-42.667-42.667-42.667-21.881 0-39.915 16.471-42.38 37.691l-0.287 4.976-0.026 110.336-145.664 145.664h-454.119l2.347-767.973 256.128-0.027c23.564 0 42.667-19.103 42.667-42.667 0-21.881-16.471-39.915-37.691-42.38l-4.976-0.287h-256.128c-44.879 0-81.676 34.661-85.077 78.72l-0.256 6.355-2.348 767.977c-0.161 45.075 34.717 82.107 78.954 85.38l6.38 0.235h471.809zM727.791 448c-117.791 0-213.333-95.543-213.333-213.333s95.543-213.333 213.333-213.333c117.791 0 213.333 95.543 213.333 213.333s-95.543 213.333-213.333 213.333zM727.791 405.333c21.881 0 39.915-16.471 42.38-37.691l0.287-4.976-0.001-152.917 12.498 12.421c15.381 15.381 39.583 16.564 56.32 3.549l4.020-3.549c15.381-15.381 16.564-39.583 3.549-56.32l-3.549-4.020-85.333-85.333-2.327-2.163-4.013-3.065-3.177-1.95-6.076-2.764-3.228-1.026-6.337-1.238-5.012-0.292-3.21 0.119-5.354 0.745-4.754 1.259-4.739 1.875-4.159 2.232-3.933 2.718c-1.518 1.193-2.805 2.335-4.020 3.549l-85.333 85.333c-16.662 16.662-16.662 43.677 0 60.34 15.381 15.381 39.583 16.564 56.32 3.549l4.020-3.549 12.496-12.463 0.001 152.96c0 23.564 19.103 42.667 42.667 42.667z" />
<glyph unicode="&#xe94d;" glyph-name="editing_dragndrop_table" d="M768 362.667c23.564 0 42.667-19.103 42.667-42.667 0-21.881-16.471-39.915-37.691-42.38l-4.976-0.287h-512c-23.564 0-42.667 19.103-42.667 42.667 0 21.881 16.471 39.915 37.691 42.38l4.976 0.287h512zM768 618.667c23.564 0 42.667-19.103 42.667-42.667 0-21.881-16.471-39.915-37.691-42.38l-4.976-0.287h-512c-23.564 0-42.667 19.103-42.667 42.667 0 21.881 16.471 39.915 37.691 42.38l4.976 0.287h512z" />
<glyph unicode="&#xe94e;" glyph-name="editing_draw" d="M170.667 277.333c42.667 42.667 128 42.667 170.667 0s42.667-128 0-170.667c-41.573-41.573-103.399-62.892-155.877-73.825l-16.227-3.119c-2.641-0.466-5.248-0.906-7.816-1.322l-14.906-2.212-13.767-1.695-12.42-1.246-19.973-1.421-15.014-0.493 0.208 8.654 0.715 13.619 0.927 11.988 1.402 13.97c0.558 4.954 1.211 10.19 1.976 15.658l2.648 17.051 3.418 18.149c10.868 52.698 32.193 115.065 74.039 156.911zM750.331 832.005c31.59 31.59 81.7 33.253 115.24 4.988l5.43-4.988 25.003-25.003c31.59-31.59 33.253-81.7 4.988-115.24l-4.988-5.43-426.671-426.671-145.673 145.673 426.671 426.671zM810.667 771.627l-366.293-366.293 24.96-24.96 366.293 366.293-24.96 24.96z" />
<glyph unicode="&#xe94f;" glyph-name="editing_duplicate" d="M128 704.333c21.881 0 39.915-16.471 42.38-37.691l0.287-4.976v-552.567l554.857-2.441c23.564-0.105 42.581-19.293 42.477-42.857-0.098-21.881-16.65-39.841-37.88-42.211l-4.977-0.265-554.476 2.474c-44.4 0-81.788 33.024-85.096 76.235l-0.238 6.24v555.392c0 23.564 19.103 42.667 42.667 42.667zM810.667 832c45.007 0 81.844-34.814 85.099-78.965l0.234-6.368 0.019-381.935c0.538-9.625-2.173-19.564-8.846-28.095l-3.67-4.14-170.667-170.667c-8.013-8.013-17.723-11.946-27.405-12.511l-386.765 0.014c-45.007 0-81.844 34.814-85.099 78.965l-0.234 6.368v512c0 44.982 34.79 81.841 78.962 85.099l6.371 0.234h512zM810.667 746.667h-512v-512h341.291l0.043 85.333c0 44.982 34.79 81.841 78.962 85.099l6.371 0.234h85.333v341.333zM597.333 661.333v-128h128v-85.333h-128v-128h-85.333v128h-128v85.333h128v128h85.333z" />
<glyph unicode="&#xe950;" glyph-name="editing_email_sent" d="M341.333 490.667c12.483 0 24.242-5.459 32.289-14.775l3.212-4.224 72.659-109.001h124.971l72.702 109.001c5.935 8.902 14.912 15.138 25.048 17.7l5.156 0.97 5.297 0.33h213.333c21.881 0 39.915-16.471 42.38-37.691l0.287-4.976v-213.333c0-63.619-57.674-123.565-120.949-127.765l-7.051-0.235h-597.333c-63.619 0-123.565 57.674-127.765 120.949l-0.235 7.051v213.333c0 21.881 16.471 39.915 37.691 42.38l4.976 0.287h213.333zM318.464 405.333h-147.797v-170.667c0-16.154 17.501-35.962 34.369-41.292l4.193-1.020 4.104-0.354h597.333c17.5 0 39.289 20.539 42.313 38.562l0.354 4.104v170.667h-147.84l-72.659-109.001c-5.935-8.902-14.912-15.138-25.048-17.7l-5.156-0.97-5.297-0.33h-170.667c-12.483 0-24.242 5.459-32.289 14.775l-3.212 4.224-72.702 109.001zM794.15 908.386l4.020-3.549 128-128c15.381-15.381 16.564-39.583 3.549-56.32l-3.549-4.020-128-128c-16.662-16.662-43.677-16.662-60.34 0-15.381 15.381-16.564 39.583-3.549 56.32l3.549 4.020 55.13 55.163h-110.293c-68.162 0-123.889-53.293-127.783-120.48l-0.217-7.52h-85.333c0 114.714 90.557 208.291 204.080 213.136l9.254 0.197h110.293l-55.13 55.163c-15.381 15.381-16.564 39.583-3.549 56.32l3.549 4.020c15.381 15.381 39.583 16.564 56.32 3.549z" />
<glyph unicode="&#xe951;" glyph-name="editing_eraser" d="M630.902 772.995l5.43-4.988 242.298-242.255c31.74-31.902 33.079-82.547 4.187-116.009l-5.095-5.412-218.138-212.332h236.416c21.881 0 39.915-16.471 42.38-37.691l0.287-4.976c0-21.881-16.471-39.915-37.691-42.38l-4.976-0.287h-597.333c-9.43 0-18.538 3.122-25.943 8.793l-4.227 3.704-140.501 140.501c-31.59 31.59-33.253 81.7-4.988 115.24l4.988 5.43 387.669 387.669c31.59 31.59 81.7 33.253 115.238 4.99zM408.992 540.683l-220.619-220.683 128-128h220.928l111.648 108.726-239.957 239.957z" />
<glyph unicode="&#xe952;" glyph-name="editing_eye_closed" d="M512 768c142.946 0 261.348-57.008 355.503-151.163l-4.368 4.262 103.617 37.666c22.145 8.053 46.626-3.371 54.679-25.517 7.478-20.564-1.839-43.141-20.939-52.709l-4.578-1.97-72.362-26.289c9.453-12.562 18.238-25.237 26.368-37.92 1.702-2.656 3.334-5.243 4.895-7.758v0l8.526-14.185 6.858-12.245 5.212-10.104 10.365-22.32-8.564-18.042-3.751-7.603c-6.816-13.33-16.649-30.323-29.632-49.769-23.386-35.030-51.459-69.411-84.493-101.177-93.063-89.493-208.793-143.154-347.336-143.154-142.946 0-261.348 57.008-355.503 151.163l4.345-4.219-103.594-37.709c-22.145-8.053-46.626 3.371-54.679 25.517-7.478 20.564 1.839 43.141 20.939 52.709l4.578 1.97 72.362 26.289c-9.453 12.562-18.238 25.237-26.368 37.92-1.702 2.656-3.334 5.243-4.895 7.758v0l-8.526 14.185-6.858 12.245-5.212 10.104-10.248 22.066 10.248 22.066 5.212 10.104 6.858 12.245 8.526 14.185 4.895 7.758c22.404 34.951 49.777 69.838 82.417 102.477 94.155 94.155 212.557 151.163 355.503 151.163zM839.092 521.514l-116.521-42.381c1.817-10.115 2.762-20.512 2.762-31.133 0-107.399-96.69-192-213.333-192-72.274 0-136.888 32.481-175.586 82.74l-84.862-30.865c72.492-59.905 158.809-94.541 260.448-94.541 114.743 0 210.056 44.194 288.187 119.329 41.584 39.989 71.629 81.562 90.352 115.136v0l-8.385 14.057-4.075 6.453c-11.451 17.864-24.445 35.75-38.988 53.207zM639.993 449.15l-215.931-78.528c22.759-18.039 53.548-29.289 87.939-29.289 71.862 0 128 49.12 128 106.667 0 0.384-0.002 0.767-0.007 1.15zM512 682.667c-118.387 0-215.985-46.992-295.163-126.17-28.027-28.027-51.654-58.14-70.916-88.189-1.423-2.219-2.781-4.372-4.075-6.453v0l-8.299-13.812 8.299-13.898 4.075-6.453c11.46-17.878 24.466-35.779 39.024-53.249l116.493 42.381c-1.822 10.128-2.77 20.54-2.77 31.176 0 107.399 96.69 192 213.333 192 72.274 0 136.888-32.481 175.586-82.74l84.845 30.879c-72.489 59.896-158.8 94.527-260.431 94.527zM512 554.667c-71.862 0-128-49.12-128-106.667 0-0.372 0.002-0.743 0.007-1.115l215.932 78.493c-22.759 18.039-53.548 29.289-87.939 29.289z" />
<glyph unicode="&#xe953;" glyph-name="editing_eye_opened" d="M512 768c142.946 0 261.348-57.008 355.503-151.163 27.977-27.977 52.084-57.605 72.51-87.509l12.407-18.9 10.92-18.011 6.858-12.245 5.212-10.104 10.365-22.32-8.564-18.042-3.751-7.603c-6.816-13.33-16.649-30.323-29.632-49.769-23.386-35.030-51.459-69.411-84.493-101.177-93.063-89.493-208.793-143.154-347.336-143.154-142.946 0-261.348 57.008-355.503 151.163-27.977 27.977-52.084 57.605-72.51 87.509l-12.407 18.9-10.92 18.011-6.858 12.245-5.212 10.104-10.248 22.066 10.248 22.066 5.212 10.104 6.858 12.245 8.526 14.185 4.895 7.758c22.404 34.951 49.777 69.838 82.417 102.477 94.155 94.155 212.557 151.163 355.503 151.163zM512 682.667c-118.387 0-215.985-46.992-295.163-126.17-23.356-23.356-43.656-48.16-60.921-73.169l-12.081-18.298-1.989-3.174-8.299-13.812 8.299-13.898 4.075-6.453c19.262-30.049 42.89-60.162 70.916-88.189 79.178-79.178 176.777-126.17 295.163-126.17 114.743 0 210.056 44.194 288.187 119.329 37.804 36.354 66.071 74.016 84.965 105.788l5.387 9.348-8.385 14.057-4.075 6.453c-19.262 30.049-42.89 60.162-70.916 88.189-79.178 79.178-176.777 126.17-295.163 126.17zM512 640c116.644 0 213.333-84.601 213.333-192s-96.69-192-213.333-192c-116.644 0-213.333 84.601-213.333 192s96.69 192 213.333 192zM512 554.667c-71.862 0-128-49.12-128-106.667s56.138-106.667 128-106.667c71.862 0 128 49.12 128 106.667s-56.138 106.667-128 106.667z" />
<glyph unicode="&#xe954;" glyph-name="editing_file_draft" d="M761.603 456.818c51.995 52.057 136.382 52.057 188.376 0 49.967-50.028 51.889-129.842 5.749-182.177l-5.767-6.145-298.667-298.667c-5.222-5.222-11.687-8.977-18.743-10.938l-5.393-1.13-149.333-21.333c-26.502-3.786-49.441 17.371-48.694 43.349l0.422 4.922 21.333 149.333c1.044 7.311 3.963 14.194 8.432 19.996l3.636 4.139 298.648 298.648zM557.124 960c9.43 0 18.538-3.122 25.943-8.793l4.227-3.704 170.667-170.667c6.668-6.668 10.901-15.316 12.127-24.562l0.37-5.608v-213.333c0-23.564-19.103-42.667-42.667-42.667-21.881 0-39.915 16.471-42.38 37.691l-0.287 4.976-0.026 195.669-145.664 145.664h-454.119l2.347-767.973 256.128-0.027c23.564 0 42.667-19.103 42.667-42.667 0-21.881-16.471-39.915-37.691-42.38l-4.976-0.287h-256.128c-44.879 0-81.676 34.661-85.077 78.72l-0.256 6.355-2.348 767.977c-0.161 45.075 34.717 82.107 78.954 85.38l6.38 0.235h471.809zM889.603 396.515c-17.329 17.349-44.693 18.589-63.47 3.703l-4.172-3.721-288.627-288.593-11.264-78.976 78.891 11.307 288.643 288.584c16.020 16.039 18.308 40.571 6.866 59.037l-3.147 4.482-3.719 4.178zM386.458 298.667v-85.333h-170.667v85.333h170.667zM557.124 469.333v-85.333h-341.333v85.333h341.333zM557.124 640v-85.333h-341.333v85.333h341.333z" />
<glyph unicode="&#xe955;" glyph-name="editing_file_format_doc" d="M683.921 917.333h-471.851c-47.186 0-85.461-38.406-85.291-85.615l2.305-767.974c0.171-47.037 38.317-85.077 85.333-85.077l597.796 2.304c47 0.171 85.041 38.317 85.041 85.333v637.696c0 11.316-4.495 22.168-12.497 30.17l-170.667 170.667c-8.002 8.002-18.854 12.497-30.17 12.497zM212.114 832h454.126l145.664-145.664-0.010-620.032-597.477-2.277-2.303 767.973z" />
<glyph unicode="&#xe956;" glyph-name="editing_file_format_editor" d="M761.603 456.818c51.995 52.057 136.382 52.057 188.376 0 49.967-50.028 51.889-129.842 5.749-182.177l-5.767-6.145-298.667-298.667c-5.222-5.222-11.687-8.977-18.743-10.938l-5.393-1.13-149.333-21.333c-26.502-3.786-49.441 17.371-48.694 43.349l0.422 4.922 21.333 149.333c1.044 7.311 3.963 14.194 8.432 19.996l3.636 4.139 298.648 298.648zM557.124 960c9.43 0 18.538-3.122 25.943-8.793l4.227-3.704 170.667-170.667c6.668-6.668 10.901-15.316 12.127-24.562l0.37-5.608v-213.333c0-23.564-19.103-42.667-42.667-42.667-21.881 0-39.915 16.471-42.38 37.691l-0.287 4.976-0.026 195.669-145.664 145.664h-454.119l2.347-767.973 256.128-0.027c23.564 0 42.667-19.103 42.667-42.667 0-21.881-16.471-39.915-37.691-42.38l-4.976-0.287h-256.128c-44.879 0-81.676 34.661-85.077 78.72l-0.256 6.355-2.348 767.977c-0.161 45.075 34.717 82.107 78.954 85.38l6.38 0.235h471.809zM889.603 396.515c-17.329 17.349-44.693 18.589-63.47 3.703l-4.172-3.721-288.627-288.593-11.264-78.976 78.891 11.307 288.643 288.584c16.020 16.039 18.308 40.571 6.866 59.037l-3.147 4.482-3.719 4.178z" />
<glyph unicode="&#xe957;" glyph-name="editing_file_format_fav" d="M688.184 421.179c13.625 34.062 60.196 35.679 76.952 4.858l2.282-4.866 57.499-143.837h116.215c37.12 0 55.101-42.962 33.337-69.422l-3.216-3.5-3.72-3.262-85.443-67.261 55.97-139.324c13.544-33.733-18.149-66.27-50.659-57.174l-4.241 1.426-4.229 1.918-151.166 77.825-151.098-77.825c-32.316-16.643-67.678 11.864-61.666 45.084l1.023 4.356 1.514 4.39 55.901 139.366-85.374 67.218c-29.16 22.968-16.703 67.844 16.767 75.164l4.692 0.76 4.941 0.261h116.147l57.571 143.846zM557.124 960c9.43 0 18.538-3.122 25.943-8.793l4.227-3.704 170.667-170.667c6.668-6.668 10.901-15.316 12.127-24.562l0.37-5.608v-213.333c0-23.564-19.103-42.667-42.667-42.667-21.881 0-39.915 16.471-42.38 37.691l-0.287 4.976-0.026 195.669-145.664 145.664h-454.119l2.347-767.973 256.128-0.027c23.564 0 42.667-19.103 42.667-42.667 0-21.881-16.471-39.915-37.691-42.38l-4.976-0.287h-256.128c-44.879 0-81.676 34.661-85.077 78.72l-0.256 6.355-2.348 767.977c-0.161 45.075 34.717 82.107 78.954 85.38l6.38 0.235h471.809zM727.765 290.432l-28.618-71.611c-5.832-14.579-19.123-24.641-34.441-26.507l-5.174-0.314h-21.922l13.763-10.855c12.022-9.469 17.838-24.427 15.904-39.093l-1.092-5.475-1.619-4.848-25.207-62.652 68.905 35.415c8.756 4.509 18.683 5.798 28.108 3.865l5.581-1.546 5.381-2.319 68.836-35.415-25.139 62.652c-5.702 14.202-3.288 30.067 5.699 41.818l3.675 4.202 3.82 3.396 13.737 10.855h-21.939c-13.96 0-26.794 6.801-34.686 17.817l-2.72 4.324-2.212 4.689-28.64 71.603z" />
<glyph unicode="&#xe958;" glyph-name="editing_file_format_image" d="M896 789.333c21.881 0 39.915-16.471 42.38-37.691l0.287-4.976v-597.333c0-21.881-16.471-39.915-37.691-42.38l-4.976-0.287h-768c-21.881 0-39.915 16.471-42.38 37.691l-0.287 4.976v597.333c0 21.881 16.471 39.915 37.691 42.38l4.976 0.287h768zM853.333 704h-682.667v-512h682.667v512zM667.691 563.541c7.429 6.16 17.897 6.505 25.628 1.265l3.129-2.587 114.219-114.219v-213.333h-597.333v85.333l112.896 112.896c7.433 7.433 18.912 8.259 27.245 2.478l2.963-2.478 70.229-70.229 241.024 200.875zM277.333 661.333c35.328 0 64-28.629 64-64s-28.672-64-64-64c-35.328 0-64 28.629-64 64s28.672 64 64 64z" />
<glyph unicode="&#xe959;" glyph-name="editing_file_format_pdf" d="M213.346 917.333l478.099-0.665 2.255-0.461 2.669-0.722 4.783-1.775 1.529-0.713 4.109-2.306 3.813-2.731 3.484-3.123 170.667-170.667c6.684-6.684 10.92-15.356 12.135-24.625l0.362-5.622-1.152-640.086c-0.082-44.906-34.896-81.686-78.976-84.937l-6.357-0.234h-597.419c-45.007 0-81.844 34.814-85.099 78.965l-0.234 6.368v768c0 47.124 38.183 85.333 85.333 85.333zM666.24 832h-452.894v-768h597.419l1.097 622.379-145.621 145.621zM358.165 442.573c11.331 0 21.425-1.499 30.142-4.511 9.085-3.107 17.251-8.59 24.486-16.381 7.233-7.74 12.261-16.889 15.135-27.441 2.652-10.288 4.009-23.845 4.009-40.329 0-12.339-0.761-23.053-2.249-31.981-1.514-9.084-4.77-17.675-9.681-25.659-5.787-9.722-13.708-17.408-23.501-22.843-8.249-4.574-18.39-7.204-30.449-7.954l-7.466-0.225-14.699 0.009 0.021-101.427-5.333-5.333h-39.168l-5.333 5.333v273.408l5.333 5.333h58.752zM513.732 442.573c23.881 0 42.357-6.643 55.156-20.096 11.093-11.703 17.286-27.506 18.661-47.21l0.295-8.683v-127.872c0-26.882-6.706-47.172-20.29-60.429-12.016-11.768-28.513-18.247-49.318-19.542l-8.003-0.243h-54.485l-5.333 5.333v273.408l5.333 5.333h57.984zM736.068 442.573l5.333-5.333v-36.864l-5.333-5.333-72.26 0.009v-72.277l62.276-0.009 5.333-5.333v-36.864l-5.333-5.333-62.276 0.009 0.026-111.411-5.333-5.333h-39.168l-5.333 5.333v273.408l5.333 5.333h116.736zM500.224 395.051v-189.013l12.783-0.009c9.575 0 15.812 2.204 19.319 6.349 2.941 3.546 4.814 9.044 5.445 16.518l0.238 5.976v131.712c0 9.616-1.936 16.874-5.584 21.81-2.619 3.579-7.451 5.81-14.745 6.454l-4.674 0.194-12.783 0.009zM343.893 395.051v-82.261l13.504-0.009c7.14 0 12.465 0.998 15.974 2.856 3.404 1.767 5.784 4.139 7.394 7.294 1.679 3.285 2.721 7.343 3.012 12.144l0.483 11.758-0.086 19.233-0.193 5.525c-0.185 4.968-1.199 9.337-3.031 13.153-1.469 3.257-3.77 5.758-6.843 7.505-2.468 1.36-5.899 2.251-10.328 2.612l-4.763 0.182-15.125 0.009z" />
<glyph unicode="&#xe95a;" glyph-name="editing_file_format_text" d="M683.921 917.333c9.43 0 18.538-3.122 25.943-8.793l4.227-3.704 170.667-170.667c6.668-6.668 10.901-15.316 12.127-24.562l0.37-5.608v-637.696c0-44.879-34.661-81.676-78.69-85.077l-6.351-0.256-597.796-2.304c-44.879 0-81.676 34.661-85.077 78.722l-0.256 6.356-2.305 767.974c-0.161 45.063 34.705 82.105 78.915 85.38l6.376 0.235h471.851zM666.24 832h-454.126l2.303-767.973 597.477 2.277 0.010 620.032-145.664 145.664zM512 277.333v-85.333h-170.667v85.333h170.667zM682.667 448v-85.333h-341.333v85.333h341.333zM682.667 618.667v-85.333h-341.333v85.333h341.333z" />
<glyph unicode="&#xe95b;" glyph-name="editing_file_format_xls" d="M683.921 917.333c9.43 0 18.538-3.122 25.943-8.793l4.227-3.704 170.667-170.667c6.668-6.668 10.901-15.316 12.127-24.562l0.37-5.608v-637.696c0-44.879-34.661-81.676-78.69-85.077l-6.351-0.256-597.796-2.304c-44.879 0-81.676 34.661-85.077 78.722l-0.256 6.356-2.305 767.974c-0.161 45.063 34.705 82.105 78.915 85.38l6.376 0.235h471.851zM666.24 832h-454.126l2.303-767.973 597.477 2.277 0.010 620.032-145.664 145.664zM714.667 565.333v-405.333h-405.333v405.333h405.333zM373.333 224h42.64v149.333h-42.667l0.027-149.333zM650.64 373.333h-170.667v-149.333h170.693l-0.027 149.333zM650.64 437.333l0.027 64h-42.693v-64h42.667zM415.973 501.333h-42.64l-0.027-64h42.667v64zM543.973 501.333h-64v-64h64v64z" />
<glyph unicode="&#xe95c;" glyph-name="editing_filter" d="M273.664 789.333l-6.609-0.235c-71.58-5.138-105.904-93.256-53.727-145.433l170.629-170.662 0.043-314.837c0-57.006 68.918-85.544 109.231-45.231l3.815 4.374 134.272 176.896 3.066 4.638c3.664 6.417 5.616 13.706 5.616 21.158l-0.043 152.96 170.714 170.705c53.758 53.758 15.693 145.669-60.335 145.669h-476.672zM750.251 704l-183.087-183.163-3.704-4.227c-5.671-7.405-8.793-16.513-8.793-25.943l-0.043-156.331-85.333-112.427 0.043 268.757-0.37 5.608c-1.226 9.246-5.459 17.894-12.127 24.562l-183.13 183.163h476.544z" />
<glyph unicode="&#xe95d;" glyph-name="editing_flag" d="M128 789.333c0 14.359 7.208 27.624 18.955 35.472l4.613 2.681 37.103 18.573c92.099 46.026 199.825 47.944 293.249 5.742l12.102-5.755 74.129-37.107c68.484-34.225 148.49-35.936 218.104-5.145l10.902 5.132 37.077 18.56c26.877 13.454 58.264-4.352 61.493-33.24l0.272-4.914v-426.667c0-14.359-7.208-27.624-18.955-35.472l-4.613-2.681-37.103-18.573c-92.099-46.026-199.825-47.944-293.249-5.742l-12.102 5.755-74.129 37.107c-68.484 34.225-148.49 35.936-218.104 5.145l-10.902-5.132-13.509-6.701v-315.038h-85.333v768zM237.745 774.872l-10.902-5.132-13.509-6.732v-332.459l12.107 4.602c83.188 30.017 175.241 26.68 256.479-10.017l12.102-5.755 74.129-37.107c68.484-34.225 148.49-35.936 218.104-5.145l10.902 5.132 13.509 6.817v332.416l-12.107-4.645c-83.188-30.017-175.241-26.68-256.479 10.017l-12.102 5.755-74.129 37.107c-68.484 34.225-148.49 35.936-218.104 5.145z" />
<glyph unicode="&#xe95e;" glyph-name="editing_fontsize_bigger" d="M512 874.667c235.605 0 426.667-191.019 426.667-426.667s-191.061-426.667-426.667-426.667c-235.605 0-426.667 191.019-426.667 426.667s191.061 426.667 426.667 426.667zM512 789.333c-188.203 0-341.333-153.131-341.333-341.333s153.131-341.333 341.333-341.333c188.203 0 341.333 153.131 341.333 341.333s-153.131 341.333-341.333 341.333zM554.697 685.875l168.747-403.925h-98.731l-31.275 83.243h-162.859l-30.933-83.243h-98.816l167.851 403.925h86.016zM511.689 583.774l-56.021-151.168h112.683l-56.661 151.168z" />
<glyph unicode="&#xe95f;" glyph-name="editing_fontsize_smaller" d="M512 874.667c235.605 0 426.667-191.019 426.667-426.667s-191.061-426.667-426.667-426.667c-235.605 0-426.667 191.019-426.667 426.667s191.061 426.667 426.667 426.667zM512 789.333c-188.203 0-341.333-153.131-341.333-341.333s153.131-341.333 341.333-341.333c188.203 0 341.333 153.131 341.333 341.333s-153.131 341.333-341.333 341.333zM543.983 590.899l100.096-242.645h-70.101l-15.872 45.312h-89.429l-15.616-45.312h-69.76l99.328 242.645h61.355zM513.306 522.931l-29.013-84.181h58.197l-29.184 84.181z" />
</font>
</defs>
</svg>
