<?xml version="1.0" encoding="UTF-8"?>
<svg xmlns="http://www.w3.org/2000/svg" xmlns:xlink="http://www.w3.org/1999/xlink" width="100px" height="100px" viewBox="0 0 100 100" version="1.1">
<defs>
<linearGradient id="linear0" gradientUnits="userSpaceOnUse" x1="317.81601" y1="198.832001" x2="371.765991" y2="198.832001" gradientTransform="matrix(0.2,0,0,0.2,0,0)">
<stop offset="0" style="stop-color:rgb(0%,0%,0%);stop-opacity:0.2;"/>
<stop offset="0.67" style="stop-color:rgb(0%,0%,0%);stop-opacity:0.501961;"/>
</linearGradient>
<linearGradient id="linear1" gradientUnits="userSpaceOnUse" x1="346.825012" y1="247.440002" x2="203.044998" y2="247.440002" gradientTransform="matrix(0.2,0,0,0.2,0,0)">
<stop offset="0" style="stop-color:rgb(0%,0%,0%);stop-opacity:0.2;"/>
<stop offset="0.67" style="stop-color:rgb(0%,0%,0%);stop-opacity:0.501961;"/>
</linearGradient>
<linearGradient id="linear2" gradientUnits="userSpaceOnUse" x1="337.395996" y1="344.549988" x2="391.335999" y2="344.549988" gradientTransform="matrix(0.2,0,0,0.2,0,0)">
<stop offset="0" style="stop-color:rgb(0%,0%,0%);stop-opacity:0.2;"/>
<stop offset="0.67" style="stop-color:rgb(0%,0%,0%);stop-opacity:0.501961;"/>
</linearGradient>
<linearGradient id="linear3" gradientUnits="userSpaceOnUse" x1="168.806" y1="316.640015" x2="222.755997" y2="316.640015" gradientTransform="matrix(0.2,0,0,0.2,0,0)">
<stop offset="0" style="stop-color:rgb(0%,0%,0%);stop-opacity:0.2;"/>
<stop offset="0.67" style="stop-color:rgb(0%,0%,0%);stop-opacity:0.501961;"/>
</linearGradient>
<linearGradient id="linear4" gradientUnits="userSpaceOnUse" x1="138.235992" y1="193.268997" x2="192.186005" y2="193.268997" gradientTransform="matrix(0.2,0,0,0.2,0,0)">
<stop offset="0" style="stop-color:rgb(0%,0%,0%);stop-opacity:0.2;"/>
<stop offset="0.67" style="stop-color:rgb(0%,0%,0%);stop-opacity:0.501961;"/>
</linearGradient>
</defs>
<g id="surface1">
<path style=" stroke:none;fill-rule:nonzero;fill:rgb(78.823531%,78.823531%,78.823531%);fill-opacity:1;" d="M 86.570312 57.570312 L 86.570312 61.542969 C 86.570312 61.542969 83.105469 60.433594 83.105469 60.042969 C 83.105469 59.648438 83.429688 58.214844 83.429688 58.214844 Z M 86.570312 57.570312 "/>
<path style=" stroke:none;fill-rule:nonzero;fill:rgb(78.823531%,78.823531%,78.823531%);fill-opacity:1;" d="M 25.394531 80.898438 L 25.394531 74.976562 L 27.9375 74.976562 C 27.9375 74.976562 30.25 75.296875 30.363281 75.460938 C 30.480469 75.621094 30.828125 76.777344 30.828125 76.777344 L 30.828125 77.941406 L 28.792969 80.40625 L 27.058594 81.003906 Z M 25.394531 80.898438 "/>
<path style=" stroke:none;fill-rule:nonzero;fill:rgb(78.823531%,78.823531%,78.823531%);fill-opacity:1;" d="M 4.835938 39.359375 L 4.835938 45.3125 L 11.390625 45.265625 C 11.390625 45.265625 13.007812 43.054688 13.007812 42.964844 C 13.007812 42.871094 12.039062 40.351562 12.015625 40.167969 C 11.992188 39.984375 10.929688 38.6875 10.929688 38.6875 L 4.839844 39.359375 Z M 4.835938 39.359375 "/>
<path style=" stroke:none;fill-rule:nonzero;fill:rgb(78.823531%,78.823531%,78.823531%);fill-opacity:1;" d="M 6.050781 46.464844 L 6.050781 40.539062 L 11.550781 42 L 11.851562 44.972656 L 11.503906 46.464844 C 11.503906 46.464844 8.015625 46.546875 7.898438 46.566406 C 7.785156 46.589844 6.046875 46.464844 6.046875 46.464844 Z M 6.050781 46.464844 "/>
<path style=" stroke:none;fill-rule:nonzero;fill:rgb(78.823531%,78.823531%,78.823531%);fill-opacity:1;" d="M 5.324219 48.121094 L 5.324219 42.195312 L 8.921875 42.316406 L 11.179688 43.449219 L 11.410156 45.78125 C 11.410156 45.78125 10.742188 47.214844 10.023438 47.445312 C 9.308594 47.679688 7.828125 48.144531 7.757812 48.121094 C 7.6875 48.09375 5.324219 48.121094 5.324219 48.121094 Z M 5.324219 48.121094 "/>
<path style=" stroke:none;fill-rule:nonzero;fill:rgb(78.823531%,78.823531%,78.823531%);fill-opacity:1;" d="M 95.242188 41.773438 L 95.242188 35.851562 C 95.242188 35.851562 91.707031 36.398438 91.3125 36.539062 C 90.917969 36.675781 89.625 38.339844 89.625 38.339844 L 88.589844 40.527344 C 88.589844 40.527344 88.539062 42.433594 90.132812 42.433594 C 91.726562 42.433594 95.242188 41.777344 95.242188 41.777344 Z M 95.242188 41.773438 "/>
<path style=" stroke:none;fill-rule:nonzero;fill:rgb(78.823531%,78.823531%,78.823531%);fill-opacity:1;" d="M 91.265625 76.289062 L 91.265625 70.453125 C 91.265625 70.453125 86.34375 72.152344 86.136719 72.199219 C 85.925781 72.246094 83.871094 73.492188 83.871094 73.492188 C 83.871094 73.492188 83.164062 76 83.429688 76.289062 C 83.691406 76.574219 91.265625 76.289062 91.265625 76.289062 Z M 91.265625 76.289062 "/>
<path style=" stroke:none;fill-rule:nonzero;fill:rgb(78.823531%,78.823531%,78.823531%);fill-opacity:1;" d="M 38.90625 31.300781 L 38.753906 33.511719 C 38.753906 33.511719 41.574219 33.789062 41.96875 33.648438 C 42.359375 33.507812 43.097656 32.355469 43.332031 31.914062 C 43.5625 31.472656 42.730469 30.433594 42.730469 30.433594 L 38.910156 31.300781 Z M 38.90625 31.300781 "/>
<path style=" stroke:none;fill-rule:nonzero;fill:rgb(78.823531%,78.823531%,78.823531%);fill-opacity:1;" d="M 87.777344 67.578125 L 87.777344 61.730469 C 87.777344 61.730469 83.269531 61.914062 83.132812 61.984375 C 82.992188 62.054688 81.953125 63 81.953125 63 C 81.953125 63 81.835938 66.121094 81.953125 66.304688 C 82.070312 66.492188 83.59375 67.898438 84.472656 67.898438 C 85.351562 67.898438 87.777344 67.574219 87.777344 67.574219 Z M 87.777344 67.578125 "/>
<path style=" stroke:none;fill-rule:nonzero;fill:rgb(78.823531%,78.823531%,78.823531%);fill-opacity:1;" d="M 24.816406 29.921875 L 24.816406 35.847656 L 27.390625 36.625 C 27.390625 36.625 28.871094 36.550781 28.957031 36.496094 C 29.042969 36.441406 28.832031 35.835938 28.832031 35.835938 L 28.757812 33.054688 C 28.757812 33.054688 27.875 31.773438 27.847656 31.6875 C 27.820312 31.601562 26.140625 30.433594 26.140625 30.433594 Z M 24.816406 29.921875 "/>
<path style=" stroke:none;fill-rule:nonzero;fill:rgb(78.823531%,78.823531%,78.823531%);fill-opacity:1;" d="M 59.894531 87.359375 L 59.894531 81.433594 L 57.660156 81.308594 C 57.660156 81.308594 57.269531 80.636719 57.335938 82.949219 C 57.40625 85.257812 57.546875 85.859375 57.546875 85.859375 L 57.914062 86.507812 Z M 59.894531 87.359375 "/>
<path style=" stroke:none;fill-rule:nonzero;fill:rgb(78.823531%,78.823531%,78.823531%);fill-opacity:1;" d="M 24.203125 37.933594 L 24.203125 39.542969 L 25.199219 39.542969 L 25.953125 38.738281 L 25.894531 38.078125 Z M 24.203125 37.933594 "/>
<path style=" stroke:none;fill-rule:nonzero;fill:rgb(78.823531%,78.823531%,78.823531%);fill-opacity:1;" d="M 22.371094 37.578125 L 22.371094 38.875 L 21.78125 38.875 L 21.898438 38.078125 L 22.078125 37.765625 Z M 22.371094 37.578125 "/>
<path style=" stroke:none;fill-rule:nonzero;fill:rgb(78.823531%,78.823531%,78.823531%);fill-opacity:1;" d="M 13.453125 36.699219 L 13.453125 37.976562 L 14.683594 37.976562 C 14.683594 37.976562 14.839844 38.0625 14.882812 37.507812 C 14.925781 36.953125 14.882812 37.039062 14.882812 37.039062 Z M 13.453125 36.699219 "/>
<path style=" stroke:none;fill-rule:nonzero;fill:rgb(78.823531%,78.823531%,78.823531%);fill-opacity:1;" d="M 16.132812 45.601562 L 16.132812 51.59375 C 16.132812 51.59375 17.074219 50.425781 17.121094 50.394531 C 17.164062 50.367188 17.234375 49.5 17.234375 49.5 L 17.234375 48.175781 L 16.132812 45.597656 Z M 16.132812 45.601562 "/>
<path style=" stroke:none;fill-rule:nonzero;fill:rgb(78.823531%,78.823531%,78.823531%);fill-opacity:1;" d="M 17.929688 51.699219 L 17.929688 45.777344 C 17.929688 45.777344 20.53125 49.246094 20.515625 49.304688 C 20.503906 49.359375 20.019531 50.785156 19.992188 50.96875 C 19.964844 51.152344 19.550781 51.808594 19.550781 51.808594 Z M 17.929688 51.699219 "/>
<path style=" stroke:none;fill-rule:nonzero;fill:rgb(78.823531%,78.823531%,78.823531%);fill-opacity:1;" d="M 20.371094 52.980469 L 20.371094 50.480469 L 21.828125 50.925781 C 21.828125 50.925781 22.140625 51.378906 22.226562 51.59375 C 22.3125 51.804688 22.394531 52.332031 22.394531 52.402344 C 22.394531 52.472656 22.238281 53.015625 22.179688 53.054688 C 22.121094 53.097656 21.8125 53.285156 21.8125 53.285156 C 21.8125 53.285156 21.609375 53.484375 21.539062 53.511719 C 21.472656 53.539062 20.75 53.683594 20.75 53.683594 L 20.464844 53.53125 L 20.464844 53.042969 L 20.371094 52.976562 Z M 20.371094 52.980469 "/>
<path style=" stroke:none;fill-rule:nonzero;fill:rgb(78.823531%,78.823531%,78.823531%);fill-opacity:1;" d="M 19.128906 51.234375 C 19.0625 51.21875 18.984375 51.199219 18.867188 51.191406 C 18.957031 51.195312 19.042969 51.210938 19.128906 51.234375 Z M 19.128906 51.234375 "/>
<path style=" stroke:none;fill-rule:nonzero;fill:rgb(78.823531%,78.823531%,78.823531%);fill-opacity:1;" d="M 51.480469 87.050781 C 51.550781 87.117188 51.636719 87.308594 51.675781 87.335938 C 51.507812 87.222656 51.117188 87.347656 51.480469 87.050781 Z M 51.480469 87.050781 "/>
<path style=" stroke:none;fill-rule:nonzero;fill:rgb(78.823531%,78.823531%,78.823531%);fill-opacity:1;" d="M 94.484375 41.617188 C 94.726562 41.617188 95.046875 41.699219 95.246094 41.773438 C 94.757812 42.230469 94.460938 42.765625 94.011719 43.167969 C 93.78125 43.378906 93.144531 43.644531 92.886719 43.953125 C 92.160156 44.828125 92.15625 45.945312 91.671875 46.863281 C 91.082031 47.96875 91.078125 47.816406 91.140625 48.9375 C 91.152344 49.148438 90.835938 49.683594 90.742188 49.933594 C 90.5625 50.410156 90.558594 50.871094 90.539062 51.28125 C 90.515625 51.746094 91.355469 51.90625 90.15625 52.175781 C 90.273438 52.433594 90.226562 52.550781 89.707031 52.550781 C 89.757812 52.863281 89.257812 53.0625 88.789062 53.0625 C 88.382812 53.0625 88 52.914062 88.054688 52.554688 C 87.828125 52.527344 87.636719 52.515625 87.464844 52.515625 C 86.617188 52.515625 86.316406 52.851562 85.859375 53.515625 C 86.195312 53.429688 86.433594 53.386719 86.59375 53.386719 C 87.636719 53.386719 85.238281 55.078125 84.878906 55.363281 C 84.363281 55.777344 83.144531 56.210938 82.78125 56.707031 C 82.648438 56.882812 82.933594 57.558594 82.777344 57.769531 C 82.488281 58.160156 79.082031 59.71875 80.351562 60.277344 C 81.5 60.785156 79.355469 61.773438 79.46875 62.234375 C 80.179688 62.195312 81.394531 62.046875 81.714844 61.46875 C 81.835938 61.253906 80.984375 61.113281 81.542969 60.605469 C 81.902344 60.269531 83.207031 59.941406 83.773438 59.941406 C 85.851562 59.996094 84.628906 60.296875 85.050781 60.820312 C 85.367188 61.214844 84.960938 62.203125 85.410156 62.277344 C 86.25 62.410156 85.34375 62.5625 85.65625 62.8125 C 86.726562 63.667969 86.976562 63.328125 85.851562 64.277344 C 85.046875 64.953125 85.382812 64.78125 86.011719 65.582031 C 86.210938 65.835938 86.222656 66.222656 86.488281 66.523438 C 86.691406 66.746094 87.609375 67.066406 87.714844 67.300781 C 88.078125 68.085938 86.847656 68.480469 86.351562 68.722656 C 85.984375 68.902344 85.847656 69.199219 85.550781 69.273438 C 85.320312 69.285156 85.191406 69.246094 85.058594 69.207031 C 84.921875 69.164062 84.78125 69.125 84.636719 69.125 C 84.53125 69.125 84.429688 69.144531 84.324219 69.203125 C 83.679688 69.542969 84.144531 69.527344 84.277344 69.96875 C 84.285156 69.988281 84.890625 70.828125 85.074219 70.953125 C 85.625 71.316406 86.195312 71.035156 86.652344 71.453125 C 86.789062 71.574219 86.808594 72.148438 86.988281 72.359375 C 85.964844 72.351562 85.015625 73.601562 86.015625 74.0625 C 85.039062 74.613281 86.445312 75.183594 86.894531 75.410156 C 87.871094 75.902344 88.511719 76.066406 89.246094 76.066406 C 89.773438 76.066406 90.347656 75.980469 91.125 75.871094 C 91.566406 76.671875 90.921875 76.773438 90.421875 77.449219 C 90.0625 77.9375 90.019531 78.359375 89.753906 78.683594 C 89.289062 79.25 87.105469 79.03125 87.398438 80.121094 C 87.257812 80.089844 87.136719 80.074219 87.027344 80.074219 C 86.625 80.074219 86.425781 80.269531 86.242188 80.460938 C 86.0625 80.652344 85.898438 80.84375 85.574219 80.84375 C 84.796875 81.03125 84.441406 81.394531 83.664062 81.980469 C 84.34375 83.035156 82.277344 82.246094 82.15625 83.171875 C 81.9375 83.074219 81.601562 83.023438 81.304688 83.023438 C 80.832031 83.023438 80.460938 83.15625 80.832031 83.46875 C 80.695312 83.519531 80.546875 83.554688 80.375 83.554688 C 80.761719 83.121094 79.371094 83.265625 79.140625 82.867188 C 79.140625 82.867188 78.746094 82.949219 78.710938 82.957031 C 78.820312 82.996094 79.121094 83.160156 79.207031 83.226562 C 78.992188 83.328125 78.785156 83.382812 78.582031 83.382812 C 78.398438 83.382812 78.214844 83.335938 78.027344 83.226562 C 78.125 83.195312 78.210938 83.148438 78.28125 83.09375 C 77.558594 82.785156 77.164062 82.742188 76.582031 82.617188 C 76.585938 82.617188 75.660156 82.351562 75.660156 82.351562 C 74.933594 82.242188 75.214844 81.949219 75.171875 81.929688 C 75.007812 81.847656 75.113281 81.558594 74.96875 81.496094 C 73.921875 81.515625 73.796875 81.523438 73.667969 81.535156 C 73.542969 81.546875 73.410156 81.558594 73.289062 81.558594 C 73.078125 81.558594 72.890625 81.527344 72.78125 81.402344 C 72.246094 80.816406 74.113281 81.042969 74.171875 80.351562 C 74.042969 80.378906 73.929688 80.394531 73.832031 80.394531 C 73.441406 80.394531 73.230469 80.191406 72.832031 79.976562 C 72.835938 80.203125 73.191406 80.90625 72.710938 80.9375 C 72.472656 80.941406 72.375 80.9375 72.269531 80.9375 C 72.167969 80.933594 72.0625 80.929688 71.96875 80.929688 C 71.621094 80.929688 71.417969 80.976562 71.925781 81.265625 C 71.910156 81.269531 71.644531 81.433594 71.613281 81.433594 C 70.929688 80.945312 71.09375 80.296875 70.507812 79.824219 C 70.859375 80.378906 70.84375 80.941406 71.363281 81.398438 C 70.492188 81.402344 70.035156 81.234375 69.597656 81.109375 C 69.761719 81.113281 69.722656 80.839844 69.613281 80.78125 C 69.46875 80.703125 69.335938 80.683594 69.207031 80.683594 C 67.679688 80.570312 67.113281 80.433594 66.488281 80.265625 C 66.421875 80.25 66.339844 79.980469 65.789062 79.980469 C 64.785156 80.0625 64.050781 80.851562 63.25 81.097656 C 62.671875 81.277344 62.097656 81.605469 61.6875 81.761719 C 60.652344 82.144531 59.761719 82.457031 59.292969 83.300781 C 58.851562 84.082031 59.082031 84.796875 58.953125 85.636719 C 58.792969 86.660156 59.691406 86.597656 59.894531 87.359375 C 59.882812 87.3125 59.453125 87.269531 58.898438 87.269531 C 57.765625 87.269531 56.097656 87.4375 56.296875 88.050781 C 55.28125 88.039062 55.273438 87.859375 54.417969 87.722656 C 54.066406 87.667969 53.804688 87.648438 53.574219 87.648438 C 53.1875 87.648438 52.890625 87.703125 52.421875 87.726562 C 52.113281 87.742188 51.925781 87.761719 51.789062 87.761719 C 51.46875 87.761719 51.417969 87.675781 50.796875 87.308594 C 50.253906 86.988281 49.074219 87.027344 50.078125 86.53125 C 49.832031 86.269531 49.128906 86.003906 48.539062 86.003906 C 48.207031 86.003906 47.90625 86.085938 47.746094 86.304688 C 47.394531 85.730469 47.203125 85.519531 46.355469 85.511719 C 45.671875 85.507812 45.1875 85.183594 44.488281 84.96875 C 44.3125 84.914062 43.484375 84.683594 43.152344 84.683594 C 42.03125 84.792969 42.792969 84.84375 42.226562 85.285156 C 42.308594 85.28125 42.515625 85.558594 42.292969 85.6875 C 41.894531 85.730469 41.71875 85.710938 41.546875 85.695312 C 41.371094 85.675781 41.199219 85.65625 41.066406 85.65625 C 40.628906 85.679688 40.535156 85.578125 40.476562 85.574219 C 40.292969 85.574219 40.171875 85.628906 40.066406 85.679688 C 39.960938 85.730469 39.863281 85.785156 39.761719 85.785156 C 39.453125 85.757812 39.398438 85.40625 38.90625 85.40625 C 38.546875 85.410156 38.070312 85.675781 37.691406 85.675781 C 37.058594 85.558594 36.761719 85.269531 36.710938 84.925781 C 36.144531 84.925781 36.035156 84.847656 35.589844 84.601562 C 35.253906 84.925781 34.917969 85.046875 34.585938 85.046875 C 33.941406 85.046875 33.308594 84.601562 32.691406 84.304688 C 32.429688 84.179688 32.8125 83.863281 32.332031 83.863281 C 31.992188 83.890625 31.894531 83.898438 31.800781 83.898438 C 31.289062 83.898438 31.082031 83.703125 30.582031 83.589844 C 29.972656 83.449219 28.527344 83.296875 28.914062 82.785156 C 28.894531 82.78125 28.070312 83.257812 28.234375 83.316406 C 27.882812 83.191406 27.242188 83.148438 27.710938 82.792969 C 28.476562 82.21875 28.113281 81.808594 27.273438 81.625 C 27.195312 81.609375 27.089844 81.605469 26.96875 81.605469 C 25.992188 81.609375 25.355469 81.546875 25.402344 80.90625 C 28.5 80.917969 28.925781 75.175781 29.191406 73.890625 C 29.304688 73.34375 29.300781 72.996094 29.503906 72.488281 C 29.640625 72.160156 30.957031 72.28125 30.609375 72.023438 C 30.246094 71.746094 29.984375 71.554688 29.777344 71.554688 C 29.539062 71.554688 29.371094 71.804688 29.191406 72.472656 C 29.351562 71.289062 29.378906 70.058594 29.695312 68.890625 C 29.929688 68.039062 29.644531 66.511719 30.585938 65.914062 C 30.621094 66.625 32.34375 67.222656 32.769531 68.003906 C 33.136719 68.664062 33.265625 69.171875 33.738281 69.792969 C 33.929688 70.046875 34.210938 70.324219 34.253906 70.652344 C 34.324219 70.289062 34.203125 69.980469 33.832031 69.753906 C 34.101562 69.816406 34.292969 69.8125 34.542969 69.941406 C 32.988281 69.019531 33.613281 67.898438 32.554688 66.6875 C 31.976562 66.019531 30.378906 65.105469 29.355469 64.953125 C 29.277344 64.488281 29.421875 64.335938 29.667969 64.335938 C 30.078125 64.335938 30.765625 64.773438 31.164062 64.910156 C 29.261719 64.003906 31.039062 63.703125 30.324219 62.789062 C 31.183594 62.789062 30.167969 62.09375 30.058594 61.835938 C 29.988281 61.671875 29.238281 61.5625 30.101562 61.191406 C 30.53125 61.003906 30.332031 60.648438 30.046875 60.648438 C 29.910156 60.648438 29.75 60.726562 29.632812 60.941406 C 28.539062 60.152344 26.265625 60.1875 25.644531 59.117188 C 25.640625 59.199219 25.644531 59.351562 25.664062 59.414062 C 25.421875 58.90625 25.257812 58.449219 24.816406 57.980469 C 24.554688 57.699219 23.425781 57.28125 23.324219 56.945312 C 22.96875 55.738281 25.636719 55.335938 22.546875 54.734375 C 23.464844 54.511719 22.695312 54.035156 23.328125 53.707031 C 23.542969 53.691406 23.722656 53.6875 23.886719 53.6875 C 24.316406 53.6875 24.605469 53.742188 24.976562 53.859375 C 25.125 54.011719 25.621094 54.199219 26.125 54.261719 C 25.613281 54.085938 25.269531 53.953125 24.976562 53.859375 C 24.777344 53.738281 24.273438 53.613281 23.839844 53.613281 C 23.652344 53.613281 23.476562 53.636719 23.347656 53.699219 C 23.191406 53.71875 23.042969 53.730469 22.875 53.746094 C 22.527344 53.78125 22.105469 53.832031 21.691406 53.832031 C 21.230469 53.832031 20.785156 53.769531 20.472656 53.539062 C 20.59375 53.5625 20.6875 53.570312 20.773438 53.570312 C 21.179688 53.53125 20.898438 53.269531 20.902344 53.246094 C 20.785156 53.308594 20.898438 53.414062 20.753906 53.441406 C 20.636719 53.320312 20.507812 53.125 20.378906 52.988281 C 20.761719 52.882812 20.867188 52.820312 20.960938 52.820312 C 21.273438 52.847656 21.445312 52.726562 21.523438 52.703125 C 20.746094 52.535156 20.597656 52.105469 21.703125 52.105469 C 21.320312 52.023438 20.816406 51.964844 20.363281 51.964844 C 20.183594 51.964844 20.011719 51.976562 19.859375 51.996094 C 20.0625 51.871094 20.160156 51.808594 20.246094 51.75 C 20.195312 51.769531 20.007812 51.863281 19.886719 51.863281 C 19.492188 52.054688 19.265625 52.121094 19.015625 52.121094 C 18.621094 52.121094 18.164062 51.949219 17.9375 51.707031 C 18.414062 51.71875 18.417969 51.683594 18.632812 51.640625 C 18.769531 51.699219 18.890625 51.726562 18.992188 51.726562 C 19.351562 51.726562 19.488281 51.410156 19.351562 51.097656 C 19.300781 51.28125 19.328125 51.339844 19.324219 51.339844 C 19.042969 51.175781 18.863281 51.152344 18.777344 51.097656 C 18.707031 51.136719 18.171875 51.316406 17.867188 51.4375 C 17.6875 51.257812 17.757812 51.230469 17.773438 51.136719 C 17.65625 51.074219 17.542969 51.046875 17.496094 50.953125 C 17.601562 51.191406 17.628906 51.488281 17.722656 51.6875 C 17.589844 51.597656 17.503906 51.554688 17.347656 51.433594 C 17.226562 51.5 17.3125 51.4375 17.226562 51.347656 C 16.835938 51.511719 16.707031 51.523438 16.597656 51.53125 C 16.417969 51.6875 16.414062 51.976562 16.714844 52.28125 C 15.851562 52.074219 16.101562 50.769531 16.5 50.433594 C 16.230469 50.578125 16.101562 50.773438 15.757812 50.980469 C 15.46875 50.863281 15.101562 50.792969 14.828125 50.679688 C 14.980469 50.703125 15.136719 50.679688 15.316406 50.71875 C 15.210938 50.6875 14.957031 50.609375 14.828125 50.578125 C 14.96875 50.457031 15.078125 50.257812 15.261719 50.101562 C 15.070312 50.226562 14.859375 50.277344 14.65625 50.386719 C 14.039062 50.550781 13.027344 50.050781 12.417969 49.941406 C 12.085938 49.878906 11.585938 49.75 11.21875 49.664062 C 11.078125 49.632812 10.769531 49.253906 10.464844 49.152344 C 10.460938 49.320312 10.40625 49.371094 10.339844 49.402344 C 9.8125 49.410156 9.683594 49.328125 9.464844 48.996094 C 9.511719 49.121094 9.476562 49.246094 9.605469 49.394531 C 9.5 49.394531 9.34375 49.4375 9.316406 49.496094 C 9.207031 49.378906 9.25 49.378906 9.089844 49.355469 C 9.414062 49.695312 9.019531 49.90625 8.417969 49.90625 C 8.222656 49.90625 8.007812 49.886719 7.792969 49.839844 C 8.65625 48.65625 6.332031 48.421875 5.332031 48.121094 C 5.898438 47.460938 8.410156 48.066406 8.453125 47.296875 C 8.472656 46.90625 8.03125 46.71875 7.558594 46.71875 C 7.148438 46.71875 6.710938 46.859375 6.527344 47.125 C 6.710938 46.738281 6.628906 46.480469 6.054688 46.464844 C 6.351562 46.132812 6.28125 46.1875 6.613281 45.875 C 6.605469 46.210938 7.09375 46.304688 7.636719 46.304688 C 7.964844 46.304688 8.316406 46.269531 8.585938 46.230469 C 8.632812 46.261719 8.894531 46.246094 9.109375 46.230469 C 8.757812 46.167969 8.640625 46.078125 8.15625 46.066406 C 8.277344 45.957031 8.390625 45.871094 8.542969 45.765625 C 8.390625 45.78125 8.304688 45.835938 8.15625 45.871094 C 8.015625 45.84375 7.84375 45.878906 7.585938 45.964844 C 7.5625 45.917969 7.417969 45.933594 7.257812 45.964844 C 7.507812 45.640625 7.90625 45.410156 8.40625 45.261719 C 7.667969 45.421875 6.457031 45.875 5.652344 45.875 C 5.351562 45.875 5.109375 45.8125 4.972656 45.648438 C 4.578125 45.1875 5.128906 44.195312 6.0625 44.195312 C 6.175781 44.195312 6.292969 44.207031 6.417969 44.238281 C 6.417969 44.234375 6.222656 44.003906 6.210938 43.980469 C 6.644531 43.917969 6.511719 43.914062 6.515625 43.785156 C 6.976562 43.785156 7.265625 43.695312 7.609375 43.6875 C 7.667969 43.5625 7.769531 43.488281 7.894531 43.488281 C 8.011719 43.488281 8.152344 43.554688 8.304688 43.703125 C 8.515625 43.699219 8.890625 43.664062 9.089844 43.644531 C 9.109375 43.417969 9.296875 43.308594 9.558594 43.308594 C 9.6875 43.308594 9.835938 43.339844 9.996094 43.390625 C 10.207031 43.171875 10.328125 43.234375 10.625 43.039062 C 10.605469 43.273438 10.796875 43.332031 10.75 43.597656 C 10.824219 43.585938 11.125 43.464844 11.1875 43.449219 C 11.238281 43.542969 11.261719 43.632812 11.464844 43.808594 C 11.449219 43.703125 11.445312 43.550781 11.425781 43.398438 C 11.546875 43.261719 11.617188 43.175781 11.761719 43.042969 C 12.40625 43.195312 12.863281 43.359375 13.425781 43.386719 C 13.578125 43.105469 13.535156 43.21875 13.722656 43.003906 C 13.199219 42.671875 13.527344 42.300781 14.03125 42.300781 C 14.171875 42.300781 14.328125 42.328125 14.480469 42.398438 C 14.917969 42.425781 15.503906 42.195312 15.917969 42.046875 C 15.871094 42.210938 15.925781 42.464844 15.867188 42.609375 C 16.066406 42.25 16.335938 42.101562 16.53125 42.101562 C 16.765625 42.101562 16.902344 42.304688 16.734375 42.605469 C 16.667969 42.660156 16.601562 42.746094 16.523438 42.867188 C 16.621094 42.773438 16.6875 42.6875 16.734375 42.605469 C 16.890625 42.460938 17.042969 42.464844 17.34375 42.414062 C 17.296875 42.457031 17.171875 42.570312 17.101562 42.660156 C 18 42.785156 18.925781 44.085938 19.222656 44.554688 C 19.339844 44.613281 19.492188 44.632812 19.582031 44.742188 C 19.835938 44.472656 21.089844 43.949219 20.945312 43.703125 C 21.0625 43.722656 21.167969 43.730469 21.269531 43.730469 C 21.617188 43.730469 21.902344 43.617188 22.140625 43.351562 C 22.160156 43.484375 22.214844 43.496094 22.375 43.503906 C 22.277344 43.605469 22.140625 43.746094 22.035156 43.863281 C 22.085938 43.839844 22.410156 43.800781 22.589844 43.710938 C 22.683594 43.882812 22.804688 44.039062 22.84375 44.21875 C 22.972656 44.125 22.910156 44.0625 22.992188 43.96875 C 23.015625 43.992188 23.015625 44.214844 23.109375 44.214844 C 23.207031 44.003906 23.214844 44.058594 23.46875 44.023438 C 23.472656 44 23.328125 43.847656 23.328125 43.816406 C 23.453125 43.785156 23.5625 43.769531 23.664062 43.769531 C 24.257812 43.769531 24.386719 44.3125 24.464844 44.730469 C 24.480469 44.683594 24.6875 44.597656 24.746094 44.585938 C 24.695312 44.460938 24.539062 44.351562 24.46875 44.179688 C 23.75 43.703125 24.660156 43.296875 25.425781 43.265625 C 25.082031 43.820312 25.644531 43.964844 26.414062 43.964844 C 26.835938 43.964844 27.320312 43.925781 27.753906 43.878906 C 28.191406 43.835938 28.582031 43.792969 28.808594 43.792969 C 28.53125 43.699219 28.472656 43.660156 28.207031 43.644531 C 27.304688 43.074219 26.816406 41.230469 27.714844 40.902344 C 27.550781 40.945312 27.515625 40.875 27.285156 41.03125 C 27.046875 40.679688 27.0625 40.347656 27.363281 40.054688 C 27.035156 39.8125 26.933594 39.5625 27.515625 39.488281 C 26.742188 39 26.554688 38.839844 26.480469 38.457031 C 26.1875 38.515625 26.019531 38.253906 26.003906 38.246094 C 25.199219 38.113281 25.507812 36.765625 25.417969 36.273438 C 25.347656 35.902344 24.160156 35.839844 25.335938 35.757812 C 25.746094 35.757812 26.425781 36.117188 26.960938 36.140625 C 27.265625 36.140625 27.574219 36.066406 27.890625 35.988281 C 28.210938 35.914062 28.539062 35.839844 28.839844 35.839844 C 29.246094 35.839844 29.59375 35.976562 29.777344 36.453125 C 29.808594 36.535156 29.355469 36.90625 29.429688 37.230469 C 29.542969 37.738281 30.304688 37.921875 30.074219 38.476562 C 30.261719 38.492188 30.414062 38.53125 30.601562 38.53125 C 30.625 38.335938 31.023438 38.261719 31.601562 38.261719 C 32.9375 38.261719 35.242188 38.644531 35.933594 38.765625 C 36.347656 38.839844 36.679688 38.875 36.984375 38.875 C 37.539062 38.875 38.015625 38.753906 38.789062 38.492188 C 39.53125 38.242188 41.148438 37.949219 41.726562 37.496094 C 41.460938 37.648438 40.921875 37.734375 40.386719 37.734375 C 39.472656 37.734375 38.566406 37.484375 39.035156 36.886719 C 39.886719 35.796875 40.425781 35.371094 42.195312 34.878906 C 43.554688 34.5 45.929688 34.535156 46.960938 33.734375 C 47.625 33.21875 48.582031 32.121094 49.503906 32.121094 C 49.664062 32.121094 49.820312 32.152344 49.976562 32.226562 C 49.871094 32.066406 49.964844 32.128906 49.925781 32.015625 C 49.203125 31.863281 48.601562 31 49.554688 30.855469 C 49.265625 30.675781 48.945312 27.253906 49.472656 26.960938 C 51.375 25.894531 54.085938 26.222656 55.945312 25.335938 C 56 25.699219 56.273438 26.445312 56.355469 26.636719 C 56.542969 27.09375 56.472656 27.136719 56.761719 27.480469 C 56.78125 27.480469 57.746094 28.171875 57.757812 28.175781 C 57.925781 28.21875 58.066406 28.234375 58.1875 28.234375 C 58.519531 28.234375 58.707031 28.101562 58.902344 27.964844 C 59.101562 27.832031 59.316406 27.699219 59.707031 27.699219 C 61.210938 27.875 60.761719 29.546875 61.730469 29.996094 C 62.089844 30.046875 62.210938 30.019531 62.335938 29.984375 C 62.464844 29.957031 62.59375 29.925781 62.734375 29.925781 C 62.859375 29.925781 62.996094 29.949219 63.140625 30.03125 C 63.929688 30.464844 63.476562 30.960938 64.050781 31.480469 C 64.21875 31.191406 64.578125 31.074219 64.996094 31.074219 C 65.800781 31.074219 66.824219 31.492188 67.152344 31.855469 C 67.679688 31.796875 67.074219 32.429688 67.019531 32.800781 C 68.117188 33.003906 67.050781 33.515625 67.050781 33.96875 C 67.65625 34.117188 68.238281 34.238281 68.828125 34.238281 C 69.242188 34.238281 69.65625 34.179688 70.082031 34.035156 C 70.953125 33.734375 70.421875 33.523438 70.882812 33.15625 C 71.285156 32.84375 71.605469 32.640625 71.824219 32.640625 C 72.015625 32.640625 72.128906 32.796875 72.140625 33.160156 C 72.0625 33.117188 71.890625 33.449219 71.886719 33.527344 C 71.875 33.730469 71.59375 33.902344 71.582031 34.117188 C 71.574219 34.285156 71.996094 34.242188 72 34.320312 C 72.074219 35.386719 72.183594 35.292969 73.636719 35.691406 C 74.28125 35.867188 75.417969 36.609375 75.507812 36.699219 C 76.066406 37.292969 76.222656 37.441406 76.449219 37.441406 C 76.648438 37.441406 76.902344 37.324219 77.53125 37.289062 C 78.375 37.285156 78.363281 37.515625 79.058594 37.6875 C 79.707031 37.851562 79.84375 37.863281 80.210938 37.863281 C 80.410156 37.863281 80.542969 37.863281 80.707031 37.863281 C 80.910156 37.863281 81.050781 37.859375 81.195312 37.851562 C 81.351562 37.847656 81.519531 37.84375 81.691406 37.84375 C 82.328125 37.84375 83.046875 37.90625 83.59375 38.277344 C 84.128906 38.640625 84.082031 39.355469 84.691406 39.828125 C 84.890625 39.980469 84.917969 40.308594 85.597656 40.320312 C 85.742188 40.320312 85.777344 40.203125 85.832031 40.085938 C 85.886719 39.96875 85.957031 39.851562 86.164062 39.851562 C 86.273438 39.851562 86.421875 39.882812 86.628906 39.964844 C 87.078125 40.148438 86.796875 40.46875 87.21875 40.617188 C 87.914062 40.484375 88.269531 40.523438 88.601562 40.523438 C 88.71875 40.523438 88.832031 40.519531 88.945312 40.511719 C 89.433594 40.476562 89.40625 40.261719 89.875 40.261719 C 90.402344 40.285156 90.210938 40.820312 90.84375 40.898438 C 91.804688 41.023438 93.601562 41.113281 94.492188 41.613281 Z M 51.480469 87.050781 C 51.113281 87.347656 51.503906 87.222656 51.675781 87.339844 C 51.636719 87.3125 51.550781 87.117188 51.480469 87.050781 Z M 51.480469 87.050781 "/>
<path style=" stroke:none;fill-rule:nonzero;fill:rgb(78.823531%,78.823531%,78.823531%);fill-opacity:1;" d="M 10.167969 49.5 C 10.214844 49.441406 10.277344 49.425781 10.332031 49.398438 C 10.339844 49.398438 10.347656 49.398438 10.359375 49.398438 C 10.3125 49.398438 10.320312 49.503906 10.195312 49.503906 C 10.1875 49.503906 10.179688 49.503906 10.167969 49.503906 Z M 10.167969 49.5 "/>
<path style=" stroke:none;fill-rule:nonzero;fill:rgb(78.823531%,78.823531%,78.823531%);fill-opacity:1;" d="M 22.546875 54.730469 L 22.546875 53.273438 C 22.546875 53.273438 24.585938 52.789062 24.644531 52.816406 C 24.699219 52.84375 26.433594 54.152344 26.433594 54.152344 C 26.433594 54.152344 26.734375 54.539062 26.617188 54.652344 C 26.503906 54.765625 26.019531 55.023438 26.019531 55.023438 L 22.542969 54.730469 Z M 22.546875 54.730469 "/>
<path style=" stroke:none;fill-rule:nonzero;fill:rgb(86.666667%,86.666667%,86.666667%);fill-opacity:1;" d="M 16.585938 45.605469 C 16.585938 45.605469 16.582031 45.605469 16.582031 45.601562 C 16.585938 45.601562 16.589844 45.601562 16.589844 45.601562 C 16.589844 45.601562 16.589844 45.605469 16.585938 45.605469 Z M 16.585938 45.605469 "/>
<path style=" stroke:none;fill-rule:nonzero;fill:rgb(86.666667%,86.666667%,86.666667%);fill-opacity:1;" d="M 19.125 45.3125 C 19.0625 45.292969 18.984375 45.277344 18.867188 45.265625 C 18.957031 45.269531 19.042969 45.289062 19.125 45.3125 Z M 19.125 45.3125 "/>
<path style=" stroke:none;fill-rule:nonzero;fill:rgb(86.666667%,86.666667%,86.666667%);fill-opacity:1;" d="M 51.480469 81.125 C 51.550781 81.191406 51.636719 81.386719 51.675781 81.414062 C 51.507812 81.296875 51.113281 81.421875 51.480469 81.125 Z M 51.480469 81.125 "/>
<path style=" stroke:none;fill-rule:nonzero;fill:rgb(86.666667%,86.666667%,86.666667%);fill-opacity:1;" d="M 94.441406 35.691406 C 94.683594 35.691406 95.003906 35.773438 95.203125 35.847656 C 94.71875 36.304688 94.417969 36.839844 93.972656 37.242188 C 93.738281 37.453125 93.101562 37.71875 92.84375 38.027344 C 92.117188 38.902344 92.113281 40.019531 91.628906 40.9375 C 91.039062 42.042969 91.035156 41.890625 91.097656 43.011719 C 91.109375 43.222656 90.796875 43.757812 90.699219 44.007812 C 90.519531 44.484375 90.515625 44.945312 90.496094 45.355469 C 90.472656 45.820312 91.3125 45.980469 90.113281 46.25 C 90.230469 46.507812 90.183594 46.625 89.664062 46.625 C 89.71875 46.9375 89.214844 47.136719 88.746094 47.136719 C 88.339844 47.136719 87.957031 46.988281 88.011719 46.628906 C 87.785156 46.601562 87.59375 46.589844 87.421875 46.589844 C 86.574219 46.589844 86.273438 46.925781 85.820312 47.589844 C 86.15625 47.503906 86.394531 47.460938 86.550781 47.460938 C 87.59375 47.460938 85.195312 49.152344 84.835938 49.4375 C 84.320312 49.851562 83.101562 50.285156 82.738281 50.78125 C 82.605469 50.957031 82.894531 51.632812 82.738281 51.84375 C 82.445312 52.234375 79.039062 53.792969 80.3125 54.351562 C 81.460938 54.859375 79.3125 55.847656 79.425781 56.308594 C 80.136719 56.269531 81.351562 56.121094 81.671875 55.542969 C 81.792969 55.328125 80.941406 55.1875 81.5 54.679688 C 81.859375 54.34375 83.164062 54.015625 83.730469 54.015625 C 85.808594 54.070312 84.585938 54.371094 85.007812 54.894531 C 85.324219 55.289062 84.917969 56.277344 85.367188 56.351562 C 86.207031 56.484375 85.304688 56.636719 85.613281 56.886719 C 86.683594 57.742188 86.933594 57.402344 85.808594 58.351562 C 85.003906 59.027344 85.339844 58.855469 85.972656 59.65625 C 86.167969 59.910156 86.179688 60.296875 86.445312 60.597656 C 86.648438 60.820312 87.566406 61.140625 87.671875 61.375 C 88.035156 62.15625 86.808594 62.554688 86.308594 62.796875 C 85.941406 62.976562 85.804688 63.273438 85.507812 63.347656 C 85.277344 63.359375 85.148438 63.320312 85.015625 63.28125 C 84.882812 63.238281 84.738281 63.199219 84.59375 63.199219 C 84.492188 63.199219 84.386719 63.21875 84.28125 63.277344 C 83.636719 63.617188 84.101562 63.601562 84.238281 64.042969 C 84.242188 64.0625 84.847656 64.902344 85.03125 65.027344 C 85.582031 65.390625 86.15625 65.109375 86.609375 65.527344 C 86.746094 65.648438 86.765625 66.222656 86.945312 66.433594 C 85.921875 66.425781 84.972656 67.675781 85.972656 68.136719 C 84.996094 68.6875 86.402344 69.257812 86.851562 69.484375 C 87.828125 69.976562 88.472656 70.140625 89.203125 70.140625 C 89.730469 70.140625 90.308594 70.054688 91.082031 69.945312 C 91.523438 70.746094 90.878906 70.847656 90.382812 71.523438 C 90.019531 72.011719 89.976562 72.433594 89.714844 72.757812 C 89.246094 73.324219 87.066406 73.105469 87.355469 74.195312 C 87.21875 74.164062 87.09375 74.148438 86.988281 74.148438 C 86.582031 74.148438 86.382812 74.34375 86.199219 74.535156 C 86.019531 74.726562 85.855469 74.917969 85.53125 74.917969 C 84.753906 75.105469 84.402344 75.46875 83.621094 76.054688 C 84.304688 77.109375 82.234375 76.320312 82.113281 77.246094 C 81.894531 77.148438 81.558594 77.097656 81.261719 77.097656 C 80.789062 77.097656 80.417969 77.230469 80.789062 77.542969 C 80.65625 77.59375 80.503906 77.628906 80.332031 77.628906 C 80.722656 77.195312 79.328125 77.339844 79.097656 76.941406 C 79.097656 76.941406 78.703125 77.023438 78.667969 77.03125 C 78.777344 77.070312 79.078125 77.234375 79.164062 77.300781 C 78.949219 77.402344 78.742188 77.457031 78.539062 77.457031 C 78.355469 77.457031 78.171875 77.410156 77.988281 77.300781 C 78.082031 77.269531 78.167969 77.222656 78.242188 77.167969 C 77.515625 76.859375 77.121094 76.816406 76.539062 76.691406 C 76.546875 76.691406 75.617188 76.425781 75.617188 76.425781 C 74.890625 76.316406 75.171875 76.023438 75.132812 76.003906 C 74.964844 75.921875 75.070312 75.632812 74.925781 75.570312 C 73.882812 75.589844 73.753906 75.597656 73.628906 75.609375 C 73.5 75.621094 73.367188 75.632812 73.246094 75.632812 C 73.035156 75.632812 72.847656 75.601562 72.738281 75.476562 C 72.203125 74.890625 74.070312 75.117188 74.132812 74.425781 C 74 74.453125 73.890625 74.46875 73.789062 74.46875 C 73.398438 74.46875 73.1875 74.265625 72.789062 74.050781 C 72.796875 74.277344 73.152344 74.980469 72.667969 75.011719 C 72.429688 75.015625 72.332031 75.011719 72.230469 75.011719 C 72.125 75.007812 72.019531 75.003906 71.925781 75.003906 C 71.578125 75.003906 71.378906 75.050781 71.886719 75.339844 C 71.867188 75.34375 71.601562 75.507812 71.570312 75.507812 C 70.890625 75.019531 71.050781 74.371094 70.464844 73.898438 C 70.816406 74.453125 70.800781 75.015625 71.324219 75.472656 C 70.449219 75.476562 69.992188 75.308594 69.554688 75.183594 C 69.71875 75.1875 69.679688 74.914062 69.570312 74.855469 C 69.425781 74.777344 69.296875 74.757812 69.164062 74.757812 C 67.640625 74.644531 67.074219 74.507812 66.445312 74.339844 C 66.382812 74.324219 66.296875 74.054688 65.746094 74.054688 C 64.742188 74.136719 64.007812 74.925781 63.210938 75.171875 C 62.628906 75.351562 62.054688 75.679688 61.644531 75.835938 C 60.609375 76.21875 59.722656 76.53125 59.25 77.375 C 58.8125 78.15625 59.039062 78.871094 58.910156 79.710938 C 58.75 80.734375 59.648438 80.671875 59.851562 81.433594 C 59.839844 81.386719 59.410156 81.34375 58.855469 81.34375 C 57.726562 81.34375 56.058594 81.511719 56.253906 82.125 C 55.242188 82.113281 55.234375 81.933594 54.375 81.796875 C 54.023438 81.742188 53.761719 81.722656 53.53125 81.722656 C 53.144531 81.722656 52.847656 81.777344 52.378906 81.800781 C 52.074219 81.816406 51.882812 81.835938 51.746094 81.835938 C 51.425781 81.835938 51.378906 81.75 50.753906 81.382812 C 50.214844 81.0625 49.03125 81.101562 50.035156 80.605469 C 49.789062 80.34375 49.085938 80.078125 48.496094 80.078125 C 48.164062 80.078125 47.863281 80.160156 47.703125 80.378906 C 47.351562 79.804688 47.160156 79.59375 46.3125 79.585938 C 45.628906 79.582031 45.144531 79.257812 44.445312 79.042969 C 44.269531 78.988281 43.441406 78.757812 43.109375 78.757812 C 41.992188 78.867188 42.75 78.917969 42.183594 79.359375 C 42.265625 79.355469 42.476562 79.632812 42.25 79.761719 C 41.851562 79.804688 41.675781 79.785156 41.503906 79.769531 C 41.328125 79.75 41.15625 79.730469 41.023438 79.730469 C 40.585938 79.753906 40.492188 79.652344 40.433594 79.648438 C 40.25 79.648438 40.132812 79.703125 40.023438 79.753906 C 39.917969 79.804688 39.820312 79.859375 39.71875 79.859375 C 39.410156 79.832031 39.355469 79.480469 38.863281 79.480469 C 38.503906 79.484375 38.027344 79.75 37.648438 79.75 C 37.015625 79.632812 36.71875 79.34375 36.667969 79 C 36.101562 79 35.992188 78.921875 35.550781 78.675781 C 35.214844 79 34.878906 79.121094 34.542969 79.121094 C 33.902344 79.121094 33.265625 78.675781 32.652344 78.378906 C 32.390625 78.253906 32.769531 77.9375 32.289062 77.9375 C 31.949219 77.964844 31.851562 77.972656 31.757812 77.972656 C 31.246094 77.972656 31.039062 77.777344 30.539062 77.664062 C 29.929688 77.523438 28.484375 77.371094 28.871094 76.859375 C 28.851562 76.855469 28.027344 77.332031 28.191406 77.390625 C 27.839844 77.265625 27.199219 77.222656 27.667969 76.867188 C 28.433594 76.292969 28.070312 75.882812 27.230469 75.699219 C 27.15625 75.683594 27.050781 75.679688 26.925781 75.679688 C 25.949219 75.683594 25.316406 75.621094 25.359375 74.980469 C 28.457031 74.992188 28.882812 69.25 29.148438 67.964844 C 29.261719 67.417969 29.257812 67.070312 29.464844 66.5625 C 29.597656 66.234375 30.914062 66.355469 30.570312 66.097656 C 30.203125 65.820312 29.941406 65.628906 29.734375 65.628906 C 29.496094 65.628906 29.328125 65.878906 29.152344 66.546875 C 29.308594 65.363281 29.335938 64.132812 29.652344 62.964844 C 29.886719 62.113281 29.601562 60.585938 30.546875 59.988281 C 30.578125 60.699219 32.300781 61.296875 32.730469 62.078125 C 33.09375 62.738281 33.226562 63.246094 33.695312 63.867188 C 33.890625 64.121094 34.167969 64.398438 34.210938 64.726562 C 34.28125 64.363281 34.160156 64.054688 33.789062 63.828125 C 34.0625 63.890625 34.25 63.886719 34.5 64.015625 C 32.945312 63.09375 33.574219 61.972656 32.511719 60.761719 C 31.933594 60.09375 30.335938 59.179688 29.3125 59.027344 C 29.238281 58.5625 29.382812 58.40625 29.625 58.40625 C 30.035156 58.40625 30.726562 58.847656 31.121094 58.984375 C 29.21875 58.078125 30.996094 57.777344 30.28125 56.863281 C 31.140625 56.863281 30.128906 56.167969 30.015625 55.90625 C 29.945312 55.746094 29.195312 55.636719 30.058594 55.265625 C 30.488281 55.078125 30.289062 54.722656 30.003906 54.722656 C 29.867188 54.722656 29.710938 54.800781 29.589844 55.015625 C 28.496094 54.226562 26.226562 54.261719 25.601562 53.191406 C 25.597656 53.273438 25.601562 53.425781 25.621094 53.488281 C 25.378906 52.980469 25.21875 52.523438 24.773438 52.054688 C 24.511719 51.773438 23.382812 51.355469 23.28125 51.019531 C 22.925781 49.8125 25.59375 49.40625 22.503906 48.808594 C 23.421875 48.585938 22.652344 48.109375 23.285156 47.78125 C 23.5 47.765625 23.679688 47.761719 23.84375 47.761719 C 24.273438 47.761719 24.5625 47.816406 24.933594 47.933594 C 25.082031 48.085938 25.578125 48.273438 26.082031 48.335938 C 25.574219 48.160156 25.230469 48.027344 24.933594 47.933594 C 24.738281 47.8125 24.234375 47.6875 23.796875 47.6875 C 23.609375 47.6875 23.433594 47.710938 23.304688 47.773438 C 23.148438 47.792969 23 47.804688 22.832031 47.820312 C 22.488281 47.855469 22.0625 47.90625 21.648438 47.90625 C 21.1875 47.90625 20.742188 47.84375 20.429688 47.613281 C 20.550781 47.636719 20.648438 47.644531 20.730469 47.644531 C 21.140625 47.605469 20.855469 47.34375 20.859375 47.320312 C 20.742188 47.382812 20.855469 47.488281 20.710938 47.515625 C 20.59375 47.394531 20.46875 47.199219 20.335938 47.0625 C 20.722656 46.957031 20.824219 46.894531 20.917969 46.894531 C 21.234375 46.921875 21.40625 46.800781 21.480469 46.777344 C 20.703125 46.609375 20.554688 46.179688 21.660156 46.179688 C 21.277344 46.097656 20.773438 46.039062 20.324219 46.039062 C 20.144531 46.039062 19.972656 46.050781 19.820312 46.070312 C 20.019531 45.945312 20.117188 45.882812 20.203125 45.824219 C 20.152344 45.84375 19.96875 45.9375 19.84375 45.9375 C 19.449219 46.128906 19.222656 46.195312 18.976562 46.195312 C 18.578125 46.195312 18.121094 46.023438 17.894531 45.78125 C 18.371094 45.792969 18.378906 45.757812 18.589844 45.714844 C 18.726562 45.773438 18.847656 45.800781 18.949219 45.800781 C 19.308594 45.800781 19.445312 45.484375 19.308594 45.171875 C 19.257812 45.355469 19.285156 45.414062 19.28125 45.414062 C 19 45.25 18.820312 45.226562 18.734375 45.171875 C 18.664062 45.210938 18.128906 45.390625 17.824219 45.511719 C 17.644531 45.332031 17.71875 45.304688 17.734375 45.210938 C 17.613281 45.148438 17.5 45.121094 17.453125 45.027344 C 17.5625 45.265625 17.585938 45.5625 17.679688 45.761719 C 17.550781 45.671875 17.460938 45.628906 17.304688 45.507812 C 17.183594 45.574219 17.269531 45.511719 17.183594 45.421875 C 16.792969 45.585938 16.664062 45.597656 16.554688 45.605469 C 16.375 45.761719 16.371094 46.050781 16.671875 46.355469 C 15.808594 46.148438 16.058594 44.84375 16.457031 44.507812 C 16.1875 44.652344 16.058594 44.847656 15.714844 45.054688 C 15.425781 44.9375 15.058594 44.867188 14.785156 44.753906 C 14.9375 44.777344 15.09375 44.753906 15.273438 44.792969 C 15.167969 44.761719 14.914062 44.683594 14.785156 44.652344 C 14.925781 44.53125 15.035156 44.332031 15.21875 44.175781 C 15.027344 44.300781 14.820312 44.351562 14.613281 44.460938 C 13.996094 44.625 12.988281 44.125 12.375 44.015625 C 12.046875 43.953125 11.546875 43.824219 11.175781 43.738281 C 11.035156 43.707031 10.726562 43.328125 10.421875 43.226562 C 10.417969 43.394531 10.363281 43.445312 10.296875 43.476562 C 9.769531 43.484375 9.640625 43.402344 9.421875 43.070312 C 9.46875 43.195312 9.433594 43.320312 9.566406 43.46875 C 9.457031 43.46875 9.304688 43.511719 9.273438 43.570312 C 9.164062 43.453125 9.207031 43.453125 9.046875 43.429688 C 9.371094 43.769531 8.976562 43.980469 8.375 43.980469 C 8.179688 43.980469 7.96875 43.960938 7.75 43.914062 C 8.613281 42.730469 6.289062 42.496094 5.289062 42.195312 C 5.855469 41.535156 8.367188 42.140625 8.410156 41.371094 C 8.429688 40.980469 7.992188 40.792969 7.515625 40.792969 C 7.105469 40.792969 6.667969 40.933594 6.484375 41.199219 C 6.667969 40.8125 6.585938 40.554688 6.011719 40.539062 C 6.3125 40.207031 6.238281 40.261719 6.574219 39.949219 C 6.566406 40.285156 7.050781 40.378906 7.59375 40.378906 C 7.921875 40.378906 8.273438 40.34375 8.546875 40.304688 C 8.589844 40.335938 8.851562 40.320312 9.066406 40.304688 C 8.71875 40.242188 8.597656 40.152344 8.113281 40.140625 C 8.234375 40.03125 8.347656 39.945312 8.5 39.839844 C 8.347656 39.855469 8.261719 39.910156 8.113281 39.945312 C 7.976562 39.917969 7.800781 39.953125 7.546875 40.039062 C 7.519531 39.992188 7.378906 40.007812 7.21875 40.039062 C 7.46875 39.714844 7.863281 39.484375 8.363281 39.335938 C 7.625 39.496094 6.414062 39.949219 5.609375 39.949219 C 5.3125 39.949219 5.070312 39.886719 4.929688 39.722656 C 4.535156 39.261719 5.085938 38.269531 6.019531 38.269531 C 6.132812 38.269531 6.25 38.28125 6.375 38.3125 C 6.378906 38.308594 6.179688 38.078125 6.167969 38.054688 C 6.601562 37.992188 6.472656 37.988281 6.476562 37.859375 C 6.933594 37.859375 7.226562 37.769531 7.566406 37.761719 C 7.628906 37.636719 7.730469 37.5625 7.851562 37.5625 C 7.972656 37.5625 8.109375 37.628906 8.261719 37.777344 C 8.476562 37.773438 8.847656 37.738281 9.046875 37.71875 C 9.070312 37.492188 9.253906 37.382812 9.515625 37.382812 C 9.648438 37.382812 9.796875 37.414062 9.953125 37.464844 C 10.164062 37.246094 10.285156 37.308594 10.582031 37.113281 C 10.566406 37.347656 10.753906 37.40625 10.707031 37.671875 C 10.78125 37.65625 11.082031 37.539062 11.148438 37.523438 C 11.195312 37.617188 11.21875 37.707031 11.421875 37.882812 C 11.40625 37.777344 11.40625 37.625 11.386719 37.472656 C 11.503906 37.335938 11.574219 37.25 11.722656 37.117188 C 12.363281 37.269531 12.820312 37.433594 13.382812 37.460938 C 13.535156 37.179688 13.492188 37.292969 13.679688 37.078125 C 13.15625 36.746094 13.488281 36.375 13.988281 36.375 C 14.132812 36.375 14.285156 36.402344 14.4375 36.472656 C 14.875 36.5 15.460938 36.269531 15.878906 36.121094 C 15.828125 36.285156 15.882812 36.539062 15.824219 36.683594 C 16.023438 36.324219 16.292969 36.175781 16.492188 36.175781 C 16.722656 36.175781 16.859375 36.378906 16.691406 36.679688 C 16.625 36.734375 16.558594 36.820312 16.480469 36.941406 C 16.578125 36.847656 16.644531 36.761719 16.691406 36.679688 C 16.847656 36.535156 17 36.539062 17.300781 36.488281 C 17.253906 36.53125 17.132812 36.644531 17.0625 36.734375 C 17.957031 36.859375 18.882812 38.15625 19.179688 38.628906 C 19.300781 38.6875 19.449219 38.707031 19.539062 38.816406 C 19.792969 38.546875 21.046875 38.023438 20.90625 37.777344 C 21.019531 37.796875 21.128906 37.804688 21.230469 37.804688 C 21.574219 37.804688 21.859375 37.691406 22.097656 37.425781 C 22.117188 37.558594 22.171875 37.570312 22.332031 37.578125 C 22.238281 37.679688 22.097656 37.820312 21.992188 37.9375 C 22.046875 37.914062 22.367188 37.875 22.546875 37.785156 C 22.644531 37.957031 22.761719 38.113281 22.800781 38.292969 C 22.929688 38.199219 22.867188 38.136719 22.949219 38.042969 C 22.976562 38.066406 22.972656 38.289062 23.070312 38.289062 C 23.164062 38.078125 23.171875 38.132812 23.425781 38.097656 C 23.429688 38.074219 23.285156 37.921875 23.285156 37.890625 C 23.410156 37.859375 23.519531 37.84375 23.621094 37.84375 C 24.214844 37.84375 24.34375 38.386719 24.421875 38.804688 C 24.4375 38.757812 24.644531 38.671875 24.703125 38.65625 C 24.652344 38.535156 24.496094 38.425781 24.425781 38.253906 C 23.710938 37.777344 24.617188 37.371094 25.382812 37.339844 C 25.039062 37.894531 25.601562 38.039062 26.371094 38.039062 C 26.792969 38.039062 27.277344 38 27.710938 37.953125 C 28.148438 37.910156 28.539062 37.867188 28.765625 37.867188 C 28.492188 37.773438 28.429688 37.734375 28.164062 37.71875 C 27.261719 37.148438 26.773438 35.304688 27.671875 34.976562 C 27.507812 35.019531 27.472656 34.949219 27.242188 35.105469 C 27.003906 34.753906 27.019531 34.421875 27.320312 34.128906 C 26.992188 33.886719 26.894531 33.636719 27.476562 33.5625 C 26.699219 33.074219 26.511719 32.914062 26.4375 32.53125 C 26.144531 32.589844 25.980469 32.328125 25.960938 32.320312 C 25.15625 32.1875 25.464844 30.839844 25.375 30.347656 C 25.308594 29.976562 24.117188 29.914062 25.296875 29.832031 C 25.703125 29.832031 26.386719 30.191406 26.917969 30.214844 C 27.226562 30.214844 27.53125 30.140625 27.847656 30.0625 C 28.167969 29.988281 28.496094 29.914062 28.796875 29.914062 C 29.203125 29.914062 29.550781 30.050781 29.734375 30.527344 C 29.765625 30.609375 29.316406 30.980469 29.390625 31.304688 C 29.5 31.8125 30.261719 31.996094 30.03125 32.550781 C 30.21875 32.566406 30.371094 32.605469 30.558594 32.605469 C 30.582031 32.40625 30.980469 32.335938 31.558594 32.335938 C 32.894531 32.335938 35.199219 32.71875 35.894531 32.839844 C 36.308594 32.914062 36.636719 32.949219 36.941406 32.949219 C 37.496094 32.949219 37.976562 32.828125 38.746094 32.566406 C 39.492188 32.316406 41.105469 32.023438 41.683594 31.570312 C 41.417969 31.722656 40.882812 31.808594 40.34375 31.808594 C 39.429688 31.808594 38.523438 31.558594 38.992188 30.960938 C 39.84375 29.871094 40.386719 29.445312 42.15625 28.953125 C 43.511719 28.574219 45.890625 28.609375 46.917969 27.808594 C 47.582031 27.292969 48.539062 26.195312 49.464844 26.195312 C 49.621094 26.195312 49.777344 26.226562 49.933594 26.300781 C 49.828125 26.140625 49.921875 26.203125 49.882812 26.089844 C 49.160156 25.9375 48.558594 25.074219 49.511719 24.929688 C 49.226562 24.75 48.902344 21.328125 49.429688 21.035156 C 51.332031 19.96875 54.042969 20.296875 55.902344 19.410156 C 55.957031 19.773438 56.234375 20.519531 56.3125 20.710938 C 56.5 21.167969 56.429688 21.210938 56.722656 21.554688 C 56.742188 21.554688 57.703125 22.246094 57.71875 22.25 C 57.886719 22.292969 58.023438 22.308594 58.144531 22.308594 C 58.480469 22.308594 58.664062 22.175781 58.859375 22.039062 C 59.0625 21.90625 59.273438 21.773438 59.664062 21.773438 C 61.167969 21.949219 60.71875 23.621094 61.6875 24.070312 C 62.046875 24.121094 62.167969 24.09375 62.296875 24.058594 C 62.421875 24.03125 62.554688 24 62.691406 24 C 62.820312 24 62.953125 24.023438 63.097656 24.105469 C 63.890625 24.539062 63.433594 25.035156 64.007812 25.554688 C 64.175781 25.265625 64.535156 25.148438 64.953125 25.148438 C 65.757812 25.148438 66.78125 25.566406 67.109375 25.929688 C 67.640625 25.871094 67.03125 26.503906 66.976562 26.875 C 68.074219 27.078125 67.007812 27.589844 67.007812 28.042969 C 67.613281 28.191406 68.195312 28.3125 68.785156 28.3125 C 69.199219 28.3125 69.613281 28.253906 70.039062 28.109375 C 70.910156 27.808594 70.378906 27.597656 70.839844 27.230469 C 71.242188 26.917969 71.5625 26.714844 71.78125 26.714844 C 71.972656 26.714844 72.085938 26.871094 72.097656 27.234375 C 72.019531 27.191406 71.847656 27.523438 71.84375 27.601562 C 71.832031 27.804688 71.550781 27.976562 71.539062 28.191406 C 71.53125 28.359375 71.953125 28.316406 71.960938 28.394531 C 72.03125 29.460938 72.144531 29.367188 73.59375 29.765625 C 74.242188 29.941406 75.378906 30.683594 75.464844 30.773438 C 76.023438 31.367188 76.179688 31.515625 76.40625 31.515625 C 76.605469 31.515625 76.859375 31.398438 77.492188 31.363281 C 78.332031 31.359375 78.320312 31.589844 79.015625 31.761719 C 79.664062 31.925781 79.804688 31.9375 80.167969 31.9375 C 80.367188 31.9375 80.5 31.9375 80.664062 31.9375 C 80.867188 31.9375 81.007812 31.933594 81.15625 31.925781 C 81.3125 31.921875 81.476562 31.917969 81.652344 31.917969 C 82.285156 31.917969 83.003906 31.980469 83.554688 32.351562 C 84.085938 32.714844 84.039062 33.429688 84.648438 33.902344 C 84.847656 34.054688 84.875 34.382812 85.554688 34.394531 C 85.699219 34.394531 85.734375 34.277344 85.789062 34.160156 C 85.84375 34.042969 85.914062 33.925781 86.121094 33.925781 C 86.234375 33.925781 86.382812 33.957031 86.585938 34.039062 C 87.035156 34.222656 86.753906 34.542969 87.175781 34.691406 C 87.871094 34.558594 88.226562 34.597656 88.558594 34.597656 C 88.675781 34.597656 88.789062 34.59375 88.902344 34.585938 C 89.394531 34.550781 89.363281 34.335938 89.832031 34.335938 C 90.359375 34.359375 90.167969 34.894531 90.800781 34.972656 C 91.761719 35.097656 93.5625 35.1875 94.449219 35.6875 Z M 51.4375 81.125 C 51.074219 81.421875 51.464844 81.296875 51.632812 81.414062 C 51.59375 81.386719 51.507812 81.191406 51.4375 81.125 Z M 51.4375 81.125 "/>
<path style=" stroke:none;fill-rule:nonzero;fill:rgb(86.666667%,86.666667%,86.666667%);fill-opacity:1;" d="M 10.167969 43.578125 C 10.214844 43.519531 10.277344 43.503906 10.332031 43.476562 C 10.339844 43.476562 10.347656 43.476562 10.359375 43.476562 C 10.3125 43.476562 10.320312 43.582031 10.195312 43.582031 C 10.1875 43.582031 10.179688 43.582031 10.167969 43.582031 Z M 10.167969 43.578125 "/>
<path style=" stroke:none;fill-rule:nonzero;fill:url(#linear0);" d="M 68.957031 41.261719 C 71.9375 41.261719 74.351562 40.59375 74.351562 39.765625 C 74.351562 38.941406 71.9375 38.269531 68.957031 38.269531 C 65.976562 38.269531 63.5625 38.941406 63.5625 39.765625 C 63.5625 40.59375 65.976562 41.261719 68.957031 41.261719 Z M 68.957031 41.261719 "/>
<path style=" stroke:none;fill-rule:nonzero;fill:rgb(35.686275%,59.607846%,89.019608%);fill-opacity:1;" d="M 62.339844 27.226562 L 61.667969 27.226562 L 61.667969 29.289062 L 62.339844 29.289062 Z M 62.339844 27.226562 "/>
<path style=" stroke:none;fill-rule:nonzero;fill:rgb(35.686275%,59.607846%,89.019608%);fill-opacity:1;" d="M 76.25 27.226562 L 75.578125 27.226562 L 75.578125 29.289062 L 76.25 29.289062 Z M 76.25 27.226562 "/>
<path style=" stroke:none;fill-rule:nonzero;fill:rgb(35.686275%,59.607846%,89.019608%);fill-opacity:1;" d="M 76.25 27.402344 C 76.25 31.429688 68.957031 22.683594 68.957031 22.683594 C 68.957031 22.683594 61.664062 31.429688 61.664062 27.402344 C 61.664062 23.375 64.929688 20.109375 68.957031 20.109375 C 72.984375 20.109375 76.25 23.375 76.25 27.402344 Z M 76.25 27.402344 "/>
<path style=" stroke:none;fill-rule:nonzero;fill:rgb(0%,23.921569%,64.705884%);fill-opacity:1;" d="M 68.957031 21.871094 C 64.929688 21.871094 61.664062 25.136719 61.664062 29.164062 C 61.664062 34.476562 67.402344 38.777344 68.695312 39.679688 C 68.855469 39.789062 69.0625 39.796875 69.222656 39.695312 C 70.539062 38.875 76.246094 34.972656 76.246094 29.164062 C 76.246094 25.136719 72.984375 21.871094 68.957031 21.871094 Z M 68.957031 33.175781 C 66.742188 33.175781 64.945312 31.378906 64.945312 29.164062 C 64.945312 26.949219 66.742188 25.152344 68.957031 25.152344 C 71.171875 25.152344 72.96875 26.949219 72.96875 29.164062 C 72.96875 31.378906 71.171875 33.175781 68.957031 33.175781 Z M 68.957031 33.175781 "/>
<path style=" stroke:none;fill-rule:nonzero;fill:rgb(35.686275%,59.607846%,89.019608%);fill-opacity:1;" d="M 68.957031 31.410156 C 67.046875 31.410156 65.445312 30.074219 65.046875 28.28125 C 64.980469 28.566406 64.945312 28.859375 64.945312 29.160156 C 64.945312 31.375 66.742188 33.171875 68.957031 33.171875 C 71.171875 33.171875 72.96875 31.375 72.96875 29.160156 C 72.96875 28.859375 72.933594 28.566406 72.871094 28.28125 C 72.46875 30.074219 70.871094 31.410156 68.957031 31.410156 Z M 68.957031 31.410156 "/>
<path style=" stroke:none;fill-rule:nonzero;fill:rgb(100%,100%,100%);fill-opacity:1;" d="M 68.957031 22.046875 C 72.882812 22.046875 76.25 25.238281 76.25 29.164062 C 76.25 25.136719 72.984375 21.871094 68.957031 21.871094 C 64.929688 21.871094 61.664062 25.136719 61.664062 29.164062 C 61.664062 25.238281 65.03125 22.046875 68.957031 22.046875 Z M 64.945312 29.164062 L 64.945312 29.054688 C 64.945312 29.054688 64.9375 29.070312 64.9375 29.101562 C 64.933594 29.136719 64.933594 29.164062 64.933594 29.164062 C 64.933594 31.472656 66.648438 33.351562 68.957031 33.351562 C 71.265625 33.351562 72.980469 31.472656 72.980469 29.164062 C 72.980469 29.164062 72.976562 29.125 72.976562 29.097656 C 72.972656 29.066406 72.964844 29.054688 72.964844 29.054688 L 72.964844 29.164062 M 72.964844 29.164062 C 72.964844 31.378906 71.167969 33.175781 68.957031 33.175781 C 66.742188 33.175781 64.945312 31.378906 64.945312 29.164062 "/>
<path style=" stroke:none;fill-rule:nonzero;fill:url(#linear1);" d="M 58.710938 56.925781 C 58.710938 56.925781 56.890625 57.132812 55.699219 56.285156 L 54.507812 55.4375 L 46.90625 51.066406 C 46.90625 51.066406 45.15625 51.089844 44.410156 50.527344 C 43.664062 49.964844 42.746094 48.113281 42.746094 48.113281 L 40.605469 47.316406 L 48.730469 41.871094 L 68.136719 50.53125 L 69.359375 51.859375 L 60.761719 57.109375 L 58.707031 56.925781 Z M 58.710938 56.925781 "/>
<path style=" stroke:none;fill-rule:nonzero;fill:rgb(29.803923%,29.803923%,29.803923%);fill-opacity:1;" d="M 44.816406 47.515625 L 44.519531 47.738281 L 44.410156 47.183594 L 45.023438 46.210938 C 45.023438 46.210938 45.792969 46.203125 45.824219 46.210938 C 45.851562 46.21875 46.382812 46.480469 46.382812 46.480469 Z M 44.816406 47.515625 "/>
<path style=" stroke:none;fill-rule:nonzero;fill:rgb(20%,20%,18.82353%);fill-opacity:1;" d="M 47.753906 49.203125 L 46.90625 49.71875 L 47.003906 48.628906 Z M 47.753906 49.203125 "/>
<path style=" stroke:none;fill-rule:nonzero;fill:rgb(20%,20%,18.82353%);fill-opacity:1;" d="M 44.878906 47.3125 C 44.878906 47.3125 44.996094 46.960938 45.460938 46.714844 C 45.644531 46.617188 45.996094 46.480469 45.996094 46.480469 L 47.203125 47.4375 L 47.558594 48.671875 Z M 44.878906 47.3125 "/>
<path style=" stroke:none;fill-rule:nonzero;fill:rgb(32.941177%,32.549021%,28.627452%);fill-opacity:1;" d="M 46.828125 49.769531 C 47.363281 49.476562 47.4375 48.59375 46.996094 47.796875 C 46.558594 47.003906 45.769531 46.597656 45.238281 46.894531 C 44.707031 47.1875 44.628906 48.070312 45.070312 48.863281 C 45.507812 49.660156 46.296875 50.066406 46.828125 49.769531 Z M 46.828125 49.769531 "/>
<path style=" stroke:none;fill-rule:nonzero;fill:rgb(20%,20%,18.82353%);fill-opacity:1;" d="M 46.394531 48.984375 C 46.636719 48.851562 46.671875 48.449219 46.472656 48.089844 C 46.273438 47.730469 45.914062 47.546875 45.671875 47.679688 C 45.429688 47.8125 45.398438 48.214844 45.597656 48.574219 C 45.796875 48.933594 46.152344 49.117188 46.394531 48.984375 Z M 46.394531 48.984375 "/>
<path style=" stroke:none;fill-rule:nonzero;fill:rgb(62.7451%,47.843137%,44.705883%);fill-opacity:1;" d="M 46.363281 48.910156 L 46.132812 49.027344 L 46.152344 48.839844 Z M 46.363281 48.910156 "/>
<path style=" stroke:none;fill-rule:nonzero;fill:rgb(62.7451%,47.843137%,44.705883%);fill-opacity:1;" d="M 45.484375 47.808594 L 45.726562 47.6875 L 45.660156 47.863281 Z M 45.484375 47.808594 "/>
<path style=" stroke:none;fill-rule:nonzero;fill:rgb(62.7451%,47.843137%,44.705883%);fill-opacity:1;" d="M 46.351562 48.917969 C 46.574219 48.796875 46.605469 48.425781 46.421875 48.089844 C 46.238281 47.757812 45.90625 47.589844 45.683594 47.710938 C 45.460938 47.835938 45.429688 48.207031 45.613281 48.539062 C 45.796875 48.871094 46.128906 49.042969 46.351562 48.917969 Z M 46.351562 48.917969 "/>
<path style=" stroke:none;fill-rule:nonzero;fill:rgb(62.7451%,47.843137%,44.705883%);fill-opacity:1;" d="M 46.15625 49.019531 C 46.378906 48.894531 46.410156 48.523438 46.226562 48.191406 C 46.042969 47.855469 45.710938 47.6875 45.488281 47.808594 C 45.265625 47.933594 45.234375 48.304688 45.417969 48.636719 C 45.601562 48.972656 45.933594 49.140625 46.15625 49.019531 Z M 46.15625 49.019531 "/>
<path style=" stroke:none;fill-rule:nonzero;fill:rgb(73.725492%,58.431375%,54.509807%);fill-opacity:1;" d="M 46.148438 49.003906 C 46.367188 48.882812 46.398438 48.519531 46.21875 48.195312 C 46.039062 47.871094 45.714844 47.707031 45.496094 47.824219 C 45.277344 47.945312 45.246094 48.308594 45.425781 48.632812 C 45.605469 48.957031 45.929688 49.121094 46.148438 49.003906 Z M 46.148438 49.003906 "/>
<path style=" stroke:none;fill-rule:nonzero;fill:rgb(34.509805%,34.509805%,29.411766%);fill-opacity:1;" d="M 45.921875 48.597656 C 45.992188 48.558594 46 48.445312 45.945312 48.347656 C 45.890625 48.246094 45.789062 48.195312 45.722656 48.230469 C 45.652344 48.269531 45.644531 48.382812 45.699219 48.480469 C 45.753906 48.582031 45.855469 48.632812 45.921875 48.597656 Z M 45.921875 48.597656 "/>
<path style=" stroke:none;fill-rule:nonzero;fill:rgb(20%,20%,18.82353%);fill-opacity:1;" d="M 45.9375 48.589844 C 46.003906 48.550781 46.015625 48.4375 45.957031 48.339844 C 45.902344 48.238281 45.804688 48.1875 45.734375 48.222656 C 45.667969 48.261719 45.65625 48.375 45.714844 48.472656 C 45.769531 48.574219 45.871094 48.625 45.9375 48.589844 Z M 45.9375 48.589844 "/>
<path style=" stroke:none;fill-rule:nonzero;fill:rgb(34.509805%,34.509805%,29.411766%);fill-opacity:1;" d="M 45.921875 48.597656 C 45.992188 48.558594 46 48.445312 45.945312 48.347656 C 45.890625 48.246094 45.789062 48.195312 45.722656 48.230469 C 45.652344 48.269531 45.644531 48.382812 45.699219 48.480469 C 45.753906 48.582031 45.855469 48.632812 45.921875 48.597656 Z M 45.921875 48.597656 "/>
<path style=" stroke:none;fill-rule:nonzero;fill:rgb(29.803923%,29.803923%,29.803923%);fill-opacity:1;" d="M 57.394531 54.628906 L 57.097656 54.855469 L 56.988281 54.296875 L 57.601562 53.328125 C 57.601562 53.328125 58.371094 53.316406 58.402344 53.328125 C 58.429688 53.335938 58.960938 53.597656 58.960938 53.597656 Z M 57.394531 54.628906 "/>
<path style=" stroke:none;fill-rule:nonzero;fill:rgb(20%,20%,18.82353%);fill-opacity:1;" d="M 60.332031 56.316406 L 59.488281 56.832031 L 59.585938 55.738281 Z M 60.332031 56.316406 "/>
<path style=" stroke:none;fill-rule:nonzero;fill:rgb(20%,20%,18.82353%);fill-opacity:1;" d="M 57.460938 54.425781 C 57.460938 54.425781 57.574219 54.074219 58.039062 53.828125 C 58.222656 53.730469 58.578125 53.597656 58.578125 53.597656 L 59.78125 54.550781 L 60.140625 55.785156 Z M 57.460938 54.425781 "/>
<path style=" stroke:none;fill-rule:nonzero;fill:rgb(32.941177%,32.549021%,28.627452%);fill-opacity:1;" d="M 59.410156 56.882812 C 59.941406 56.589844 60.019531 55.707031 59.578125 54.910156 C 59.140625 54.117188 58.351562 53.710938 57.816406 54.007812 C 57.285156 54.300781 57.210938 55.183594 57.648438 55.980469 C 58.089844 56.773438 58.878906 57.179688 59.410156 56.882812 Z M 59.410156 56.882812 "/>
<path style=" stroke:none;fill-rule:nonzero;fill:rgb(20%,20%,18.82353%);fill-opacity:1;" d="M 58.976562 56.097656 C 59.21875 55.964844 59.25 55.5625 59.050781 55.203125 C 58.851562 54.84375 58.496094 54.660156 58.253906 54.792969 C 58.011719 54.925781 57.976562 55.328125 58.175781 55.6875 C 58.375 56.046875 58.734375 56.230469 58.976562 56.097656 Z M 58.976562 56.097656 "/>
<path style=" stroke:none;fill-rule:nonzero;fill:rgb(62.7451%,47.843137%,44.705883%);fill-opacity:1;" d="M 58.941406 56.023438 L 58.710938 56.140625 L 58.730469 55.953125 Z M 58.941406 56.023438 "/>
<path style=" stroke:none;fill-rule:nonzero;fill:rgb(62.7451%,47.843137%,44.705883%);fill-opacity:1;" d="M 58.0625 54.921875 L 58.308594 54.800781 L 58.238281 54.976562 Z M 58.0625 54.921875 "/>
<path style=" stroke:none;fill-rule:nonzero;fill:rgb(62.7451%,47.843137%,44.705883%);fill-opacity:1;" d="M 58.933594 56.03125 C 59.15625 55.910156 59.1875 55.539062 59.003906 55.207031 C 58.816406 54.871094 58.488281 54.703125 58.265625 54.824219 C 58.042969 54.949219 58.011719 55.320312 58.195312 55.652344 C 58.378906 55.984375 58.710938 56.15625 58.933594 56.03125 Z M 58.933594 56.03125 "/>
<path style=" stroke:none;fill-rule:nonzero;fill:rgb(62.7451%,47.843137%,44.705883%);fill-opacity:1;" d="M 58.738281 56.132812 C 58.960938 56.007812 58.992188 55.636719 58.804688 55.304688 C 58.621094 54.96875 58.292969 54.800781 58.066406 54.921875 C 57.84375 55.046875 57.8125 55.417969 58 55.75 C 58.183594 56.085938 58.511719 56.253906 58.738281 56.132812 Z M 58.738281 56.132812 "/>
<path style=" stroke:none;fill-rule:nonzero;fill:rgb(73.725492%,58.431375%,54.509807%);fill-opacity:1;" d="M 58.726562 56.113281 C 58.945312 55.996094 58.976562 55.632812 58.796875 55.308594 C 58.617188 54.984375 58.296875 54.820312 58.078125 54.9375 C 57.859375 55.058594 57.828125 55.421875 58.007812 55.746094 C 58.1875 56.070312 58.507812 56.234375 58.726562 56.113281 Z M 58.726562 56.113281 "/>
<path style=" stroke:none;fill-rule:nonzero;fill:rgb(34.509805%,34.509805%,29.411766%);fill-opacity:1;" d="M 58.503906 55.710938 C 58.570312 55.671875 58.582031 55.558594 58.523438 55.460938 C 58.46875 55.359375 58.371094 55.308594 58.300781 55.34375 C 58.234375 55.382812 58.222656 55.496094 58.28125 55.59375 C 58.335938 55.695312 58.4375 55.746094 58.503906 55.710938 Z M 58.503906 55.710938 "/>
<path style=" stroke:none;fill-rule:nonzero;fill:rgb(20%,20%,18.82353%);fill-opacity:1;" d="M 58.515625 55.699219 C 58.582031 55.664062 58.59375 55.550781 58.539062 55.449219 C 58.480469 55.347656 58.382812 55.296875 58.3125 55.335938 C 58.246094 55.375 58.238281 55.484375 58.292969 55.585938 C 58.347656 55.6875 58.449219 55.738281 58.515625 55.699219 Z M 58.515625 55.699219 "/>
<path style=" stroke:none;fill-rule:nonzero;fill:rgb(34.509805%,34.509805%,29.411766%);fill-opacity:1;" d="M 58.503906 55.710938 C 58.570312 55.671875 58.582031 55.558594 58.523438 55.460938 C 58.46875 55.359375 58.371094 55.308594 58.300781 55.34375 C 58.234375 55.382812 58.222656 55.496094 58.28125 55.59375 C 58.335938 55.695312 58.4375 55.746094 58.503906 55.710938 Z M 58.503906 55.710938 "/>
<path style=" stroke:none;fill-rule:nonzero;fill:rgb(98.039216%,89.803922%,1.960784%);fill-opacity:1;" d="M 57.683594 44.042969 L 54.296875 42.089844 L 62.765625 37.199219 L 66.132812 39.152344 Z M 57.683594 44.042969 "/>
<path style=" stroke:none;fill-rule:nonzero;fill:rgb(88.627452%,80.000001%,12.54902%);fill-opacity:1;" d="M 53.847656 52.125 L 53.839844 40.394531 L 44.140625 34.757812 L 44.140625 46.480469 L 44.664062 46.785156 L 46.019531 46.722656 L 48.183594 48.675781 Z M 53.847656 52.125 "/>
<path style=" stroke:none;fill-rule:nonzero;fill:rgb(84.313726%,71.372551%,0%);fill-opacity:1;" d="M 67.351562 46.285156 L 66.132812 39.152344 L 57.683594 44.042969 L 59.378906 50.886719 Z M 67.351562 46.285156 "/>
<path style=" stroke:none;fill-rule:nonzero;fill:rgb(43.921569%,42.352942%,38.039216%);fill-opacity:1;" d="M 65.726562 40.207031 L 58.378906 44.4375 L 59.667969 49.957031 L 66.929688 46.023438 Z M 65.726562 40.207031 "/>
<path style=" stroke:none;fill-rule:nonzero;fill:rgb(74.901962%,52.549022%,8.235294%);fill-opacity:1;" d="M 66.667969 45.957031 L 65.496094 40.339844 L 65.726562 40.207031 L 66.929688 46.023438 Z M 66.667969 45.957031 "/>
<path style=" stroke:none;fill-rule:nonzero;fill:rgb(97.647059%,88.627452%,20.784314%);fill-opacity:1;" d="M 59.667969 49.957031 L 66.667969 45.957031 L 66.929688 46.023438 L 59.714844 50.199219 Z M 59.667969 49.957031 "/>
<path style=" stroke:none;fill-rule:nonzero;fill:rgb(88.627452%,80.000001%,12.54902%);fill-opacity:1;" d="M 57.683594 44.042969 L 54.296875 42.089844 L 54.332031 52.246094 L 56.800781 53.714844 L 57.460938 53.132812 L 59.171875 52.960938 L 60.800781 54.640625 L 61.921875 55.289062 L 61.914062 53.328125 L 59.378906 50.886719 Z M 57.683594 44.042969 "/>
<path style=" stroke:none;fill-rule:nonzero;fill:rgb(43.921569%,42.352942%,38.039216%);fill-opacity:1;" d="M 57.269531 44.328125 L 55.144531 43.074219 L 54.71875 42.820312 L 54.71875 47.710938 L 58.535156 49.878906 Z M 57.269531 44.328125 "/>
<path style=" stroke:none;fill-rule:nonzero;fill:rgb(74.901962%,52.549022%,8.235294%);fill-opacity:1;" d="M 55.039062 47.527344 L 55.027344 43 L 54.71875 42.820312 L 54.71875 47.710938 Z M 55.039062 47.527344 "/>
<path style=" stroke:none;fill-rule:nonzero;fill:rgb(97.647059%,88.627452%,20.784314%);fill-opacity:1;" d="M 58.425781 49.40625 L 55.039062 47.527344 L 54.71875 47.710938 L 58.535156 49.878906 Z M 58.425781 49.40625 "/>
<path style=" stroke:none;fill-rule:nonzero;fill:rgb(93.333334%,85.490197%,12.54902%);fill-opacity:1;" d="M 61.914062 53.324219 L 59.378906 50.886719 L 67.351562 46.285156 L 69.820312 48.765625 Z M 61.914062 53.324219 "/>
<path style=" stroke:none;fill-rule:nonzero;fill:rgb(81.176472%,68.235296%,10.588235%);fill-opacity:1;" d="M 61.921875 55.289062 L 61.914062 53.324219 L 69.820312 48.765625 L 69.792969 50.738281 Z M 61.921875 55.289062 "/>
<path style=" stroke:none;fill-rule:nonzero;fill:rgb(93.333334%,92.941177%,87.843138%);fill-opacity:1;" d="M 57.511719 53.71875 C 57.597656 53.203125 57.796875 53.257812 58.285156 53.257812 C 59.011719 53.257812 59.769531 54.039062 60.023438 54.980469 C 60.09375 55.25 60.507812 55.574219 60.484375 55.800781 L 61.066406 56.128906 C 61.109375 55.808594 61.085938 55.441406 60.980469 55.050781 C 60.636719 53.765625 59.554688 52.722656 58.5625 52.722656 C 57.875 52.722656 56.84375 53.097656 56.738281 53.835938 L 57.507812 53.71875 Z M 57.511719 53.71875 "/>
<path style=" stroke:none;fill-rule:nonzero;fill:rgb(83.529413%,83.529413%,80.392158%);fill-opacity:1;" d="M 57.078125 54.445312 C 57.167969 53.929688 57.5 53.582031 57.988281 53.582031 C 58.714844 53.582031 59.507812 54.34375 59.757812 55.285156 C 59.832031 55.554688 59.851562 55.808594 59.828125 56.035156 L 60.410156 56.367188 C 60.453125 56.042969 60.425781 55.675781 60.324219 55.289062 C 59.980469 54.003906 58.898438 52.957031 57.90625 52.957031 C 57.21875 52.957031 56.753906 53.460938 56.652344 54.199219 Z M 57.078125 54.445312 "/>
<path style=" stroke:none;fill-rule:nonzero;fill:rgb(93.333334%,92.941177%,87.843138%);fill-opacity:1;" d="M 44.949219 47.007812 C 45.035156 46.488281 45.234375 46.546875 45.726562 46.546875 C 46.449219 46.546875 47.210938 47.328125 47.460938 48.269531 C 47.53125 48.539062 47.945312 48.863281 47.921875 49.089844 L 48.503906 49.417969 C 48.550781 49.097656 48.523438 48.726562 48.417969 48.339844 C 48.074219 47.054688 46.992188 46.011719 46 46.011719 C 45.3125 46.011719 44.28125 46.382812 44.175781 47.121094 L 44.945312 47.007812 Z M 44.949219 47.007812 "/>
<path style=" stroke:none;fill-rule:nonzero;fill:rgb(83.529413%,83.529413%,80.392158%);fill-opacity:1;" d="M 44.515625 47.734375 C 44.605469 47.21875 44.9375 46.871094 45.425781 46.871094 C 46.152344 46.871094 46.945312 47.632812 47.195312 48.574219 C 47.269531 48.84375 47.289062 49.097656 47.265625 49.324219 L 47.847656 49.65625 C 47.890625 49.335938 47.863281 48.964844 47.761719 48.578125 C 47.417969 47.292969 46.335938 46.246094 45.34375 46.246094 C 44.65625 46.246094 44.191406 46.75 44.089844 47.488281 Z M 44.515625 47.734375 "/>
<path style=" stroke:none;fill-rule:nonzero;fill:rgb(93.333334%,92.941177%,87.843138%);fill-opacity:1;" d="M 56.800781 53.714844 L 54.332031 52.246094 L 54.332031 52.125 L 53.847656 52.125 L 48.183594 48.675781 L 47.816406 48.859375 L 56.703125 54.042969 Z M 56.800781 53.714844 "/>
<path style=" stroke:none;fill-rule:nonzero;fill:rgb(93.333334%,92.941177%,87.843138%);fill-opacity:1;" d="M 61.6875 55.84375 L 60.226562 54.980469 L 60.800781 54.640625 L 61.921875 55.289062 L 69.792969 50.738281 L 69.804688 50.269531 L 70.613281 50.714844 Z M 61.6875 55.84375 "/>
<path style=" stroke:none;fill-rule:nonzero;fill:rgb(83.529413%,83.529413%,80.392158%);fill-opacity:1;" d="M 56.917969 54.167969 L 57.078125 54.445312 L 57.097656 54.851562 L 47.859375 49.660156 L 47.816406 48.859375 Z M 56.917969 54.167969 "/>
<path style=" stroke:none;fill-rule:nonzero;fill:rgb(83.529413%,83.529413%,80.392158%);fill-opacity:1;" d="M 61.6875 55.84375 L 61.6875 57.105469 L 60.410156 56.367188 L 60.226562 54.980469 Z M 61.6875 55.84375 "/>
<path style=" stroke:none;fill-rule:nonzero;fill:rgb(83.529413%,83.529413%,80.392158%);fill-opacity:1;" d="M 70.613281 50.714844 L 61.671875 55.84375 L 61.671875 57.105469 L 70.613281 51.925781 Z M 70.613281 50.714844 "/>
<path style=" stroke:none;fill-rule:nonzero;fill:rgb(99.607843%,94.117647%,18.039216%);fill-opacity:1;" d="M 53.839844 40.394531 L 62.765625 35.246094 L 53.097656 29.664062 L 44.140625 34.757812 Z M 53.839844 40.394531 "/>
<path style=" stroke:none;fill-rule:nonzero;fill:rgb(84.313726%,71.764708%,10.588235%);fill-opacity:1;" d="M 53.839844 40.394531 L 53.847656 52.125 L 54.332031 51.84375 L 54.300781 42.089844 L 62.765625 37.199219 L 62.765625 35.246094 Z M 53.839844 40.394531 "/>
<path style=" stroke:none;fill-rule:nonzero;fill:rgb(100%,100%,100%);fill-opacity:1;" d="M 58.542969 49.910156 L 58.527344 49.835938 L 54.71875 47.667969 L 54.71875 47.75 Z M 58.542969 49.910156 "/>
<path style=" stroke:none;fill-rule:nonzero;fill:rgb(33.725491%,27.843139%,14.901961%);fill-opacity:1;" d="M 57.453125 48.019531 L 56.703125 48.421875 L 56.703125 50.527344 L 57.453125 50.074219 Z M 57.453125 48.019531 "/>
<path style=" stroke:none;fill-rule:nonzero;fill:rgb(47.058824%,47.058824%,43.529412%);fill-opacity:1;" d="M 57.332031 47.921875 L 57.453125 48.019531 L 56.703125 48.421875 L 56.59375 48.332031 Z M 57.332031 47.921875 "/>
<path style=" stroke:none;fill-rule:nonzero;fill:rgb(43.529412%,38.82353%,31.764707%);fill-opacity:1;" d="M 56.703125 50.527344 L 56.703125 48.421875 L 56.59375 48.328125 L 56.59375 50.4375 Z M 56.703125 50.527344 "/>
<path style=" stroke:none;fill-rule:nonzero;fill:rgb(43.529412%,38.82353%,31.764707%);fill-opacity:1;" d="M 58.601562 48.859375 L 57.308594 48.859375 L 57.308594 49.179688 L 58.601562 49.179688 Z M 58.601562 48.859375 "/>
<path style=" stroke:none;fill-rule:nonzero;fill:rgb(44.705883%,43.529412%,35.686275%);fill-opacity:1;" d="M 58.394531 48.675781 L 58.601562 48.859375 L 57.308594 48.859375 L 57.453125 48.679688 Z M 58.394531 48.675781 "/>
<path style=" stroke:none;fill-rule:nonzero;fill:rgb(33.725491%,27.843139%,14.901961%);fill-opacity:1;" d="M 67.496094 42.480469 L 66.746094 42.882812 L 66.746094 44.988281 L 67.496094 44.535156 Z M 67.496094 42.480469 "/>
<path style=" stroke:none;fill-rule:nonzero;fill:rgb(47.058824%,47.058824%,43.529412%);fill-opacity:1;" d="M 67.375 42.382812 L 67.496094 42.480469 L 66.746094 42.882812 L 66.636719 42.792969 Z M 67.375 42.382812 "/>
<path style=" stroke:none;fill-rule:nonzero;fill:rgb(43.529412%,38.82353%,31.764707%);fill-opacity:1;" d="M 66.746094 44.988281 L 66.746094 42.882812 L 66.636719 42.792969 L 66.636719 44.898438 Z M 66.746094 44.988281 "/>
<path style=" stroke:none;fill-rule:nonzero;fill:rgb(100%,100%,100%);fill-opacity:1;" d="M 53.839844 40.4375 L 53.859375 40.429688 L 62.765625 35.246094 L 53.839844 40.355469 L 44.140625 34.757812 Z M 53.839844 40.4375 "/>
<path style=" stroke:none;fill-rule:nonzero;fill:rgb(100%,100%,100%);fill-opacity:1;" d="M 57.683594 44.085938 L 57.703125 44.078125 L 66.132812 39.152344 L 57.683594 44.003906 L 54.300781 42.089844 Z M 57.683594 44.085938 "/>
<path style=" stroke:none;fill-rule:nonzero;fill:rgb(100%,100%,100%);fill-opacity:1;" d="M 59.722656 50.234375 L 66.933594 46.054688 L 66.921875 45.988281 L 59.707031 50.164062 Z M 59.722656 50.234375 "/>
<path style=" stroke:none;fill-rule:nonzero;fill:rgb(100%,100%,100%);fill-opacity:1;" d="M 61.910156 53.371094 L 61.933594 53.355469 L 69.820312 48.765625 L 61.921875 53.28125 L 59.378906 50.886719 Z M 61.910156 53.371094 "/>
<path style=" stroke:none;fill-rule:nonzero;fill:rgb(3.921569%,17.647059%,53.725493%);fill-opacity:1;" d="M 49.292969 44.472656 C 49.292969 44.472656 49.460938 44.574219 49.585938 44.558594 C 49.78125 44.539062 50.046875 44.4375 50.414062 44.050781 L 46.453125 42.890625 Z M 49.292969 44.472656 "/>
<path style=" stroke:none;fill-rule:nonzero;fill:rgb(3.921569%,17.647059%,53.725493%);fill-opacity:1;" d="M 47.222656 40.59375 C 47.410156 40.78125 48.027344 41.386719 48.375 41.855469 C 48.386719 41.871094 48.40625 41.902344 48.40625 41.902344 L 50.972656 43.339844 C 50.972656 43.339844 51.070312 43.195312 51.128906 43.105469 C 51.1875 43.003906 51.191406 42.890625 51.125 42.773438 C 51.046875 42.644531 50.925781 42.558594 50.679688 42.417969 C 50.488281 42.308594 47.535156 40.601562 47.234375 40.429688 C 47.207031 40.414062 47.136719 40.367188 47.128906 40.429688 C 47.125 40.445312 47.128906 40.46875 47.144531 40.496094 C 47.160156 40.535156 47.199219 40.570312 47.222656 40.59375 Z M 47.222656 40.59375 "/>
<path style=" stroke:none;fill-rule:nonzero;fill:rgb(3.921569%,17.647059%,53.725493%);fill-opacity:1;" d="M 52.382812 44.316406 C 52.324219 44.285156 48.566406 42.183594 48.507812 42.152344 C 48.476562 42.136719 48.46875 42.136719 48.46875 42.179688 C 48.46875 42.492188 48.105469 42.585938 47.613281 42.570312 C 47.097656 42.558594 46.445312 42.464844 46.109375 42.414062 C 46.027344 42.402344 45.886719 42.378906 45.835938 42.378906 C 45.800781 42.378906 45.773438 42.398438 45.785156 42.445312 C 45.796875 42.492188 45.835938 42.535156 45.964844 42.566406 C 46.019531 42.585938 46.085938 42.601562 46.15625 42.621094 C 46.804688 42.800781 47.996094 43.144531 49.152344 43.476562 C 50.351562 43.824219 51.53125 44.207031 52.398438 44.527344 C 52.46875 44.554688 52.523438 44.542969 52.519531 44.480469 C 52.519531 44.425781 52.464844 44.363281 52.382812 44.316406 Z M 52.382812 44.316406 "/>
<path style=" stroke:none;fill-rule:nonzero;fill:url(#linear2);" d="M 72.875 70.40625 C 75.851562 70.40625 78.265625 69.734375 78.265625 68.910156 C 78.265625 68.082031 75.851562 67.414062 72.875 67.414062 C 69.894531 67.414062 67.480469 68.082031 67.480469 68.910156 C 67.480469 69.734375 69.894531 70.40625 72.875 70.40625 Z M 72.875 70.40625 "/>
<path style=" stroke:none;fill-rule:nonzero;fill:rgb(35.686275%,59.607846%,89.019608%);fill-opacity:1;" d="M 66.253906 56.371094 L 65.582031 56.371094 L 65.582031 58.433594 L 66.253906 58.433594 Z M 66.253906 56.371094 "/>
<path style=" stroke:none;fill-rule:nonzero;fill:rgb(35.686275%,59.607846%,89.019608%);fill-opacity:1;" d="M 80.164062 56.371094 L 79.496094 56.371094 L 79.496094 58.433594 L 80.164062 58.433594 Z M 80.164062 56.371094 "/>
<path style=" stroke:none;fill-rule:nonzero;fill:rgb(35.686275%,59.607846%,89.019608%);fill-opacity:1;" d="M 80.164062 56.546875 C 80.164062 60.574219 72.875 51.828125 72.875 51.828125 C 72.875 51.828125 65.582031 60.574219 65.582031 56.546875 C 65.582031 52.523438 68.84375 49.257812 72.875 49.257812 C 76.902344 49.257812 80.164062 52.519531 80.164062 56.546875 Z M 80.164062 56.546875 "/>
<path style=" stroke:none;fill-rule:nonzero;fill:rgb(0%,23.921569%,64.705884%);fill-opacity:1;" d="M 72.875 51.019531 C 68.847656 51.019531 65.582031 54.28125 65.582031 58.308594 C 65.582031 63.625 71.316406 67.921875 72.613281 68.828125 C 72.769531 68.9375 72.976562 68.941406 73.140625 68.839844 C 74.457031 68.019531 80.164062 64.121094 80.164062 58.308594 C 80.164062 54.285156 76.898438 51.019531 72.871094 51.019531 Z M 72.875 62.320312 C 70.660156 62.320312 68.863281 60.523438 68.863281 58.308594 C 68.863281 56.097656 70.660156 54.300781 72.875 54.300781 C 75.085938 54.300781 76.882812 56.097656 76.882812 58.308594 C 76.882812 60.523438 75.085938 62.320312 72.875 62.320312 Z M 72.875 62.320312 "/>
<path style=" stroke:none;fill-rule:nonzero;fill:rgb(35.686275%,59.607846%,89.019608%);fill-opacity:1;" d="M 72.875 60.558594 C 70.960938 60.558594 69.363281 59.21875 68.960938 57.429688 C 68.898438 57.710938 68.863281 58.007812 68.863281 58.308594 C 68.863281 60.523438 70.660156 62.316406 72.875 62.316406 C 75.085938 62.316406 76.882812 60.523438 76.882812 58.308594 C 76.882812 58.007812 76.847656 57.710938 76.785156 57.429688 C 76.382812 59.21875 74.785156 60.558594 72.875 60.558594 Z M 72.875 60.558594 "/>
<path style=" stroke:none;fill-rule:nonzero;fill:rgb(100%,100%,100%);fill-opacity:1;" d="M 72.875 51.195312 C 76.796875 51.195312 80.164062 54.386719 80.164062 58.308594 C 80.164062 54.285156 76.902344 51.019531 72.875 51.019531 C 68.847656 51.019531 65.582031 54.28125 65.582031 58.308594 C 65.582031 54.386719 68.949219 51.195312 72.875 51.195312 Z M 68.863281 58.308594 L 68.863281 58.199219 C 68.863281 58.199219 68.855469 58.214844 68.851562 58.246094 C 68.847656 58.285156 68.847656 58.308594 68.847656 58.308594 C 68.847656 60.617188 70.566406 62.496094 72.875 62.496094 C 75.179688 62.496094 76.898438 60.617188 76.898438 58.308594 C 76.898438 58.308594 76.894531 58.269531 76.890625 58.242188 C 76.890625 58.214844 76.882812 58.203125 76.882812 58.203125 L 76.882812 58.308594 M 76.882812 58.308594 C 76.882812 60.523438 75.085938 62.320312 72.871094 62.320312 C 70.65625 62.320312 68.859375 60.523438 68.859375 58.308594 "/>
<path style=" stroke:none;fill-rule:nonzero;fill:url(#linear3);" d="M 39.15625 64.824219 C 42.136719 64.824219 44.550781 64.152344 44.550781 63.328125 C 44.550781 62.5 42.136719 61.832031 39.15625 61.832031 C 36.179688 61.832031 33.761719 62.5 33.761719 63.328125 C 33.761719 64.152344 36.179688 64.824219 39.15625 64.824219 Z M 39.15625 64.824219 "/>
<path style=" stroke:none;fill-rule:nonzero;fill:rgb(35.686275%,59.607846%,89.019608%);fill-opacity:1;" d="M 32.539062 50.789062 L 31.867188 50.789062 L 31.867188 52.851562 L 32.539062 52.851562 Z M 32.539062 50.789062 "/>
<path style=" stroke:none;fill-rule:nonzero;fill:rgb(35.686275%,59.607846%,89.019608%);fill-opacity:1;" d="M 46.449219 50.789062 L 45.777344 50.789062 L 45.777344 52.851562 L 46.449219 52.851562 Z M 46.449219 50.789062 "/>
<path style=" stroke:none;fill-rule:nonzero;fill:rgb(35.686275%,59.607846%,89.019608%);fill-opacity:1;" d="M 46.445312 50.964844 C 46.445312 54.992188 39.15625 46.246094 39.15625 46.246094 C 39.15625 46.246094 31.863281 54.992188 31.863281 50.964844 C 31.863281 46.941406 35.128906 43.675781 39.15625 43.675781 C 43.183594 43.675781 46.445312 46.9375 46.445312 50.964844 Z M 46.445312 50.964844 "/>
<path style=" stroke:none;fill-rule:nonzero;fill:rgb(0%,23.921569%,64.705884%);fill-opacity:1;" d="M 39.15625 45.433594 C 35.132812 45.433594 31.863281 48.699219 31.863281 52.726562 C 31.863281 58.039062 37.601562 62.339844 38.898438 63.242188 C 39.054688 63.351562 39.261719 63.359375 39.421875 63.257812 C 40.738281 62.4375 46.445312 58.535156 46.445312 52.726562 C 46.445312 48.699219 43.183594 45.433594 39.15625 45.433594 Z M 39.15625 56.738281 C 36.941406 56.738281 35.148438 54.941406 35.148438 52.726562 C 35.148438 50.511719 36.941406 48.714844 39.15625 48.714844 C 41.371094 48.714844 43.167969 50.511719 43.167969 52.726562 C 43.167969 54.941406 41.371094 56.738281 39.15625 56.738281 Z M 39.15625 56.738281 "/>
<path style=" stroke:none;fill-rule:nonzero;fill:rgb(35.686275%,59.607846%,89.019608%);fill-opacity:1;" d="M 39.15625 54.976562 C 37.246094 54.976562 35.648438 53.636719 35.246094 51.847656 C 35.179688 52.128906 35.148438 52.425781 35.148438 52.726562 C 35.148438 54.941406 36.941406 56.734375 39.15625 56.734375 C 41.371094 56.734375 43.167969 54.941406 43.167969 52.726562 C 43.167969 52.425781 43.132812 52.128906 43.070312 51.847656 C 42.667969 53.636719 41.070312 54.976562 39.15625 54.976562 Z M 39.15625 54.976562 "/>
<path style=" stroke:none;fill-rule:nonzero;fill:rgb(100%,100%,100%);fill-opacity:1;" d="M 39.15625 45.609375 C 43.082031 45.609375 46.449219 48.800781 46.449219 52.726562 C 46.449219 48.699219 43.183594 45.433594 39.15625 45.433594 C 35.132812 45.433594 31.863281 48.699219 31.863281 52.726562 C 31.863281 48.800781 35.234375 45.609375 39.15625 45.609375 Z M 35.148438 52.726562 L 35.148438 52.617188 C 35.148438 52.617188 35.140625 52.632812 35.136719 52.664062 C 35.132812 52.699219 35.132812 52.726562 35.132812 52.726562 C 35.132812 55.035156 36.847656 56.914062 39.15625 56.914062 C 41.464844 56.914062 43.179688 55.035156 43.179688 52.726562 C 43.179688 52.726562 43.175781 52.6875 43.175781 52.660156 C 43.171875 52.628906 43.164062 52.617188 43.164062 52.617188 L 43.164062 52.726562 M 43.164062 52.726562 C 43.164062 54.941406 41.371094 56.738281 39.15625 56.738281 C 36.941406 56.738281 35.144531 54.941406 35.144531 52.726562 "/>
<path style=" stroke:none;fill-rule:nonzero;fill:url(#linear4);" d="M 33.042969 40.148438 C 36.019531 40.148438 38.433594 39.480469 38.433594 38.652344 C 38.433594 37.828125 36.019531 37.15625 33.042969 37.15625 C 30.0625 37.15625 27.648438 37.828125 27.648438 38.652344 C 27.648438 39.480469 30.0625 40.148438 33.042969 40.148438 Z M 33.042969 40.148438 "/>
<path style=" stroke:none;fill-rule:nonzero;fill:rgb(35.686275%,59.607846%,89.019608%);fill-opacity:1;" d="M 26.421875 26.117188 L 25.753906 26.117188 L 25.753906 28.179688 L 26.421875 28.179688 Z M 26.421875 26.117188 "/>
<path style=" stroke:none;fill-rule:nonzero;fill:rgb(35.686275%,59.607846%,89.019608%);fill-opacity:1;" d="M 40.332031 26.117188 L 39.664062 26.117188 L 39.664062 28.179688 L 40.332031 28.179688 Z M 40.332031 26.117188 "/>
<path style=" stroke:none;fill-rule:nonzero;fill:rgb(35.686275%,59.607846%,89.019608%);fill-opacity:1;" d="M 40.332031 26.292969 C 40.332031 30.316406 33.042969 21.570312 33.042969 21.570312 C 33.042969 21.570312 25.75 30.316406 25.75 26.292969 C 25.75 22.265625 29.011719 19 33.042969 19 C 37.070312 19 40.332031 22.265625 40.332031 26.292969 Z M 40.332031 26.292969 "/>
<path style=" stroke:none;fill-rule:nonzero;fill:rgb(0%,23.921569%,64.705884%);fill-opacity:1;" d="M 33.042969 20.761719 C 29.015625 20.761719 25.75 24.023438 25.75 28.050781 C 25.75 33.367188 31.484375 37.664062 32.78125 38.566406 C 32.9375 38.679688 33.144531 38.683594 33.308594 38.582031 C 34.625 37.761719 40.332031 33.863281 40.332031 28.050781 C 40.332031 24.027344 37.066406 20.761719 33.039062 20.761719 Z M 33.042969 32.0625 C 30.828125 32.0625 29.03125 30.265625 29.03125 28.050781 C 29.03125 25.839844 30.828125 24.042969 33.042969 24.042969 C 35.253906 24.042969 37.050781 25.839844 37.050781 28.050781 C 37.050781 30.265625 35.253906 32.0625 33.042969 32.0625 Z M 33.042969 32.0625 "/>
<path style=" stroke:none;fill-rule:nonzero;fill:rgb(35.686275%,59.607846%,89.019608%);fill-opacity:1;" d="M 33.042969 30.300781 C 31.128906 30.300781 29.53125 28.964844 29.128906 27.171875 C 29.066406 27.457031 29.03125 27.75 29.03125 28.050781 C 29.03125 30.265625 30.828125 32.0625 33.042969 32.0625 C 35.253906 32.0625 37.050781 30.265625 37.050781 28.050781 C 37.050781 27.75 37.015625 27.457031 36.953125 27.171875 C 36.550781 28.964844 34.953125 30.300781 33.042969 30.300781 Z M 33.042969 30.300781 "/>
<path style=" stroke:none;fill-rule:nonzero;fill:rgb(100%,100%,100%);fill-opacity:1;" d="M 33.042969 20.9375 C 36.964844 20.9375 40.332031 24.128906 40.332031 28.050781 C 40.332031 24.027344 37.070312 20.761719 33.042969 20.761719 C 29.015625 20.761719 25.75 24.023438 25.75 28.050781 C 25.75 24.128906 29.117188 20.9375 33.042969 20.9375 Z M 29.03125 28.050781 L 29.03125 27.941406 C 29.03125 27.941406 29.023438 27.957031 29.019531 27.988281 C 29.015625 28.027344 29.015625 28.050781 29.015625 28.050781 C 29.015625 30.359375 30.734375 32.238281 33.042969 32.238281 C 35.347656 32.238281 37.066406 30.359375 37.066406 28.050781 C 37.066406 28.050781 37.0625 28.011719 37.058594 27.984375 C 37.058594 27.957031 37.050781 27.945312 37.050781 27.945312 L 37.050781 28.050781 M 37.050781 28.050781 C 37.050781 30.265625 35.253906 32.0625 33.039062 32.0625 C 30.824219 32.0625 29.027344 30.265625 29.027344 28.050781 "/>
</g>
</svg>
