<?xml version="1.0" encoding="UTF-8"?>
<svg xmlns="http://www.w3.org/2000/svg" xmlns:xlink="http://www.w3.org/1999/xlink" width="100px" height="100px" viewBox="0 0 100 100" version="1.1">
<defs>
<linearGradient id="linear0" gradientUnits="userSpaceOnUse" x1="59.439301" y1="358.670013" x2="389.049011" y2="358.670013" gradientTransform="matrix(0.2,0,0,0.2,0,0)">
<stop offset="0" style="stop-color:rgb(0%,0%,0%);stop-opacity:0.2;"/>
<stop offset="0.67" style="stop-color:rgb(0%,0%,0%);stop-opacity:0.501961;"/>
</linearGradient>
<filter id="alpha" filterUnits="objectBoundingBox" x="0%" y="0%" width="100%" height="100%">
  <feColorMatrix type="matrix" in="SourceGraphic" values="0 0 0 0 1 0 0 0 0 1 0 0 0 0 1 0 0 0 1 0"/>
</filter>
<mask id="mask0">
  <g filter="url(#alpha)">
<rect x="0" y="0" width="100" height="100" style="fill:rgb(0%,0%,0%);fill-opacity:0.529412;stroke:none;"/>
  </g>
</mask>
<clipPath id="clip1">
  <rect x="0" y="0" width="100" height="100"/>
</clipPath>
<g id="surface5" clip-path="url(#clip1)">
<path style=" stroke:none;fill-rule:nonzero;fill:rgb(0%,0%,0%);fill-opacity:1;" d="M 32.199219 75.304688 C 32.382812 75.296875 32.558594 75.230469 32.703125 75.121094 C 32.851562 75.011719 32.960938 74.863281 33.023438 74.691406 C 33.285156 73.976562 32.703125 71.203125 32.703125 71.203125 L 35.023438 69.953125 C 34.855469 69.742188 34.667969 69.546875 34.457031 69.378906 C 34.09375 69.074219 33.574219 68.726562 33.574219 68.726562 L 31.101562 70.058594 Z M 32.199219 75.304688 "/>
</g>
<mask id="mask1">
  <g filter="url(#alpha)">
<rect x="0" y="0" width="100" height="100" style="fill:rgb(0%,0%,0%);fill-opacity:0.529412;stroke:none;"/>
  </g>
</mask>
<clipPath id="clip2">
  <rect x="0" y="0" width="100" height="100"/>
</clipPath>
<g id="surface8" clip-path="url(#clip2)">
<path style=" stroke:none;fill-rule:nonzero;fill:rgb(0%,0%,0%);fill-opacity:1;" d="M 51.601562 86.351562 C 51.78125 86.339844 51.957031 86.277344 52.105469 86.167969 C 52.25 86.058594 52.363281 85.910156 52.421875 85.734375 C 52.6875 85.023438 52.101562 82.246094 52.101562 82.246094 L 54.433594 81 C 54.265625 80.789062 54.078125 80.59375 53.867188 80.421875 C 53.5 80.121094 52.980469 79.773438 52.980469 79.773438 L 50.507812 81.105469 Z M 51.601562 86.351562 "/>
</g>
<mask id="mask2">
  <g filter="url(#alpha)">
<rect x="0" y="0" width="100" height="100" style="fill:rgb(0%,0%,0%);fill-opacity:0.529412;stroke:none;"/>
  </g>
</mask>
<clipPath id="clip3">
  <rect x="0" y="0" width="100" height="100"/>
</clipPath>
<g id="surface11" clip-path="url(#clip3)">
<path style=" stroke:none;fill-rule:nonzero;fill:rgb(0%,0%,0%);fill-opacity:1;" d="M 76.433594 73.621094 C 76.617188 73.613281 76.792969 73.546875 76.9375 73.4375 C 77.085938 73.328125 77.195312 73.179688 77.257812 73.007812 C 77.519531 72.292969 76.9375 69.519531 76.9375 69.519531 L 79.257812 68.269531 C 79.089844 68.058594 78.902344 67.863281 78.695312 67.695312 C 78.328125 67.390625 77.808594 67.042969 77.808594 67.042969 L 75.335938 68.375 Z M 76.433594 73.621094 "/>
</g>
<linearGradient id="linear1" gradientUnits="userSpaceOnUse" x1="141.938995" y1="372.009003" x2="413.438995" y2="372.009003" gradientTransform="matrix(0.2,0,0,0.2,0,0)">
<stop offset="0.51" style="stop-color:rgb(81.960784%,55.686275%,2.745098%);stop-opacity:1;"/>
<stop offset="0.55" style="stop-color:rgb(86.666667%,61.176471%,2.352941%);stop-opacity:1;"/>
</linearGradient>
<linearGradient id="linear2" gradientUnits="userSpaceOnUse" x1="141.938995" y1="339.320007" x2="277.669006" y2="339.320007" gradientTransform="matrix(0.2,0,0,0.2,0,0)">
<stop offset="0" style="stop-color:rgb(81.960784%,55.686275%,2.745098%);stop-opacity:0.6;"/>
<stop offset="0.67" style="stop-color:rgb(81.960784%,55.686275%,2.745098%);stop-opacity:0.8;"/>
</linearGradient>
<linearGradient id="linear3" gradientUnits="userSpaceOnUse" x1="183.119003" y1="229.319" x2="287.299011" y2="229.319" gradientTransform="matrix(0.2,0,0,0.2,0,0)">
<stop offset="0" style="stop-color:rgb(83.529412%,56.470588%,31.764706%);stop-opacity:0.8;"/>
<stop offset="0.67" style="stop-color:rgb(68.627451%,43.529412%,29.411765%);stop-opacity:0.8;"/>
</linearGradient>
</defs>
<g id="surface1">
<path style=" stroke:none;fill-rule:nonzero;fill:url(#linear0);" d="M 20.019531 63.09375 L 12.527344 67.449219 C 12.332031 67.5625 12.167969 67.726562 12.058594 67.921875 C 11.945312 68.113281 11.886719 68.335938 11.886719 68.5625 C 11.886719 68.785156 11.945312 69.007812 12.058594 69.203125 C 12.167969 69.398438 12.332031 69.558594 12.527344 69.671875 L 39.601562 85.320312 C 40.164062 85.648438 40.800781 85.820312 41.453125 85.820312 C 42.101562 85.820312 42.742188 85.648438 43.304688 85.320312 L 43.796875 85.011719 L 50.996094 89.175781 C 51.21875 89.308594 51.472656 89.378906 51.730469 89.378906 C 51.988281 89.378906 52.242188 89.308594 52.464844 89.175781 L 55.527344 81.773438 L 77.023438 76.445312 L 77.804688 73.503906 L 65.480469 72.515625 C 65.691406 72.394531 65.867188 72.214844 65.992188 72.003906 C 66.113281 71.789062 66.179688 71.550781 66.179688 71.304688 C 66.179688 71.058594 66.113281 70.816406 65.992188 70.605469 C 65.867188 70.390625 65.691406 70.214844 65.480469 70.09375 L 38.777344 54.65625 C 38.128906 54.28125 37.394531 54.085938 36.648438 54.085938 C 35.898438 54.085938 35.164062 54.28125 34.519531 54.65625 L 22.410156 61.699219 "/>
<path style=" stroke:none;fill-rule:nonzero;fill:rgb(74.901962%,74.901962%,74.901962%);fill-opacity:1;" d="M 36.25 72.042969 L 35.398438 68.292969 L 32.648438 66.695312 L 34.078125 71.433594 C 34.078125 71.464844 34.089844 71.496094 34.097656 71.527344 C 34.121094 71.617188 34.152344 71.703125 34.1875 71.789062 L 34.1875 71.800781 C 34.371094 72.289062 34.707031 72.703125 35.144531 72.984375 C 35.316406 73.097656 35.519531 73.148438 35.722656 73.136719 L 35.675781 73.210938 L 35.929688 73.070312 C 35.953125 73.0625 35.972656 73.050781 35.992188 73.035156 C 36.089844 72.953125 36.167969 72.84375 36.214844 72.726562 C 36.265625 72.605469 36.285156 72.476562 36.273438 72.347656 C 36.273438 72.246094 36.265625 72.144531 36.25 72.042969 Z M 36.25 72.042969 "/>
<path style=" stroke:none;fill-rule:nonzero;fill:rgb(60.000002%,60.000002%,60.000002%);fill-opacity:1;" d="M 36 72.183594 L 35.148438 68.4375 L 32.398438 66.835938 L 33.828125 71.574219 C 33.828125 71.605469 33.839844 71.636719 33.847656 71.664062 C 33.871094 71.753906 33.902344 71.84375 33.9375 71.929688 L 33.9375 71.941406 C 34.121094 72.429688 34.457031 72.84375 34.894531 73.125 C 35.515625 73.484375 36.019531 73.199219 36.023438 72.484375 C 36.023438 72.382812 36.015625 72.28125 36 72.183594 Z M 36 72.183594 "/>
<path style=" stroke:none;fill-rule:nonzero;fill:rgb(28.627452%,28.235295%,36.078432%);fill-opacity:1;" d="M 35.882812 76.46875 C 37.15625 75.730469 37.152344 73.34375 35.871094 71.144531 C 34.59375 68.945312 32.523438 67.761719 31.25 68.5 C 29.976562 69.242188 29.980469 71.625 31.257812 73.824219 C 32.539062 76.027344 34.605469 77.210938 35.882812 76.46875 Z M 35.882812 76.46875 "/>
<path style=" stroke:none;fill-rule:nonzero;fill:rgb(28.627452%,28.235295%,36.078432%);fill-opacity:1;" d="M 35.996094 76.390625 L 33.972656 77.738281 L 34.6875 75.613281 Z M 35.996094 76.390625 "/>
<path style=" stroke:none;fill-rule:nonzero;fill:rgb(41.568628%,41.568628%,45.09804%);fill-opacity:1;" d="M 33.734375 77.914062 C 35.007812 77.171875 35.003906 74.789062 33.726562 72.589844 C 32.449219 70.386719 30.378906 69.203125 29.105469 69.945312 C 27.832031 70.683594 27.835938 73.070312 29.113281 75.269531 C 30.390625 77.46875 32.460938 78.652344 33.734375 77.914062 Z M 33.734375 77.914062 "/>
<path style=" stroke:none;fill-rule:nonzero;fill:rgb(91.37255%,91.37255%,94.901961%);fill-opacity:1;" d="M 33.402344 77.339844 C 34.492188 76.703125 34.488281 74.664062 33.394531 72.78125 C 32.300781 70.898438 30.53125 69.886719 29.4375 70.519531 C 28.347656 71.15625 28.351562 73.195312 29.445312 75.078125 C 30.539062 76.960938 32.308594 77.972656 33.402344 77.339844 Z M 33.402344 77.339844 "/>
<use xlink:href="#surface5" mask="url(#mask0)"/>
<path style=" stroke:none;fill-rule:nonzero;fill:rgb(74.901962%,74.901962%,74.901962%);fill-opacity:1;" d="M 32.769531 74.132812 L 31.921875 70.386719 L 29.167969 68.785156 L 30.601562 73.523438 C 30.601562 73.554688 30.609375 73.585938 30.617188 73.617188 C 30.644531 73.707031 30.671875 73.792969 30.707031 73.878906 L 30.707031 73.890625 C 30.890625 74.378906 31.226562 74.792969 31.664062 75.074219 C 31.839844 75.1875 32.042969 75.238281 32.246094 75.226562 L 32.199219 75.304688 L 32.453125 75.160156 L 32.515625 75.125 C 32.613281 75.039062 32.6875 74.933594 32.738281 74.8125 C 32.785156 74.691406 32.804688 74.5625 32.792969 74.433594 C 32.796875 74.332031 32.789062 74.230469 32.769531 74.132812 Z M 32.769531 74.132812 "/>
<path style=" stroke:none;fill-rule:nonzero;fill:rgb(60.000002%,60.000002%,60.000002%);fill-opacity:1;" d="M 32.515625 74.273438 L 31.664062 70.527344 L 28.914062 68.925781 L 30.34375 73.667969 C 30.34375 73.695312 30.355469 73.726562 30.363281 73.757812 C 30.386719 73.84375 30.417969 73.933594 30.449219 74.019531 L 30.449219 74.03125 C 30.636719 74.519531 30.972656 74.933594 31.410156 75.21875 C 32.03125 75.578125 32.535156 75.289062 32.535156 74.574219 C 32.539062 74.472656 32.53125 74.375 32.515625 74.273438 Z M 32.515625 74.273438 "/>
<path style=" stroke:none;fill-rule:nonzero;fill:rgb(22.745098%,22.745098%,22.745098%);fill-opacity:1;" d="M 31.730469 74.460938 C 31.898438 74.363281 31.898438 74.042969 31.730469 73.75 C 31.558594 73.457031 31.28125 73.296875 31.109375 73.398438 C 30.9375 73.496094 30.9375 73.816406 31.109375 74.109375 C 31.28125 74.402344 31.558594 74.5625 31.730469 74.460938 Z M 31.730469 74.460938 "/>
<path style=" stroke:none;fill-rule:nonzero;fill:rgb(22.745098%,22.745098%,22.745098%);fill-opacity:1;" d="M 31.125 73.386719 L 30.984375 73.476562 L 31.589844 74.546875 L 31.746094 74.449219 Z M 31.125 73.386719 "/>
<path style=" stroke:none;fill-rule:nonzero;fill:rgb(29.803923%,29.803923%,29.803923%);fill-opacity:1;" d="M 31.617188 74.535156 C 31.789062 74.4375 31.789062 74.117188 31.617188 73.824219 C 31.445312 73.53125 31.167969 73.371094 31 73.472656 C 30.828125 73.570312 30.828125 73.890625 31 74.183594 C 31.167969 74.476562 31.445312 74.636719 31.617188 74.535156 Z M 31.617188 74.535156 "/>
<path style=" stroke:none;fill-rule:nonzero;fill:rgb(38.82353%,38.82353%,38.82353%);fill-opacity:1;" d="M 28.914062 68.925781 L 31.667969 70.527344 L 35.402344 68.292969 L 32.628906 66.710938 Z M 28.914062 68.925781 "/>
<path style=" stroke:none;fill-rule:nonzero;fill:rgb(74.901962%,74.901962%,74.901962%);fill-opacity:1;" d="M 31.859375 70.726562 L 35.300781 68.726562 L 35.144531 68.4375 L 31.921875 70.386719 Z M 31.859375 70.726562 "/>
<path style=" stroke:none;fill-rule:nonzero;fill:rgb(74.901962%,74.901962%,74.901962%);fill-opacity:1;" d="M 55.652344 83.085938 L 54.800781 79.339844 L 52.046875 77.738281 L 53.476562 82.480469 C 53.476562 82.511719 53.488281 82.539062 53.496094 82.570312 C 53.519531 82.660156 53.550781 82.75 53.585938 82.835938 L 53.585938 82.847656 C 53.769531 83.335938 54.105469 83.75 54.542969 84.03125 C 54.71875 84.140625 54.917969 84.195312 55.125 84.183594 L 55.074219 84.257812 L 55.328125 84.117188 C 55.351562 84.105469 55.371094 84.09375 55.390625 84.082031 C 55.488281 83.996094 55.566406 83.890625 55.613281 83.769531 C 55.664062 83.652344 55.683594 83.519531 55.671875 83.390625 C 55.675781 83.289062 55.667969 83.1875 55.652344 83.085938 Z M 55.652344 83.085938 "/>
<path style=" stroke:none;fill-rule:nonzero;fill:rgb(60.000002%,60.000002%,60.000002%);fill-opacity:1;" d="M 55.398438 83.226562 L 54.550781 79.480469 L 51.796875 77.882812 L 53.230469 82.621094 C 53.230469 82.652344 53.238281 82.683594 53.246094 82.710938 C 53.273438 82.800781 53.300781 82.890625 53.335938 82.976562 L 53.335938 82.988281 C 53.519531 83.476562 53.855469 83.890625 54.296875 84.171875 C 54.914062 84.53125 55.421875 84.242188 55.421875 83.53125 C 55.421875 83.429688 55.414062 83.328125 55.398438 83.226562 Z M 55.398438 83.226562 "/>
<path style=" stroke:none;fill-rule:nonzero;fill:rgb(28.627452%,28.235295%,36.078432%);fill-opacity:1;" d="M 55.285156 87.515625 C 56.558594 86.777344 56.554688 84.390625 55.277344 82.191406 C 54 79.992188 51.929688 78.808594 50.65625 79.546875 C 49.382812 80.289062 49.386719 82.671875 50.664062 84.871094 C 51.941406 87.074219 54.011719 88.257812 55.285156 87.515625 Z M 55.285156 87.515625 "/>
<path style=" stroke:none;fill-rule:nonzero;fill:rgb(28.627452%,28.235295%,36.078432%);fill-opacity:1;" d="M 55.398438 87.4375 L 53.378906 88.785156 L 54.089844 86.65625 Z M 55.398438 87.4375 "/>
<path style=" stroke:none;fill-rule:nonzero;fill:rgb(41.568628%,41.568628%,45.09804%);fill-opacity:1;" d="M 52.6875 88.667969 C 53.953125 87.929688 53.949219 85.558594 52.675781 83.371094 C 51.40625 81.183594 49.34375 80.003906 48.078125 80.742188 C 46.8125 81.480469 46.816406 83.851562 48.089844 86.039062 C 49.359375 88.226562 51.417969 89.40625 52.6875 88.667969 Z M 52.6875 88.667969 "/>
<path style=" stroke:none;fill-rule:nonzero;fill:rgb(91.37255%,91.37255%,94.901961%);fill-opacity:1;" d="M 52.804688 88.382812 C 53.894531 87.75 53.890625 85.710938 52.796875 83.828125 C 51.703125 81.945312 49.933594 80.933594 48.84375 81.566406 C 47.75 82.199219 47.753906 84.242188 48.847656 86.121094 C 49.941406 88.003906 51.710938 89.015625 52.804688 88.382812 Z M 52.804688 88.382812 "/>
<use xlink:href="#surface8" mask="url(#mask1)"/>
<path style=" stroke:none;fill-rule:nonzero;fill:rgb(74.901962%,74.901962%,74.901962%);fill-opacity:1;" d="M 52.171875 85.179688 L 51.324219 81.433594 L 48.570312 79.832031 L 50 84.570312 C 50 84.601562 50 84.632812 50.019531 84.660156 C 50.042969 84.75 50.074219 84.839844 50.109375 84.925781 L 50.109375 84.9375 C 50.292969 85.425781 50.628906 85.839844 51.066406 86.121094 C 51.238281 86.234375 51.445312 86.285156 51.648438 86.273438 L 51.601562 86.351562 L 51.855469 86.207031 L 51.914062 86.171875 C 52.015625 86.085938 52.089844 85.980469 52.140625 85.859375 C 52.191406 85.738281 52.210938 85.609375 52.199219 85.480469 C 52.199219 85.378906 52.191406 85.277344 52.171875 85.179688 Z M 52.171875 85.179688 "/>
<path style=" stroke:none;fill-rule:nonzero;fill:rgb(60.000002%,60.000002%,60.000002%);fill-opacity:1;" d="M 51.921875 85.320312 L 51.070312 81.570312 L 48.316406 79.972656 L 49.746094 84.710938 C 49.746094 84.742188 49.757812 84.773438 49.765625 84.800781 C 49.792969 84.890625 49.820312 84.980469 49.855469 85.066406 L 49.855469 85.078125 C 50.042969 85.566406 50.378906 85.980469 50.816406 86.265625 C 51.4375 86.621094 51.941406 86.332031 51.945312 85.621094 C 51.945312 85.519531 51.9375 85.417969 51.921875 85.320312 Z M 51.921875 85.320312 "/>
<path style=" stroke:none;fill-rule:nonzero;fill:rgb(22.745098%,22.745098%,22.745098%);fill-opacity:1;" d="M 51.132812 85.507812 C 51.304688 85.40625 51.304688 85.089844 51.132812 84.796875 C 50.960938 84.5 50.683594 84.34375 50.511719 84.441406 C 50.34375 84.542969 50.34375 84.859375 50.511719 85.15625 C 50.683594 85.449219 50.960938 85.605469 51.132812 85.507812 Z M 51.132812 85.507812 "/>
<path style=" stroke:none;fill-rule:nonzero;fill:rgb(22.745098%,22.745098%,22.745098%);fill-opacity:1;" d="M 50.527344 84.433594 L 50.386719 84.523438 L 50.992188 85.59375 L 51.152344 85.492188 Z M 50.527344 84.433594 "/>
<path style=" stroke:none;fill-rule:nonzero;fill:rgb(29.803923%,29.803923%,29.803923%);fill-opacity:1;" d="M 51.023438 85.582031 C 51.191406 85.484375 51.191406 85.164062 51.023438 84.871094 C 50.851562 84.578125 50.574219 84.417969 50.402344 84.519531 C 50.230469 84.617188 50.230469 84.9375 50.402344 85.230469 C 50.574219 85.523438 50.851562 85.683594 51.023438 85.582031 Z M 51.023438 85.582031 "/>
<path style=" stroke:none;fill-rule:nonzero;fill:rgb(38.82353%,38.82353%,38.82353%);fill-opacity:1;" d="M 48.320312 79.972656 L 51.070312 81.570312 L 54.808594 79.339844 L 52.035156 77.757812 Z M 48.320312 79.972656 "/>
<path style=" stroke:none;fill-rule:nonzero;fill:rgb(74.901962%,74.901962%,74.901962%);fill-opacity:1;" d="M 51.265625 81.773438 L 54.707031 79.773438 L 54.550781 79.480469 L 51.324219 81.433594 Z M 51.265625 81.773438 "/>
<path style=" stroke:none;fill-rule:nonzero;fill:rgb(74.901962%,74.901962%,74.901962%);fill-opacity:1;" d="M 80.480469 70.359375 L 79.628906 66.613281 L 76.878906 65.011719 L 78.308594 69.75 C 78.308594 69.78125 78.320312 69.8125 78.328125 69.84375 C 78.351562 69.933594 78.382812 70.019531 78.417969 70.105469 L 78.417969 70.117188 C 78.601562 70.605469 78.9375 71.019531 79.375 71.300781 C 79.546875 71.414062 79.75 71.464844 79.953125 71.453125 L 79.90625 71.53125 L 80.160156 71.386719 C 80.183594 71.378906 80.203125 71.363281 80.222656 71.351562 C 80.320312 71.265625 80.398438 71.160156 80.445312 71.039062 C 80.496094 70.917969 80.515625 70.789062 80.503906 70.660156 C 80.503906 70.558594 80.496094 70.457031 80.480469 70.359375 Z M 80.480469 70.359375 "/>
<path style=" stroke:none;fill-rule:nonzero;fill:rgb(60.000002%,60.000002%,60.000002%);fill-opacity:1;" d="M 80.226562 70.5 L 79.375 66.753906 L 76.625 65.152344 L 78.054688 69.890625 C 78.054688 69.921875 78.066406 69.953125 78.074219 69.980469 C 78.097656 70.070312 78.128906 70.160156 78.160156 70.246094 L 78.160156 70.257812 C 78.347656 70.746094 78.683594 71.160156 79.121094 71.445312 C 79.742188 71.800781 80.246094 71.515625 80.246094 70.800781 C 80.25 70.699219 80.242188 70.597656 80.226562 70.5 Z M 80.226562 70.5 "/>
<path style=" stroke:none;fill-rule:nonzero;fill:rgb(28.627452%,28.235295%,36.078432%);fill-opacity:1;" d="M 80.113281 74.785156 C 81.386719 74.046875 81.382812 71.664062 80.101562 69.460938 C 78.824219 67.261719 76.753906 66.078125 75.480469 66.820312 C 74.207031 67.558594 74.210938 69.941406 75.488281 72.144531 C 76.769531 74.34375 78.835938 75.527344 80.113281 74.785156 Z M 80.113281 74.785156 "/>
<path style=" stroke:none;fill-rule:nonzero;fill:rgb(28.627452%,28.235295%,36.078432%);fill-opacity:1;" d="M 80.226562 74.707031 L 78.203125 76.058594 L 78.914062 73.929688 Z M 80.226562 74.707031 "/>
<path style=" stroke:none;fill-rule:nonzero;fill:rgb(41.568628%,41.568628%,45.09804%);fill-opacity:1;" d="M 77.964844 76.230469 C 79.242188 75.492188 79.238281 73.105469 77.957031 70.90625 C 76.679688 68.707031 74.609375 67.523438 73.335938 68.261719 C 72.0625 69.003906 72.066406 71.386719 73.34375 73.585938 C 74.621094 75.789062 76.691406 76.972656 77.964844 76.230469 Z M 77.964844 76.230469 "/>
<path style=" stroke:none;fill-rule:nonzero;fill:rgb(91.37255%,91.37255%,94.901961%);fill-opacity:1;" d="M 77.632812 75.65625 C 78.722656 75.023438 78.71875 72.980469 77.625 71.097656 C 76.53125 69.21875 74.761719 68.203125 73.671875 68.839844 C 72.582031 69.472656 72.582031 71.511719 73.675781 73.394531 C 74.769531 75.277344 76.542969 76.289062 77.632812 75.65625 Z M 77.632812 75.65625 "/>
<use xlink:href="#surface11" mask="url(#mask2)"/>
<path style=" stroke:none;fill-rule:nonzero;fill:rgb(74.901962%,74.901962%,74.901962%);fill-opacity:1;" d="M 77 72.449219 L 76.148438 68.703125 L 73.398438 67.101562 L 74.828125 71.84375 C 74.828125 71.871094 74.839844 71.902344 74.847656 71.933594 C 74.871094 72.023438 74.902344 72.109375 74.9375 72.195312 L 74.9375 72.199219 C 75.121094 72.6875 75.457031 73.101562 75.894531 73.382812 C 76.066406 73.496094 76.273438 73.546875 76.476562 73.535156 L 76.429688 73.613281 L 76.683594 73.46875 C 76.703125 73.460938 76.722656 73.445312 76.742188 73.433594 C 76.84375 73.347656 76.917969 73.242188 76.96875 73.121094 C 77.015625 73 77.035156 72.871094 77.027344 72.742188 C 77.027344 72.644531 77.015625 72.546875 77 72.449219 Z M 77 72.449219 "/>
<path style=" stroke:none;fill-rule:nonzero;fill:rgb(60.000002%,60.000002%,60.000002%);fill-opacity:1;" d="M 76.746094 72.601562 L 75.894531 68.851562 L 73.144531 67.253906 L 74.574219 71.992188 C 74.574219 72.023438 74.585938 72.050781 74.59375 72.085938 C 74.617188 72.171875 74.648438 72.261719 74.683594 72.347656 L 74.683594 72.359375 C 74.867188 72.847656 75.203125 73.261719 75.640625 73.542969 C 76.261719 73.902344 76.769531 73.613281 76.769531 72.902344 C 76.769531 72.800781 76.761719 72.699219 76.746094 72.601562 Z M 76.746094 72.601562 "/>
<path style=" stroke:none;fill-rule:nonzero;fill:rgb(22.745098%,22.745098%,22.745098%);fill-opacity:1;" d="M 75.960938 72.78125 C 76.132812 72.679688 76.132812 72.363281 75.960938 72.066406 C 75.789062 71.773438 75.511719 71.617188 75.339844 71.714844 C 75.171875 71.8125 75.171875 72.132812 75.339844 72.425781 C 75.511719 72.722656 75.789062 72.878906 75.960938 72.78125 Z M 75.960938 72.78125 "/>
<path style=" stroke:none;fill-rule:nonzero;fill:rgb(22.745098%,22.745098%,22.745098%);fill-opacity:1;" d="M 75.355469 71.703125 L 75.214844 71.792969 L 75.820312 72.863281 L 75.976562 72.765625 Z M 75.355469 71.703125 "/>
<path style=" stroke:none;fill-rule:nonzero;fill:rgb(29.803923%,29.803923%,29.803923%);fill-opacity:1;" d="M 75.847656 72.855469 C 76.019531 72.757812 76.019531 72.4375 75.847656 72.144531 C 75.679688 71.847656 75.402344 71.691406 75.230469 71.789062 C 75.058594 71.890625 75.058594 72.210938 75.230469 72.503906 C 75.402344 72.796875 75.679688 72.957031 75.847656 72.855469 Z M 75.847656 72.855469 "/>
<path style=" stroke:none;fill-rule:nonzero;fill:rgb(38.82353%,38.82353%,38.82353%);fill-opacity:1;" d="M 73.144531 67.242188 L 75.898438 68.84375 L 79.632812 66.609375 L 76.859375 65.027344 Z M 73.144531 67.242188 "/>
<path style=" stroke:none;fill-rule:nonzero;fill:rgb(74.901962%,74.901962%,74.901962%);fill-opacity:1;" d="M 76.089844 69.042969 L 79.53125 67.042969 L 79.375 66.753906 L 76.152344 68.703125 Z M 76.089844 69.042969 "/>
<path style=" stroke:none;fill-rule:nonzero;fill:url(#linear1);" d="M 57.949219 81.253906 L 28.386719 64.289062 L 28.386719 66.820312 C 28.386719 67.160156 28.476562 67.492188 28.648438 67.789062 C 28.816406 68.082031 29.0625 68.324219 29.355469 68.496094 L 56.457031 84.113281 C 56.910156 84.378906 57.429688 84.515625 57.957031 84.515625 C 58.484375 84.515625 59 84.378906 59.457031 84.113281 L 81.878906 71.199219 C 82.121094 71.058594 82.324219 70.851562 82.464844 70.605469 C 82.605469 70.363281 82.679688 70.082031 82.679688 69.800781 L 82.679688 67.042969 Z M 57.949219 81.253906 "/>
<path style=" stroke:none;fill-rule:nonzero;fill:rgb(100%,78.823531%,1.960784%);fill-opacity:1;" d="M 29.03125 65.507812 L 56.097656 81.15625 C 56.660156 81.480469 57.296875 81.652344 57.949219 81.652344 C 58.597656 81.652344 59.238281 81.480469 59.800781 81.15625 L 81.988281 68.355469 C 82.199219 68.234375 82.378906 68.054688 82.5 67.84375 C 82.621094 67.632812 82.6875 67.390625 82.6875 67.144531 C 82.6875 66.898438 82.621094 66.65625 82.5 66.445312 C 82.378906 66.230469 82.199219 66.054688 81.988281 65.933594 L 55.28125 50.488281 C 54.632812 50.113281 53.898438 49.917969 53.148438 49.917969 C 52.402344 49.917969 51.664062 50.113281 51.019531 50.488281 L 29.019531 63.277344 C 28.824219 63.390625 28.660156 63.554688 28.546875 63.75 C 28.4375 63.945312 28.378906 64.167969 28.378906 64.394531 C 28.378906 64.621094 28.441406 64.84375 28.554688 65.039062 C 28.667969 65.234375 28.832031 65.394531 29.03125 65.507812 Z M 29.03125 65.507812 "/>
<path style=" stroke:none;fill-rule:nonzero;fill:url(#linear2);" d="M 29.027344 63.285156 C 28.832031 63.398438 28.667969 63.558594 28.558594 63.753906 C 28.445312 63.949219 28.386719 64.171875 28.386719 64.394531 C 28.386719 64.621094 28.445312 64.839844 28.558594 65.035156 C 28.667969 65.230469 28.832031 65.394531 29.027344 65.507812 L 50.164062 77.726562 L 55.53125 77.339844 L 38.117188 58 Z M 29.027344 63.285156 "/>
<path style=" stroke:none;fill-rule:nonzero;fill:rgb(100%,90.588236%,64.313728%);fill-opacity:1;" d="M 29.027344 63.285156 C 28.832031 63.398438 28.667969 63.558594 28.558594 63.753906 C 28.445312 63.949219 28.386719 64.171875 28.386719 64.394531 C 28.386719 64.621094 28.445312 64.839844 28.558594 65.035156 C 28.667969 65.230469 28.832031 65.394531 29.027344 65.507812 L 56.09375 81.15625 C 56.65625 81.480469 57.292969 81.652344 57.945312 81.652344 C 58.59375 81.652344 59.234375 81.480469 59.796875 81.15625 L 81.984375 68.355469 C 82.195312 68.234375 82.371094 68.054688 82.496094 67.84375 C 82.617188 67.628906 82.683594 67.390625 82.683594 67.144531 C 82.683594 66.898438 82.617188 66.65625 82.496094 66.445312 C 82.371094 66.230469 82.195312 66.054688 81.984375 65.933594 C 82.296875 66.113281 82.527344 66.628906 82.503906 67.132812 C 82.503906 67.492188 82.097656 67.824219 81.785156 68.003906 L 59.601562 80.808594 C 59.097656 81.101562 58.527344 81.253906 57.945312 81.253906 C 57.367188 81.253906 56.796875 81.101562 56.292969 80.808594 L 29.230469 65.160156 C 29.066406 65.074219 28.929688 64.949219 28.832031 64.796875 C 28.730469 64.644531 28.671875 64.46875 28.65625 64.289062 C 28.65625 63.8125 28.75 63.445312 29.027344 63.289062 Z M 29.027344 63.285156 "/>
<path style=" stroke:none;fill-rule:nonzero;fill:rgb(22.745098%,24.313726%,28.235295%);fill-opacity:1;" d="M 13.277344 23.480469 C 13.972656 23.082031 14.539062 23.402344 14.542969 24.203125 C 14.519531 24.636719 14.390625 25.0625 14.171875 25.441406 C 13.957031 25.820312 13.648438 26.140625 13.285156 26.378906 C 12.589844 26.777344 12.023438 26.457031 12.019531 25.65625 C 12.042969 25.222656 12.167969 24.796875 12.386719 24.417969 C 12.605469 24.039062 12.910156 23.71875 13.277344 23.480469 Z M 13.277344 23.480469 "/>
<path style=" stroke:none;fill-rule:nonzero;fill:rgb(93.725491%,65.882355%,3.921569%);fill-opacity:1;" d="M 31.484375 63.90625 C 31.949219 64.148438 31.949219 64.546875 31.484375 64.789062 C 31.222656 64.910156 30.933594 64.972656 30.644531 64.972656 C 30.355469 64.972656 30.070312 64.910156 29.808594 64.789062 C 29.34375 64.546875 29.339844 64.148438 29.808594 63.90625 C 30.070312 63.785156 30.355469 63.722656 30.644531 63.722656 C 30.933594 63.722656 31.222656 63.785156 31.484375 63.90625 Z M 31.484375 63.90625 "/>
<path style=" stroke:none;fill-rule:nonzero;fill:rgb(22.745098%,24.313726%,28.235295%);fill-opacity:1;" d="M 14.214844 23.421875 L 21.382812 27.53125 L 19.664062 30.625 L 12.304688 26.40625 Z M 14.214844 23.421875 "/>
<path style=" stroke:none;fill-rule:nonzero;fill:rgb(16.078432%,17.647059%,20.784314%);fill-opacity:1;" d="M 20.601562 27.667969 C 21.296875 27.269531 21.863281 27.59375 21.867188 28.390625 C 21.839844 28.828125 21.714844 29.25 21.496094 29.628906 C 21.273438 30.007812 20.96875 30.328125 20.601562 30.566406 C 19.902344 30.964844 19.339844 30.644531 19.335938 29.847656 C 19.359375 29.410156 19.484375 28.984375 19.707031 28.605469 C 19.925781 28.226562 20.230469 27.90625 20.601562 27.667969 Z M 20.601562 27.667969 "/>
<path style=" stroke:none;fill-rule:nonzero;fill:rgb(93.725491%,65.882355%,3.921569%);fill-opacity:1;" d="M 23.75 29.5625 L 21.210938 28.101562 L 19.957031 30.101562 L 21.90625 31.222656 C 22.1875 31.382812 22.417969 31.621094 22.5625 31.90625 L 28.820312 44 C 29.179688 44.695312 29.371094 45.46875 29.375 46.253906 L 29.464844 64.359375 L 31.828125 64.359375 L 31.828125 44.699219 C 31.832031 44.078125 31.679688 43.464844 31.390625 42.914062 L 25.199219 31.078125 C 24.871094 30.445312 24.367188 29.921875 23.75 29.5625 Z M 23.75 29.5625 "/>
<path style=" stroke:none;fill-rule:nonzero;fill:rgb(93.725491%,65.882355%,3.921569%);fill-opacity:1;" d="M 20.601562 28.152344 C 21.0625 27.886719 21.441406 28.101562 21.441406 28.632812 C 21.425781 28.925781 21.34375 29.207031 21.199219 29.457031 C 21.050781 29.710938 20.851562 29.921875 20.605469 30.082031 C 20.140625 30.351562 19.765625 30.136719 19.761719 29.605469 C 19.777344 29.3125 19.863281 29.03125 20.007812 28.777344 C 20.152344 28.527344 20.355469 28.3125 20.601562 28.152344 Z M 20.601562 28.152344 "/>
<path style="fill:none;stroke-width:2;stroke-linecap:round;stroke-linejoin:miter;stroke:rgb(100%,78.823531%,1.960784%);stroke-opacity:1;stroke-miterlimit:10;" d="M 109.335938 145.566406 L 109.511719 145.664062 L 109.707031 145.761719 L 119.082031 151.152344 C 120.488281 151.972656 121.621094 153.164062 122.363281 154.589844 L 153.632812 215 C 155.429688 218.476562 156.386719 222.34375 156.40625 226.269531 L 156.855469 316.679688 " transform="matrix(0.2,0,0,0.2,0,0)"/>
<path style=" stroke:none;fill-rule:nonzero;fill:rgb(81.960785%,55.686277%,2.745098%);fill-opacity:1;" d="M 30 43.578125 L 23.746094 31.503906 C 23.597656 31.214844 23.367188 30.976562 23.089844 30.816406 L 21.210938 29.738281 C 21.199219 29.730469 21.1875 29.722656 21.175781 29.714844 L 21.136719 29.695312 L 19.875 29.050781 C 19.800781 29.230469 19.761719 29.417969 19.757812 29.609375 C 19.75 29.703125 19.761719 29.796875 19.796875 29.882812 C 19.832031 29.96875 19.886719 30.046875 19.957031 30.109375 L 19.988281 30.128906 L 20.03125 30.152344 L 21.90625 31.230469 C 22.1875 31.390625 22.414062 31.628906 22.5625 31.917969 L 28.820312 44 C 29.179688 44.695312 29.371094 45.46875 29.375 46.253906 L 29.464844 64.339844 C 29.457031 64.503906 29.570312 64.671875 29.8125 64.800781 C 30.058594 64.917969 30.328125 64.976562 30.601562 64.980469 L 30.648438 63.925781 L 30.558594 45.84375 C 30.554688 45.054688 30.363281 44.277344 30 43.578125 Z M 30 43.578125 "/>
<path style=" stroke:none;fill-rule:nonzero;fill:rgb(22.745098%,24.313726%,28.235295%);fill-opacity:1;" d="M 35.464844 10.894531 C 36.160156 10.492188 36.726562 10.8125 36.730469 11.613281 C 36.707031 12.050781 36.582031 12.476562 36.363281 12.859375 C 36.144531 13.238281 35.839844 13.5625 35.472656 13.800781 C 34.777344 14.199219 34.210938 13.878906 34.207031 13.082031 C 34.230469 12.640625 34.355469 12.214844 34.570312 11.835938 C 34.789062 11.457031 35.097656 11.132812 35.464844 10.894531 Z M 35.464844 10.894531 "/>
<path style=" stroke:none;fill-rule:nonzero;fill:rgb(93.725491%,65.882355%,3.921569%);fill-opacity:1;" d="M 53.671875 51.316406 C 54.136719 51.5625 54.136719 51.957031 53.671875 52.203125 C 53.410156 52.324219 53.125 52.386719 52.835938 52.386719 C 52.542969 52.386719 52.257812 52.324219 51.996094 52.203125 C 51.53125 51.957031 51.527344 51.5625 51.996094 51.316406 C 52.257812 51.199219 52.542969 51.136719 52.835938 51.136719 C 53.125 51.136719 53.410156 51.199219 53.671875 51.316406 Z M 53.671875 51.316406 "/>
<path style=" stroke:none;fill-rule:nonzero;fill:rgb(22.745098%,24.313726%,28.235295%);fill-opacity:1;" d="M 36.402344 10.832031 L 43.570312 14.945312 L 41.855469 18.035156 L 34.492188 13.820312 Z M 36.402344 10.832031 "/>
<path style=" stroke:none;fill-rule:nonzero;fill:rgb(16.078432%,17.647059%,20.784314%);fill-opacity:1;" d="M 42.785156 15.082031 C 43.480469 14.683594 44.050781 15.003906 44.050781 15.800781 C 44.027344 16.238281 43.902344 16.660156 43.6875 17.039062 C 43.46875 17.417969 43.164062 17.738281 42.800781 17.976562 C 42.105469 18.378906 41.539062 18.058594 41.535156 17.261719 C 41.558594 16.824219 41.683594 16.398438 41.898438 16.019531 C 42.117188 15.644531 42.421875 15.320312 42.785156 15.082031 Z M 42.785156 15.082031 "/>
<path style=" stroke:none;fill-rule:nonzero;fill:rgb(93.725491%,65.882355%,3.921569%);fill-opacity:1;" d="M 45.941406 16.972656 L 43.398438 15.511719 L 42.148438 17.511719 L 44.097656 18.632812 C 44.378906 18.792969 44.605469 19.03125 44.753906 19.320312 L 51 31.398438 C 51.363281 32.097656 51.550781 32.871094 51.554688 33.652344 L 51.644531 51.757812 L 54.011719 51.757812 L 54.011719 32.113281 C 54.011719 31.492188 53.859375 30.878906 53.570312 30.328125 L 47.398438 18.492188 C 47.066406 17.855469 46.5625 17.332031 45.941406 16.972656 Z M 45.941406 16.972656 "/>
<path style=" stroke:none;fill-rule:nonzero;fill:rgb(93.725491%,65.882355%,3.921569%);fill-opacity:1;" d="M 42.789062 15.566406 C 43.25 15.296875 43.628906 15.511719 43.628906 16.046875 C 43.613281 16.335938 43.53125 16.617188 43.386719 16.871094 C 43.242188 17.121094 43.042969 17.335938 42.800781 17.492188 C 42.335938 17.761719 41.957031 17.546875 41.957031 17.015625 C 41.96875 16.726562 42.054688 16.441406 42.199219 16.191406 C 42.34375 15.9375 42.542969 15.726562 42.789062 15.566406 Z M 42.789062 15.566406 "/>
<path style="fill:none;stroke-width:2;stroke-linecap:round;stroke-linejoin:miter;stroke:rgb(100%,78.823531%,1.960784%);stroke-opacity:1;stroke-miterlimit:10;" d="M 220.273438 82.617188 L 220.449219 82.714844 L 220.644531 82.832031 L 230 88.242188 C 231.40625 89.0625 232.539062 90.253906 233.28125 91.679688 L 264.550781 152.050781 C 266.367188 155.546875 267.324219 159.414062 267.34375 163.320312 L 267.792969 253.730469 " transform="matrix(0.2,0,0,0.2,0,0)"/>
<path style=" stroke:none;fill-rule:nonzero;fill:rgb(81.960785%,55.686277%,2.745098%);fill-opacity:1;" d="M 52.199219 31 L 45.9375 18.914062 C 45.785156 18.628906 45.558594 18.390625 45.277344 18.226562 L 43.398438 17.148438 C 43.386719 17.144531 43.375 17.136719 43.363281 17.128906 L 43.324219 17.109375 L 42.0625 16.464844 C 41.988281 16.640625 41.949219 16.832031 41.945312 17.023438 C 41.9375 17.113281 41.953125 17.207031 41.984375 17.296875 C 42.019531 17.382812 42.074219 17.460938 42.144531 17.523438 L 42.179688 17.542969 L 42.21875 17.5625 L 44.09375 18.644531 C 44.375 18.804688 44.601562 19.042969 44.75 19.328125 L 51 31.398438 C 51.363281 32.097656 51.550781 32.871094 51.554688 33.652344 L 51.644531 51.738281 C 51.644531 51.902344 51.75 52.070312 51.992188 52.199219 C 52.238281 52.316406 52.507812 52.378906 52.78125 52.378906 L 52.828125 51.324219 L 52.738281 33.242188 C 52.738281 32.460938 52.554688 31.695312 52.199219 31 Z M 52.199219 31 "/>
<path style=" stroke:none;fill-rule:nonzero;fill:rgb(81.960785%,55.686277%,2.745098%);fill-opacity:1;" d="M 31.835938 58.90625 L 52.171875 47.1875 L 52.171875 38.90625 L 31.828125 50.746094 Z M 31.835938 58.90625 "/>
<path style=" stroke:none;fill-rule:nonzero;fill:rgb(100%,78.823531%,1.960784%);fill-opacity:1;" d="M 52.171875 38.90625 L 51.785156 38.710938 L 31.828125 50.179688 L 31.828125 50.75 Z M 52.171875 38.90625 "/>
<path style=" stroke:none;fill-rule:nonzero;fill:rgb(83.529413%,56.470591%,31.764707%);fill-opacity:1;" d="M 74.453125 44.5625 L 55.539062 55.457031 L 55.542969 77.339844 L 74.453125 66.414062 Z M 74.453125 44.5625 "/>
<path style=" stroke:none;fill-rule:nonzero;fill:rgb(68.627453%,43.529412%,29.411766%);fill-opacity:1;" d="M 36.625 44.5625 L 55.539062 55.457031 L 55.535156 77.339844 L 42.25 69.664062 L 36.625 66.414062 Z M 36.625 44.5625 "/>
<path style=" stroke:none;fill-rule:nonzero;fill:rgb(94.901961%,73.333335%,51.764709%);fill-opacity:1;" d="M 74.453125 44.5625 L 55.5625 33.648438 L 36.625 44.5625 L 55.539062 55.457031 Z M 74.453125 44.5625 "/>
<path style=" stroke:none;fill-rule:nonzero;fill:rgb(100%,89.019608%,79.215688%);fill-opacity:1;" d="M 36.625 44.5625 L 55.539062 55.457031 L 74.453125 44.5625 L 74.25 44.449219 L 55.539062 55.222656 L 36.859375 44.421875 L 36.625 44.558594 "/>
<path style=" stroke:none;fill-rule:nonzero;fill:rgb(68.627453%,43.529412%,29.411766%);fill-opacity:1;" d="M 67.871094 53.785156 L 62.730469 56.785156 C 62.253906 57.0625 61.859375 56.839844 61.859375 56.285156 L 61.859375 55.835938 C 61.867188 55.738281 61.894531 55.640625 61.945312 55.554688 C 61.996094 55.46875 62.066406 55.394531 62.148438 55.335938 L 67.289062 52.335938 C 67.769531 52.058594 68.160156 52.285156 68.160156 52.835938 L 68.160156 53.285156 C 68.15625 53.386719 68.125 53.484375 68.074219 53.570312 C 68.023438 53.65625 67.957031 53.730469 67.871094 53.785156 Z M 67.871094 53.785156 "/>
<path style=" stroke:none;fill-rule:nonzero;fill:rgb(94.901961%,73.333335%,51.764709%);fill-opacity:1;" d="M 67.652344 52.21875 C 67.691406 52.316406 67.707031 52.421875 67.707031 52.523438 L 67.707031 52.972656 C 67.703125 53.070312 67.671875 53.167969 67.625 53.257812 C 67.574219 53.34375 67.503906 53.417969 67.421875 53.472656 L 62.277344 56.472656 C 62.167969 56.539062 62.042969 56.582031 61.914062 56.589844 C 62.035156 56.90625 62.355469 57.007812 62.730469 56.789062 L 67.871094 53.789062 C 67.957031 53.734375 68.027344 53.65625 68.074219 53.570312 C 68.125 53.484375 68.15625 53.386719 68.160156 53.285156 L 68.160156 52.839844 C 68.160156 52.433594 67.953125 52.199219 67.652344 52.21875 Z M 67.652344 52.21875 "/>
<path style=" stroke:none;fill-rule:nonzero;fill:rgb(98.431373%,86.274511%,76.47059%);fill-opacity:1;" d="M 66.585938 49.09375 L 47.671875 38.199219 L 44.492188 39.992188 L 63.402344 50.925781 Z M 66.585938 49.09375 "/>
<path style=" stroke:none;fill-rule:nonzero;fill:rgb(79.215688%,63.529414%,53.725493%);fill-opacity:1;" d="M 63.414062 52.757812 L 66.5625 50.929688 L 66.585938 49.09375 L 63.414062 50.945312 Z M 63.414062 52.757812 "/>
<path style=" stroke:none;fill-rule:nonzero;fill:rgb(94.901961%,73.333335%,51.764709%);fill-opacity:1;" d="M 65.144531 51.753906 L 64.894531 51.902344 L 64.894531 50.082031 C 62.628906 48.796875 59 46.703125 55.496094 44.683594 C 51.949219 42.636719 48.183594 40.46875 45.925781 39.191406 L 46.1875 39.046875 C 48.445312 40.324219 52.074219 42.421875 55.621094 44.464844 C 59.167969 46.507812 62.832031 48.625 65.089844 49.902344 L 65.152344 49.941406 Z M 65.144531 51.753906 "/>
<path style=" stroke:none;fill-rule:nonzero;fill:rgb(83.529413%,56.470591%,31.764707%);fill-opacity:1;" d="M 70.078125 30.050781 L 57.460938 37.3125 L 57.464844 51.902344 L 70.078125 44.621094 Z M 70.078125 30.050781 "/>
<path style=" stroke:none;fill-rule:nonzero;fill:rgb(68.627453%,43.529412%,29.411766%);fill-opacity:1;" d="M 44.851562 30.050781 L 57.460938 37.3125 L 57.460938 51.902344 L 48.601562 46.789062 L 44.851562 44.621094 Z M 44.851562 30.050781 "/>
<path style=" stroke:none;fill-rule:nonzero;fill:rgb(94.901961%,73.333335%,51.764709%);fill-opacity:1;" d="M 70.074219 30.050781 L 57.476562 22.773438 L 44.851562 30.050781 L 57.460938 37.3125 Z M 70.074219 30.050781 "/>
<path style=" stroke:none;fill-rule:nonzero;fill:rgb(100%,87.450981%,76.078433%);fill-opacity:1;" d="M 70.074219 30.050781 L 57.460938 37.082031 L 44.847656 30.050781 L 57.460938 37.3125 Z M 70.074219 30.050781 "/>
<path style=" stroke:none;fill-rule:nonzero;fill:rgb(68.627453%,43.529412%,29.411766%);fill-opacity:1;" d="M 65.6875 36.199219 L 62.261719 38.199219 C 61.941406 38.386719 61.679688 38.234375 61.679688 37.867188 L 61.679688 37.566406 C 61.683594 37.5 61.703125 37.433594 61.738281 37.378906 C 61.773438 37.320312 61.820312 37.269531 61.878906 37.234375 L 65.304688 35.234375 C 65.625 35.046875 65.886719 35.199219 65.886719 35.566406 L 65.886719 35.867188 C 65.882812 35.933594 65.859375 36 65.824219 36.058594 C 65.789062 36.117188 65.742188 36.164062 65.6875 36.199219 Z M 65.6875 36.199219 "/>
<path style=" stroke:none;fill-rule:nonzero;fill:rgb(94.901961%,73.333335%,51.764709%);fill-opacity:1;" d="M 65.542969 35.152344 C 65.5625 35.21875 65.574219 35.285156 65.574219 35.355469 L 65.574219 35.652344 C 65.570312 35.71875 65.550781 35.785156 65.515625 35.84375 C 65.480469 35.902344 65.433594 35.949219 65.375 35.984375 L 61.949219 37.984375 C 61.875 38.03125 61.792969 38.058594 61.707031 38.0625 C 61.785156 38.277344 62 38.34375 62.25 38.195312 L 65.679688 36.195312 C 65.734375 36.160156 65.78125 36.109375 65.816406 36.054688 C 65.851562 35.996094 65.875 35.929688 65.878906 35.863281 L 65.878906 35.5625 C 65.878906 35.296875 65.738281 35.144531 65.542969 35.152344 Z M 65.542969 35.152344 "/>
<path style=" stroke:none;fill-rule:nonzero;fill:rgb(98.431373%,86.274511%,76.47059%);fill-opacity:1;" d="M 64.828125 33.070312 L 52.214844 25.804688 L 50.097656 27.003906 L 62.707031 34.292969 Z M 64.828125 33.070312 "/>
<path style=" stroke:none;fill-rule:nonzero;fill:rgb(79.215688%,63.529414%,53.725493%);fill-opacity:1;" d="M 62.714844 35.515625 L 64.8125 34.292969 L 64.828125 33.070312 L 62.714844 34.304688 Z M 62.714844 35.515625 "/>
<path style=" stroke:none;fill-rule:nonzero;fill:rgb(94.901961%,73.333335%,51.764709%);fill-opacity:1;" d="M 63.867188 34.84375 L 63.699219 34.945312 L 63.699219 33.730469 C 62.191406 32.875 59.769531 31.476562 57.429688 30.128906 C 55.085938 28.78125 52.554688 27.328125 51.046875 26.46875 L 51.222656 26.371094 C 52.726562 27.226562 55.148438 28.621094 57.511719 29.984375 C 59.875 31.351562 62.3125 32.757812 63.824219 33.613281 L 63.867188 33.636719 Z M 63.867188 34.84375 "/>
<path style=" stroke:none;fill-rule:nonzero;fill:rgb(42.745098%,30.980393%,24.705882%);fill-opacity:1;" d="M 52.890625 71.921875 C 52.949219 71.949219 53 71.996094 53.035156 72.054688 C 53.066406 72.109375 53.082031 72.179688 53.078125 72.246094 L 53.078125 73.085938 C 53.078125 73.273438 53.03125 73.296875 52.875 73.203125 L 47.914062 70.335938 C 47.453125 70.070312 46.992188 69.804688 46.53125 69.535156 C 46.484375 69.511719 46.441406 69.476562 46.410156 69.433594 C 46.378906 69.394531 46.355469 69.34375 46.34375 69.292969 L 46.34375 68.265625 C 46.371094 68.179688 46.4375 68.1875 46.527344 68.238281 Z M 52.890625 71.921875 "/>
<path style=" stroke:none;fill-rule:nonzero;fill:rgb(42.745098%,30.980393%,24.705882%);fill-opacity:1;" d="M 48.035156 63.304688 C 48.089844 63.339844 48.128906 63.386719 48.15625 63.441406 L 48.589844 64.242188 C 48.851562 64.726562 49.113281 65.210938 49.371094 65.695312 L 49.398438 65.746094 C 49.417969 65.773438 49.429688 65.804688 49.433594 65.835938 C 49.4375 65.871094 49.433594 65.902344 49.421875 65.933594 C 49.394531 65.984375 49.351562 65.988281 49.289062 65.953125 L 48.691406 65.605469 L 48.605469 65.554688 C 48.605469 65.589844 48.605469 65.617188 48.605469 65.648438 L 48.59375 68.863281 C 48.59375 69.0625 48.550781 69.078125 48.382812 68.980469 L 47.65625 68.5625 C 47.59375 68.535156 47.539062 68.488281 47.503906 68.429688 C 47.46875 68.371094 47.453125 68.304688 47.457031 68.234375 L 47.46875 65.011719 L 47.46875 64.902344 L 47.25 64.777344 L 46.945312 64.597656 L 46.789062 64.511719 C 46.753906 64.492188 46.722656 64.464844 46.695312 64.433594 C 46.671875 64.402344 46.652344 64.363281 46.640625 64.328125 C 46.613281 64.234375 46.640625 64.1875 46.679688 64.15625 L 47.847656 63.34375 L 47.917969 63.292969 C 47.933594 63.285156 47.957031 63.28125 47.976562 63.28125 C 48 63.28125 48.019531 63.289062 48.035156 63.304688 Z M 48.035156 63.304688 "/>
<path style=" stroke:none;fill-rule:nonzero;fill:rgb(42.745098%,30.980393%,24.705882%);fill-opacity:1;" d="M 51.398438 65.246094 C 51.449219 65.28125 51.488281 65.324219 51.515625 65.378906 L 52.753906 67.679688 C 52.773438 67.707031 52.785156 67.742188 52.792969 67.777344 C 52.796875 67.8125 52.796875 67.847656 52.785156 67.878906 C 52.757812 67.933594 52.707031 67.929688 52.640625 67.890625 L 52.441406 67.777344 L 52.042969 67.542969 L 51.964844 67.496094 L 51.964844 67.601562 L 51.953125 70.800781 C 51.953125 71.003906 51.910156 71.019531 51.753906 70.921875 L 51.035156 70.507812 C 50.972656 70.480469 50.917969 70.429688 50.882812 70.371094 C 50.84375 70.308594 50.828125 70.238281 50.835938 70.167969 L 50.835938 66.84375 L 50.757812 66.796875 C 50.625 66.71875 50.488281 66.640625 50.359375 66.5625 L 50.15625 66.449219 C 50.089844 66.410156 50.035156 66.34375 50.011719 66.269531 C 49.984375 66.183594 50.011719 66.128906 50.046875 66.101562 L 51.292969 65.230469 C 51.3125 65.222656 51.332031 65.222656 51.347656 65.226562 C 51.367188 65.226562 51.386719 65.234375 51.398438 65.246094 Z M 51.398438 65.246094 "/>
<path style=" stroke:none;fill-rule:nonzero;fill:url(#linear3);" d="M 57.460938 51.902344 L 49.371094 51.902344 L 36.625 44.5625 L 44.851562 39.824219 L 44.851562 44.621094 Z M 57.460938 51.902344 "/>
</g>
</svg>
