<?xml version="1.0" encoding="UTF-8"?>
<svg xmlns="http://www.w3.org/2000/svg" xmlns:xlink="http://www.w3.org/1999/xlink" width="100px" height="100px" viewBox="0 0 100 100" version="1.1">
<defs>
<linearGradient id="linear0" gradientUnits="userSpaceOnUse" x1="39313.398438" y1="21821.300781" x2="31052.400391" y2="21821.300781" gradientTransform="matrix(0.2,0,0,0.2,0,0)">
<stop offset="0" style="stop-color:rgb(0%,0%,0%);stop-opacity:0.2;"/>
<stop offset="0.67" style="stop-color:rgb(0%,0%,0%);stop-opacity:0.501961;"/>
</linearGradient>
<linearGradient id="linear1" gradientUnits="userSpaceOnUse" x1="378.550995" y1="362.010986" x2="32.640598" y2="362.010986" gradientTransform="matrix(0.2,0,0,0.2,0,0)">
<stop offset="0" style="stop-color:rgb(0%,0%,0%);stop-opacity:0.2;"/>
<stop offset="0.67" style="stop-color:rgb(0%,0%,0%);stop-opacity:0.501961;"/>
</linearGradient>
<filter id="alpha" filterUnits="objectBoundingBox" x="0%" y="0%" width="100%" height="100%">
  <feColorMatrix type="matrix" in="SourceGraphic" values="0 0 0 0 1 0 0 0 0 1 0 0 0 0 1 0 0 0 1 0"/>
</filter>
<mask id="mask0">
  <g filter="url(#alpha)">
<rect x="0" y="0" width="100" height="100" style="fill:rgb(0%,0%,0%);fill-opacity:0.301961;stroke:none;"/>
  </g>
</mask>
<mask id="mask1">
  <g filter="url(#alpha)">
<rect x="0" y="0" width="100" height="100" style="fill:rgb(0%,0%,0%);fill-opacity:0.301961;stroke:none;"/>
  </g>
</mask>
<clipPath id="clip2">
  <rect x="0" y="0" width="100" height="100"/>
</clipPath>
<g id="surface6" clip-path="url(#clip2)">
<path style=" stroke:none;fill-rule:nonzero;fill:rgb(100%,100%,100%);fill-opacity:1;" d="M 40.578125 69.378906 L 40.640625 69.265625 L 13.753906 53.742188 L 13.691406 53.855469 Z M 40.578125 69.378906 "/>
</g>
<clipPath id="clip1">
  <rect x="0" y="0" width="100" height="100"/>
</clipPath>
<g id="surface8" clip-path="url(#clip1)">
<use xlink:href="#surface6" mask="url(#mask1)"/>
</g>
<mask id="mask2">
  <g filter="url(#alpha)">
<rect x="0" y="0" width="100" height="100" style="fill:rgb(0%,0%,0%);fill-opacity:0.301961;stroke:none;"/>
  </g>
</mask>
<mask id="mask3">
  <g filter="url(#alpha)">
<rect x="0" y="0" width="100" height="100" style="fill:rgb(0%,0%,0%);fill-opacity:0.301961;stroke:none;"/>
  </g>
</mask>
<clipPath id="clip4">
  <rect x="0" y="0" width="100" height="100"/>
</clipPath>
<g id="surface12" clip-path="url(#clip4)">
<path style=" stroke:none;fill-rule:nonzero;fill:rgb(100%,100%,100%);fill-opacity:1;" d="M 38.671875 66.511719 L 38.742188 66.402344 L 13.3125 48.597656 L 13.234375 48.703125 Z M 38.671875 66.511719 "/>
</g>
<clipPath id="clip3">
  <rect x="0" y="0" width="100" height="100"/>
</clipPath>
<g id="surface14" clip-path="url(#clip3)">
<use xlink:href="#surface12" mask="url(#mask3)"/>
</g>
<linearGradient id="linear2" gradientUnits="userSpaceOnUse" x1="3187.780029" y1="42282.699219" x2="14053.799805" y2="42282.699219" gradientTransform="matrix(0.2,0,0,0.2,0,0)">
<stop offset="0" style="stop-color:rgb(0%,0%,0%);stop-opacity:0.2;"/>
<stop offset="0.67" style="stop-color:rgb(0%,0%,0%);stop-opacity:0.501961;"/>
</linearGradient>
</defs>
<g id="surface1">
<path style=" stroke:none;fill-rule:nonzero;fill:url(#linear0);" d="M 77.136719 78.273438 L 85.765625 73.402344 L 82.839844 69.988281 L 79.945312 66.703125 L 67.585938 67.007812 Z M 77.136719 78.273438 "/>
<path style=" stroke:none;fill-rule:nonzero;fill:rgb(18.039216%,18.039216%,18.039216%);fill-opacity:1;" d="M 71.472656 75.800781 C 71.683594 75.6875 71.929688 75.660156 72.15625 75.722656 C 72.316406 75.765625 72.46875 75.828125 72.613281 75.910156 C 73.078125 76.21875 73.464844 76.628906 73.746094 77.109375 C 74.023438 77.59375 74.183594 78.136719 74.210938 78.691406 C 74.214844 78.855469 74.191406 79.019531 74.148438 79.179688 C 74.089844 79.40625 73.945312 79.601562 73.75 79.726562 L 74.582031 79.242188 L 74.601562 79.234375 C 74.886719 79.0625 75.0625 78.707031 75.0625 78.199219 C 75.0625 77.175781 74.34375 75.929688 73.460938 75.417969 C 73.019531 75.160156 72.617188 75.136719 72.324219 75.308594 Z M 71.472656 75.800781 "/>
<path style=" stroke:none;fill-rule:nonzero;fill:rgb(18.039216%,18.039216%,18.039216%);fill-opacity:1;" d="M 71.472656 75.800781 L 72.328125 75.308594 C 72.503906 75.210938 72.710938 75.175781 72.910156 75.210938 L 72.054688 75.703125 C 71.855469 75.667969 71.652344 75.703125 71.472656 75.800781 Z M 71.472656 75.800781 "/>
<path style=" stroke:none;fill-rule:nonzero;fill:rgb(18.039216%,18.039216%,18.039216%);fill-opacity:1;" d="M 74.601562 79.234375 L 74.582031 79.246094 L 73.746094 79.726562 C 73.914062 79.625 74.039062 79.46875 74.109375 79.285156 L 74.960938 78.792969 C 74.890625 78.976562 74.765625 79.132812 74.601562 79.234375 Z M 74.601562 79.234375 "/>
<path style=" stroke:none;fill-rule:nonzero;fill:rgb(27.450982%,28.235295%,28.235295%);fill-opacity:1;" d="M 74.210938 76.0625 C 74.726562 76.660156 75.03125 77.414062 75.070312 78.203125 C 75.074219 78.402344 75.039062 78.605469 74.96875 78.792969 L 74.117188 79.285156 L 74.152344 79.183594 C 74.195312 79.023438 74.21875 78.859375 74.214844 78.695312 C 74.175781 77.90625 73.875 77.152344 73.355469 76.554688 Z M 74.210938 76.0625 "/>
<path style=" stroke:none;fill-rule:nonzero;fill:rgb(35.294119%,35.294119%,35.294119%);fill-opacity:1;" d="M 72.613281 75.914062 C 72.46875 75.828125 72.316406 75.765625 72.15625 75.726562 L 72.054688 75.707031 L 72.910156 75.214844 C 73.105469 75.246094 73.292969 75.3125 73.464844 75.414062 C 73.746094 75.585938 74 75.800781 74.210938 76.054688 L 73.355469 76.550781 C 73.148438 76.296875 72.894531 76.082031 72.613281 75.914062 Z M 72.613281 75.914062 "/>
<path style=" stroke:none;fill-rule:nonzero;fill:rgb(18.039216%,18.039216%,18.039216%);fill-opacity:1;" d="M 71 76.839844 C 71 77.863281 71.71875 79.109375 72.601562 79.621094 C 73.480469 80.132812 74.199219 79.71875 74.199219 78.695312 C 74.171875 78.136719 74.011719 77.597656 73.730469 77.113281 C 73.453125 76.628906 73.066406 76.21875 72.601562 75.914062 C 71.722656 75.398438 71 75.816406 71 76.839844 Z M 71 76.839844 "/>
<path style=" stroke:none;fill-rule:nonzero;fill:rgb(35.294119%,35.294119%,35.294119%);fill-opacity:1;" d="M 71.90625 75.695312 C 72.777344 75.78125 73.46875 76.664062 73.828125 77.390625 C 74.125 77.988281 74.417969 78.96875 73.941406 79.570312 C 74.582031 78.914062 74.15625 77.683594 73.769531 77.03125 C 73.398438 76.410156 72.707031 75.644531 71.90625 75.695312 Z M 71.90625 75.695312 "/>
<path style=" stroke:none;fill-rule:nonzero;fill:rgb(27.450982%,28.235295%,28.235295%);fill-opacity:1;" d="M 72.414062 77.226562 L 71.734375 77.226562 L 71.511719 74.675781 L 72.113281 74.675781 Z M 72.414062 77.226562 "/>
<path style=" stroke:none;fill-rule:nonzero;fill:rgb(18.039216%,18.039216%,18.039216%);fill-opacity:1;" d="M 70.898438 74.675781 L 71.511719 74.675781 L 71.734375 77.226562 L 70.898438 77.226562 Z M 70.898438 74.675781 "/>
<path style=" stroke:none;fill-rule:nonzero;fill:rgb(50.196081%,50.196081%,50.196081%);fill-opacity:1;" d="M 69.929688 78.089844 C 69.949219 78.457031 70.054688 78.816406 70.242188 79.136719 C 70.425781 79.453125 70.679688 79.726562 70.988281 79.925781 C 71.574219 80.265625 72.050781 79.988281 72.050781 79.3125 C 72.03125 78.945312 71.925781 78.589844 71.738281 78.269531 C 71.554688 77.949219 71.296875 77.679688 70.988281 77.476562 C 70.398438 77.140625 69.929688 77.414062 69.929688 78.089844 Z M 69.929688 78.089844 "/>
<path style=" stroke:none;fill-rule:nonzero;fill:rgb(35.294119%,35.294119%,35.294119%);fill-opacity:1;" d="M 70.398438 77.347656 C 70.269531 77.511719 70.207031 77.71875 70.21875 77.925781 C 70.238281 78.292969 70.347656 78.652344 70.53125 78.972656 C 70.714844 79.289062 70.972656 79.5625 71.28125 79.761719 C 71.457031 79.878906 71.671875 79.925781 71.878906 79.894531 C 71.691406 80.109375 71.367188 80.136719 71.003906 79.925781 C 70.695312 79.726562 70.4375 79.453125 70.253906 79.136719 C 70.066406 78.816406 69.960938 78.457031 69.941406 78.089844 C 69.929688 77.667969 70.113281 77.398438 70.398438 77.347656 Z M 70.398438 77.347656 "/>
<path style=" stroke:none;fill-rule:nonzero;fill:rgb(18.039216%,18.039216%,18.039216%);fill-opacity:1;" d="M 69.851562 76.734375 C 70.0625 76.621094 70.308594 76.59375 70.535156 76.660156 C 70.695312 76.699219 70.847656 76.761719 70.988281 76.847656 C 71.875 77.359375 72.589844 78.605469 72.589844 79.628906 C 72.589844 79.792969 72.570312 79.957031 72.523438 80.113281 C 72.464844 80.339844 72.320312 80.535156 72.125 80.664062 L 72.960938 80.179688 L 72.976562 80.171875 C 73.261719 80 73.4375 79.640625 73.4375 79.136719 C 73.4375 78.113281 72.71875 76.867188 71.839844 76.355469 C 71.394531 76.097656 70.992188 76.074219 70.703125 76.242188 Z M 69.851562 76.734375 "/>
<path style=" stroke:none;fill-rule:nonzero;fill:rgb(18.039216%,18.039216%,18.039216%);fill-opacity:1;" d="M 69.851562 76.738281 L 70.707031 76.246094 C 70.882812 76.148438 71.089844 76.113281 71.289062 76.152344 L 70.4375 76.644531 C 70.234375 76.605469 70.03125 76.640625 69.851562 76.738281 Z M 69.851562 76.738281 "/>
<path style=" stroke:none;fill-rule:nonzero;fill:rgb(18.039216%,18.039216%,18.039216%);fill-opacity:1;" d="M 72.984375 80.171875 L 72.96875 80.183594 L 72.132812 80.664062 C 72.300781 80.558594 72.425781 80.402344 72.492188 80.21875 L 73.347656 79.726562 C 73.28125 79.910156 73.152344 80.066406 72.984375 80.171875 Z M 72.984375 80.171875 "/>
<path style=" stroke:none;fill-rule:nonzero;fill:rgb(27.450982%,28.235295%,28.235295%);fill-opacity:1;" d="M 72.589844 77 C 73.105469 77.597656 73.410156 78.351562 73.449219 79.140625 C 73.453125 79.339844 73.417969 79.539062 73.347656 79.726562 L 72.492188 80.222656 C 72.507812 80.1875 72.519531 80.152344 72.53125 80.117188 C 72.574219 79.960938 72.597656 79.796875 72.597656 79.632812 C 72.554688 78.84375 72.253906 78.089844 71.734375 77.492188 Z M 72.589844 77 "/>
<path style=" stroke:none;fill-rule:nonzero;fill:rgb(35.294119%,35.294119%,35.294119%);fill-opacity:1;" d="M 71 76.847656 C 70.859375 76.765625 70.707031 76.703125 70.546875 76.660156 C 70.511719 76.652344 70.480469 76.648438 70.445312 76.640625 L 71.296875 76.148438 C 71.492188 76.183594 71.679688 76.25 71.851562 76.351562 C 72.136719 76.519531 72.386719 76.738281 72.597656 76.992188 L 71.746094 77.484375 C 71.535156 77.230469 71.28125 77.015625 71 76.847656 Z M 71 76.847656 "/>
<path style=" stroke:none;fill-rule:nonzero;fill:rgb(18.039216%,18.039216%,18.039216%);fill-opacity:1;" d="M 69.382812 77.777344 C 69.382812 78.800781 70.105469 80.042969 70.984375 80.554688 C 71.863281 81.066406 72.585938 80.652344 72.585938 79.628906 C 72.585938 78.605469 71.863281 77.359375 70.984375 76.847656 C 70.105469 76.335938 69.382812 76.753906 69.382812 77.777344 Z M 69.929688 78.089844 C 69.929688 77.414062 70.402344 77.140625 70.988281 77.476562 C 71.296875 77.679688 71.554688 77.949219 71.738281 78.269531 C 71.921875 78.589844 72.03125 78.945312 72.050781 79.3125 C 72.050781 79.988281 71.574219 80.265625 70.988281 79.925781 C 70.679688 79.726562 70.425781 79.453125 70.242188 79.136719 C 70.054688 78.816406 69.949219 78.457031 69.929688 78.089844 Z M 69.929688 78.089844 "/>
<path style=" stroke:none;fill-rule:nonzero;fill:rgb(35.294119%,35.294119%,35.294119%);fill-opacity:1;" d="M 70.285156 76.628906 C 71.15625 76.714844 71.847656 77.601562 72.207031 78.324219 C 72.503906 78.925781 72.792969 79.902344 72.320312 80.507812 C 72.957031 79.851562 72.535156 78.617188 72.144531 77.964844 C 71.78125 77.347656 71.085938 76.582031 70.285156 76.628906 Z M 70.285156 76.628906 "/>
<path style=" stroke:none;fill-rule:nonzero;fill:rgb(35.294119%,35.294119%,35.294119%);fill-opacity:1;" d="M 70.199219 77.429688 C 69.652344 77.78125 69.953125 78.710938 70.191406 79.132812 C 70.347656 79.425781 70.570312 79.679688 70.84375 79.875 C 71.152344 80.089844 71.65625 80.234375 71.902344 79.851562 C 71.316406 80.574219 70.378906 79.355469 70.171875 78.910156 C 69.984375 78.507812 69.777344 77.777344 70.199219 77.429688 Z M 70.199219 77.429688 "/>
<path style=" stroke:none;fill-rule:nonzero;fill:rgb(18.039216%,18.039216%,18.039216%);fill-opacity:1;" d="M 82.167969 69.625 C 82.378906 69.515625 82.621094 69.488281 82.851562 69.550781 C 83.011719 69.589844 83.164062 69.652344 83.304688 69.738281 C 83.773438 70.042969 84.160156 70.453125 84.4375 70.9375 C 84.714844 71.421875 84.875 71.960938 84.90625 72.519531 C 84.90625 72.683594 84.886719 72.847656 84.84375 73.007812 C 84.78125 73.234375 84.640625 73.429688 84.441406 73.550781 L 85.277344 73.070312 L 85.292969 73.058594 C 85.578125 72.890625 85.757812 72.535156 85.757812 72.027344 C 85.726562 71.46875 85.566406 70.929688 85.289062 70.445312 C 85.011719 69.960938 84.621094 69.550781 84.15625 69.246094 C 83.710938 68.988281 83.308594 68.964844 83.019531 69.132812 Z M 82.167969 69.625 "/>
<path style=" stroke:none;fill-rule:nonzero;fill:rgb(18.039216%,18.039216%,18.039216%);fill-opacity:1;" d="M 82.167969 69.625 L 83.019531 69.132812 C 83.199219 69.035156 83.402344 69.003906 83.605469 69.039062 L 82.75 69.53125 C 82.550781 69.496094 82.34375 69.527344 82.167969 69.625 Z M 82.167969 69.625 "/>
<path style=" stroke:none;fill-rule:nonzero;fill:rgb(18.039216%,18.039216%,18.039216%);fill-opacity:1;" d="M 85.300781 73.058594 L 85.285156 73.070312 L 84.449219 73.550781 C 84.617188 73.449219 84.742188 73.292969 84.808594 73.109375 L 85.660156 72.617188 C 85.597656 72.800781 85.46875 72.957031 85.300781 73.058594 Z M 85.300781 73.058594 "/>
<path style=" stroke:none;fill-rule:nonzero;fill:rgb(27.450982%,28.235295%,28.235295%);fill-opacity:1;" d="M 84.902344 69.886719 C 85.421875 70.484375 85.726562 71.238281 85.765625 72.027344 C 85.769531 72.226562 85.734375 72.429688 85.660156 72.617188 L 84.808594 73.109375 C 84.824219 73.074219 84.835938 73.039062 84.847656 73.007812 C 84.890625 72.847656 84.914062 72.683594 84.910156 72.519531 C 84.871094 71.730469 84.566406 70.976562 84.050781 70.378906 Z M 84.902344 69.886719 "/>
<path style=" stroke:none;fill-rule:nonzero;fill:rgb(35.294119%,35.294119%,35.294119%);fill-opacity:1;" d="M 83.304688 69.738281 C 83.164062 69.652344 83.011719 69.589844 82.851562 69.550781 C 82.816406 69.542969 82.785156 69.535156 82.75 69.53125 L 83.605469 69.039062 C 83.800781 69.070312 83.988281 69.136719 84.15625 69.238281 C 84.441406 69.40625 84.695312 69.625 84.902344 69.878906 L 84.050781 70.371094 C 83.839844 70.121094 83.589844 69.90625 83.304688 69.738281 Z M 83.304688 69.738281 "/>
<path style=" stroke:none;fill-rule:nonzero;fill:rgb(18.039216%,18.039216%,18.039216%);fill-opacity:1;" d="M 81.699219 70.664062 C 81.699219 71.6875 82.417969 72.933594 83.300781 73.445312 C 84.183594 73.957031 84.898438 73.542969 84.898438 72.519531 C 84.898438 71.496094 84.179688 70.25 83.300781 69.738281 C 82.421875 69.226562 81.699219 69.640625 81.699219 70.664062 Z M 81.699219 70.664062 "/>
<path style=" stroke:none;fill-rule:nonzero;fill:rgb(35.294119%,35.294119%,35.294119%);fill-opacity:1;" d="M 82.601562 69.519531 C 83.472656 69.605469 84.164062 70.488281 84.523438 71.214844 C 84.820312 71.8125 85.109375 72.792969 84.636719 73.394531 C 85.273438 72.738281 84.851562 71.507812 84.460938 70.855469 C 84.097656 70.234375 83.398438 69.472656 82.601562 69.519531 Z M 82.601562 69.519531 "/>
<path style=" stroke:none;fill-rule:nonzero;fill:rgb(27.450982%,28.235295%,28.235295%);fill-opacity:1;" d="M 83.109375 71.050781 L 82.429688 71.050781 L 82.207031 68.496094 L 82.808594 68.496094 Z M 83.109375 71.050781 "/>
<path style=" stroke:none;fill-rule:nonzero;fill:rgb(18.039216%,18.039216%,18.039216%);fill-opacity:1;" d="M 81.59375 68.496094 L 82.207031 68.496094 L 82.429688 71.050781 L 81.59375 71.050781 Z M 81.59375 68.496094 "/>
<path style=" stroke:none;fill-rule:nonzero;fill:rgb(50.196081%,50.196081%,50.196081%);fill-opacity:1;" d="M 80.625 71.917969 C 80.644531 72.285156 80.75 72.640625 80.933594 72.960938 C 81.117188 73.28125 81.375 73.550781 81.683594 73.753906 C 82.269531 74.089844 82.746094 73.816406 82.746094 73.140625 C 82.722656 72.773438 82.617188 72.414062 82.433594 72.09375 C 82.25 71.773438 81.992188 71.503906 81.683594 71.300781 C 81.097656 70.964844 80.625 71.238281 80.625 71.917969 Z M 80.625 71.917969 "/>
<path style=" stroke:none;fill-rule:nonzero;fill:rgb(35.294119%,35.294119%,35.294119%);fill-opacity:1;" d="M 81.09375 71.171875 C 80.960938 71.335938 80.898438 71.542969 80.910156 71.75 C 80.929688 72.117188 81.035156 72.476562 81.21875 72.796875 C 81.40625 73.113281 81.660156 73.386719 81.96875 73.585938 C 82.148438 73.703125 82.359375 73.75 82.570312 73.71875 C 82.371094 73.933594 82.054688 73.960938 81.691406 73.753906 C 81.382812 73.550781 81.125 73.28125 80.941406 72.960938 C 80.757812 72.640625 80.648438 72.285156 80.628906 71.917969 C 80.625 71.492188 80.808594 71.226562 81.09375 71.171875 Z M 81.09375 71.171875 "/>
<path style=" stroke:none;fill-rule:nonzero;fill:rgb(18.039216%,18.039216%,18.039216%);fill-opacity:1;" d="M 80.546875 70.5625 C 80.753906 70.449219 81 70.421875 81.230469 70.484375 C 81.390625 70.527344 81.542969 70.589844 81.683594 70.675781 C 82.570312 71.1875 83.285156 72.429688 83.285156 73.453125 C 83.285156 73.621094 83.261719 73.785156 83.21875 73.941406 C 83.160156 74.167969 83.015625 74.363281 82.816406 74.488281 L 83.652344 74.007812 L 83.671875 74.007812 C 83.957031 73.835938 84.132812 73.476562 84.132812 72.972656 C 84.132812 71.949219 83.414062 70.703125 82.53125 70.191406 C 82.089844 69.933594 81.6875 69.910156 81.394531 70.082031 Z M 80.546875 70.5625 "/>
<path style=" stroke:none;fill-rule:nonzero;fill:rgb(18.039216%,18.039216%,18.039216%);fill-opacity:1;" d="M 80.546875 70.5625 L 81.398438 70.070312 C 81.578125 69.972656 81.78125 69.9375 81.980469 69.972656 L 81.128906 70.464844 C 80.929688 70.429688 80.722656 70.464844 80.546875 70.5625 Z M 80.546875 70.5625 "/>
<path style=" stroke:none;fill-rule:nonzero;fill:rgb(18.039216%,18.039216%,18.039216%);fill-opacity:1;" d="M 83.679688 74 L 83.664062 74 L 82.828125 74.480469 C 82.996094 74.378906 83.121094 74.222656 83.1875 74.039062 L 84.042969 73.546875 C 83.976562 73.734375 83.847656 73.894531 83.679688 74 Z M 83.679688 74 "/>
<path style=" stroke:none;fill-rule:nonzero;fill:rgb(27.450982%,28.235295%,28.235295%);fill-opacity:1;" d="M 83.28125 70.820312 C 83.800781 71.417969 84.101562 72.171875 84.140625 72.960938 C 84.144531 73.164062 84.113281 73.363281 84.042969 73.550781 L 83.1875 74.042969 C 83.203125 74.011719 83.214844 73.976562 83.222656 73.941406 C 83.269531 73.785156 83.292969 73.621094 83.289062 73.453125 C 83.25 72.664062 82.949219 71.914062 82.429688 71.316406 Z M 83.28125 70.820312 "/>
<path style=" stroke:none;fill-rule:nonzero;fill:rgb(35.294119%,35.294119%,35.294119%);fill-opacity:1;" d="M 81.683594 70.675781 C 81.542969 70.589844 81.390625 70.527344 81.230469 70.484375 L 81.128906 70.464844 L 81.980469 69.972656 C 82.175781 70.007812 82.367188 70.074219 82.535156 70.175781 C 82.820312 70.34375 83.070312 70.5625 83.28125 70.816406 L 82.429688 71.308594 C 82.21875 71.058594 81.96875 70.84375 81.683594 70.675781 Z M 81.683594 70.675781 "/>
<path style=" stroke:none;fill-rule:nonzero;fill:rgb(18.039216%,18.039216%,18.039216%);fill-opacity:1;" d="M 80.078125 71.601562 C 80.078125 72.625 80.796875 73.871094 81.679688 74.382812 C 82.558594 74.894531 83.277344 74.476562 83.277344 73.453125 C 83.277344 72.429688 82.558594 71.1875 81.679688 70.675781 C 80.796875 70.164062 80.078125 70.578125 80.078125 71.601562 Z M 80.625 71.917969 C 80.625 71.238281 81.097656 70.964844 81.683594 71.300781 C 81.992188 71.503906 82.25 71.773438 82.433594 72.09375 C 82.617188 72.414062 82.722656 72.773438 82.746094 73.140625 C 82.746094 73.816406 82.269531 74.089844 81.683594 73.753906 C 81.375 73.550781 81.117188 73.28125 80.933594 72.960938 C 80.75 72.640625 80.644531 72.285156 80.625 71.917969 Z M 80.625 71.917969 "/>
<path style=" stroke:none;fill-rule:nonzero;fill:rgb(35.294119%,35.294119%,35.294119%);fill-opacity:1;" d="M 80.980469 70.453125 C 81.851562 70.539062 82.542969 71.425781 82.898438 72.148438 C 83.199219 72.75 83.488281 73.726562 83.015625 74.332031 C 83.652344 73.675781 83.230469 72.445312 82.839844 71.789062 C 82.472656 71.171875 81.78125 70.398438 80.980469 70.453125 Z M 80.980469 70.453125 "/>
<path style=" stroke:none;fill-rule:nonzero;fill:rgb(35.294119%,35.294119%,35.294119%);fill-opacity:1;" d="M 80.894531 71.253906 C 80.347656 71.605469 80.648438 72.535156 80.882812 72.957031 C 81.042969 73.25 81.265625 73.503906 81.535156 73.699219 C 81.847656 73.914062 82.351562 74.0625 82.601562 73.675781 C 82.011719 74.402344 81.070312 73.179688 80.867188 72.734375 C 80.679688 72.332031 80.472656 71.601562 80.894531 71.253906 Z M 80.894531 71.253906 "/>
<path style=" stroke:none;fill-rule:nonzero;fill:rgb(18.039216%,18.039216%,18.039216%);fill-opacity:1;" d="M 51.917969 64.460938 C 52.128906 64.347656 52.371094 64.320312 52.601562 64.382812 C 52.761719 64.425781 52.914062 64.488281 53.054688 64.570312 C 53.941406 65.085938 54.65625 66.328125 54.65625 67.351562 C 54.65625 67.515625 54.636719 67.679688 54.589844 67.839844 C 54.53125 68.066406 54.386719 68.261719 54.191406 68.386719 L 55.027344 67.902344 L 55.042969 67.902344 C 55.328125 67.734375 55.503906 67.378906 55.503906 66.871094 C 55.472656 66.3125 55.3125 65.773438 55.035156 65.289062 C 54.757812 64.804688 54.371094 64.394531 53.902344 64.089844 C 53.460938 63.832031 53.058594 63.808594 52.769531 63.976562 Z M 51.917969 64.460938 "/>
<path style=" stroke:none;fill-rule:nonzero;fill:rgb(18.039216%,18.039216%,18.039216%);fill-opacity:1;" d="M 51.917969 64.460938 L 52.773438 63.96875 C 52.949219 63.867188 53.15625 63.835938 53.355469 63.871094 L 52.503906 64.363281 C 52.300781 64.328125 52.097656 64.363281 51.917969 64.460938 Z M 51.917969 64.460938 "/>
<path style=" stroke:none;fill-rule:nonzero;fill:rgb(18.039216%,18.039216%,18.039216%);fill-opacity:1;" d="M 55.050781 67.894531 L 55.035156 67.894531 L 54.199219 68.386719 C 54.367188 68.28125 54.492188 68.125 54.558594 67.941406 L 55.414062 67.449219 C 55.347656 67.632812 55.21875 67.789062 55.050781 67.894531 Z M 55.050781 67.894531 "/>
<path style=" stroke:none;fill-rule:nonzero;fill:rgb(27.450982%,28.235295%,28.235295%);fill-opacity:1;" d="M 54.652344 64.722656 C 55.171875 65.320312 55.476562 66.070312 55.515625 66.859375 C 55.515625 67.0625 55.484375 67.261719 55.414062 67.449219 L 54.558594 67.941406 C 54.574219 67.910156 54.585938 67.875 54.597656 67.839844 C 54.640625 67.679688 54.664062 67.515625 54.660156 67.351562 C 54.621094 66.5625 54.320312 65.8125 53.800781 65.214844 Z M 54.652344 64.722656 "/>
<path style=" stroke:none;fill-rule:nonzero;fill:rgb(35.294119%,35.294119%,35.294119%);fill-opacity:1;" d="M 53.054688 64.570312 C 52.914062 64.488281 52.761719 64.425781 52.601562 64.382812 L 52.503906 64.363281 L 53.355469 63.871094 C 53.550781 63.902344 53.738281 63.972656 53.90625 64.070312 C 54.191406 64.242188 54.445312 64.457031 54.652344 64.714844 L 53.800781 65.214844 C 53.589844 64.960938 53.339844 64.742188 53.054688 64.570312 Z M 53.054688 64.570312 "/>
<path style=" stroke:none;fill-rule:nonzero;fill:rgb(18.039216%,18.039216%,18.039216%);fill-opacity:1;" d="M 51.449219 65.5 C 51.449219 66.523438 52.171875 67.769531 53.050781 68.28125 C 53.929688 68.792969 54.648438 68.375 54.648438 67.351562 C 54.648438 66.328125 53.929688 65.085938 53.050781 64.570312 C 52.171875 64.058594 51.449219 64.472656 51.449219 65.5 Z M 51.449219 65.5 "/>
<path style=" stroke:none;fill-rule:nonzero;fill:rgb(35.294119%,35.294119%,35.294119%);fill-opacity:1;" d="M 52.351562 64.351562 C 53.222656 64.4375 53.914062 65.320312 54.273438 66.046875 C 54.570312 66.648438 54.859375 67.625 54.386719 68.230469 C 55.023438 67.570312 54.601562 66.34375 54.210938 65.6875 C 53.847656 65.070312 53.152344 64.304688 52.351562 64.351562 Z M 52.351562 64.351562 "/>
<path style=" stroke:none;fill-rule:nonzero;fill:rgb(27.450982%,28.235295%,28.235295%);fill-opacity:1;" d="M 52.859375 65.886719 L 52.179688 65.886719 L 51.957031 63.332031 L 52.558594 63.332031 Z M 52.859375 65.886719 "/>
<path style=" stroke:none;fill-rule:nonzero;fill:rgb(18.039216%,18.039216%,18.039216%);fill-opacity:1;" d="M 51.34375 63.332031 L 51.957031 63.332031 L 52.179688 65.886719 L 51.34375 65.886719 Z M 51.34375 63.332031 "/>
<path style=" stroke:none;fill-rule:nonzero;fill:rgb(50.196081%,50.196081%,50.196081%);fill-opacity:1;" d="M 50.375 66.746094 C 50.394531 67.117188 50.5 67.472656 50.683594 67.792969 C 50.871094 68.113281 51.125 68.382812 51.433594 68.585938 C 52.019531 68.925781 52.496094 68.648438 52.496094 67.972656 C 52.472656 67.605469 52.367188 67.246094 52.183594 66.925781 C 52 66.609375 51.742188 66.335938 51.433594 66.136719 C 50.851562 65.800781 50.375 66.070312 50.375 66.746094 Z M 50.375 66.746094 "/>
<path style=" stroke:none;fill-rule:nonzero;fill:rgb(35.294119%,35.294119%,35.294119%);fill-opacity:1;" d="M 50.84375 66 C 50.714844 66.164062 50.648438 66.371094 50.660156 66.578125 C 50.679688 66.949219 50.785156 67.304688 50.96875 67.625 C 51.15625 67.945312 51.410156 68.214844 51.71875 68.414062 C 51.898438 68.53125 52.109375 68.578125 52.320312 68.550781 C 52.128906 68.765625 51.804688 68.792969 51.441406 68.582031 C 51.132812 68.378906 50.875 68.109375 50.691406 67.789062 C 50.507812 67.46875 50.402344 67.113281 50.378906 66.742188 C 50.375 66.324219 50.558594 66.058594 50.84375 66 Z M 50.84375 66 "/>
<path style=" stroke:none;fill-rule:nonzero;fill:rgb(18.039216%,18.039216%,18.039216%);fill-opacity:1;" d="M 50.296875 65.398438 C 50.503906 65.285156 50.75 65.257812 50.976562 65.324219 C 51.136719 65.363281 51.289062 65.425781 51.433594 65.511719 C 52.320312 66.023438 53.03125 67.269531 53.03125 68.292969 C 53.035156 68.457031 53.011719 68.621094 52.964844 68.78125 C 52.910156 69.007812 52.765625 69.203125 52.566406 69.324219 L 53.402344 68.84375 L 53.421875 68.835938 C 53.703125 68.664062 53.882812 68.304688 53.882812 67.800781 C 53.882812 66.777344 53.160156 65.53125 52.28125 65.019531 C 51.839844 64.761719 51.433594 64.738281 51.144531 64.90625 Z M 50.296875 65.398438 "/>
<path style=" stroke:none;fill-rule:nonzero;fill:rgb(18.039216%,18.039216%,18.039216%);fill-opacity:1;" d="M 50.296875 65.398438 L 51.152344 64.90625 C 51.328125 64.808594 51.535156 64.773438 51.734375 64.808594 L 50.882812 65.300781 C 50.683594 65.265625 50.476562 65.300781 50.296875 65.398438 Z M 50.296875 65.398438 "/>
<path style=" stroke:none;fill-rule:nonzero;fill:rgb(18.039216%,18.039216%,18.039216%);fill-opacity:1;" d="M 53.433594 68.828125 L 53.414062 68.839844 L 52.578125 69.320312 C 52.746094 69.21875 52.871094 69.0625 52.941406 68.878906 L 53.792969 68.386719 C 53.722656 68.570312 53.597656 68.726562 53.433594 68.828125 Z M 53.433594 68.828125 "/>
<path style=" stroke:none;fill-rule:nonzero;fill:rgb(27.450982%,28.235295%,28.235295%);fill-opacity:1;" d="M 53.03125 65.65625 C 53.550781 66.253906 53.855469 67.007812 53.894531 67.796875 C 53.898438 67.996094 53.863281 68.199219 53.792969 68.386719 L 52.941406 68.878906 C 52.953125 68.84375 52.964844 68.808594 52.972656 68.777344 C 53.019531 68.617188 53.042969 68.453125 53.039062 68.289062 C 53 67.5 52.699219 66.746094 52.179688 66.148438 Z M 53.03125 65.65625 "/>
<path style=" stroke:none;fill-rule:nonzero;fill:rgb(35.294119%,35.294119%,35.294119%);fill-opacity:1;" d="M 51.433594 65.507812 C 51.292969 65.421875 51.140625 65.359375 50.980469 65.320312 L 50.878906 65.300781 L 51.730469 64.808594 C 51.929688 64.839844 52.117188 64.90625 52.289062 65.007812 C 52.570312 65.179688 52.824219 65.394531 53.03125 65.648438 L 52.179688 66.140625 C 51.96875 65.890625 51.71875 65.675781 51.433594 65.507812 Z M 51.433594 65.507812 "/>
<path style=" stroke:none;fill-rule:nonzero;fill:rgb(18.039216%,18.039216%,18.039216%);fill-opacity:1;" d="M 49.828125 66.433594 C 49.828125 67.457031 50.546875 68.703125 51.429688 69.214844 C 52.308594 69.726562 53.027344 69.3125 53.027344 68.289062 C 53.027344 67.265625 52.308594 66.019531 51.429688 65.507812 C 50.546875 64.996094 49.828125 65.410156 49.828125 66.433594 Z M 50.375 66.75 C 50.375 66.070312 50.851562 65.796875 51.433594 66.136719 C 51.742188 66.335938 52 66.609375 52.183594 66.925781 C 52.367188 67.246094 52.472656 67.605469 52.496094 67.972656 C 52.496094 68.648438 52.019531 68.925781 51.433594 68.585938 C 51.125 68.382812 50.871094 68.113281 50.683594 67.792969 C 50.5 67.472656 50.394531 67.117188 50.375 66.75 Z M 50.375 66.75 "/>
<path style=" stroke:none;fill-rule:nonzero;fill:rgb(35.294119%,35.294119%,35.294119%);fill-opacity:1;" d="M 50.730469 65.289062 C 51.601562 65.375 52.292969 66.257812 52.648438 66.980469 C 52.949219 67.582031 53.238281 68.5625 52.765625 69.164062 C 53.402344 68.507812 52.980469 67.277344 52.59375 66.621094 C 52.222656 66 51.53125 65.238281 50.730469 65.289062 Z M 50.730469 65.289062 "/>
<path style=" stroke:none;fill-rule:nonzero;fill:rgb(35.294119%,35.294119%,35.294119%);fill-opacity:1;" d="M 50.644531 66.089844 C 50.097656 66.4375 50.398438 67.367188 50.644531 67.792969 C 50.804688 68.085938 51.027344 68.339844 51.296875 68.53125 C 51.609375 68.746094 52.109375 68.894531 52.359375 68.507812 C 51.773438 69.234375 50.832031 68.015625 50.625 67.570312 C 50.429688 67.167969 50.222656 66.433594 50.644531 66.089844 Z M 50.644531 66.089844 "/>
<path style=" stroke:none;fill-rule:nonzero;fill:rgb(0%,20%,60.000002%);fill-opacity:1;" d="M 68.632812 24.050781 L 65.804688 25.683594 L 65.804688 21.238281 L 68.632812 19.601562 Z M 68.632812 24.050781 "/>
<path style=" stroke:none;fill-rule:nonzero;fill:rgb(49.019608%,49.019608%,48.235294%);fill-opacity:1;" d="M 76.480469 30.839844 L 77.316406 30.355469 L 77.316406 7.777344 L 76.480469 8.261719 Z M 76.480469 30.839844 "/>
<path style=" stroke:none;fill-rule:nonzero;fill:rgb(89.019608%,89.019608%,89.019608%);fill-opacity:1;" d="M 76.480469 30.839844 L 75.640625 30.355469 L 75.640625 7.777344 L 76.480469 8.261719 Z M 76.480469 30.839844 "/>
<path style=" stroke:none;fill-rule:nonzero;fill:rgb(49.019608%,49.019608%,48.235294%);fill-opacity:1;" d="M 69.054688 26.550781 L 69.890625 26.066406 L 69.890625 3.492188 L 69.054688 3.972656 Z M 69.054688 26.550781 "/>
<path style=" stroke:none;fill-rule:nonzero;fill:rgb(89.019608%,89.019608%,89.019608%);fill-opacity:1;" d="M 69.054688 26.550781 L 68.214844 26.066406 L 68.214844 3.492188 L 69.054688 3.972656 Z M 69.054688 26.550781 "/>
<path style=" stroke:none;fill-rule:nonzero;fill:rgb(18.039216%,18.039216%,18.039216%);fill-opacity:1;" d="M 77.648438 6.84375 L 77.648438 8.417969 C 77.648438 8.441406 77.644531 8.460938 77.636719 8.480469 C 77.625 8.5 77.609375 8.515625 77.59375 8.53125 L 77.566406 8.542969 L 76.621094 9.089844 C 76.636719 9.078125 76.652344 9.0625 76.664062 9.042969 C 76.671875 9.023438 76.679688 9 76.679688 8.976562 L 76.679688 7.398438 C 76.679688 7.390625 76.679688 7.378906 76.679688 7.367188 L 77.648438 6.800781 Z M 77.648438 6.84375 "/>
<path style=" stroke:none;fill-rule:nonzero;fill:rgb(27.450982%,28.235295%,28.235295%);fill-opacity:1;" d="M 77.648438 6.800781 L 76.675781 7.363281 C 76.671875 7.199219 76.605469 7.046875 76.496094 6.929688 L 77.46875 6.367188 C 77.578125 6.484375 77.644531 6.636719 77.648438 6.800781 Z M 77.648438 6.800781 "/>
<path style=" stroke:none;fill-rule:nonzero;fill:rgb(35.294119%,35.294119%,35.294119%);fill-opacity:1;" d="M 77.46875 6.375 L 76.496094 6.9375 L 76.445312 6.886719 C 73.953125 4.742188 71.320312 3.210938 68.800781 2.429688 C 68.679688 2.390625 68.558594 2.359375 68.441406 2.324219 L 68.800781 2.125 L 69.417969 1.769531 C 72.042969 2.511719 74.816406 4.085938 77.417969 6.328125 C 77.433594 6.339844 77.449219 6.359375 77.46875 6.375 Z M 77.46875 6.375 "/>
<path style=" stroke:none;fill-rule:nonzero;fill:rgb(50.196081%,50.196081%,50.196081%);fill-opacity:1;" d="M 69.417969 1.761719 L 68.800781 2.117188 L 68.441406 2.316406 L 68.199219 2.257812 C 68.160156 2.246094 68.117188 2.246094 68.074219 2.253906 C 68.03125 2.261719 67.992188 2.277344 67.957031 2.300781 L 68.929688 1.738281 L 68.953125 1.722656 C 69.019531 1.6875 69.097656 1.679688 69.171875 1.699219 Z M 69.417969 1.761719 "/>
<path style=" stroke:none;fill-rule:nonzero;fill:rgb(50.196081%,50.196081%,50.196081%);fill-opacity:1;" d="M 76.441406 6.886719 C 73.757812 4.574219 70.90625 2.972656 68.199219 2.257812 C 68.15625 2.246094 68.109375 2.246094 68.0625 2.253906 C 68.019531 2.261719 67.976562 2.28125 67.941406 2.3125 C 67.90625 2.339844 67.875 2.375 67.855469 2.414062 C 67.835938 2.457031 67.824219 2.503906 67.824219 2.546875 L 67.824219 3.496094 C 67.824219 3.589844 67.855469 3.683594 67.910156 3.761719 C 67.96875 3.835938 68.046875 3.894531 68.140625 3.921875 C 70.855469 4.722656 73.738281 6.523438 76.441406 9.078125 C 76.460938 9.097656 76.484375 9.109375 76.511719 9.113281 C 76.539062 9.117188 76.566406 9.117188 76.589844 9.105469 C 76.613281 9.09375 76.636719 9.078125 76.648438 9.054688 C 76.664062 9.03125 76.671875 9.007812 76.671875 8.980469 L 76.671875 7.398438 C 76.671875 7.304688 76.652344 7.207031 76.613281 7.117188 C 76.574219 7.03125 76.515625 6.949219 76.441406 6.886719 Z M 76.441406 6.886719 "/>
<path style=" stroke:none;fill-rule:nonzero;fill:rgb(20%,60.000002%,100%);fill-opacity:1;" d="M 49.828125 26.46875 C 49.828125 24.339844 50.828125 22.46875 52.316406 21.453125 L 52.328125 21.453125 C 52.421875 21.386719 52.527344 21.324219 52.617188 21.265625 L 60.21875 16.863281 C 60.777344 16.542969 61.410156 16.371094 62.058594 16.371094 C 62.703125 16.371094 63.335938 16.542969 63.894531 16.863281 L 68.214844 19.359375 L 68.214844 19.84375 L 67.992188 19.972656 C 67.9375 20.003906 67.894531 20.050781 67.863281 20.105469 C 67.828125 20.160156 67.8125 20.222656 67.8125 20.285156 C 67.8125 20.347656 67.828125 20.410156 67.863281 20.464844 C 67.894531 20.519531 67.9375 20.5625 67.992188 20.597656 L 75.75 25.074219 C 75.867188 25.140625 76.003906 25.175781 76.140625 25.175781 C 76.277344 25.175781 76.410156 25.140625 76.527344 25.074219 L 77.328125 24.617188 L 82.300781 27.488281 C 82.351562 27.519531 82.398438 27.550781 82.445312 27.582031 C 83.214844 28.085938 83.847656 28.773438 84.28125 29.585938 C 84.714844 30.394531 84.9375 31.300781 84.925781 32.222656 L 72.335938 41.679688 C 69.523438 41.679688 67.238281 39.261719 67.238281 36.28125 C 67.238281 35.257812 67.515625 34.253906 68.039062 33.378906 L 59.730469 28.578125 Z M 49.828125 26.46875 "/>
<path style=" stroke:none;fill-rule:nonzero;fill:rgb(0%,20%,60.000002%);fill-opacity:1;" d="M 76.078125 74.199219 C 75.941406 74.289062 75.796875 74.371094 75.648438 74.445312 C 75.675781 74.433594 75.703125 74.417969 75.730469 74.398438 Z M 76.078125 74.199219 "/>
<path style=" stroke:none;fill-rule:nonzero;fill:rgb(0%,20%,60.000002%);fill-opacity:1;" d="M 84.921875 32.039062 L 84.921875 66.972656 C 84.921875 67.617188 84.753906 68.253906 84.429688 68.8125 C 84.105469 69.371094 83.644531 69.835938 83.085938 70.15625 L 76.082031 74.199219 L 75.730469 74.398438 C 75.703125 74.417969 75.675781 74.433594 75.648438 74.445312 L 75.507812 74.511719 L 75.480469 74.523438 C 74.601562 74.890625 73.652344 75.074219 72.699219 75.058594 C 70.308594 75.058594 68.371094 74.039062 68.371094 72.78125 C 68.371094 71.523438 70.304688 70.503906 72.691406 70.5 L 72.691406 39.070312 C 72.691406 38.160156 72.933594 37.261719 73.386719 36.46875 C 73.84375 35.679688 74.5 35.023438 75.292969 34.566406 L 82.292969 30.523438 C 82.558594 30.371094 82.859375 30.289062 83.167969 30.289062 C 83.476562 30.289062 83.777344 30.367188 84.046875 30.523438 C 84.3125 30.675781 84.53125 30.898438 84.6875 31.164062 C 84.839844 31.429688 84.921875 31.730469 84.921875 32.039062 Z M 84.921875 32.039062 "/>
<path style=" stroke:none;fill-rule:nonzero;fill:rgb(20%,60.000002%,100%);fill-opacity:1;" d="M 52.617188 21.257812 C 52.519531 21.316406 52.417969 21.378906 52.328125 21.445312 C 52.390625 21.394531 52.457031 21.351562 52.527344 21.308594 Z M 52.617188 21.257812 "/>
<path style=" stroke:none;fill-rule:nonzero;fill:rgb(20%,40.000001%,80.000001%);fill-opacity:1;" d="M 69.652344 74.398438 L 51.964844 64.199219 C 51.316406 63.824219 50.777344 63.285156 50.402344 62.636719 C 50.027344 61.984375 49.828125 61.25 49.828125 60.496094 L 49.828125 26.476562 C 49.828125 26.109375 49.925781 25.753906 50.109375 25.4375 C 50.292969 25.121094 50.554688 24.855469 50.871094 24.675781 C 51.1875 24.492188 51.546875 24.398438 51.914062 24.398438 C 52.277344 24.398438 52.636719 24.492188 52.953125 24.675781 L 70.230469 34.652344 C 70.980469 35.082031 71.601562 35.703125 72.03125 36.453125 C 72.464844 37.203125 72.691406 38.050781 72.691406 38.914062 L 72.691406 72.648438 C 72.691406 73.003906 72.597656 73.351562 72.417969 73.660156 C 72.242188 73.96875 71.984375 74.222656 71.679688 74.402344 C 71.371094 74.578125 71.019531 74.671875 70.664062 74.671875 C 70.308594 74.671875 69.960938 74.578125 69.652344 74.398438 Z M 69.652344 74.398438 "/>
<path style=" stroke:none;fill-rule:nonzero;fill:rgb(18.039216%,18.039216%,18.039216%);fill-opacity:1;" d="M 78.183594 72.984375 L 79.429688 72.265625 L 79.429688 32.179688 L 78.183594 32.898438 Z M 78.183594 72.984375 "/>
<path style=" stroke:none;fill-rule:nonzero;fill:rgb(50.196081%,50.196081%,50.196081%);fill-opacity:1;" d="M 56.566406 18.976562 L 55.320312 19.699219 L 78.183594 32.898438 L 79.429688 32.179688 Z M 56.566406 18.976562 "/>
<path style=" stroke:none;fill-rule:nonzero;fill:rgb(0%,0%,0%);fill-opacity:1;" d="M 67.503906 22.753906 L 67.503906 23.15625 L 68.722656 22.453125 L 68.722656 22.046875 Z M 67.503906 22.753906 "/>
<path style=" stroke:none;fill-rule:nonzero;fill:rgb(30.980393%,30.980393%,30.980393%);fill-opacity:1;" d="M 67.503906 23.15625 L 66.058594 22.324219 L 66.058594 21.917969 L 67.503906 22.753906 Z M 67.503906 23.15625 "/>
<path style=" stroke:none;fill-rule:nonzero;fill:rgb(0%,0%,0%);fill-opacity:1;" d="M 74.09375 26.546875 L 74.09375 26.953125 L 75.3125 26.25 L 75.3125 25.84375 Z M 74.09375 26.546875 "/>
<path style=" stroke:none;fill-rule:nonzero;fill:rgb(30.980393%,30.980393%,30.980393%);fill-opacity:1;" d="M 74.09375 26.953125 L 72.648438 26.117188 L 72.648438 25.714844 L 74.09375 26.546875 Z M 74.09375 26.953125 "/>
<path style=" stroke:none;fill-rule:nonzero;fill:rgb(30.980393%,30.980393%,30.980393%);fill-opacity:1;" d="M 75.3125 25.511719 L 75.019531 25.683594 L 74.101562 26.210938 L 73.777344 25.878906 L 74.578125 25.421875 L 75 25.179688 C 75.128906 25.253906 75.238281 25.363281 75.3125 25.488281 Z M 75.3125 25.511719 "/>
<path style=" stroke:none;fill-rule:nonzero;fill:rgb(58.039218%,58.039218%,58.039218%);fill-opacity:1;" d="M 67.574219 20.898438 L 75 25.179688 L 74.574219 25.425781 L 67.46875 21.320312 L 66.410156 21.921875 L 66.078125 21.601562 L 67.28125 20.90625 L 67.296875 20.90625 C 67.339844 20.882812 67.386719 20.867188 67.433594 20.867188 C 67.484375 20.863281 67.53125 20.875 67.574219 20.898438 Z M 67.574219 20.898438 "/>
<path style=" stroke:none;fill-rule:nonzero;fill:rgb(35.294119%,35.294119%,35.294119%);fill-opacity:1;" d="M 65.933594 21.847656 L 74.199219 26.617188 C 74.199219 26.46875 74.160156 26.324219 74.085938 26.195312 C 74.011719 26.0625 73.90625 25.957031 73.777344 25.882812 L 66.359375 21.601562 C 66.316406 21.574219 66.269531 21.5625 66.21875 21.5625 C 66.167969 21.5625 66.121094 21.574219 66.074219 21.601562 C 66.03125 21.625 65.996094 21.660156 65.972656 21.703125 C 65.945312 21.746094 65.933594 21.796875 65.933594 21.847656 Z M 65.933594 21.847656 "/>
<path style=" stroke:none;fill-rule:nonzero;fill:rgb(50.196081%,50.196081%,50.196081%);fill-opacity:1;" d="M 66.355469 21.597656 L 67.570312 20.894531 L 74.992188 25.179688 L 73.773438 25.882812 Z M 66.355469 21.597656 "/>
<path style=" stroke:none;fill-rule:nonzero;fill:rgb(18.039216%,18.039216%,18.039216%);fill-opacity:1;" d="M 75.414062 25.914062 L 74.199219 26.617188 L 74.097656 26.21875 L 75.015625 25.6875 L 75.308594 25.519531 C 75.378906 25.640625 75.414062 25.777344 75.414062 25.914062 Z M 75.414062 25.914062 "/>
<path style=" stroke:none;fill-rule:nonzero;fill:rgb(16.862746%,33.333334%,67.058825%);fill-opacity:1;" d="M 71.371094 40.8125 C 71.371094 40.613281 71.320312 40.417969 71.21875 40.242188 C 71.117188 40.070312 70.976562 39.929688 70.800781 39.828125 L 51.679688 28.785156 C 51.625 28.753906 51.566406 28.738281 51.503906 28.738281 C 51.441406 28.738281 51.378906 28.753906 51.324219 28.785156 C 51.273438 28.816406 51.226562 28.859375 51.195312 28.914062 C 51.164062 28.96875 51.148438 29.03125 51.148438 29.09375 L 51.148438 29.398438 L 71.371094 41.078125 Z M 71.371094 40.8125 "/>
<path style=" stroke:none;fill-rule:nonzero;fill:rgb(21.960784%,43.921569%,87.843138%);fill-opacity:1;" d="M 51.148438 29.398438 L 51.148438 29.953125 C 51.148438 30.082031 51.183594 30.207031 51.246094 30.316406 C 51.3125 30.429688 51.402344 30.523438 51.515625 30.585938 L 70.914062 41.785156 C 70.960938 41.8125 71.011719 41.828125 71.066406 41.828125 C 71.121094 41.828125 71.171875 41.8125 71.21875 41.785156 C 71.265625 41.761719 71.304688 41.722656 71.332031 41.675781 C 71.359375 41.628906 71.375 41.574219 71.375 41.523438 L 71.375 41.078125 Z M 51.148438 29.398438 "/>
<path style=" stroke:none;fill-rule:nonzero;fill:rgb(16.862746%,33.333334%,67.058825%);fill-opacity:1;" d="M 71.371094 45.703125 C 71.371094 45.503906 71.320312 45.308594 71.21875 45.136719 C 71.117188 44.960938 70.976562 44.816406 70.800781 44.71875 L 51.679688 33.679688 C 51.625 33.648438 51.566406 33.628906 51.503906 33.628906 C 51.441406 33.628906 51.378906 33.644531 51.324219 33.675781 C 51.273438 33.707031 51.226562 33.753906 51.195312 33.808594 C 51.164062 33.859375 51.148438 33.921875 51.148438 33.984375 L 51.148438 34.285156 L 71.371094 45.960938 Z M 71.371094 45.703125 "/>
<path style=" stroke:none;fill-rule:nonzero;fill:rgb(21.960784%,43.921569%,87.843138%);fill-opacity:1;" d="M 51.148438 34.285156 L 51.148438 34.839844 C 51.148438 34.96875 51.183594 35.09375 51.246094 35.203125 C 51.3125 35.316406 51.402344 35.40625 51.515625 35.472656 L 70.914062 46.671875 C 70.960938 46.699219 71.011719 46.714844 71.066406 46.714844 C 71.121094 46.714844 71.175781 46.699219 71.222656 46.671875 C 71.269531 46.644531 71.304688 46.605469 71.332031 46.558594 C 71.359375 46.511719 71.375 46.460938 71.375 46.40625 L 71.375 45.960938 Z M 51.148438 34.285156 "/>
<path style=" stroke:none;fill-rule:nonzero;fill:rgb(16.862746%,33.333334%,67.058825%);fill-opacity:1;" d="M 71.371094 50.601562 C 71.375 50.398438 71.320312 50.199219 71.222656 50.023438 C 71.121094 49.847656 70.976562 49.703125 70.800781 49.601562 L 51.679688 38.558594 C 51.625 38.527344 51.5625 38.511719 51.5 38.511719 C 51.4375 38.511719 51.378906 38.527344 51.324219 38.558594 C 51.269531 38.589844 51.226562 38.636719 51.195312 38.6875 C 51.164062 38.742188 51.144531 38.804688 51.144531 38.867188 L 51.144531 39.171875 L 71.371094 50.847656 Z M 71.371094 50.601562 "/>
<path style=" stroke:none;fill-rule:nonzero;fill:rgb(21.960784%,43.921569%,87.843138%);fill-opacity:1;" d="M 51.148438 39.179688 L 51.148438 39.730469 C 51.148438 39.859375 51.183594 39.984375 51.246094 40.097656 C 51.3125 40.207031 51.402344 40.300781 51.515625 40.363281 L 70.914062 51.5625 C 70.960938 51.589844 71.011719 51.605469 71.066406 51.605469 C 71.121094 51.605469 71.175781 51.589844 71.222656 51.566406 C 71.269531 51.539062 71.304688 51.5 71.332031 51.453125 C 71.359375 51.40625 71.375 51.351562 71.375 51.296875 L 71.375 50.855469 Z M 51.148438 39.179688 "/>
<path style=" stroke:none;fill-rule:nonzero;fill:rgb(16.862746%,33.333334%,67.058825%);fill-opacity:1;" d="M 71.371094 55.484375 C 71.371094 55.285156 71.320312 55.089844 71.21875 54.914062 C 71.117188 54.742188 70.972656 54.597656 70.800781 54.5 L 51.679688 43.457031 C 51.625 43.425781 51.566406 43.410156 51.503906 43.410156 C 51.441406 43.410156 51.378906 43.425781 51.324219 43.457031 C 51.269531 43.488281 51.226562 43.535156 51.195312 43.589844 C 51.164062 43.640625 51.148438 43.703125 51.148438 43.765625 L 51.148438 44.066406 L 71.371094 55.746094 Z M 71.371094 55.484375 "/>
<path style=" stroke:none;fill-rule:nonzero;fill:rgb(21.960784%,43.921569%,87.843138%);fill-opacity:1;" d="M 51.148438 44.066406 L 51.148438 44.621094 C 51.148438 44.75 51.183594 44.875 51.246094 44.984375 C 51.308594 45.097656 51.402344 45.191406 51.515625 45.253906 L 70.914062 56.453125 C 70.960938 56.480469 71.011719 56.496094 71.066406 56.496094 C 71.121094 56.496094 71.175781 56.480469 71.222656 56.453125 C 71.269531 56.425781 71.304688 56.386719 71.332031 56.34375 C 71.359375 56.296875 71.375 56.242188 71.375 56.1875 L 71.375 55.742188 Z M 51.148438 44.066406 "/>
<path style=" stroke:none;fill-rule:nonzero;fill:rgb(16.862746%,33.333334%,67.058825%);fill-opacity:1;" d="M 71.371094 60.375 C 71.371094 60.179688 71.316406 59.984375 71.214844 59.8125 C 71.113281 59.640625 70.972656 59.5 70.800781 59.398438 L 51.679688 48.359375 C 51.625 48.328125 51.5625 48.3125 51.5 48.3125 C 51.4375 48.3125 51.378906 48.328125 51.324219 48.359375 C 51.269531 48.390625 51.226562 48.433594 51.195312 48.488281 C 51.164062 48.542969 51.144531 48.605469 51.144531 48.667969 L 51.144531 48.96875 L 71.371094 60.644531 Z M 71.371094 60.375 "/>
<path style=" stroke:none;fill-rule:nonzero;fill:rgb(21.960784%,43.921569%,87.843138%);fill-opacity:1;" d="M 51.148438 48.957031 L 51.148438 49.511719 C 51.148438 49.640625 51.183594 49.765625 51.246094 49.878906 C 51.3125 49.988281 51.402344 50.082031 51.515625 50.144531 L 70.914062 61.34375 C 70.960938 61.371094 71.011719 61.386719 71.066406 61.386719 C 71.121094 61.386719 71.175781 61.371094 71.222656 61.34375 C 71.269531 61.316406 71.304688 61.277344 71.332031 61.230469 C 71.359375 61.183594 71.375 61.132812 71.375 61.078125 L 71.375 60.632812 Z M 51.148438 48.957031 "/>
<path style=" stroke:none;fill-rule:nonzero;fill:rgb(16.862746%,33.333334%,67.058825%);fill-opacity:1;" d="M 71.371094 65.265625 C 71.371094 65.066406 71.320312 64.871094 71.21875 64.699219 C 71.117188 64.523438 70.976562 64.382812 70.800781 64.28125 L 51.679688 53.238281 C 51.625 53.207031 51.566406 53.191406 51.503906 53.191406 C 51.441406 53.191406 51.378906 53.207031 51.324219 53.238281 C 51.269531 53.269531 51.226562 53.316406 51.195312 53.371094 C 51.164062 53.425781 51.148438 53.484375 51.148438 53.546875 L 51.148438 53.851562 L 71.371094 65.527344 Z M 71.371094 65.265625 "/>
<path style=" stroke:none;fill-rule:nonzero;fill:rgb(21.960784%,43.921569%,87.843138%);fill-opacity:1;" d="M 51.148438 53.851562 L 51.148438 54.398438 C 51.148438 54.527344 51.183594 54.65625 51.246094 54.765625 C 51.308594 54.878906 51.402344 54.96875 51.515625 55.035156 L 70.914062 66.234375 C 70.960938 66.261719 71.011719 66.277344 71.066406 66.277344 C 71.121094 66.277344 71.171875 66.261719 71.21875 66.234375 C 71.265625 66.207031 71.304688 66.167969 71.332031 66.125 C 71.359375 66.078125 71.375 66.023438 71.375 65.96875 L 71.375 65.527344 Z M 51.148438 53.851562 "/>
<path style=" stroke:none;fill-rule:nonzero;fill:rgb(16.862746%,33.333334%,67.058825%);fill-opacity:1;" d="M 71.371094 70.15625 C 71.371094 69.957031 71.320312 69.761719 71.21875 69.589844 C 71.117188 69.414062 70.976562 69.273438 70.800781 69.171875 L 51.679688 58.132812 C 51.625 58.101562 51.566406 58.085938 51.503906 58.085938 C 51.441406 58.082031 51.378906 58.101562 51.324219 58.132812 C 51.273438 58.164062 51.226562 58.207031 51.195312 58.261719 C 51.164062 58.316406 51.148438 58.375 51.148438 58.4375 L 51.148438 58.738281 L 71.371094 70.414062 Z M 71.371094 70.15625 "/>
<path style=" stroke:none;fill-rule:nonzero;fill:rgb(21.960784%,43.921569%,87.843138%);fill-opacity:1;" d="M 51.148438 58.738281 L 51.148438 59.292969 C 51.148438 59.421875 51.183594 59.546875 51.246094 59.660156 C 51.3125 59.769531 51.402344 59.863281 51.515625 59.925781 L 70.914062 71.125 C 70.960938 71.152344 71.011719 71.167969 71.066406 71.167969 C 71.121094 71.167969 71.175781 71.152344 71.222656 71.125 C 71.269531 71.101562 71.304688 71.0625 71.332031 71.015625 C 71.359375 70.96875 71.375 70.914062 71.375 70.859375 L 71.375 70.417969 Z M 51.148438 58.738281 "/>
<path style=" stroke:none;fill-rule:nonzero;fill:rgb(0%,0%,0%);fill-opacity:1;" d="M 78.769531 72.648438 L 78.90625 72.570312 L 78.90625 32.480469 L 78.769531 32.558594 Z M 78.769531 72.648438 "/>
<path style=" stroke:none;fill-rule:nonzero;fill:rgb(30.980393%,30.980393%,30.980393%);fill-opacity:1;" d="M 55.90625 19.359375 L 78.769531 32.558594 L 78.902344 32.480469 L 56.042969 19.28125 Z M 55.90625 19.359375 "/>
<path style=" stroke:none;fill-rule:nonzero;fill:url(#linear1);" d="M 6.527344 71.988281 L 37.929688 90.117188 L 45.109375 88.089844 L 53.4375 93.675781 L 75.710938 70.324219 L 42.464844 51.128906 Z M 6.527344 71.988281 "/>
<path style=" stroke:none;fill-rule:nonzero;fill:rgb(94.901961%,72.549021%,0%);fill-opacity:1;" d="M 43.21875 79.074219 L 39.503906 84.875 L 43.21875 86.378906 C 43.21875 86.378906 51.304688 82.726562 56.417969 79.628906 C 62.257812 76.085938 67.59375 72.308594 67.59375 72.308594 L 71.308594 66.511719 L 67.585938 65 L 53.65625 68.132812 Z M 43.21875 79.074219 "/>
<path style=" stroke:none;fill-rule:nonzero;fill:rgb(83.529413%,54.11765%,0%);fill-opacity:1;" d="M 71.300781 66.511719 L 66.648438 68.113281 L 42.265625 82.171875 L 39.503906 84.867188 L 41.230469 76.363281 L 62.304688 64.636719 L 68.257812 64.753906 Z M 71.300781 66.511719 "/>
<path style=" stroke:none;fill-rule:nonzero;fill:rgb(100%,77.64706%,0%);fill-opacity:1;" d="M 4.960938 66.421875 L 38.210938 85.613281 L 39.503906 84.867188 L 6.257812 65.671875 Z M 4.960938 66.421875 "/>
<path style=" stroke:none;fill-rule:nonzero;fill:rgb(100%,77.64706%,0%);fill-opacity:1;" d="M 39.347656 46.566406 L 72.59375 65.761719 L 71.300781 66.511719 L 38.050781 47.3125 Z M 39.347656 46.566406 "/>
<path style=" stroke:none;fill-rule:nonzero;fill:rgb(100%,77.64706%,0%);fill-opacity:1;" d="M 9.96875 59.878906 L 43.21875 79.078125 C 43.21875 79.078125 50.101562 74.199219 55.324219 71.132812 C 60.140625 68.304688 67.585938 65 67.585938 65 L 34.339844 45.800781 C 30.230469 47.265625 26.265625 49.097656 22.492188 51.277344 C 16.722656 54.632812 9.96875 59.878906 9.96875 59.878906 Z M 9.96875 59.878906 "/>
<path style=" stroke:none;fill-rule:nonzero;fill:rgb(94.901961%,72.549021%,0%);fill-opacity:1;" d="M 6.257812 65.671875 L 39.503906 84.867188 L 43.21875 79.074219 L 9.96875 59.878906 Z M 6.257812 65.671875 "/>
<path style=" stroke:none;fill-rule:nonzero;fill:rgb(14.117648%,50.196081%,73.725492%);fill-opacity:1;" d="M 30.609375 81.375 L 34.382812 83.363281 L 35.675781 82.613281 L 31.902344 80.625 Z M 30.609375 81.375 "/>
<path style=" stroke:none;fill-rule:nonzero;fill:rgb(14.117648%,50.196081%,73.725492%);fill-opacity:1;" d="M 38.53125 72.652344 L 42.4375 74.707031 C 40.621094 75.945312 39.398438 76.820312 39.398438 76.820312 L 35.628906 74.835938 C 35.628906 74.835938 36.773438 73.9375 38.53125 72.652344 Z M 38.53125 72.652344 "/>
<path style=" stroke:none;fill-rule:nonzero;fill:rgb(3.921569%,40.000001%,63.529414%);fill-opacity:1;" d="M 31.902344 80.625 L 35.675781 82.613281 L 39.390625 76.820312 L 35.617188 74.835938 Z M 31.902344 80.625 "/>
<path style=" stroke:none;fill-rule:nonzero;fill:rgb(94.901961%,72.549021%,0%);fill-opacity:1;" d="M 38.050781 47.3125 L 71.300781 66.511719 L 67.585938 65.007812 L 34.339844 45.8125 Z M 38.050781 47.3125 "/>
<path style=" stroke:none;fill-rule:nonzero;fill:rgb(92.54902%,65.098041%,0%);fill-opacity:1;" d="M 71.1875 66.546875 L 67.585938 72.304688 L 66.566406 68.160156 Z M 71.1875 66.546875 "/>
<path style=" stroke:none;fill-rule:nonzero;fill:rgb(92.54902%,65.098041%,0%);fill-opacity:1;" d="M 42.265625 82.171875 L 43.21875 86.28125 L 39.503906 84.867188 Z M 42.265625 82.171875 "/>
<path style=" stroke:none;fill-rule:nonzero;fill:rgb(88.627452%,91.37255%,92.941177%);fill-opacity:1;" d="M 15.605469 60.429688 L 23.53125 65.007812 L 27.511719 62.707031 L 19.585938 58.132812 Z M 15.605469 60.429688 "/>
<path style=" stroke:none;fill-rule:nonzero;fill:rgb(40.784314%,45.882353%,47.450981%);fill-opacity:1;" d="M 23.386719 64.25 L 23.214844 64.148438 L 26.027344 62.523438 L 26.199219 62.625 Z M 23.386719 64.25 "/>
<path style=" stroke:none;fill-rule:nonzero;fill:rgb(40.784314%,45.882353%,47.450981%);fill-opacity:1;" d="M 23.089844 64.078125 L 22.914062 63.976562 L 25.730469 62.355469 L 25.902344 62.453125 Z M 23.089844 64.078125 "/>
<path style=" stroke:none;fill-rule:nonzero;fill:rgb(40.784314%,45.882353%,47.450981%);fill-opacity:1;" d="M 19.148438 61.800781 L 18.972656 61.703125 L 21.789062 60.078125 L 21.960938 60.179688 Z M 19.148438 61.800781 "/>
<path style=" stroke:none;fill-rule:nonzero;fill:rgb(40.784314%,45.882353%,47.450981%);fill-opacity:1;" d="M 22.402344 63.679688 L 22.226562 63.582031 L 25.042969 61.957031 L 25.214844 62.054688 Z M 22.402344 63.679688 "/>
<path style=" stroke:none;fill-rule:nonzero;fill:rgb(40.784314%,45.882353%,47.450981%);fill-opacity:1;" d="M 22.746094 63.878906 L 22.660156 63.832031 L 25.472656 62.203125 L 25.558594 62.253906 Z M 22.746094 63.878906 "/>
<path style=" stroke:none;fill-rule:nonzero;fill:rgb(40.784314%,45.882353%,47.450981%);fill-opacity:1;" d="M 18.074219 61.183594 L 17.902344 61.082031 L 20.714844 59.457031 L 20.886719 59.558594 Z M 18.074219 61.183594 "/>
<path style=" stroke:none;fill-rule:nonzero;fill:rgb(40.784314%,45.882353%,47.450981%);fill-opacity:1;" d="M 17.777344 61.011719 L 17.605469 60.910156 L 20.417969 59.285156 L 20.589844 59.386719 Z M 17.777344 61.011719 "/>
<path style=" stroke:none;fill-rule:nonzero;fill:rgb(40.784314%,45.882353%,47.450981%);fill-opacity:1;" d="M 19.902344 58.988281 L 17.089844 60.613281 L 16.917969 60.515625 L 19.730469 58.890625 Z M 19.902344 58.988281 "/>
<path style=" stroke:none;fill-rule:nonzero;fill:rgb(40.784314%,45.882353%,47.450981%);fill-opacity:1;" d="M 17.433594 60.8125 L 17.347656 60.761719 L 20.160156 59.136719 L 20.246094 59.1875 Z M 17.433594 60.8125 "/>
<path style=" stroke:none;fill-rule:nonzero;fill:rgb(40.784314%,45.882353%,47.450981%);fill-opacity:1;" d="M 21.375 63.089844 L 21.203125 62.988281 L 24.015625 61.363281 L 24.1875 61.464844 Z M 21.375 63.089844 "/>
<path style=" stroke:none;fill-rule:nonzero;fill:rgb(40.784314%,45.882353%,47.450981%);fill-opacity:1;" d="M 20.6875 62.691406 L 20.515625 62.59375 L 23.328125 60.964844 L 23.5 61.066406 Z M 20.6875 62.691406 "/>
<path style=" stroke:none;fill-rule:nonzero;fill:rgb(40.784314%,45.882353%,47.450981%);fill-opacity:1;" d="M 21.03125 62.890625 L 20.945312 62.839844 L 23.761719 61.214844 L 23.84375 61.265625 Z M 21.03125 62.890625 "/>
<path style=" stroke:none;fill-rule:nonzero;fill:rgb(40.784314%,45.882353%,47.450981%);fill-opacity:1;" d="M 21.941406 63.414062 L 21.855469 63.363281 L 24.667969 61.738281 L 24.757812 61.789062 Z M 21.941406 63.414062 "/>
<path style=" stroke:none;fill-rule:nonzero;fill:rgb(40.784314%,45.882353%,47.450981%);fill-opacity:1;" d="M 21.707031 63.277344 L 21.621094 63.226562 L 24.433594 61.605469 L 24.519531 61.652344 Z M 21.707031 63.277344 "/>
<path style=" stroke:none;fill-rule:nonzero;fill:rgb(40.784314%,45.882353%,47.450981%);fill-opacity:1;" d="M 20.296875 62.464844 L 20.210938 62.414062 L 23.023438 60.789062 L 23.109375 60.839844 Z M 20.296875 62.464844 "/>
<path style=" stroke:none;fill-rule:nonzero;fill:rgb(40.784314%,45.882353%,47.450981%);fill-opacity:1;" d="M 20.003906 62.296875 L 19.917969 62.246094 L 22.730469 60.621094 L 22.816406 60.671875 Z M 20.003906 62.296875 "/>
<path style=" stroke:none;fill-rule:nonzero;fill:rgb(40.784314%,45.882353%,47.450981%);fill-opacity:1;" d="M 19.679688 62.109375 L 19.59375 62.058594 L 22.40625 60.433594 L 22.492188 60.484375 Z M 19.679688 62.109375 "/>
<path style=" stroke:none;fill-rule:nonzero;fill:rgb(40.784314%,45.882353%,47.450981%);fill-opacity:1;" d="M 18.734375 61.5625 L 18.648438 61.511719 L 21.460938 59.886719 L 21.546875 59.9375 Z M 18.734375 61.5625 "/>
<path style=" stroke:none;fill-rule:nonzero;fill:rgb(40.784314%,45.882353%,47.450981%);fill-opacity:1;" d="M 18.429688 61.386719 L 18.34375 61.335938 L 21.15625 59.710938 L 21.242188 59.761719 Z M 18.429688 61.386719 "/>
<path style=" stroke:none;fill-rule:nonzero;fill:rgb(83.529413%,54.11765%,0%);fill-opacity:1;" d="M 53.367188 67.621094 C 53.683594 67.625 53.996094 67.550781 54.277344 67.398438 L 59.652344 64.292969 C 59.789062 64.238281 59.902344 64.144531 59.984375 64.023438 C 60.066406 63.898438 60.109375 63.757812 60.109375 63.609375 C 60.109375 63.464844 60.066406 63.320312 59.984375 63.199219 C 59.902344 63.078125 59.789062 62.984375 59.652344 62.929688 L 48 56.199219 C 47.71875 56.054688 47.40625 55.976562 47.089844 55.976562 C 46.773438 55.976562 46.460938 56.054688 46.183594 56.199219 L 40.804688 59.304688 C 40.667969 59.359375 40.554688 59.457031 40.472656 59.578125 C 40.390625 59.699219 40.347656 59.839844 40.347656 59.988281 C 40.347656 60.132812 40.390625 60.277344 40.472656 60.398438 C 40.554688 60.519531 40.667969 60.613281 40.804688 60.671875 L 52.457031 67.398438 C 52.734375 67.550781 53.046875 67.625 53.367188 67.621094 Z M 53.367188 67.621094 "/>
<path style=" stroke:none;fill-rule:nonzero;fill:rgb(100%,100%,100%);fill-opacity:1;" d="M 40.945312 59.546875 C 40.523438 59.789062 40.519531 60.191406 40.945312 60.4375 L 52.601562 67.160156 C 52.839844 67.28125 53.105469 67.347656 53.371094 67.347656 C 53.640625 67.347656 53.90625 67.28125 54.144531 67.160156 L 59.523438 64.054688 C 59.949219 63.8125 59.949219 63.410156 59.523438 63.164062 L 47.871094 56.441406 C 47.628906 56.320312 47.367188 56.257812 47.097656 56.257812 C 46.828125 56.257812 46.566406 56.320312 46.324219 56.441406 Z M 40.945312 59.546875 "/>
<path style=" stroke:none;fill-rule:nonzero;fill:rgb(40.784314%,45.882353%,47.450981%);fill-opacity:1;" d="M 47.671875 58.453125 L 57.125 63.910156 L 57.359375 63.777344 L 47.902344 58.316406 Z M 47.671875 58.453125 "/>
<path style=" stroke:none;fill-rule:nonzero;fill:rgb(40.784314%,45.882353%,47.450981%);fill-opacity:1;" d="M 47.007812 58.835938 L 56.464844 64.292969 L 56.699219 64.15625 L 47.246094 58.699219 Z M 47.007812 58.835938 "/>
<path style=" stroke:none;fill-rule:nonzero;fill:rgb(40.784314%,45.882353%,47.450981%);fill-opacity:1;" d="M 46.347656 59.214844 L 55.800781 64.675781 L 56.039062 64.539062 L 46.585938 59.078125 Z M 46.347656 59.214844 "/>
<path style=" stroke:none;fill-rule:nonzero;fill:rgb(40.784314%,45.882353%,47.450981%);fill-opacity:1;" d="M 49.328125 61.699219 L 55.140625 65.054688 L 55.378906 64.921875 L 49.5625 61.5625 Z M 49.328125 61.699219 "/>
<path style=" stroke:none;fill-rule:nonzero;fill:rgb(40.784314%,45.882353%,47.450981%);fill-opacity:1;" d="M 41.816406 59.847656 L 46.847656 56.945312 C 46.941406 56.894531 47.046875 56.871094 47.15625 56.871094 C 47.261719 56.871094 47.367188 56.894531 47.460938 56.945312 L 58.644531 63.398438 C 58.679688 63.414062 58.714844 63.4375 58.738281 63.46875 C 58.757812 63.5 58.773438 63.539062 58.773438 63.578125 C 58.773438 63.617188 58.757812 63.65625 58.738281 63.6875 C 58.714844 63.71875 58.679688 63.742188 58.644531 63.757812 L 53.617188 66.65625 C 53.519531 66.707031 53.414062 66.730469 53.308594 66.730469 C 53.203125 66.730469 53.097656 66.707031 53.003906 66.65625 L 41.816406 60.199219 C 41.78125 60.1875 41.75 60.164062 41.730469 60.132812 C 41.707031 60.101562 41.695312 60.0625 41.695312 60.023438 C 41.695312 59.984375 41.707031 59.949219 41.730469 59.917969 C 41.75 59.886719 41.78125 59.863281 41.816406 59.847656 Z M 47.320312 57.023438 C 47.269531 57 47.214844 56.984375 47.15625 56.984375 C 47.097656 56.984375 47.039062 57 46.988281 57.023438 L 41.957031 59.929688 C 41.933594 59.933594 41.914062 59.945312 41.898438 59.964844 C 41.882812 59.980469 41.875 60.003906 41.875 60.027344 C 41.875 60.050781 41.882812 60.074219 41.898438 60.09375 C 41.914062 60.109375 41.933594 60.125 41.957031 60.128906 L 53.140625 66.585938 C 53.195312 66.609375 53.25 66.625 53.308594 66.625 C 53.367188 66.625 53.425781 66.609375 53.476562 66.585938 L 58.507812 63.679688 C 58.527344 63.675781 58.550781 63.664062 58.566406 63.644531 C 58.578125 63.625 58.589844 63.605469 58.589844 63.582031 C 58.589844 63.554688 58.578125 63.535156 58.566406 63.515625 C 58.550781 63.496094 58.527344 63.484375 58.507812 63.480469 Z M 47.320312 57.023438 "/>
<path style=" stroke:none;fill-rule:nonzero;fill:rgb(44.705883%,44.705883%,44.705883%);fill-opacity:1;" d="M 31.882812 46.390625 L 57.511719 61.015625 L 40.609375 70.773438 L 14.984375 56.148438 Z M 31.882812 46.390625 "/>
<path style=" stroke:none;fill-rule:nonzero;fill:rgb(57.647061%,57.647061%,57.647061%);fill-opacity:1;" d="M 57.511719 59.566406 L 57.511719 60.335938 L 40.609375 70.09375 L 40.609375 69.324219 Z M 57.511719 59.566406 "/>
<path style=" stroke:none;fill-rule:nonzero;fill:rgb(78.823531%,78.823531%,78.823531%);fill-opacity:1;" d="M 13.722656 53.800781 L 40.609375 69.324219 L 40.609375 70.113281 L 13.722656 54.589844 Z M 13.722656 53.800781 "/>
<path style=" stroke:none;fill-rule:nonzero;fill:rgb(89.019608%,89.019608%,89.019608%);fill-opacity:1;" d="M 30.621094 44.042969 L 57.511719 59.566406 L 40.609375 69.324219 L 13.722656 53.800781 Z M 30.621094 44.042969 "/>
<use xlink:href="#surface8" mask="url(#mask0)"/>
<path style=" stroke:none;fill-rule:nonzero;fill:rgb(75.686276%,76.078433%,76.862746%);fill-opacity:1;" d="M 46.601562 62.632812 L 46.601562 62.722656 C 46.601562 62.820312 46.574219 62.914062 46.527344 63 C 46.476562 63.082031 46.410156 63.152344 46.324219 63.199219 C 46.242188 63.25 46.148438 63.277344 46.050781 63.277344 C 45.953125 63.277344 45.859375 63.25 45.777344 63.203125 L 37.113281 58.277344 C 37.03125 58.230469 36.960938 58.160156 36.910156 58.074219 C 36.863281 57.992188 36.835938 57.894531 36.835938 57.796875 L 36.835938 57.632812 C 36.835938 57.535156 36.863281 57.441406 36.910156 57.355469 C 36.957031 57.273438 37.027344 57.203125 37.113281 57.15625 C 37.195312 57.105469 37.289062 57.082031 37.386719 57.082031 C 37.484375 57.082031 37.578125 57.109375 37.660156 57.15625 L 46.324219 62.15625 C 46.40625 62.203125 46.476562 62.273438 46.527344 62.359375 C 46.574219 62.441406 46.601562 62.539062 46.601562 62.632812 Z M 46.601562 62.632812 "/>
<path style=" stroke:none;fill-rule:nonzero;fill:rgb(75.686276%,76.078433%,76.862746%);fill-opacity:1;" d="M 43.800781 64.035156 L 43.800781 64.125 C 43.796875 64.222656 43.773438 64.316406 43.722656 64.398438 C 43.675781 64.480469 43.605469 64.546875 43.523438 64.59375 C 43.441406 64.644531 43.347656 64.667969 43.253906 64.667969 C 43.15625 64.671875 43.0625 64.644531 42.980469 64.601562 L 36.675781 60.972656 C 36.589844 60.925781 36.519531 60.855469 36.472656 60.769531 C 36.421875 60.6875 36.398438 60.589844 36.394531 60.496094 L 36.394531 60.328125 C 36.394531 60.230469 36.421875 60.136719 36.46875 60.054688 C 36.519531 59.96875 36.589844 59.898438 36.671875 59.851562 C 36.753906 59.804688 36.851562 59.777344 36.945312 59.777344 C 37.042969 59.777344 37.136719 59.800781 37.222656 59.851562 L 43.527344 63.554688 C 43.613281 63.601562 43.679688 63.671875 43.726562 63.757812 C 43.777344 63.84375 43.800781 63.9375 43.800781 64.035156 Z M 43.800781 64.035156 "/>
<path style=" stroke:none;fill-rule:nonzero;fill:rgb(75.686276%,76.078433%,76.862746%);fill-opacity:1;" d="M 41.160156 65.472656 L 41.160156 65.5625 C 41.160156 65.660156 41.136719 65.753906 41.085938 65.835938 C 41.039062 65.921875 40.96875 65.988281 40.886719 66.039062 C 40.804688 66.085938 40.707031 66.113281 40.613281 66.113281 C 40.515625 66.113281 40.421875 66.085938 40.339844 66.039062 L 32.777344 61.640625 C 32.691406 61.59375 32.621094 61.523438 32.574219 61.4375 C 32.523438 61.355469 32.5 61.257812 32.496094 61.160156 L 32.496094 61 C 32.496094 60.902344 32.523438 60.808594 32.570312 60.726562 C 32.621094 60.640625 32.691406 60.570312 32.773438 60.523438 C 32.855469 60.476562 32.953125 60.449219 33.046875 60.449219 C 33.144531 60.449219 33.242188 60.476562 33.324219 60.523438 L 40.886719 65 C 40.96875 65.046875 41.039062 65.117188 41.085938 65.199219 C 41.132812 65.28125 41.160156 65.375 41.160156 65.472656 Z M 41.160156 65.472656 "/>
<path style=" stroke:none;fill-rule:nonzero;fill:rgb(100%,100%,100%);fill-opacity:1;" d="M 29.039062 50.929688 C 29.1875 50.820312 29.171875 50.671875 28.996094 50.570312 C 28.894531 50.523438 28.785156 50.496094 28.671875 50.492188 C 28.5625 50.488281 28.449219 50.503906 28.34375 50.546875 L 27.800781 50.238281 C 27.945312 50.132812 27.933594 49.980469 27.753906 49.878906 C 27.652344 49.832031 27.542969 49.804688 27.429688 49.800781 C 27.320312 49.796875 27.207031 49.816406 27.105469 49.855469 L 26.546875 49.550781 C 26.695312 49.441406 26.683594 49.289062 26.503906 49.191406 C 26.402344 49.140625 26.292969 49.117188 26.179688 49.113281 C 26.070312 49.105469 25.957031 49.125 25.855469 49.167969 L 25.347656 48.886719 L 25.96875 48.542969 C 26.175781 48.617188 26.402344 48.605469 26.601562 48.511719 C 26.773438 48.414062 26.792969 48.269531 26.660156 48.160156 L 27.21875 47.851562 C 27.324219 47.886719 27.429688 47.90625 27.539062 47.898438 C 27.648438 47.894531 27.753906 47.867188 27.851562 47.816406 C 28.023438 47.722656 28.050781 47.578125 27.910156 47.46875 L 28.46875 47.164062 C 28.574219 47.199219 28.679688 47.214844 28.789062 47.207031 C 28.898438 47.203125 29.003906 47.175781 29.101562 47.128906 C 29.273438 47.035156 29.300781 46.886719 29.160156 46.78125 L 29.71875 46.472656 C 29.824219 46.507812 29.929688 46.523438 30.039062 46.519531 C 30.148438 46.511719 30.253906 46.484375 30.351562 46.4375 C 30.523438 46.34375 30.550781 46.195312 30.410156 46.089844 L 30.921875 45.808594 L 31.425781 46.085938 C 31.238281 46.195312 31.238281 46.363281 31.425781 46.46875 C 31.53125 46.523438 31.652344 46.546875 31.773438 46.546875 C 31.890625 46.546875 32.011719 46.523438 32.121094 46.46875 L 32.667969 46.769531 C 32.480469 46.878906 32.484375 47.050781 32.667969 47.152344 C 32.777344 47.207031 32.894531 47.230469 33.015625 47.230469 C 33.136719 47.230469 33.253906 47.207031 33.363281 47.152344 L 33.910156 47.453125 C 33.726562 47.5625 33.726562 47.734375 33.910156 47.839844 C 34.019531 47.890625 34.140625 47.917969 34.261719 47.917969 C 34.378906 47.917969 34.5 47.890625 34.609375 47.839844 L 35.152344 48.140625 C 34.96875 48.25 34.96875 48.421875 35.152344 48.527344 C 35.332031 48.609375 35.53125 48.628906 35.722656 48.578125 L 35.769531 48.578125 L 36.195312 48.847656 L 35.796875 49.070312 L 35.796875 49.085938 C 35.613281 49.042969 35.421875 49.0625 35.25 49.144531 C 35.050781 49.253906 35.050781 49.425781 35.25 49.535156 L 34.703125 49.835938 C 34.59375 49.785156 34.472656 49.757812 34.351562 49.757812 C 34.230469 49.757812 34.109375 49.785156 33.996094 49.835938 C 33.796875 49.945312 33.796875 50.117188 33.996094 50.226562 L 34.007812 50.226562 L 33.460938 50.527344 C 33.351562 50.476562 33.230469 50.449219 33.105469 50.449219 C 32.984375 50.449219 32.863281 50.476562 32.753906 50.527344 C 32.554688 50.636719 32.554688 50.808594 32.753906 50.917969 L 32.207031 51.21875 C 32.097656 51.167969 31.976562 51.136719 31.855469 51.136719 C 31.734375 51.136719 31.613281 51.167969 31.503906 51.21875 C 31.300781 51.328125 31.300781 51.5 31.503906 51.609375 L 30.886719 51.949219 L 30.265625 51.605469 C 30.410156 51.5 30.398438 51.347656 30.21875 51.25 C 30.117188 51.199219 30.007812 51.171875 29.898438 51.167969 C 29.785156 51.164062 29.671875 51.183594 29.566406 51.222656 Z M 29.039062 50.929688 "/>
<path style=" stroke:none;fill-rule:nonzero;fill:rgb(100%,78.823531%,1.960784%);fill-opacity:1;" d="M 26.949219 48.886719 L 30.910156 51.074219 L 34.875 48.886719 L 30.910156 46.699219 Z M 26.949219 48.886719 "/>
<path style=" stroke:none;fill-rule:nonzero;fill:rgb(57.647061%,57.647061%,57.647061%);fill-opacity:1;" d="M 56.394531 58.210938 L 56.328125 58.976562 L 38.640625 67.222656 L 38.707031 66.457031 Z M 56.394531 58.210938 "/>
<path style=" stroke:none;fill-rule:nonzero;fill:rgb(78.823531%,78.823531%,78.823531%);fill-opacity:1;" d="M 13.273438 48.648438 L 38.707031 66.457031 L 38.636719 67.242188 L 13.207031 49.433594 Z M 13.273438 48.648438 "/>
<path style=" stroke:none;fill-rule:nonzero;fill:rgb(89.019608%,89.019608%,89.019608%);fill-opacity:1;" d="M 30.960938 40.398438 L 56.394531 58.210938 L 38.707031 66.457031 L 13.273438 48.648438 Z M 30.960938 40.398438 "/>
<use xlink:href="#surface14" mask="url(#mask2)"/>
<path style=" stroke:none;fill-rule:nonzero;fill:rgb(75.686276%,76.078433%,76.862746%);fill-opacity:1;" d="M 45.25 60.3125 L 45.25 60.40625 C 45.242188 60.5 45.207031 60.59375 45.152344 60.671875 C 45.097656 60.75 45.023438 60.8125 44.933594 60.851562 C 44.847656 60.894531 44.75 60.910156 44.65625 60.902344 C 44.5625 60.894531 44.46875 60.859375 44.390625 60.804688 L 36.191406 55.144531 C 36.109375 55.089844 36.046875 55.011719 36.003906 54.925781 C 35.964844 54.835938 35.949219 54.738281 35.957031 54.640625 L 35.96875 54.476562 C 35.980469 54.382812 36.011719 54.289062 36.070312 54.210938 C 36.125 54.132812 36.199219 54.070312 36.285156 54.027344 C 36.375 53.988281 36.472656 53.972656 36.566406 53.980469 C 36.664062 53.988281 36.753906 54.023438 36.835938 54.078125 L 45.035156 59.816406 C 45.109375 59.875 45.171875 59.949219 45.207031 60.035156 C 45.246094 60.125 45.261719 60.21875 45.25 60.3125 Z M 45.25 60.3125 "/>
<path style=" stroke:none;fill-rule:nonzero;fill:rgb(75.686276%,76.078433%,76.862746%);fill-opacity:1;" d="M 42.347656 61.46875 L 42.347656 61.558594 C 42.339844 61.652344 42.304688 61.746094 42.25 61.824219 C 42.191406 61.902344 42.117188 61.964844 42.03125 62.003906 C 41.945312 62.042969 41.847656 62.0625 41.753906 62.054688 C 41.65625 62.046875 41.566406 62.011719 41.484375 61.957031 L 35.515625 57.800781 C 35.433594 57.746094 35.371094 57.667969 35.328125 57.582031 C 35.289062 57.492188 35.269531 57.398438 35.277344 57.300781 L 35.292969 57.132812 C 35.304688 57.039062 35.335938 56.945312 35.390625 56.867188 C 35.449219 56.789062 35.523438 56.726562 35.609375 56.683594 C 35.699219 56.644531 35.792969 56.628906 35.890625 56.636719 C 35.988281 56.644531 36.078125 56.679688 36.15625 56.734375 L 42.117188 60.972656 C 42.195312 61.027344 42.257812 61.101562 42.296875 61.1875 C 42.339844 61.277344 42.355469 61.371094 42.347656 61.46875 Z M 42.347656 61.46875 "/>
<path style=" stroke:none;fill-rule:nonzero;fill:rgb(75.686276%,76.078433%,76.862746%);fill-opacity:1;" d="M 39.601562 62.667969 L 39.601562 62.757812 C 39.589844 62.855469 39.554688 62.945312 39.5 63.023438 C 39.445312 63.101562 39.371094 63.164062 39.28125 63.203125 C 39.195312 63.246094 39.101562 63.261719 39.003906 63.253906 C 38.910156 63.246094 38.816406 63.210938 38.738281 63.15625 L 31.589844 58.109375 C 31.511719 58.054688 31.445312 57.980469 31.402344 57.890625 C 31.363281 57.804688 31.34375 57.707031 31.355469 57.609375 L 31.367188 57.445312 C 31.375 57.347656 31.410156 57.257812 31.464844 57.175781 C 31.523438 57.097656 31.597656 57.035156 31.683594 56.996094 C 31.773438 56.953125 31.867188 56.9375 31.964844 56.945312 C 32.0625 56.953125 32.152344 56.988281 32.230469 57.042969 L 39.375 62.167969 C 39.453125 62.222656 39.515625 62.300781 39.554688 62.386719 C 39.59375 62.476562 39.609375 62.570312 39.601562 62.667969 Z M 39.601562 62.667969 "/>
<path style=" stroke:none;fill-rule:nonzero;fill:rgb(100%,100%,100%);fill-opacity:1;" d="M 28.785156 47.125 C 28.941406 47.03125 28.9375 46.878906 28.769531 46.765625 C 28.675781 46.707031 28.566406 46.667969 28.457031 46.65625 C 28.34375 46.640625 28.230469 46.652344 28.125 46.683594 L 27.601562 46.328125 C 27.757812 46.234375 27.757812 46.078125 27.585938 45.96875 C 27.488281 45.910156 27.382812 45.875 27.273438 45.859375 C 27.160156 45.84375 27.046875 45.855469 26.941406 45.886719 L 26.414062 45.53125 C 26.570312 45.4375 26.570312 45.285156 26.402344 45.171875 C 26.304688 45.113281 26.199219 45.078125 26.085938 45.0625 C 25.976562 45.050781 25.863281 45.058594 25.757812 45.089844 L 25.273438 44.765625 L 25.925781 44.476562 C 26.023438 44.523438 26.128906 44.546875 26.238281 44.550781 C 26.347656 44.554688 26.457031 44.539062 26.558594 44.5 C 26.738281 44.421875 26.769531 44.277344 26.648438 44.15625 L 27.230469 43.898438 C 27.429688 43.992188 27.65625 44 27.863281 43.921875 C 28.042969 43.84375 28.078125 43.699219 27.953125 43.578125 L 28.535156 43.320312 C 28.734375 43.410156 28.964844 43.421875 29.171875 43.34375 C 29.347656 43.265625 29.382812 43.117188 29.257812 43 L 29.84375 42.742188 C 29.941406 42.789062 30.046875 42.8125 30.15625 42.816406 C 30.265625 42.820312 30.375 42.800781 30.476562 42.765625 C 30.652344 42.683594 30.6875 42.539062 30.5625 42.421875 L 31.097656 42.1875 L 31.574219 42.507812 C 31.375 42.597656 31.375 42.769531 31.546875 42.890625 C 31.652344 42.949219 31.765625 42.988281 31.886719 43 C 32.007812 43.011719 32.128906 42.996094 32.238281 42.957031 L 32.761719 43.304688 C 32.558594 43.394531 32.558594 43.566406 32.734375 43.6875 C 32.835938 43.75 32.953125 43.789062 33.074219 43.800781 C 33.191406 43.808594 33.3125 43.792969 33.425781 43.753906 L 33.945312 44.101562 C 33.746094 44.191406 33.746094 44.363281 33.917969 44.484375 C 34.023438 44.546875 34.136719 44.582031 34.257812 44.59375 C 34.378906 44.605469 34.5 44.589844 34.613281 44.546875 L 35.128906 44.894531 C 34.929688 44.988281 34.929688 45.15625 35.105469 45.28125 C 35.273438 45.378906 35.472656 45.414062 35.667969 45.382812 L 35.710938 45.382812 L 36.113281 45.6875 L 35.695312 45.875 L 35.695312 45.890625 C 35.515625 45.832031 35.320312 45.835938 35.144531 45.902344 C 34.945312 45.992188 34.925781 46.164062 35.113281 46.289062 L 34.542969 46.542969 C 34.4375 46.480469 34.320312 46.445312 34.199219 46.433594 C 34.078125 46.421875 33.953125 46.4375 33.839844 46.480469 C 33.640625 46.570312 33.621094 46.746094 33.804688 46.871094 L 33.234375 47.125 C 33.132812 47.0625 33.015625 47.023438 32.890625 47.011719 C 32.769531 47 32.648438 47.019531 32.535156 47.0625 C 32.335938 47.152344 32.316406 47.324219 32.5 47.449219 L 31.929688 47.703125 C 31.824219 47.640625 31.707031 47.601562 31.585938 47.589844 C 31.464844 47.582031 31.34375 47.597656 31.226562 47.640625 C 31.027344 47.730469 31.011719 47.90625 31.195312 48.03125 L 30.550781 48.316406 L 29.960938 47.914062 C 30.117188 47.820312 30.117188 47.667969 29.949219 47.554688 C 29.851562 47.496094 29.746094 47.460938 29.632812 47.449219 C 29.523438 47.433594 29.410156 47.441406 29.300781 47.472656 Z M 28.785156 47.125 "/>
<path style=" stroke:none;fill-rule:nonzero;fill:rgb(100%,78.823531%,1.960784%);fill-opacity:1;" d="M 26.878906 44.90625 L 30.636719 47.429688 L 34.773438 45.597656 L 31.015625 43.074219 Z M 26.878906 44.90625 "/>
<path style=" stroke:none;fill-rule:nonzero;fill:url(#linear2);" d="M 64.652344 63.3125 L 63.921875 62.890625 L 43.804688 75.644531 L 45.441406 77.527344 L 45.550781 80.277344 L 47.105469 84.546875 L 50.902344 82.65625 Z M 64.652344 63.3125 "/>
<path style=" stroke:none;fill-rule:nonzero;fill:rgb(89.019608%,89.019608%,89.019608%);fill-opacity:1;" d="M 54.285156 94.144531 L 49.648438 74.1875 L 74.660156 57.558594 L 79.261719 77.484375 Z M 54.285156 94.144531 "/>
<path style=" stroke:none;fill-rule:nonzero;fill:rgb(57.647061%,57.647061%,57.647061%);fill-opacity:1;" d="M 48.847656 73.742188 L 49.726562 74.179688 L 54.324219 94.097656 L 53.4375 93.675781 Z M 48.847656 73.742188 "/>
<path style=" stroke:none;fill-rule:nonzero;fill:rgb(78.823531%,78.823531%,78.823531%);fill-opacity:1;" d="M 49.726562 74.179688 L 48.847656 73.75 L 73.773438 57.140625 L 74.660156 57.558594 Z M 49.726562 74.179688 "/>
<path style=" stroke:none;fill-rule:nonzero;fill:rgb(49.803922%,49.803922%,49.803922%);fill-opacity:1;" d="M 49.726562 74.179688 L 64.484375 76.601562 C 65.183594 76.730469 65.902344 76.621094 66.53125 76.285156 L 68.476562 75.191406 C 69.035156 74.875 69.453125 74.359375 69.636719 73.746094 L 74.660156 57.558594 L 70.15625 73.011719 L 69.757812 74.410156 C 69.570312 75.023438 69.152344 75.542969 68.59375 75.855469 L 66.648438 76.953125 C 66.019531 77.285156 65.296875 77.394531 64.601562 77.261719 L 49.652344 74.1875 "/>
<path style=" stroke:none;fill-rule:nonzero;fill:rgb(78.823531%,78.823531%,78.823531%);fill-opacity:1;" d="M 78.984375 76.285156 L 70.15625 73.011719 L 70.027344 73.460938 Z M 78.984375 76.285156 "/>
<path style=" stroke:none;fill-rule:nonzero;fill:rgb(78.823531%,78.823531%,78.823531%);fill-opacity:1;" d="M 62.769531 76.882812 L 53.914062 92.304688 L 62.296875 76.789062 Z M 62.769531 76.882812 "/>
</g>
</svg>
