<svg width="24" height="24" viewBox="0 0 24 24" fill="none" xmlns="http://www.w3.org/2000/svg">
<path d="M18.6 0H5.4C2.41766 0 0 2.41766 0 5.4V18.6C0 21.5823 2.41766 24 5.4 24H18.6C21.5823 24 24 21.5823 24 18.6V5.4C24 2.41766 21.5823 0 18.6 0Z" fill="#FFC905"/>
<path d="M12.1276 21.9674C12.2219 21.9682 12.3148 21.945 12.3976 21.8999C12.7012 21.6942 12.957 21.4257 13.1476 21.1124L9.49512 22.0124L12.1276 21.9674Z" fill="#003DA5"/>
<path d="M10.215 19.8226C10.5849 19.9471 10.9417 20.1079 11.28 20.3026L13.65 20.2651L13.8525 20.0401C13.8789 20.0014 13.8931 19.9557 13.8931 19.9088C13.8931 19.862 13.8789 19.8163 13.8525 19.7776C13.7263 19.7099 13.582 19.6837 13.44 19.7026H10.23C10.23 19.7026 10.14 19.7026 10.125 19.7476V19.7926C10.1523 19.8094 10.1831 19.8196 10.215 19.8226Z" fill="#003DA5"/>
<path d="M14.9999 20.415L11.4374 20.4751V20.5125C11.4374 20.76 11.0999 21.0075 10.6499 21.2175C10.1954 21.43 9.72969 21.6178 9.25489 21.78L9.0074 21.8775C9.0074 21.8775 8.9549 21.9226 8.9624 21.9451C8.9699 21.9676 9.0074 21.9976 9.1274 21.9451L9.29989 21.9001C9.89989 21.7426 10.9874 21.4726 12.0674 21.2101C13.1474 20.9476 14.2574 20.715 15.0674 20.6025C15.1349 20.6025 15.1874 20.5576 15.1799 20.5051C15.1724 20.4526 15.0524 20.415 14.9999 20.415Z" fill="#003DA5"/>
<path d="M18.3824 5.81241C16.6124 4.04241 14.4449 3.4574 11.1599 3.4574C9.3449 3.4574 7.2224 3.4574 5.2124 3.5549V17.1824L7.79989 17.2424V6.74991C8.89489 6.74991 10.2824 6.67493 11.5499 6.67493C15.3599 6.67493 17.3774 7.68742 17.3774 10.2749C17.3774 13.2749 14.9774 14.1074 11.6999 14.1074H10.4024V17.3024H11.1899C14.4599 17.3024 16.6424 16.7399 18.4124 14.9474C19.5289 13.6923 20.1457 12.071 20.1457 10.3911C20.1457 8.71132 19.5289 7.09 18.4124 5.83493L18.3824 5.81241Z" fill="#0000FF"/>
</svg>
