<?xml version="1.0" standalone="no"?>
<!DOCTYPE svg PUBLIC "-//W3C//DTD SVG 1.1//EN" "http://www.w3.org/Graphics/SVG/1.1/DTD/svg11.dtd" >
<svg xmlns="http://www.w3.org/2000/svg">
<metadata>Generated by IcoMoon</metadata>
<defs>
<font id="laposte_light" horiz-adv-x="1024">
<font-face units-per-em="1024" ascent="960" descent="-64" />
<missing-glyph horiz-adv-x="1024" />
<glyph unicode="&#x20;" horiz-adv-x="512" d="" />
<glyph unicode="&#xe900;" glyph-name="action_alert" d="M373.678 764.396c60.153 103.551 207.519 106.077 271.97 7.587l4.676-7.576 310.826-534.654c60.71-104.402-11.685-234.748-130.485-240.247l-7.813-0.18h-621.696c-120.779 0-197.073 128.126-142.112 233.582l3.771 6.844 310.863 534.645zM594.996 732.238c-35.749 61.488-122.713 63.608-161.966 6.36l-4.019-6.361-310.87-534.657c-36.089-62.061 6.24-139.406 76.361-144.037l6.654-0.218h621.696c71.799 0 117.37 75.456 86.126 138.397l-3.156 5.861-310.826 534.655zM512 234.667c23.552 0 42.667-19.115 42.667-42.667s-19.115-42.667-42.667-42.667c-23.552 0-42.667 19.115-42.667 42.667s19.115 42.667 42.667 42.667zM512 618.667c21.87 0 39.913-16.482 42.379-37.693l0.287-4.974-10.667-256c0-17.664-14.336-32-32-32s-32 14.336-32 32l-10.667 256c0 23.552 19.115 42.667 42.667 42.667z" />
<glyph unicode="&#xe901;" glyph-name="action_check_surrounded" d="M512 906.667c253.321 0 458.667-205.346 458.667-458.667s-205.346-458.667-458.667-458.667c-253.321 0-458.667 205.346-458.667 458.667s205.346 458.667 458.667 458.667zM512 842.667c-217.975 0-394.667-176.692-394.667-394.667s176.692-394.667 394.667-394.667c217.975 0 394.667 176.692 394.667 394.667s-176.692 394.667-394.667 394.667zM747.961 598.627c11.361-11.361 12.393-29.138 3.098-41.666l-3.098-3.589-256-256c-11.361-11.361-29.138-12.393-41.666-3.098l-3.589 3.098-128 128c-12.497 12.497-12.497 32.758 0 45.255 11.361 11.361 29.138 12.393 41.666 3.098l3.589-3.098 105.373-105.358 233.373 233.358c12.497 12.497 32.758 12.497 45.255 0z" />
<glyph unicode="&#xe902;" glyph-name="action_check" d="M788.039 683.961c12.497 12.497 32.758 12.497 45.255 0 11.361-11.361 12.393-29.138 3.098-41.666l-3.098-3.589-384-384c-11.361-11.361-29.138-12.393-41.666-3.098l-3.589 3.098-213.333 213.333c-12.497 12.497-12.497 32.758 0 45.255 11.361 11.361 29.138 12.393 41.666 3.098l3.589-3.098 190.706-190.691 361.373 361.358z" />
<glyph unicode="&#xe903;" glyph-name="action_close_surrounded" d="M512 906.667c253.321 0 458.667-205.346 458.667-458.667s-205.346-458.667-458.667-458.667c-253.321 0-458.667 205.346-458.667 458.667s205.346 458.667 458.667 458.667zM512 842.667c-217.975 0-394.667-176.692-394.667-394.667s176.692-394.667 394.667-394.667c217.975 0 394.667 176.692 394.667 394.667s-176.692 394.667-394.667 394.667zM360.372 644.392l3.589-3.098 147.997-148.025 148.082 148.025c12.497 12.497 32.758 12.497 45.255 0 11.361-11.361 12.393-29.138 3.098-41.666l-3.098-3.589-148.025-148.039 148.025-148.039c11.361-11.361 12.393-29.138 3.098-41.666l-3.098-3.589c-11.361-11.361-29.138-12.393-41.666-3.098l-3.589 3.098-148.039 148.067-148.039-148.067c-12.497-12.497-32.758-12.497-45.255 0-11.361 11.361-12.393 29.138-3.098 41.666l3.098 3.589 148.025 148.039-148.025 148.039c-11.361 11.361-12.393 29.138-3.098 41.666l3.098 3.589c11.361 11.361 29.138 12.393 41.666 3.098z" />
<glyph unicode="&#xe904;" glyph-name="action_close" d="M275.038 729.726l3.589-3.098 233.33-233.358 233.415 233.358c12.497 12.497 32.758 12.497 45.255 0 11.361-11.361 12.393-29.138 3.098-41.666l-3.098-3.589-233.358-233.373 233.358-233.373c11.361-11.361 12.393-29.138 3.098-41.666l-3.098-3.589c-11.361-11.361-29.138-12.393-41.666-3.098l-3.589 3.098-233.373 233.401-233.373-233.401c-12.497-12.497-32.758-12.497-45.255 0-11.361 11.361-12.393 29.138-3.098 41.666l3.098 3.589 233.358 233.373-233.358 233.373c-11.361 11.361-12.393 29.138-3.098 41.666l3.098 3.589c11.361 11.361 29.138 12.393 41.666 3.098z" />
<glyph unicode="&#xe905;" glyph-name="action_help" d="M576 864c194.313 0 352-157.687 352-352 0-190.715-151.901-346.147-341.243-351.839l-15.533-0.17c-10.523-12.299-26.393-25.704-48.685-38.442-51.801-29.601-125.251-46.883-223.876-46.883-28.509 0-42.786 34.469-22.627 54.627l10.215 10.507c17.869 19.095 20.98 27.626 20.32 42.755l-0.483 7.606c-39.703 17.316-75.874 42.104-106.848 73.078-65.707 65.707-103.239 154.228-103.239 248.761 0 190.715 151.901 346.147 341.243 351.839l10.757 0.161h128zM576 800h-128c-158.967 0-288-129.033-288-288 0-77.364 30.656-149.668 84.494-203.506 26.612-26.612 57.811-47.576 92.033-61.732l12.972-4.987c13.32-4.736 22-17.735 21.228-31.856l-0.531-4.32c-0.258-1.345-0.413-2.608-0.467-4.16l0.136-5.89 0.289-4.289c1.27-17.125 0.115-31.736-5.104-46.285l-1.318-3.195 6.111 0.56c47.516 5.283 84.91 16.025 113.393 30.683l7.548 4.093c20.12 11.497 30.489 21.764 34.244 27.466l1.011 1.727c4.908 9.815 14.179 16.006 24.286 17.397l4.34 0.292h21.333c158.967 0 288 129.033 288 288 0 155.585-123.601 282.496-277.895 287.826l-10.105 0.174zM512 394.667c17.664 0 32-14.336 32-32s-14.336-32-32-32c-17.664 0-32 14.336-32 32s14.336 32 32 32zM512 693.333c64.777 0 117.333-52.556 117.333-117.333 0-52.781-34.893-97.449-82.859-112.182l-2.474-0.628v-15.189h-64v42.667l32 32c29.431 0 53.333 23.902 53.333 53.333s-23.902 53.333-53.333 53.333c-27.591 0-50.324-21.008-53.058-47.884l-0.276-5.449h-64c0 64.777 52.556 117.333 117.333 117.333z" />
<glyph unicode="&#xe906;" glyph-name="action_information" d="M970.667 448c0 253.321-205.346 458.667-458.667 458.667s-458.667-205.346-458.667-458.667c0-253.321 205.346-458.667 458.667-458.667s458.667 205.346 458.667 458.667zM117.333 448c0 217.975 176.692 394.667 394.667 394.667s394.667-176.692 394.667-394.667c0-217.975-176.691-394.667-394.667-394.667s-394.667 176.691-394.667 394.667zM512 533.333c23.467 0 42.667-19.2 42.667-42.667v-256c0-21.79-16.555-39.902-37.709-42.377l-4.958-0.29c-23.467 0-42.667 19.2-42.667 42.667v256c0 23.467 19.2 42.667 42.667 42.667zM554.667 661.333c0 23.552-19.115 42.667-42.667 42.667s-42.667-19.115-42.667-42.667c0-23.552 19.115-42.667 42.667-42.667s42.667 19.115 42.667 42.667z" />
<glyph unicode="&#xe907;" glyph-name="action_less_surrounded" d="M512 906.667c253.321 0 458.667-205.346 458.667-458.667s-205.346-458.667-458.667-458.667c-253.321 0-458.667 205.346-458.667 458.667s205.346 458.667 458.667 458.667zM512 842.667c-217.975 0-394.667-176.692-394.667-394.667s176.692-394.667 394.667-394.667c217.975 0 394.667 176.692 394.667 394.667s-176.692 394.667-394.667 394.667zM682.667 480c17.673 0 32-14.327 32-32 0-16.2-12.039-29.589-27.658-31.708l-4.342-0.292h-341.333c-17.673 0-32 14.327-32 32 0 16.2 12.039 29.589 27.658 31.708l4.342 0.292h341.333z" />
<glyph unicode="&#xe908;" glyph-name="action_less" d="M725.333 480c17.673 0 32-14.327 32-32 0-16.2-12.039-29.589-27.658-31.708l-4.342-0.292h-426.667c-17.673 0-32 14.327-32 32 0 16.2 12.039 29.589 27.658 31.708l4.342 0.292h426.667z" />
<glyph unicode="&#xe909;" glyph-name="action_messenger" d="M810.667 864c39.164 0 71.303-30.181 74.419-68.544l0.248-6.122v-750.176l-208.469 78.176h-463.531c-36.988 0-67.71 26.921-73.635 62.23l-0.784 6.314-0.248 6.122v597.333c0 39.164 30.181 71.303 68.544 74.419l6.122 0.248h597.333zM810.667 800h-597.333c-5.039 0-9.276-3.518-10.384-8.225l-0.282-2.442v-597.333c0-5.039 3.518-9.276 8.225-10.384l2.442-0.282h475.136l132.864-49.792v657.792c0 4.031-2.251 7.549-5.562 9.363l-2.663 1.022-2.442 0.282zM351.63 350.302l13.375-5.994 3.601-1.562c10.885-4.665 23.064-9.349 36.181-13.721 37.003-12.334 73.787-19.691 107.214-19.691s70.211 7.357 107.214 19.691c8.744 2.915 17.072 5.968 24.877 9.062l14.904 6.221 9.36 4.314c15.807 7.904 35.029 1.496 42.933-14.311s1.496-35.029-14.311-42.933l-10.424-4.922-13.22-5.652c-9.693-3.956-21.092-8.232-33.881-12.495-42.997-14.332-86.213-22.975-127.453-22.975s-84.455 8.643-127.453 22.975c-12.789 4.263-24.188 8.539-33.881 12.495l-13.22 5.652-10.424 4.922c-15.807 7.904-22.214 27.125-14.311 42.933 7.245 14.49 24 21.081 38.918 15.991z" />
<glyph unicode="&#xe90a;" glyph-name="action_mobile_chat" d="M597.333 906.667c62.378 0 113.424-48.735 117.119-110.188l0.214-7.145 0.018-10.942 5.307 0.206 48.008 0.069c108.815 0 197.609-85.772 202.458-193.39l0.209-9.276v-42.667c0-108.815-85.772-197.609-193.39-202.458l-9.276-0.209h-53.333v-224c0-62.378-48.735-113.424-110.188-117.119l-7.145-0.214h-384c-62.378 0-113.424 48.735-117.119 110.188l-0.214 7.145v682.667c0 62.378 48.735 113.424 110.188 117.119l7.145 0.214h384zM650.667 202.667h-490.667v-96c0-27.591 21.008-50.324 47.884-53.058l5.449-0.276h384c27.591 0 50.324 21.008 53.058 47.884l0.276 5.449v96zM597.333 842.667h-384c-27.591 0-50.324-21.008-53.058-47.884l-0.276-5.449v-522.667h490.667v64h-128v245.333c0 85.554 53.021 158.733 128 188.465v24.868c0 27.591-21.008 50.324-47.884 53.058l-5.449 0.276zM768 714.667h-42.667c-73.937 0-134.367-57.881-138.447-130.798l-0.22-7.868v-181.333h181.333c71.296 0 130.034 53.82 137.796 123.045l0.651 7.753 0.22 7.868v42.667c0 73.937-57.881 134.367-130.798 138.447l-7.868 0.22zM768 522.667c17.673 0 32-14.327 32-32 0-16.2-12.039-29.589-27.658-31.708l-4.342-0.292h-85.333c-17.673 0-32 14.327-32 32 0 16.2 12.039 29.589 27.658 31.708l4.342 0.292h85.333zM810.667 629.333c17.673 0 32-14.327 32-32 0-16.2-12.039-29.589-27.658-31.708l-4.342-0.292h-128c-17.673 0-32 14.327-32 32 0 16.2 12.039 29.589 27.658 31.708l4.342 0.292h128z" />
<glyph unicode="&#xe90b;" glyph-name="action_more_surrounded" d="M512 906.667c253.321 0 458.667-205.346 458.667-458.667s-205.346-458.667-458.667-458.667c-253.321 0-458.667 205.346-458.667 458.667s205.346 458.667 458.667 458.667zM512 842.667c-217.975 0-394.667-176.692-394.667-394.667s176.692-394.667 394.667-394.667c217.975 0 394.667 176.692 394.667 394.667s-176.692 394.667-394.667 394.667zM512 650.667c16.2 0 29.589-12.039 31.708-27.658l0.292-4.342v-138.667h138.667c17.673 0 32-14.327 32-32 0-16.2-12.039-29.589-27.658-31.708l-4.342-0.292h-138.667v-138.667c0-17.673-14.327-32-32-32-16.2 0-29.589 12.039-31.708 27.658l-0.292 4.342v138.667h-138.667c-17.673 0-32 14.327-32 32 0 16.2 12.039 29.589 27.658 31.708l4.342 0.292h138.667v138.667c0 17.673 14.327 32 32 32z" />
<glyph unicode="&#xe90c;" glyph-name="action_more" d="M512 693.333c16.2 0 29.589-12.039 31.708-27.658l0.292-4.342v-181.333h181.333c17.673 0 32-14.327 32-32 0-16.2-12.039-29.589-27.658-31.708l-4.342-0.292h-181.333v-181.333c0-17.673-14.327-32-32-32-16.2 0-29.589 12.039-31.708 27.658l-0.292 4.342v181.333h-181.333c-17.673 0-32 14.327-32 32 0 16.2 12.039 29.589 27.658 31.708l4.342 0.292h181.333v181.333c0 17.673 14.327 32 32 32z" />
<glyph unicode="&#xe90d;" glyph-name="action_notification" d="M501.333 874.667c31.723 0 61.442-12.603 82.475-34.238 18.208-17.716 29.956-40.832 33.626-66.027l0.678-6.316 9.825-3.849c118.251-48.914 199.326-162.937 203.863-293.966l0.201-11.604 0.058-100.437c49.206-13.956 85.276-59.232 85.276-112.896 0-62.378-48.735-113.424-110.188-117.119l-7.145-0.214-173.106-0.016c-13.599-52.86-60.114-92.415-116.267-95.755l-9.293-0.229c-59.629 0-109.727 40.762-123.954 95.945l-174.713 0.055c-64.777 0-117.333 52.556-117.333 117.333 0 53.684 36.097 98.974 85.331 112.912l0.002 100.421c0 89.132 35.086 172.075 96.839 233.827 32.505 32.505 71.236 57.945 113.652 74.402l3.354 1.275 0.339 3.308c6.744 55.664 52.759 99.552 109.354 102.974l7.128 0.215zM501.333 810.667c-27.431 0-50.304-21.158-53.056-47.912l-0.277-5.421v-36.365l-23.030-6.725c-42.088-12.291-80.708-35.502-112.21-67.004-46.937-46.937-74.699-108.799-77.802-175.927l-0.292-12.646v-96h96v-64h-128c-29.431 0-53.333-23.902-53.333-53.333 0-27.591 21.008-50.324 47.884-53.058l5.449-0.276h597.333c29.431 0 53.333 23.902 53.333 53.333 0 27.591-21.008 50.324-47.884 53.058l-5.449 0.276h-32v160c0 115.389-73.583 215.961-180.354 252.396l-10.106 3.226-22.873 6.807v36.238c0 14.41-5.592 27.596-16.109 37.845-9.629 9.897-22.815 15.489-37.225 15.489z" />
<glyph unicode="&#xe90e;" glyph-name="action_pen" d="M642.375 836.963c43.91 43.91 113.956 45.74 160.045 5.489l5.872-5.489 92.672-92.672c43.91-43.91 45.74-113.956 5.489-160.045l-5.489-5.872-451.669-451.669c-3.181-3.181-6.984-5.643-11.152-7.244l-4.28-1.309-277.333-64c-21.602-4.985-41.103 12.854-39.074 34.089l0.698 4.287 64 277.333c1.011 4.383 2.931 8.486 5.617 12.053l2.936 3.379 451.669 451.669zM597.309 701.429l-354.92-354.933-50.389-218.453 218.453 50.389 354.92 354.933-168.064 168.064zM763.037 791.709c-19.437 19.437-50.137 20.733-71.077 3.887l-4.33-3.887-45.094-45.010 168.107-168.107 45.066 45.038c18.049 18.049 20.456 45.809 7.22 66.448l-3.332 4.629-3.888 4.33-92.672 92.672z" />
<glyph unicode="&#xe90f;" glyph-name="action_share" d="M725.333 821.333c88.372 0 160-71.628 160-160s-71.628-160-160-160c-51.115 0-96.628 23.963-125.919 61.27l-146.188-73.078c3.548-13.242 5.44-27.163 5.44-41.525s-1.892-28.283-5.44-41.525l146.188-73.078c29.291 37.306 74.804 61.27 125.919 61.27 88.372 0 160-71.628 160-160s-71.628-160-160-160c-88.372 0-160 71.628-160 160 0 14.363 1.892 28.283 5.44 41.525l-146.188 73.078c-29.291-37.306-74.804-61.27-125.919-61.27-88.372 0-160 71.628-160 160s71.628 160 160 160c51.115 0 96.628-23.963 125.919-61.27l146.188 73.078c-3.548 13.242-5.44 27.163-5.44 41.525 0 88.372 71.628 160 160 160zM725.333 330.667c-33.877 0-63.652-17.541-80.739-44.038l-9.326-18.649c-3.839-10.377-5.936-21.6-5.936-33.313 0-53.026 42.974-96 96-96s96 42.974 96 96c0 53.026-42.974 96-96 96zM298.667 544c-53.026 0-96-42.974-96-96s42.974-96 96-96c33.877 0 63.652 17.541 80.739 44.038l9.342 18.692c3.829 10.365 5.92 21.573 5.92 33.27 0 11.713-2.097 22.936-5.936 33.313l-9.326 18.649c-17.086 26.497-46.861 44.038-80.739 44.038zM725.333 757.333c-53.026 0-96-42.974-96-96 0-11.697 2.091-22.905 5.92-33.27l9.342-18.692c17.086-26.497 46.861-44.038 80.739-44.038 53.026 0 96 42.974 96 96s-42.974 96-96 96z" />
<glyph unicode="&#xe910;" glyph-name="action_star" d="M403.029 586.667l-322.086-0.272c-28.367-3.585-38.449-41.627-13.36-58.353l236.886-157.95-79.389-297.845-0.842-4.144c-3.803-27.279 27.816-47.060 50.961-29.701l236.8 177.579 236.8-177.579 3.53-2.329c23.883-13.719 54.044 8.22 46.59 36.174l-79.432 297.845 236.929 157.95 3.502 2.662c21.614 18.718 8.901 55.964-21.252 55.964h-317.739l-78.343 254.744c-9.267 30.119-51.902 30.119-61.17 0l-78.386-254.744zM512 723.243l54.748-177.987 1.674-4.311c5.234-11.039 16.423-18.278 28.91-18.278h235.563l-167.98-112.041-3.572-2.762c-8.901-7.948-12.737-20.336-9.597-32.108l61.512-230.688-182.059 136.533-3.939 2.528c-10.863 5.9-24.348 5.057-34.461-2.528l-182.101-136.576 61.554 230.731 0.854 4.434c1.426 11.848-3.885 23.678-14.023 30.437l-168.022 112.041h235.605c14.048 0 26.454 9.162 30.585 22.589l54.748 177.987z" />
<glyph unicode="&#xe911;" glyph-name="action_tips" d="M512 736.004c158.9 0 288-129.1 288-288 0-92.665-44.304-177.758-116.464-231.13l-9.164-6.504-2.372-1.516v-59.516c0-36.912-26.989-67.695-62.251-73.632l-6.305-0.786-7.48-0.213c0.893-3.424 1.369-7.012 1.369-10.706 0-23.467-19.2-42.667-42.667-42.667h-85.333c-23.467 0-42.667 19.2-42.667 42.667 0 3.694 0.476 7.282 1.369 10.706l-1.369-0.035c-39.083 0-71.295 30.258-74.418 68.556l-0.248 6.111v59.473l-2.372 1.559c-71.465 48.652-117.896 127.459-124.748 215.061l-0.668 11.474-0.212 11.1c0 158.9 129.1 288 288 288zM829.705 217.726l3.589-3.098 42.667-42.667c12.497-12.497 12.497-32.758 0-45.255-11.361-11.361-29.138-12.393-41.666-3.098l-3.589 3.098-42.667 42.667c-12.497 12.497-12.497 32.758 0 45.255 11.361 11.361 29.138 12.393 41.666 3.098zM235.961 214.627c11.361-11.361 12.393-29.138 3.098-41.666l-3.098-3.589-42.667-42.667c-12.497-12.497-32.758-12.497-45.255 0-11.361 11.361-12.393 29.138-3.098 41.666l3.098 3.589 42.667 42.667c12.497 12.497 32.758 12.497 45.255 0zM512 672.004c-123.554 0-224-100.446-224-224 0-80.828 43.332-154.214 111.96-193.704 8.506-4.894 14.215-13.364 15.672-22.894l0.368-4.842v-77.227c0-4.966 3.58-9.256 8.252-10.38l2.415-0.287h170.667c4.966 0 9.256 3.58 10.38 8.252l0.287 2.415v77.227c0 11.449 6.117 22.026 16.040 27.736 68.628 39.49 111.96 112.876 111.96 193.704 0 123.554-100.446 224-224 224zM938.667 480c17.673 0 32-14.327 32-32 0-16.2-12.039-29.589-27.658-31.708l-4.342-0.292h-42.667c-17.673 0-32 14.327-32 32 0 16.2 12.039 29.589 27.658 31.708l4.342 0.292h42.667zM128 480c17.673 0 32-14.327 32-32 0-16.2-12.039-29.589-27.658-31.708l-4.342-0.292h-42.667c-17.673 0-32 14.327-32 32 0 16.2 12.039 29.589 27.658 31.708l4.342 0.292h42.667zM211.038 793.726l3.589-3.098 42.667-42.667c12.497-12.497 12.497-32.758 0-45.255-11.361-11.361-29.138-12.393-41.666-3.098l-3.589 3.098-42.667 42.667c-12.497 12.497-12.497 32.758 0 45.255 11.361 11.361 29.138 12.393 41.666 3.098zM854.627 790.627c11.361-11.361 12.393-29.138 3.098-41.666l-3.098-3.589-42.667-42.667c-12.497-12.497-32.758-12.497-45.255 0-11.361 11.361-12.393 29.138-3.098 41.666l3.098 3.589 42.667 42.667c12.497 12.497 32.758 12.497 45.255 0zM512 906.667c16.2 0 29.589-12.039 31.708-27.658l0.292-4.342v-42.667c0-17.673-14.327-32-32-32-16.2 0-29.589 12.039-31.708 27.658l-0.292 4.342v42.667c0 17.673 14.327 32 32 32z" />
<glyph unicode="&#xe912;" glyph-name="actions_favorite_surrounded" d="M512 906.667c253.321 0 458.667-205.346 458.667-458.667s-205.346-458.667-458.667-458.667c-253.321 0-458.667 205.346-458.667 458.667s205.346 458.667 458.667 458.667zM512 842.667c-217.975 0-394.667-176.692-394.667-394.667s176.692-394.667 394.667-394.667c217.975 0 394.667 176.692 394.667 394.667s-176.692 394.667-394.667 394.667zM614.997 615.501c31.389 0 61.762-12.269 84.352-34.916 44.785-44.729 46.651-115.877 5.611-162.846l-5.596-5.985-187.363-187.363-187.363 187.363c-46.718 46.718-46.718 122.158-0.028 168.789 22.632 22.689 53.005 34.958 84.394 34.958 28.555 0 56.246-10.127 78.081-29.005l6.37-5.925 18.546-18.523 18.546 18.523c20.615 20.615 47.584 32.616 75.916 34.627l8.536 0.302zM614.997 551.501c-12.55 0-24.653-4.16-34.481-11.975l-4.716-4.21-63.801-63.801-63.801 63.801c-10.522 10.522-24.555 16.185-39.197 16.185-14.599 0-28.614-5.661-39.125-16.199-20.258-20.233-21.609-51.98-4.040-73.782l4.054-4.512 142.109-142.086 142.109 142.086c21.72 21.72 21.72 56.615-0.028 78.336-10.469 10.495-24.484 16.156-39.083 16.156z" />
<glyph unicode="&#xe913;" glyph-name="actions_favorite" d="M725.333 788.907c56.035 0 110.199-21.851 150.627-62.279 80.798-80.798 83.247-209.82 7.345-293.542l-7.345-7.713-363.961-363.961-363.961 363.961c-83.323 83.323-83.323 217.931 0 301.255 40.428 40.428 94.592 62.279 150.627 62.279 52.299 0 102.969-19.035 142.362-54.442l8.265-7.837 62.706-62.691 62.706 62.691c37.733 37.733 87.431 59.283 139.449 61.989l11.179 0.29zM725.333 724.907c-36.249 0-71.272-13.004-98.682-37.242l-6.69-6.292-107.961-107.961-107.961 107.961c-28.272 28.272-66.103 43.534-105.373 43.534s-77.1-15.262-105.373-43.534c-56.247-56.247-58.255-145.74-6.026-204.362l6.026-6.383 318.706-318.691 318.706 318.691c58.33 58.33 58.33 152.415 0 210.745-28.272 28.272-66.103 43.534-105.373 43.534z" />
<glyph unicode="&#xe914;" glyph-name="arrow_bent" d="M668.118 641.294c11.361 11.361 29.138 12.393 41.666 3.098l3.589-3.098 193.294-193.294-193.294-193.294-3.589-3.098c-11.135-8.262-26.419-8.364-37.657-0.306l-4.009 3.404-3.098 3.589c-8.262 11.135-8.364 26.419-0.306 37.657l3.404 4.009 115.968 116.039-462.696 0.209c-104.549 4.71-188.471 88.632-193.181 193.181l-0.209 9.277h64c0-73.943 57.875-134.368 130.798-138.447l7.869-0.22h453.504l-116.053 116.039-3.098 3.589c-9.295 12.527-8.262 30.305 3.098 41.666z" />
<glyph unicode="&#xe915;" glyph-name="arrow_bottom" d="M233.373 598.627c11.361 11.361 29.138 12.393 41.666 3.098l3.589-3.098 233.373-233.358 233.373 233.358c11.361 11.361 29.138 12.393 41.666 3.098l3.589-3.098c11.361-11.361 12.393-29.138 3.098-41.666l-3.098-3.589-278.627-278.627-278.627 278.627c-12.497 12.497-12.497 32.758 0 45.255z" />
<glyph unicode="&#xe916;" glyph-name="arrow_double_left" d="M790.627 726.627c11.361-11.361 12.393-29.138 3.098-41.666l-3.098-3.589-233.358-233.373 233.358-233.373c11.361-11.361 12.393-29.138 3.098-41.666l-3.098-3.589c-11.361-11.361-29.138-12.393-41.666-3.098l-3.589 3.098-278.627 278.627 278.627 278.627c12.497 12.497 32.758 12.497 45.255 0zM491.961 726.627c11.361-11.361 12.393-29.138 3.098-41.666l-3.098-3.589-233.358-233.373 233.358-233.373c11.361-11.361 12.393-29.138 3.098-41.666l-3.098-3.589c-11.361-11.361-29.138-12.393-41.666-3.098l-3.589 3.098-278.627 278.627 278.627 278.627c12.497 12.497 32.758 12.497 45.255 0z" />
<glyph unicode="&#xe917;" glyph-name="arrow_double_right" d="M275.038 729.726l3.589-3.098 278.627-278.627-278.627-278.627c-12.497-12.497-32.758-12.497-45.255 0-11.361 11.361-12.393 29.138-3.098 41.666l3.098 3.589 233.358 233.373-233.358 233.373c-11.361 11.361-12.393 29.138-3.098 41.666l3.098 3.589c11.361 11.361 29.138 12.393 41.666 3.098zM573.705 729.726l3.589-3.098 278.627-278.627-278.627-278.627c-12.497-12.497-32.758-12.497-45.255 0-11.361 11.361-12.393 29.138-3.098 41.666l3.098 3.589 233.358 233.373-233.358 233.373c-11.361 11.361-12.393 29.138-3.098 41.666l3.098 3.589c11.361 11.361 29.138 12.393 41.666 3.098z" />
<glyph unicode="&#xe918;" glyph-name="arrow_dragndrop" d="M531.038 772.392l3.589-3.098 85.333-85.333c12.497-12.497 12.497-32.758 0-45.255-11.361-11.361-29.138-12.393-41.666-3.098l-3.589 3.098-30.706 30.691v-189.397h189.397l-30.691 30.706c-11.361 11.361-12.393 29.138-3.098 41.666l3.098 3.589c11.361 11.361 29.138 12.393 41.666 3.098l3.589-3.098 85.333-85.333c11.361-11.361 12.393-29.138 3.098-41.666l-3.098-3.589-85.333-85.333c-12.497-12.497-32.758-12.497-45.255 0-11.361 11.361-12.393 29.138-3.098 41.666l3.098 3.589 30.649 30.706h-189.355v-189.355l30.706 30.649c11.361 11.361 29.138 12.393 41.666 3.098l3.589-3.098c11.361-11.361 12.393-29.138 3.098-41.666l-3.098-3.589-85.333-85.333c-11.361-11.361-29.138-12.393-41.666-3.098l-3.589 3.098-85.333 85.333c-12.497 12.497-12.497 32.758 0 45.255 11.361 11.361 29.138 12.393 41.666 3.098l3.589-3.098 30.706-30.691v189.397h-189.397l30.691-30.706c11.361-11.361 12.393-29.138 3.098-41.666l-3.098-3.589c-11.361-11.361-29.138-12.393-41.666-3.098l-3.589 3.098-85.333 85.333c-11.361 11.361-12.393 29.138-3.098 41.666l3.098 3.589 85.333 85.333c12.497 12.497 32.758 12.497 45.255 0 11.361-11.361 12.393-29.138 3.098-41.666l-3.098-3.589-30.734-30.706h189.44v189.44l-30.706-30.734c-11.361-11.361-29.138-12.393-41.666-3.098l-3.589 3.098c-11.361 11.361-12.393 29.138-3.098 41.666l3.098 3.589 85.333 85.333c11.361 11.361 29.138 12.393 41.666 3.098z" />
<glyph unicode="&#xe919;" glyph-name="arrow_large_back" d="M363.961 385.294c11.361-11.361 12.393-29.138 3.098-41.666l-3.098-3.589c-11.361-11.361-29.138-12.393-41.666-3.098l-3.589 3.098-193.294 193.294 193.294 193.294c12.497 12.497 32.758 12.497 45.255 0 11.361-11.361 12.393-29.138 3.098-41.666l-3.098-3.589-116.053-116.039h477.426c111.924 0 202.667-90.743 202.667-202.667 0-108.815-85.772-197.609-193.39-202.458l-9.276-0.209h-85.333v64h85.333c76.578 0 138.667 62.089 138.667 138.667 0 73.937-57.881 134.367-130.798 138.447l-7.868 0.22h-477.426l116.053-116.039z" />
<glyph unicode="&#xe91a;" glyph-name="arrow_large_left" d="M410.216 729.726l-3.589-3.098-278.627-278.627 278.627-278.627c12.497-12.497 32.758-12.497 45.255 0 11.361 11.361 12.393 29.138 3.098 41.666l-3.098 3.589-201.358 201.373h648.064v64h-648.064l201.358 201.373c11.361 11.361 12.393 29.138 3.098 41.666l-3.098 3.589c-11.361 11.361-29.138 12.393-41.666 3.098z" />
<glyph unicode="&#xe91b;" glyph-name="arrow_large_right" d="M616.372 729.726l3.589-3.098 278.627-278.627-278.627-278.627c-12.497-12.497-32.758-12.497-45.255 0-11.361 11.361-12.393 29.138-3.098 41.666l3.098 3.589 201.358 201.373h-648.064v64h648.064l-201.358 201.373c-11.361 11.361-12.393 29.138-3.098 41.666l3.098 3.589c11.361 11.361 29.138 12.393 41.666 3.098z" />
<glyph unicode="&#xe91c;" glyph-name="editing-alignment-right" d="M885.333 789.333c0 17.673-14.327 32-32 32s-32-14.327-32-32v-682.667c0-17.673 14.327-32 32-32s32 14.327 32 32zM256 608c-64.801 0-117.333-52.532-117.333-117.333v-85.333c0-64.802 52.532-117.333 117.333-117.333h341.333c64.802 0 117.333 52.531 117.333 117.333v85.333c0 64.801-52.531 117.333-117.333 117.333zM202.667 490.667c0 29.457 23.878 53.333 53.333 53.333h341.333c29.457 0 53.333-23.876 53.333-53.333v-85.333c0-29.457-23.876-53.333-53.333-53.333h-341.333c-29.455 0-53.333 23.876-53.333 53.333z" />
<glyph unicode="&#xe91d;" glyph-name="arrow_left" d="M574.706 726.627c12.497 12.497 32.758 12.497 45.255 0 11.361-11.361 12.393-29.138 3.098-41.666l-3.098-3.589-233.358-233.373 233.358-233.373c11.361-11.361 12.393-29.138 3.098-41.666l-3.098-3.589c-11.361-11.361-29.138-12.393-41.666-3.098l-3.589 3.098-278.627 278.627 278.627 278.627z" />
<glyph unicode="&#xe91e;" glyph-name="arrow_right" d="M361.373 726.627c11.361 11.361 29.138 12.393 41.666 3.098l3.589-3.098 278.627-278.627-278.627-278.627c-12.497-12.497-32.758-12.497-45.255 0-11.361 11.361-12.393 29.138-3.098 41.666l3.098 3.589 233.358 233.373-233.358 233.373c-11.361 11.361-12.393 29.138-3.098 41.666l3.098 3.589z" />
<glyph unicode="&#xe91f;" glyph-name="arrow_surrounded_bent" d="M512 906.667c253.321 0 458.667-205.346 458.667-458.667s-205.346-458.667-458.667-458.667c-253.321 0-458.667 205.346-458.667 458.667s205.346 458.667 458.667 458.667zM512 842.667c-217.975 0-394.667-176.692-394.667-394.667s176.692-394.667 394.667-394.667c217.975 0 394.667 176.692 394.667 394.667s-176.692 394.667-394.667 394.667zM659.038 601.726l3.589-3.098 150.627-150.627-150.627-150.627c-12.497-12.497-32.758-12.497-45.255 0-11.361 11.361-12.393 29.138-3.098 41.666l3.098 3.589 73.358 73.373h-264.064c-85.521 0-155.361 67.082-159.778 151.502l-0.222 8.498h64c0-50.816 39.468-92.401 89.427-95.779l6.573-0.221h264.064l-73.358 73.373c-11.361 11.361-12.393 29.138-3.098 41.666l3.098 3.589c11.361 11.361 29.138 12.393 41.666 3.098z" />
<glyph unicode="&#xe920;" glyph-name="arrow_surrounded_double_left" d="M512 906.667c253.321 0 458.667-205.346 458.667-458.667s-205.346-458.667-458.667-458.667c-253.321 0-458.667 205.346-458.667 458.667s205.346 458.667 458.667 458.667zM512 842.667c-217.975 0-394.667-176.692-394.667-394.667s176.692-394.667 394.667-394.667c217.975 0 394.667 176.692 394.667 394.667s-176.692 394.667-394.667 394.667zM705.294 641.294c11.361-11.361 12.393-29.138 3.098-41.666l-3.098-3.589-148.025-148.039 148.025-148.039c11.361-11.361 12.393-29.138 3.098-41.666l-3.098-3.589c-11.361-11.361-29.138-12.393-41.666-3.098l-3.589 3.098-193.294 193.294 193.294 193.294c12.497 12.497 32.758 12.497 45.255 0zM491.961 641.294c11.361-11.361 12.393-29.138 3.098-41.666l-3.098-3.589-148.025-148.039 148.025-148.039c11.361-11.361 12.393-29.138 3.098-41.666l-3.098-3.589c-11.361-11.361-29.138-12.393-41.666-3.098l-3.589 3.098-193.294 193.294 193.294 193.294c12.497 12.497 32.758 12.497 45.255 0z" />
<glyph unicode="&#xe921;" glyph-name="arrow_surrounded_double_right" d="M512 906.667c253.321 0 458.667-205.346 458.667-458.667s-205.346-458.667-458.667-458.667c-253.321 0-458.667 205.346-458.667 458.667s205.346 458.667 458.667 458.667zM512 842.667c-217.975 0-394.667-176.692-394.667-394.667s176.692-394.667 394.667-394.667c217.975 0 394.667 176.692 394.667 394.667s-176.692 394.667-394.667 394.667zM360.372 644.392l3.589-3.098 193.294-193.294-193.294-193.294c-12.497-12.497-32.758-12.497-45.255 0-11.361 11.361-12.393 29.138-3.098 41.666l3.098 3.589 148.025 148.039-148.025 148.039c-11.361 11.361-12.393 29.138-3.098 41.666l3.098 3.589c11.361 11.361 29.138 12.393 41.666 3.098zM573.705 644.392l3.589-3.098 193.294-193.294-193.294-193.294c-12.497-12.497-32.758-12.497-45.255 0-11.361 11.361-12.393 29.138-3.098 41.666l3.098 3.589 148.025 148.039-148.025 148.039c-11.361 11.361-12.393 29.138-3.098 41.666l3.098 3.589c11.361 11.361 29.138 12.393 41.666 3.098z" />
<glyph unicode="&#xe922;" glyph-name="arrow_surrounded_down" d="M512 906.667c253.321 0 458.667-205.346 458.667-458.667s-205.346-458.667-458.667-458.667c-253.321 0-458.667 205.346-458.667 458.667s205.346 458.667 458.667 458.667zM512 842.667c-217.975 0-394.667-176.692-394.667-394.667s176.692-394.667 394.667-394.667c217.975 0 394.667 176.692 394.667 394.667s-176.692 394.667-394.667 394.667zM701.705 559.059l3.589-3.098c11.361-11.361 12.393-29.138 3.098-41.666l-3.098-3.589-193.294-193.294-193.294 193.294c-12.497 12.497-12.497 32.758 0 45.255 11.361 11.361 29.138 12.393 41.666 3.098l3.589-3.098 148.039-148.025 148.039 148.025c11.361 11.361 29.138 12.393 41.666 3.098z" />
<glyph unicode="&#xe923;" glyph-name="arrow_surrounded_large_back" d="M512 906.667c253.321 0 458.667-205.346 458.667-458.667s-205.346-458.667-458.667-458.667c-253.321 0-458.667 205.346-458.667 458.667s205.346 458.667 458.667 458.667zM512 842.667c-217.975 0-394.667-176.692-394.667-394.667s176.692-394.667 394.667-394.667c217.975 0 394.667 176.692 394.667 394.667s-176.692 394.667-394.667 394.667zM406.627 385.294c11.361-11.361 12.393-29.138 3.098-41.666l-3.098-3.589c-11.361-11.361-29.138-12.393-41.666-3.098l-3.589 3.098-150.627 150.627 150.627 150.627c12.497 12.497 32.758 12.497 45.255 0 11.361-11.361 12.393-29.138 3.098-41.666l-3.098-3.589-73.401-73.373h328.107c76.596 0 138.667-62.071 138.667-138.667 0-73.955-57.864-134.369-130.797-138.447l-7.87-0.219h-54.656v64h54.656c41.25 0 74.667 33.417 74.667 74.667 0 39.187-30.159 71.305-68.541 74.419l-6.125 0.247h-328.107l73.401-73.373z" />
<glyph unicode="&#xe924;" glyph-name="arrow_surrounded_large_left" d="M512 906.667c253.321 0 458.667-205.346 458.667-458.667s-205.346-458.667-458.667-458.667c-253.321 0-458.667 205.346-458.667 458.667s205.346 458.667 458.667 458.667zM512 842.667c-217.975 0-394.667-176.692-394.667-394.667s176.692-394.667 394.667-394.667c217.975 0 394.667 176.692 394.667 394.667s-176.692 394.667-394.667 394.667zM513.294 683.961c11.361-11.361 12.393-29.138 3.098-41.666l-3.098-3.589-158.734-158.706h456.107v-64h-456.107l158.734-158.706c11.361-11.361 12.393-29.138 3.098-41.666l-3.098-3.589c-11.361-11.361-29.138-12.393-41.666-3.098l-3.589 3.098-235.961 235.961 235.961 235.961c12.497 12.497 32.758 12.497 45.255 0z" />
<glyph unicode="&#xe925;" glyph-name="arrow_surrounded_large_right" d="M512 906.667c253.321 0 458.667-205.346 458.667-458.667s-205.346-458.667-458.667-458.667c-253.321 0-458.667 205.346-458.667 458.667s205.346 458.667 458.667 458.667zM512 842.667c-217.975 0-394.667-176.692-394.667-394.667s176.692-394.667 394.667-394.667c217.975 0 394.667 176.692 394.667 394.667s-176.692 394.667-394.667 394.667zM552.372 687.059l3.589-3.098 235.961-235.961-235.961-235.961c-12.497-12.497-32.758-12.497-45.255 0-11.361 11.361-12.393 29.138-3.098 41.666l3.098 3.589 158.691 158.706h-456.064v64h456.064l-158.691 158.706c-11.361 11.361-12.393 29.138-3.098 41.666l3.098 3.589c11.361 11.361 29.138 12.393 41.666 3.098z" />
<glyph unicode="&#xe926;" glyph-name="arrow_surrounded_large_up_right" d="M512 906.667c253.321 0 458.667-205.346 458.667-458.667s-205.346-458.667-458.667-458.667c-253.321 0-458.667 205.346-458.667 458.667s205.346 458.667 458.667 458.667zM512 842.667c-217.975 0-394.667-176.692-394.667-394.667s176.692-394.667 394.667-394.667c217.975 0 394.667 176.692 394.667 394.667s-176.692 394.667-394.667 394.667zM714.667 650.667v-288c0-17.673-14.327-32-32-32-16.2 0-29.589 12.039-31.708 27.658l-0.292 4.342v178.773l-329.373-329.401-45.255 45.255 329.315 329.373h-178.688c-16.2 0-29.589 12.039-31.708 27.658l-0.292 4.342c0 16.2 12.039 29.589 27.658 31.708l4.342 0.292h288z" />
<glyph unicode="&#xe927;" glyph-name="arrow_surrounded_left" d="M512 906.667c253.321 0 458.667-205.346 458.667-458.667s-205.346-458.667-458.667-458.667c-253.321 0-458.667 205.346-458.667 458.667s205.346 458.667 458.667 458.667zM512 842.667c-217.975 0-394.667-176.692-394.667-394.667s176.692-394.667 394.667-394.667c217.975 0 394.667 176.692 394.667 394.667s-176.692 394.667-394.667 394.667zM577.294 641.294c11.361-11.361 12.393-29.138 3.098-41.666l-3.098-3.589-148.025-148.039 148.025-148.039c11.361-11.361 12.393-29.138 3.098-41.666l-3.098-3.589c-11.361-11.361-29.138-12.393-41.666-3.098l-3.589 3.098-193.294 193.294 193.294 193.294c12.497 12.497 32.758 12.497 45.255 0z" />
<glyph unicode="&#xe928;" glyph-name="arrow_surrounded_right" d="M512 906.667c253.321 0 458.667-205.346 458.667-458.667s-205.346-458.667-458.667-458.667c-253.321 0-458.667 205.346-458.667 458.667s205.346 458.667 458.667 458.667zM512 842.667c-217.975 0-394.667-176.692-394.667-394.667s176.692-394.667 394.667-394.667c217.975 0 394.667 176.692 394.667 394.667s-176.692 394.667-394.667 394.667zM488.372 644.392l3.589-3.098 193.294-193.294-193.294-193.294c-12.497-12.497-32.758-12.497-45.255 0-11.361 11.361-12.393 29.138-3.098 41.666l3.098 3.589 148.025 148.039-148.025 148.039c-11.361 11.361-12.393 29.138-3.098 41.666l3.098 3.589c11.361 11.361 29.138 12.393 41.666 3.098z" />
<glyph unicode="&#xe929;" glyph-name="arrow_surrounded_top" d="M512 906.667c253.321 0 458.667-205.346 458.667-458.667s-205.346-458.667-458.667-458.667c-253.321 0-458.667 205.346-458.667 458.667s205.346 458.667 458.667 458.667zM512 842.667c-217.975 0-394.667-176.692-394.667-394.667s176.692-394.667 394.667-394.667c217.975 0 394.667 176.692 394.667 394.667s-176.692 394.667-394.667 394.667zM512 578.588l193.294-193.294c12.497-12.497 12.497-32.758 0-45.255-11.361-11.361-29.138-12.393-41.666-3.098l-3.589 3.098-148.039 148.025-148.039-148.025c-11.361-11.361-29.138-12.393-41.666-3.098l-3.589 3.098c-11.361 11.361-12.393 29.138-3.098 41.666l3.098 3.589 193.294 193.294z" />
<glyph unicode="&#xe92a;" glyph-name="arrow_top" d="M512 621.255l278.627-278.627c12.497-12.497 12.497-32.758 0-45.255-11.361-11.361-29.138-12.393-41.666-3.098l-3.589 3.098-233.373 233.358-233.373-233.358c-11.361-11.361-29.138-12.393-41.666-3.098l-3.589 3.098c-11.361 11.361-12.393 29.138-3.098 41.666l3.098 3.589 278.627 278.627z" />
<glyph unicode="&#xe92b;" glyph-name="brands_digiposte" d="M533.333 704h-234.667v-469.333h85.333v384h149.333c83.102 0 149.333-66.23 149.333-149.333s-66.231-149.333-149.333-149.333h-85.333v-85.333h85.333c130.231 0 234.667 104.435 234.667 234.667s-104.435 234.667-234.667 234.667zM85.333 789.333v-682.667c0-47.13 38.205-85.333 85.333-85.333h682.667c47.13 0 85.333 38.204 85.333 85.333v682.667c0 47.128-38.204 85.333-85.333 85.333h-682.667c-47.128 0-85.333-38.205-85.333-85.333zM170.667 746.667c0 23.564 19.103 42.667 42.667 42.667h597.333c23.565 0 42.667-19.103 42.667-42.667v-597.333c0-23.565-19.102-42.667-42.667-42.667h-597.333c-23.564 0-42.667 19.102-42.667 42.667v597.333z" />
<glyph unicode="&#xe92c;" glyph-name="brands_facebook" d="M568.305 106.667v362.709h100.98l13.382 124.992h-114.362l0.172 62.559c0 32.6 3.124 50.067 50.347 50.067h63.128v125.006h-100.994c-121.31 0-164.008-60.634-164.008-162.602v-75.044h-75.617v-124.992h75.617v-362.695h151.355z" />
<glyph unicode="&#xe92d;" glyph-name="brands_instagram" d="M725.333 448c0-117.811-95.522-213.333-213.333-213.333-117.827 0-213.333 95.522-213.333 213.333 0 117.827 95.507 213.333 213.333 213.333 117.811 0 213.333-95.507 213.333-213.333zM640 448c0 70.699-57.314 128-128 128-70.694 0-128-57.301-128-128 0-70.686 57.306-127.996 128-127.996 70.686 0 128 57.31 128 127.996zM682.667 672.019c0 29.453 23.889 53.314 53.333 53.314s53.333-23.87 53.333-53.314c0-29.444-23.889-53.333-53.333-53.333s-53.333 23.889-53.333 53.333zM298.667 874.667h426.667c117.82 0 213.333-95.513 213.333-213.333v-426.667c0-117.82-95.514-213.333-213.333-213.333h-426.667c-117.821 0-213.333 95.514-213.333 213.333v426.667c0 117.821 95.513 213.333 213.333 213.333zM298.667 789.333c-70.692 0-128-57.308-128-128v-426.667c0-70.694 57.308-128 128-128h426.667c70.694 0 128 57.306 128 128v426.667c0 70.692-57.306 128-128 128h-426.667z" />
<glyph unicode="&#xe92e;" glyph-name="brands_lapostenet" d="M897.98 686.030c-9.6-0.147-15.957-1.727-30.507-10.406l-328.448-206.055-210.331 163.098c-32.85 23.719-54.179 27.596-59.042 27.822h423.95c25.485 0 46.14 20.35 46.14 46.704 0 26.349-20.655 48.809-46.14 48.809l-539.249-0.006c-2.44 0.023-3.761 0.226-9.546-1.044-15.811-3.426-29.035-15.237-34.307-31.535-6.304-19.498 0.175-40.977 16.079-53.307l382.034-296.243c8.166-6.336 17.907-9.54 27.691-9.54 8.269 0 16.55 2.291 23.932 6.925l308.826 193.819c0 0-16.461-15.587-17.22-36.579v-258.735c0-12.343-12.066-15.637-19.196-15.637h-630.378c-7.122 0-19.189 3.294-19.189 15.637v238.345c0 26.355-20.657 47.721-46.14 47.721-25.488 0-46.145-21.366-46.145-47.721v-238.345c0-62.281 48.961-111.070 111.474-111.070h630.378c62.515 0 111.479 48.789 111.479 111.070v368.559c0 26.349-20.655 48.109-46.144 47.715z" />
<glyph unicode="&#xe92f;" glyph-name="brands_linkedin" d="M325.641 581.166v-431.821h-146.322v431.821h146.322zM335.278 714.745c0-41.463-31.775-74.64-82.795-74.64h-0.935c-49.124 0-80.881 33.177-80.881 74.64 0 42.34 32.725 74.588 82.781 74.588s80.881-32.248 81.831-74.588zM853.333 396.938l-0.006-247.593h-146.316v231.024c0 58.028-21.174 97.625-74.143 97.625-40.424 0-64.503-26.694-75.078-52.477-3.869-9.24-4.819-22.114-4.819-35.020v-241.164h-146.339c0 0 1.929 391.301 0 431.821h146.339v-61.164c19.42 29.403 54.202 71.315 131.89 71.315 96.287 0 168.471-61.731 168.471-194.368z" />
<glyph unicode="&#xe930;" glyph-name="brands_twitter" d="M500.908 587.767l1.665-25.836-27.746 3.164c-100.996 12.127-189.229 53.255-264.143 122.327l-36.625 34.273-9.434-25.309c-19.977-56.418-7.214-116 34.405-156.073 22.197-22.145 17.203-25.309-21.087-12.127-13.318 4.218-24.972 7.382-26.081 5.8-3.884-3.691 9.434-51.673 19.977-70.655 14.428-26.364 43.839-52.2 76.024-67.491l27.191-12.127-32.185-0.527c-31.076 0-32.185-0.527-28.856-11.6 11.098-34.273 54.937-70.655 103.77-86.473l34.405-11.073-29.966-16.873c-44.394-24.255-96.556-37.964-148.719-39.018-24.972-0.527-45.504-2.636-45.504-4.218 0-5.273 67.701-34.8 107.1-46.4 118.198-34.273 258.594-19.509 364.029 39.018 74.915 41.655 149.829 124.436 184.789 204.582 18.867 42.709 37.735 120.745 37.735 158.182 0 24.255 1.665 27.418 32.74 56.418 18.312 16.873 35.515 35.327 38.845 40.6 5.549 10.018 4.994 10.018-23.307 1.055-47.168-15.818-53.827-13.709-30.521 10.018 17.203 16.873 37.735 47.455 37.735 56.418 0 1.582-8.324-1.055-17.758-5.8-9.989-5.273-32.185-13.182-48.833-17.927l-29.966-8.964-27.191 17.4c-14.983 9.491-36.070 20.036-47.168 23.2-28.301 7.382-71.585 6.327-97.111-2.109-69.365-23.727-113.204-84.891-108.21-151.854z" />
<glyph unicode="&#xe931;" glyph-name="brands_youtube" d="M838.998 831.984l9.054-0.266c95.688-5.291 171.245-83.64 175.737-180.067l0.211-9.091-0.015-390.245-0.257-9.181c-5.129-97.018-81.792-174.322-176.934-178.918l-8.972-0.216-661.874 0.282c-95.688 5.291-171.245 83.64-175.737 180.067l-0.211 9.091 0.015 390.245 0.257 9.181c5.129 97.018 81.792 174.322 176.934 178.918l8.972 0.216 652.819-0.016zM837.822 746.667h-651.643c-51.090 0-93.9-39.452-100.040-90.191l-0.607-6.986-0.198-6.929v-389.12c0-53.169 38.627-97.048 87.431-103.29l6.716-0.615 6.698-0.201h651.643c51.090 0 93.9 39.452 100.040 90.191l0.607 6.986 0.198 6.929v389.12c0 53.169-38.627 97.048-87.431 103.29l-6.716 0.615-6.698 0.201zM341.333 618.667c0 31.122 31.941 51.214 59.522 39.21l4.313-2.165 298.667-170.667c26.978-15.416 28.565-52.934 4.761-70.951l-4.761-3.139-298.667-170.667c-27.022-15.441-60.314 2.323-63.575 32.226l-0.26 4.819v341.333zM426.667 545.152v-194.261l169.941 97.109-169.941 97.152z" />
<glyph unicode="&#xe932;" glyph-name="cart_add" d="M768 437.333c135.476 0 245.333-109.858 245.333-245.333s-109.858-245.333-245.333-245.333c-135.476 0-245.333 109.858-245.333 245.333s109.858 245.333 245.333 245.333zM512 906.667c85.521 0 155.361-67.082 159.778-151.502l0.222-8.498v-53.333h170.667v-202.667h-64v138.667h-106.667v-96h-64v96h-192v-96h-64v96h-106.667v-522.667c0-27.591 21.008-50.324 47.884-53.058l5.449-0.276h213.333v-64h-213.333c-62.378 0-113.424 48.735-117.119 110.188l-0.214 7.145v586.667h170.667v53.333c0 88.372 71.628 160 160 160zM768 373.333c-100.13 0-181.333-81.204-181.333-181.333s81.204-181.333 181.333-181.333c100.13 0 181.333 81.204 181.333 181.333s-81.204 181.333-181.333 181.333zM768 309.333c16.2 0 29.589-12.039 31.708-27.658l0.292-4.342v-53.333h53.333c17.673 0 32-14.327 32-32 0-16.2-12.039-29.589-27.658-31.708l-4.342-0.292h-53.333v-53.333c0-17.673-14.327-32-32-32-16.2 0-29.589 12.039-31.708 27.658l-0.292 4.342v53.333h-53.333c-17.673 0-32 14.327-32 32 0 16.2 12.039 29.589 27.658 31.708l4.342 0.292h53.333v53.333c0 17.673 14.327 32 32 32zM512 842.667c-50.816 0-92.401-39.468-95.779-89.427l-0.221-6.573v-53.333h192v53.333c0 53.026-42.974 96-96 96z" />
<glyph unicode="&#xe933;" glyph-name="cart_credit_card" d="M853.333 778.667c62.378 0 113.424-48.735 117.119-110.188l0.214-7.145v-426.667c0-62.378-48.735-113.424-110.188-117.119l-7.145-0.214h-682.667c-62.378 0-113.424 48.735-117.119 110.188l-0.214 7.145v426.667c0 62.378 48.735 113.424 110.188 117.119l7.145 0.214h682.667zM906.667 544h-789.333v-309.333c0-27.591 21.008-50.324 47.884-53.058l5.449-0.276h682.667c27.591 0 50.324 21.008 53.058 47.884l0.276 5.449v309.333zM725.333 448c47.104 0 85.333-38.229 85.333-85.333s-38.229-85.333-85.333-85.333c-25.483 0-48.369 11.189-64.009 28.919-15.622-17.73-38.508-28.919-63.991-28.919-47.104 0-85.333 38.229-85.333 85.333s38.229 85.333 85.333 85.333c25.483 0 48.369-11.189 64.009-28.919 15.622 17.73 38.508 28.919 63.991 28.919zM298.667 394.667c17.673 0 32-14.327 32-32 0-16.2-12.039-29.589-27.658-31.708l-4.342-0.292h-85.333c-17.673 0-32 14.327-32 32 0 16.2 12.039 29.589 27.658 31.708l4.342 0.292h85.333zM853.333 714.667h-682.667c-27.591 0-50.324-21.008-53.058-47.884l-0.276-5.449v-53.333h789.333v53.333c0 27.591-21.008 50.324-47.884 53.058l-5.449 0.276z" />
<glyph unicode="&#xe934;" glyph-name="cart_feedback" d="M512 906.667c85.521 0 155.361-67.082 159.778-151.502l0.222-8.498v-53.333h170.667v-586.667c0-62.378-48.735-113.424-110.188-117.119l-7.145-0.214h-426.667c-62.378 0-113.424 48.735-117.119 110.188l-0.214 7.145v586.667h170.667v53.333c0 88.372 71.628 160 160 160zM352 629.333h-106.667v-522.667c0-25.752 18.3-47.271 42.592-52.249l5.293-0.809 5.449-0.276h426.667c27.591 0 50.324 21.008 53.058 47.884l0.276 5.449v522.667h-106.667v-96h-64v96h-192v-96h-64v96zM662.627 427.961c11.361-11.361 12.393-29.138 3.098-41.666l-3.098-3.589-170.667-170.667c-11.361-11.361-29.138-12.393-41.666-3.098l-3.589 3.098-85.333 85.333c-12.497 12.497-12.497 32.758 0 45.255 11.361 11.361 29.138 12.393 41.666 3.098l3.589-3.098 62.706-62.691 148.039 148.025c12.497 12.497 32.758 12.497 45.255 0zM512 842.667c-50.816 0-92.401-39.468-95.779-89.427l-0.221-6.573v-53.333h192v53.333c0 53.026-42.974 96-96 96z" />
<glyph unicode="&#xe935;" glyph-name="cart_full" d="M512 906.667c85.521 0 155.361-67.082 159.778-151.502l0.222-8.498v-53.333h138.667v-64h-138.667v-96h-64v96h-192v-96h-64v96h-106.667v-522.667c0-27.591 21.008-50.324 47.884-53.058l5.449-0.276h426.667c27.591 0 50.324 21.008 53.058 47.884l0.276 5.449h64c0-62.378-48.735-113.424-110.188-117.119l-7.145-0.214h-426.667c-62.378 0-113.424 48.735-117.119 110.188l-0.214 7.145v586.667h170.667v53.333c0 88.372 71.628 160 160 160zM512 842.667c-50.816 0-92.401-39.468-95.779-89.427l-0.221-6.573v-53.333h192v53.333c0 53.026-42.974 96-96 96z" />
<glyph unicode="&#xe936;" glyph-name="cart_lock" d="M512 778.667c85.521 0 155.361-67.082 159.778-151.502l0.222-8.498v-96h53.333c39.164 0 71.303-30.181 74.419-68.544l0.248-6.122v-298.667c0-39.164-30.181-71.303-68.544-74.419l-6.122-0.248h-426.667c-39.164 0-71.303 30.181-74.419 68.544l-0.248 6.122v298.667c0 39.164 30.181 71.303 68.544 74.419l6.122 0.248h53.333v96c0 88.372 71.628 160 160 160zM725.333 458.667h-426.667c-5.039 0-9.276-3.518-10.384-8.225l-0.282-2.442v-298.667c0-5.039 3.518-9.276 8.225-10.384l2.442-0.282h426.667c5.039 0 9.276 3.518 10.384 8.225l0.282 2.442v298.667c0 5.039-3.518 9.276-8.225 10.384l-2.442 0.282zM512 714.667c-50.816 0-92.401-39.468-95.779-89.427l-0.221-6.573v-96h192v96c0 53.026-42.974 96-96 96z" />
<glyph unicode="&#xe937;" glyph-name="cart_piggybank" d="M749.579 732.905c81.141-46.111 140.099-121.921 165.117-210.267l9.763 0.029 8.458 0.212c3.65 0.23 6.579 0.67 9.457 1.439 5.362 1.431 6.645 2.199 6.902 6.532l0.057 2.484c0 17.673 14.327 32 32 32s32-14.327 32-32c0-38.126-22.12-62.221-54.456-70.851-9.342-2.493-17.168-3.439-26.802-3.718l-5.536-0.063c0.96-10.571 1.448-21.252 1.448-32.017 0-103.836-45.458-200.257-121.981-265.739l-6.049-4.956 0.030-177.306c0-16.2-12.039-29.589-27.658-31.708l-4.342-0.292h-128c-16.2 0-29.589 12.039-31.708 27.658l-0.292 4.342-0.030 37.146-7.038-2.314c-53.632-15.9-124.5-15.799-178.080 0.297l-6.882 2.231 0.030-37.359c0-16.2-12.039-29.589-27.658-31.708l-4.342-0.292h-128c-16.2 0-29.589 12.039-31.708 27.658l-0.292 4.342-0.030 141.978-6.302 1.372c-27.433 6.893-51.89 21.102-73.279 40.647l-7.016 6.71c-9.381 9.381-17.193 18.754-23.503 27.468l-4.075 5.852-67.127-0.026c-16.2 0-29.589 12.039-31.708 27.658l-0.292 4.342v256c0 16.2 12.039 29.589 27.658 31.708l4.342 0.292 66.658 0.026 3.273 10.883c25.427 79.462 78.45 147.557 149.26 191.816l10.754 6.459c15.31 8.829 34.878 3.574 43.707-11.736s3.574-34.878-11.736-43.707c-71.296-41.113-122.217-111.090-138.834-192.165-2.746-13.398-13.632-23.395-26.86-25.261l-4.488-0.314-59.763 0.026v-192l53.363-0.026c10.606 0 20.415-5.243 26.333-13.817l2.289-3.873c3.92-7.841 12.768-21.113 26.006-34.35 21.124-21.124 45.464-33.294 73.373-33.294 16.2 0 29.589-12.039 31.708-27.658l0.292-4.342-0.030-138.641h64l0.030 60.134c0 28.103 33.089 41.876 53.041 24.144l3.196-3.25c28.7-33.291 166.463-34.722 203.657-4.175l3.967 3.819c18.403 21.145 52.322 9.928 55.841-16.471l0.297-4.537-0.030-59.665h64l0.030 160.828c0 8.684 3.525 16.929 9.657 22.909l3.279 2.793c71.773 53.239 115.064 137.738 115.064 229.445 0 104.745-56.495 199.698-146.029 250.579-15.365 8.732-20.743 28.266-12.011 43.632s28.266 20.743 43.632 12.011zM512 949.333c64.777 0 117.333-52.556 117.333-117.333 0-43.634-23.846-81.722-59.211-101.938 29.872-6.053 58.476-16.887 84.881-32.032 15.331-8.793 20.63-28.349 11.838-43.679s-28.349-20.63-43.679-11.838c-33.531 19.231-71.598 29.508-111.183 29.508-40.191 0-78.786-10.589-112.772-30.414-15.266-8.905-34.86-3.749-43.765 11.517s-3.749 34.86 11.517 43.765c27.004 15.752 56.301 26.979 86.922 33.258-35.365 20.125-59.215 58.216-59.215 101.853 0 64.777 52.556 117.333 117.333 117.333zM512 885.333c-29.431 0-53.333-23.902-53.333-53.333s23.902-53.333 53.333-53.333c29.431 0 53.333 23.902 53.333 53.333s-23.902 53.333-53.333 53.333z" />
<glyph unicode="&#xe938;" glyph-name="cart_reload" d="M768 437.333c135.494 0 245.333-109.839 245.333-245.333s-109.839-245.333-245.333-245.333c-132.343 0-240.211 104.79-245.156 235.923l-0.177 9.41v50.773l-52.039-52.067c-11.361-11.361-29.138-12.393-41.666-3.098l-3.589 3.098c-11.361 11.361-12.393 29.138-3.098 41.666l3.098 3.589 106.667 106.667c11.361 11.361 29.138 12.393 41.666 3.098l3.589-3.098 106.667-106.667c12.497-12.497 12.497-32.758 0-45.255-11.361-11.361-29.138-12.393-41.666-3.098l-3.589 3.098-52.039 52.067v-50.773c0-100.148 81.186-181.333 181.333-181.333s181.333 81.186 181.333 181.333c0 100.148-81.186 181.333-181.333 181.333-45.277 0-78.193-9.811-100.119-28.451l-5.253-4.843-45.255 45.255c35.109 35.109 85.9 52.039 150.627 52.039zM512 906.667c85.515 0 155.361-67.087 159.778-151.503l0.222-8.497v-53.333h170.667v-202.667h-64v138.667h-106.667v-74.667h-64v74.667h-192v-74.667h-64v74.667h-106.667v-522.667c0-27.614 20.987-50.327 47.88-53.058l5.453-0.275h213.333v-64h-213.333c-62.401 0-113.425 48.713-117.119 110.186l-0.214 7.148v586.667h170.667v53.333c0 88.366 71.634 160 160 160zM512 842.667c-50.81 0-92.401-39.474-95.779-89.427l-0.221-6.573v-53.333h192v53.333c0 53.019-42.981 96-96 96z" />
<glyph unicode="&#xe939;" glyph-name="cart_savings" d="M756.776 926.361c35.679-11.88 46.367-48.458 47.647-103.75 0.328-14.163-0.111-28.913-1.112-43.705l-0.965-11.632 7.725-3.808c36.689-19.265 64.776-48.168 85-84.062l5.321-9.961c14.708-29.060 23.061-57.822 27.159-82.678l0.363-2.488h10.752c39.173 0 71.304-30.151 74.419-68.54l0.248-6.127v-168.277c0-39.164-30.181-71.303-68.544-74.419l-6.122-0.248h-25.173l-0.733-1.141c-2.448-3.557-5.202-7.43-8.263-11.581l-4.822-6.431c-19.386-25.444-42.598-50.832-69.715-74.56-9.473-8.289-19.237-16.208-29.291-23.723l20.043-100.288c3.466-17.33-7.773-34.188-25.103-37.654-15.886-3.177-31.375 6.002-36.516 20.902l-1.138 4.201-15.172 75.977c-11.728-6.256-23.783-11.994-36.165-17.176-33.223-13.893-70.239-20.525-109.284-20.525-5.349 0-10.392 1.313-14.824 3.633-23.256-78.953-143.275-131.633-283.843-131.633-156.782 0-288 65.534-288 160v256l0.233 6.855c6.184 90.701 134.816 153.145 287.767 153.145s281.584-62.444 287.767-153.145l0.233-6.855-0.016-225.826c2.227 0.788 4.568 1.337 6.99 1.616l3.692 0.211c30.967 0 59.646 5.138 84.586 15.568 38.798 16.236 74.119 39.079 105.897 66.884 23.697 20.735 44.042 42.987 60.952 65.182l7.706 10.426 8.338 12.244 3.404 5.573c4.985 8.724 13.726 14.526 23.527 15.84l4.257 0.284h42.667c5.039 0 9.276 3.518 10.384 8.225l0.282 2.442v168.277c0 5.059-3.503 9.282-8.219 10.386l-2.448 0.281h-39.893c-15.991 0-29.282 11.741-31.631 27.133l-0.728 10.607-1.020 9.12c-0.466 3.464-1.067 7.333-1.829 11.542-3.839 21.223-10.424 42.397-20.276 61.863-18.447 36.447-46.047 62.646-85.409 75.766-14.651 4.884-23.724 19.534-21.567 34.826l1.609 13.867 0.475 4.962c1.599 17.435 2.416 35.035 2.043 51.166-0.314 13.578-1.48 25.226-3.437 34.13l-2.45 9.070c-0.219 0.909-0.228 1.407 0.070 1.592l0.565 0.083-2.048 0.472c-3.584 0.59-7.708 0.436-12.444-0.548l-4.942-1.263c-15.86-4.758-34.804-16.832-54.502-34.029-10.071-8.792-19.646-18.298-28.342-27.801l-10.59-12.161c-7.572-9.465-19.841-13.839-31.693-11.299l-4.319 0.796-11.41 1.607c-64.061 7.781-137.135 0.743-205.601-32.157-72.046-34.619-129.97-94.65-169.218-186.229-6.962-16.244-25.774-23.769-42.018-16.807s-23.769 25.774-16.807 42.018c45.38 105.887 114.398 177.414 200.324 218.704 76.316 36.671 155.927 46.064 227.679 39.432l15.532-1.686 0.908 0.989c6.808 7.439 14.071 14.877 21.718 22.117l11.748 10.688c25.963 22.667 51.987 39.253 78.202 47.118 20.428 6.128 40.487 6.702 59.411 0.393zM298.667 74.667c-88.831 0-170.653 21.306-224.028 57.71l0.028-25.71c0-47.040 98.033-96 224-96 122.149 0 218.033 46.038 223.732 91.72l0.268 4.28 0.063 25.767c-53.57-36.502-135.319-57.767-224.063-57.767zM522.714 260.088c-53.182-35.99-134.441-57.422-224.048-57.422-89.582 0-170.822 21.42-224.005 57.393l0.005-25.393c0-12.751 7.302-26.094 23.5-39.803 39.012-33.76 115.085-56.197 200.5-56.197s161.488 22.437 200.77 56.428c13.937 11.793 21.27 23.482 22.885 34.763l0.345 4.809 0.048 25.422zM298.667 458.667c-125.964 0-224-49.013-224-96s98.036-96 224-96c125.964 0 224 49.013 224 96s-98.036 96-224 96zM725.333 661.333c23.552 0 42.667-19.115 42.667-42.667s-19.115-42.667-42.667-42.667c-23.552 0-42.667 19.115-42.667 42.667s19.115 42.667 42.667 42.667z" />
<glyph unicode="&#xe93a;" glyph-name="cart_simple" d="M512 906.667c85.521 0 155.361-67.082 159.778-151.502l0.222-8.498v-53.333h170.667v-586.667c0-62.378-48.735-113.424-110.188-117.119l-7.145-0.214h-426.667c-62.378 0-113.424 48.735-117.119 110.188l-0.214 7.145v586.667h170.667v53.333c0 88.372 71.628 160 160 160zM778.667 629.333h-106.667v-96h-64v96h-192v-96h-64v96h-106.667v-522.667c0-25.752 18.3-47.271 42.592-52.249l5.293-0.809 5.449-0.276h426.667c27.591 0 50.324 21.008 53.058 47.884l0.276 5.449v522.667zM512 842.667c-50.816 0-92.401-39.468-95.779-89.427l-0.221-6.573v-53.333h192v53.333c0 53.026-42.974 96-96 96z" />
<glyph unicode="&#xe93b;" glyph-name="editing_account_activ" d="M647.076 397.825l7.712-1.076c5.179-0.877 10.312-2.074 15.367-3.59 4.106-1.219 8.142-2.655 12.11-4.299l8.362-3.826 21.269-10.592c34.883-17.492 65.069-42.519 88.551-73.155 14.335-18.702 10.795-45.484-7.907-59.819s-45.484-10.795-59.819 7.907c-13.416 17.503-30.114 32.259-49.22 43.443l-9.749 5.291-21.289 10.602c-6.716 3.372-14.145 4.866-21.54 4.425l-5.52-0.699-5.446-1.426-54.016-18.005c-17.499-5.833-35.72-8.75-53.94-8.75-14.585 0.004-29.162 1.871-43.369 5.604l-10.58 3.15-54.016 18.005c-1.989 0.663-4.008 1.175-6.042 1.537-3.492 0.614-6.999 0.793-10.477 0.543l-6.985-1.082c-1.301-0.326-2.608-0.71-3.899-1.158l-5.199-2.196-21.089-10.523c-55.072-27.536-90.819-82.438-94.098-143.448l-0.247-9.195v-38.827c0-21.858 16.492-39.912 37.695-42.379l4.971-0.287h213.333c23.564 0 42.667-19.103 42.667-42.667 0-21.881-16.471-39.915-37.691-42.38l-4.976-0.287h-213.333c-68.144 0-123.888 53.31-127.783 120.481l-0.217 7.519v38.827c0 93.506 50.939 179.259 132.374 224.163l9.173 4.82 21.048 10.511c7.467 3.741 15.218 6.715 23.142 8.912 9.666 2.678 19.583 4.202 29.554 4.559 12.124 0.437 24.305-0.851 36.2-3.886l8.861-2.604 54.016-18.005c14.985-4.995 31.046-5.708 46.338-2.141l7.573 2.141 54.016 18.005c14.664 4.888 29.929 7.036 45.058 6.5l9.055-0.644zM883.503 179.503c15.381-15.381 16.564-39.583 3.549-56.32l-3.549-4.020-128-128c-15.381-15.381-39.583-16.564-56.32-3.549l-4.020 3.549-85.333 85.333c-16.662 16.662-16.662 43.677 0 60.34 15.381 15.381 39.583 16.564 56.32 3.549l4.020-3.549 55.163-55.13 97.83 97.797c16.662 16.662 43.677 16.662 60.34 0zM512 874.667c117.815 0 213.333-95.519 213.333-213.333s-95.519-213.333-213.333-213.333c-117.815 0-213.333 95.519-213.333 213.333s95.519 213.333 213.333 213.333zM512 789.333c-70.687 0-128-57.313-128-128s57.313-128 128-128c70.687 0 128 57.313 128 128s-57.313 128-128 128z" />
<glyph unicode="&#xe93c;" glyph-name="editing_address_book_add" d="M810.667 864c39.164 0 71.303-30.181 74.419-68.544l0.248-6.122 0.031-315.202c77.16-51.675 127.969-139.65 127.969-239.465 0-159.028-128.972-288-288-288-80.49 0-153.28 33.039-205.546 86.293l-3.445-0.667-4.342-0.292h-256c-39.164 0-71.303 30.181-74.419 68.544l-0.248 6.122v53.333h-53.333c-17.673 0-32 14.327-32 32 0 16.2 12.039 29.589 27.658 31.708l4.342 0.292h53.333v106.667h-53.333c-17.673 0-32 14.327-32 32 0 16.2 12.039 29.589 27.658 31.708l4.342 0.292h53.333v106.667h-53.333c-17.673 0-32 14.327-32 32 0 16.2 12.039 29.589 27.658 31.708l4.342 0.292h53.333v106.667h-53.333c-17.673 0-32 14.327-32 32 0 16.2 12.039 29.589 27.658 31.708l4.342 0.292h53.333v53.333c0 39.164 30.181 71.303 68.544 74.419l6.122 0.248h554.667zM725.333 458.667c-123.682 0-224-100.318-224-224s100.318-224 224-224c123.682 0 224 100.318 224 224s-100.318 224-224 224zM810.667 800h-554.667c-5.039 0-9.276-3.518-10.384-8.225l-0.282-2.442v-682.667c0-5.039 3.518-9.276 8.225-10.384l2.442-0.282 216.895-0.052c-22.665 41.149-35.562 88.431-35.562 138.718 0 52.91 14.277 102.493 39.187 145.106l-28.512-0.026c-26.027 0-46.933 20.907-46.933 46.933v15.36c0 37.547 20.907 71.253 54.187 87.893l8.533 4.267c0.427 0 0.427 0 0.427 0.427 11.093 5.12 23.040 5.973 34.56 2.56v-0.427h0.853l21.76-7.253c7.68-2.56 16.213-2.56 23.893 0l21.76 7.253c11.947 3.84 24.747 2.987 35.84-2.56l8.533-4.267c10.453-5.333 19.733-12.267 27.52-20.48 27.221 8.586 56.267 13.214 86.391 13.214 33.662 0 65.977-5.779 96.007-16.398l-0.007 283.064c0 5.039-3.518 9.276-8.225 10.384l-2.442 0.282zM725.333 352c16.2 0 29.589-12.039 31.708-27.658l0.292-4.342v-53.333h53.333c17.673 0 32-14.327 32-32 0-16.2-12.039-29.589-27.658-31.708l-4.342-0.292h-53.333v-53.333c0-17.673-14.327-32-32-32-16.2 0-29.589 12.039-31.708 27.658l-0.292 4.342v53.333h-53.333c-17.673 0-32 14.327-32 32 0 16.2 12.039 29.589 27.658 31.708l4.342 0.292h53.333v53.333c0 17.673 14.327 32 32 32zM533.338 729.609c44.715 0 81.067-36.352 81.067-81.067s-36.352-81.067-81.067-81.067c-44.715 0-81.067 36.352-81.067 81.067s36.352 81.067 81.067 81.067z" />
<glyph unicode="&#xe93d;" glyph-name="editing_address_book_added" d="M810.667 864c39.164 0 71.303-30.181 74.419-68.544l0.248-6.122v-298.667c0-5.146-1.215-10.009-3.373-14.316 79.036-51.271 131.373-140.379 131.373-241.684 0-159.028-128.972-288-288-288-80.49 0-153.28 33.039-205.546 86.293l-3.445-0.667-4.342-0.292h-256c-39.164 0-71.303 30.181-74.419 68.544l-0.248 6.122v53.333h-53.333c-17.673 0-32 14.327-32 32 0 16.2 12.039 29.589 27.658 31.708l4.342 0.292h53.333v106.667h-53.333c-17.673 0-32 14.327-32 32 0 16.2 12.039 29.589 27.658 31.708l4.342 0.292h53.333v106.667h-53.333c-17.673 0-32 14.327-32 32 0 16.2 12.039 29.589 27.658 31.708l4.342 0.292h53.333v106.667h-53.333c-17.673 0-32 14.327-32 32 0 16.2 12.039 29.589 27.658 31.708l4.342 0.292h53.333v53.333c0 39.164 30.181 71.303 68.544 74.419l6.122 0.248h554.667zM725.333 458.667c-123.682 0-224-100.318-224-224s100.318-224 224-224c123.682 0 224 100.318 224 224s-100.318 224-224 224zM810.667 800h-554.667c-5.039 0-9.276-3.518-10.384-8.225l-0.282-2.442v-682.667c0-5.039 3.518-9.276 8.225-10.384l2.442-0.282 216.895-0.052c-22.665 41.149-35.562 88.431-35.562 138.718 0 52.91 14.277 102.493 39.187 145.106l-28.512-0.026c-26.027 0-46.933 20.907-46.933 46.933v15.36c0 37.547 20.907 71.253 54.187 87.893l8.533 4.267c0.427 0 0.427 0 0.427 0.427 11.093 5.12 23.040 5.973 34.56 2.56v-0.427h0.853l21.76-7.253c7.68-2.56 16.213-2.56 23.893 0l21.76 7.253c11.947 3.84 24.747 2.987 35.84-2.56l8.533-4.267c10.453-5.333 19.733-12.267 27.52-20.48 27.221 8.586 56.267 13.214 86.391 13.214 33.662 0 65.977-5.779 96.007-16.398l-0.007 283.064c0 5.039-3.518 9.276-8.225 10.384l-2.442 0.282zM854.627 321.294c11.361-11.361 12.393-29.138 3.098-41.666l-3.098-3.589-106.667-106.667c-11.361-11.361-29.138-12.393-41.666-3.098l-3.589 3.098-64 64c-12.497 12.497-12.497 32.758 0 45.255 11.361 11.361 29.138 12.393 41.666 3.098l3.589-3.098 41.373-41.358 84.039 84.025c12.497 12.497 32.758 12.497 45.255 0zM533.338 729.609c44.715 0 81.067-36.352 81.067-81.067s-36.352-81.067-81.067-81.067c-44.715 0-81.067 36.352-81.067 81.067s36.352 81.067 81.067 81.067z" />
<glyph unicode="&#xe93e;" glyph-name="editing_address_book" d="M810.667 864c39.164 0 71.303-30.181 74.419-68.544l0.248-6.122v-682.667c0-39.164-30.181-71.303-68.544-74.419l-6.122-0.248h-554.667c-39.164 0-71.303 30.181-74.419 68.544l-0.248 6.122v53.333h-53.333c-17.673 0-32 14.327-32 32 0 16.2 12.039 29.589 27.658 31.708l4.342 0.292h53.333v106.667h-53.333c-17.673 0-32 14.327-32 32 0 16.2 12.039 29.589 27.658 31.708l4.342 0.292h53.333v106.667h-53.333c-17.673 0-32 14.327-32 32 0 16.2 12.039 29.589 27.658 31.708l4.342 0.292h53.333v106.667h-53.333c-17.673 0-32 14.327-32 32 0 16.2 12.039 29.589 27.658 31.708l4.342 0.292h53.333v53.333c0 39.164 30.181 71.303 68.544 74.419l6.122 0.248h554.667zM810.667 800h-554.667c-5.039 0-9.276-3.518-10.384-8.225l-0.282-2.442v-682.667c0-5.039 3.518-9.276 8.225-10.384l2.442-0.282h554.667c5.039 0 9.276 3.518 10.384 8.225l0.282 2.442v682.667c0 5.879-4.788 10.667-10.667 10.667zM602.97 534.199l8.363-4.267c33.451-16.725 54.272-50.347 54.272-87.723v-15.531c0-25.941-20.992-46.933-46.933-46.933h-170.667c-25.941 0-46.933 20.992-46.933 46.933v15.531c0 37.376 20.821 70.997 54.272 87.723l9.045 4.608c10.752 5.12 22.869 5.973 34.304 2.56l0.171-0.171h0.341l0.171-0.171 21.845-7.168c7.851-2.731 16.384-2.56 24.235 0l21.675 7.168c11.776 3.925 24.576 3.072 35.84-2.56zM533.338 729.609c44.715 0 81.067-36.352 81.067-81.067s-36.352-81.067-81.067-81.067c-44.715 0-81.067 36.352-81.067 81.067s36.352 81.067 81.067 81.067z" />
<glyph unicode="&#xe93f;" glyph-name="editing_adjustment" d="M640 373.333c65.586 0 120.522-45.509 134.96-106.677l121.040 0.011c17.673 0 32-14.327 32-32 0-16.2-12.039-29.589-27.658-31.708l-4.342-0.292-121.050-0.032c-14.454-61.147-69.38-106.635-134.95-106.635s-120.496 45.487-134.95 106.635l-377.050 0.032c-17.673 0-32 14.327-32 32 0 16.2 12.039 29.589 27.658 31.708l4.342 0.292 377.040-0.011c14.438 61.169 69.375 106.677 134.96 106.677zM640 309.333c-41.25 0-74.667-33.417-74.667-74.667s33.417-74.667 74.667-74.667c41.25 0 74.667 33.417 74.667 74.667s-33.417 74.667-74.667 74.667zM384 800c65.586 0 120.522-45.509 134.96-106.677l377.040 0.011c17.673 0 32-14.327 32-32 0-16.2-12.039-29.589-27.658-31.708l-4.342-0.292-377.050-0.032c-14.454-61.147-69.38-106.635-134.95-106.635s-120.496 45.487-134.95 106.635l-121.050 0.032c-17.673 0-32 14.327-32 32 0 16.2 12.039 29.589 27.658 31.708l4.342 0.292 121.040-0.011c14.438 61.169 69.375 106.677 134.96 106.677zM384 736c-41.25 0-74.667-33.417-74.667-74.667s33.417-74.667 74.667-74.667c41.25 0 74.667 33.417 74.667 74.667s-33.417 74.667-74.667 74.667z" />
<glyph unicode="&#xe940;" glyph-name="editing_birthday" d="M896 10.667c17.673 0 32-14.327 32-32 0-16.2-12.039-29.589-27.658-31.708l-4.342-0.292h-768c-17.673 0-32 14.327-32 32 0 16.2 12.039 29.589 27.658 31.708l4.342 0.292h768zM768 693.333c16.2 0 29.589-12.039 31.708-27.658l0.292-4.342v-53.307l53.333-0.026c39.164 0 71.303-30.181 74.419-68.544l0.248-6.122v-341.333c0-62.378-48.735-113.424-110.188-117.119l-7.145-0.214h-597.333c-62.378 0-113.424 48.735-117.119 110.188l-0.214 7.145v341.333c0 39.164 30.181 71.303 68.544 74.419l6.122 0.248 53.333 0.026v53.307c0 17.673 14.327 32 32 32 16.2 0 29.589-12.039 31.708-27.658l0.292-4.342v-53.307h192v53.307c0 17.673 14.327 32 32 32 16.2 0 29.589-12.039 31.708-27.658l0.292-4.342v-53.307h192v53.307c0 17.673 14.327 32 32 32zM848.075 311.618l-2.279-1.744-25.003-25.003c-27.463-27.463-70.912-29.078-100.256-4.846l-5.329 4.846-25.003 25.003c-3.488 3.488-8.725 4.070-12.796 1.744l-2.279-1.744-25.003-25.003c-27.463-27.463-70.912-29.078-100.256-4.846l-5.329 4.846-25.003 25.003c-3.488 3.488-8.725 4.070-12.796 1.744l-2.279-1.744-25.003-25.003c-27.463-27.463-70.912-29.078-100.256-4.846l-5.329 4.846-25.003 25.003c-3.488 3.488-8.725 4.070-12.796 1.744l-2.279-1.744-25.003-25.003c-27.463-27.463-70.912-29.078-100.256-4.846l-5.329 4.846-25.003 25.003c-4.186 4.186-10.89 4.186-15.076 0l-3.129-2.648v-115.226c0-27.591 21.008-50.324 47.884-53.058l5.449-0.276h597.333c27.591 0 50.324 21.008 53.058 47.884l0.276 5.449 0.015 115.112c-1.092 0.841-2.143 1.761-3.144 2.762-3.488 3.488-8.725 4.070-12.796 1.744zM853.333 544h-682.667c-5.039 0-9.276-3.518-10.384-8.225l-0.282-2.442 0.021-157.079c20.245 2.904 41.45-2.522 58.109-16.279l5.329-4.846 25.003-25.003c3.488-3.488 8.725-4.070 12.796-1.744l2.279 1.744 25.003 25.003c27.463 27.463 70.912 29.078 100.256 4.846l5.329-4.846 25.003-25.003c3.488-3.488 8.725-4.070 12.796-1.744l2.279 1.744 25.003 25.003c27.463 27.463 70.912 29.078 100.256 4.846l5.329-4.846 25.003-25.003c3.488-3.488 8.725-4.070 12.796-1.744l2.279 1.744 25.003 25.003c27.463 27.463 70.912 29.078 100.256 4.846l5.329-4.846 25.003-25.003c3.488-3.488 8.725-4.070 12.796-1.744l2.279 1.744 25.003 25.003c17.318 17.318 40.994 24.358 63.481 21.119l-0.021 157.086c0 5.879-4.788 10.667-10.667 10.667zM516.77 873.541c6.275-3.138 15.185-9.077 24.106-17.998 15.181-15.181 24.458-33.734 24.458-55.542 0-25.322-17.757-46.815-42.37-52.139l-5.375-0.889-5.589-0.305c-29.443 0-53.333 23.89-53.333 53.333 0 21.808 9.277 40.361 24.458 55.542 7.137 7.137 14.266 12.365 20.045 15.778l4.060 2.22h9.541zM260.77 873.541c6.275-3.138 15.185-9.077 24.106-17.998 15.181-15.181 24.458-33.734 24.458-55.542 0-25.322-17.757-46.815-42.37-52.139l-5.375-0.889-5.589-0.305c-29.443 0-53.333 23.89-53.333 53.333 0 21.808 9.277 40.361 24.458 55.542 7.137 7.137 14.266 12.365 20.045 15.778l4.060 2.22h9.541zM772.77 873.541c6.275-3.138 15.185-9.077 24.106-17.998 15.181-15.181 24.458-33.734 24.458-55.542 0-25.322-17.757-46.815-42.37-52.139l-5.375-0.889-5.589-0.305c-29.443 0-53.333 23.89-53.333 53.333 0 21.808 9.277 40.361 24.458 55.542 7.137 7.137 14.266 12.365 20.045 15.778l4.060 2.22h9.541z" />
<glyph unicode="&#xe941;" glyph-name="editing_calendar_reload" d="M696.896 394.675c68.333 0 130.102-34.102 167.082-87.878l0.022 55.869c0 16.2 12.039 29.589 27.658 31.708l4.342 0.292c16.2 0 29.589-12.039 31.708-27.658l0.292-4.342v-128c0-16.2-12.039-29.589-27.658-31.708l-4.342-0.292h-113.749c-17.673 0-32 14.327-32 32 0 16.2 12.039 29.589 27.658 31.708l4.342 0.292 31.56-0.007c-24.946 39.027-68.526 64.015-116.914 64.015-76.578 0-138.667-62.089-138.667-138.667s62.089-138.667 138.667-138.667c38.494 0 74.348 15.683 100.411 42.998 12.2 12.786 32.456 13.261 45.242 1.061s13.261-32.456 1.061-45.242c-38.016-39.841-90.539-62.816-146.714-62.816-111.924 0-202.667 90.743-202.667 202.667s90.743 202.667 202.667 202.667zM682.667 864c16.2 0 29.589-12.039 31.708-27.658l0.292-4.342v-53.333h138.667c39.164 0 71.303-30.181 74.419-68.544l0.248-6.122v-256h-64v96h-704v-405.333h266.667v-64h-330.667v629.333c0 39.164 30.181 71.303 68.544 74.419l6.122 0.248h138.667v53.333c0 17.673 14.327 32 32 32 16.2 0 29.589-12.039 31.708-27.658l0.292-4.342v-53.333h277.333v53.333c0 17.673 14.327 32 32 32zM256 320c23.552 0 42.667-19.115 42.667-42.667s-19.115-42.667-42.667-42.667c-23.552 0-42.667 19.115-42.667 42.667s19.115 42.667 42.667 42.667zM384 320c23.552 0 42.667-19.115 42.667-42.667s-19.115-42.667-42.667-42.667c-23.552 0-42.667 19.115-42.667 42.667s19.115 42.667 42.667 42.667zM256 448c23.552 0 42.667-19.115 42.667-42.667s-19.115-42.667-42.667-42.667c-23.552 0-42.667 19.115-42.667 42.667s19.115 42.667 42.667 42.667zM384 448c23.552 0 42.667-19.115 42.667-42.667s-19.115-42.667-42.667-42.667c-23.552 0-42.667 19.115-42.667 42.667s19.115 42.667 42.667 42.667zM512 448c23.552 0 42.667-19.115 42.667-42.667s-19.115-42.667-42.667-42.667c-23.552 0-42.667 19.115-42.667 42.667s19.115 42.667 42.667 42.667zM853.333 714.667h-682.667c-5.039 0-9.276-3.518-10.384-8.225l-0.282-2.442v-96h704v96c0 5.039-3.518 9.276-8.225 10.384l-2.442 0.282z" />
<glyph unicode="&#xe942;" glyph-name="editing_calendar" d="M682.667 864c16.2 0 29.589-12.039 31.708-27.658l0.292-4.342v-53.333h138.667c39.164 0 71.303-30.181 74.419-68.544l0.248-6.122v-629.333h-832v629.333c0 39.164 30.181 71.303 68.544 74.419l6.122 0.248h138.667v53.333c0 17.673 14.327 32 32 32 16.2 0 29.589-12.039 31.708-27.658l0.292-4.342v-53.333h277.333v53.333c0 17.673 14.327 32 32 32zM864 544h-704v-405.333h704v405.333zM256 320c23.552 0 42.667-19.115 42.667-42.667s-19.115-42.667-42.667-42.667c-23.552 0-42.667 19.115-42.667 42.667s19.115 42.667 42.667 42.667zM384 320c23.552 0 42.667-19.115 42.667-42.667s-19.115-42.667-42.667-42.667c-23.552 0-42.667 19.115-42.667 42.667s19.115 42.667 42.667 42.667zM512 320c23.552 0 42.667-19.115 42.667-42.667s-19.115-42.667-42.667-42.667c-23.552 0-42.667 19.115-42.667 42.667s19.115 42.667 42.667 42.667zM768 320c23.552 0 42.667-19.115 42.667-42.667s-19.115-42.667-42.667-42.667c-23.552 0-42.667 19.115-42.667 42.667s19.115 42.667 42.667 42.667zM640 320c23.552 0 42.667-19.115 42.667-42.667s-19.115-42.667-42.667-42.667c-23.552 0-42.667 19.115-42.667 42.667s19.115 42.667 42.667 42.667zM256 448c23.552 0 42.667-19.115 42.667-42.667s-19.115-42.667-42.667-42.667c-23.552 0-42.667 19.115-42.667 42.667s19.115 42.667 42.667 42.667zM384 448c23.552 0 42.667-19.115 42.667-42.667s-19.115-42.667-42.667-42.667c-23.552 0-42.667 19.115-42.667 42.667s19.115 42.667 42.667 42.667zM512 448c23.552 0 42.667-19.115 42.667-42.667s-19.115-42.667-42.667-42.667c-23.552 0-42.667 19.115-42.667 42.667s19.115 42.667 42.667 42.667zM768 448c23.552 0 42.667-19.115 42.667-42.667s-19.115-42.667-42.667-42.667c-23.552 0-42.667 19.115-42.667 42.667s19.115 42.667 42.667 42.667zM640 448c23.552 0 42.667-19.115 42.667-42.667s-19.115-42.667-42.667-42.667c-23.552 0-42.667 19.115-42.667 42.667s19.115 42.667 42.667 42.667zM853.333 714.667h-682.667c-5.039 0-9.276-3.518-10.384-8.225l-0.282-2.442v-96h704v96c0 5.039-3.518 9.276-8.225 10.384l-2.442 0.282z" />
<glyph unicode="&#xe943;" glyph-name="editing_certification" d="M512 906.662c170.846 0 309.333-138.487 309.333-309.333 0-84.215-34.003-163.111-92.162-220.236l-8.904-8.403-5.601-4.871v-299.823c0-23.267-23.438-37.723-43.444-29.934l-3.948 1.858-3.808 2.476-151.467 113.583-151.467-113.583c-18.614-13.96-44.241-3.884-50.014 16.795l-0.882 4.273-0.305 4.532v299.823l-5.601 4.871c-57.493 52.135-93.652 124.64-100.046 203.432l-0.789 13.188-0.231 12.020c0 170.846 138.487 309.333 309.333 309.333zM512 842.662c-135.5 0-245.333-109.833-245.333-245.333 0-76.522 35.346-147.417 94.29-193.176 6.507-5.051 10.764-12.373 12.002-20.393l0.375-4.884v-250.876l119.467 89.596c8.849 6.637 20.28 8.112 30.276 4.425l4.185-1.896 3.939-2.528 119.467-89.596v250.876c0 6.59 2.030 12.934 5.698 18.226l3.051 3.76 3.628 3.291c58.944 45.759 94.29 116.654 94.29 193.176 0 135.5-109.833 245.333-245.333 245.333zM619.961 683.961c11.361-11.361 12.393-29.138 3.098-41.666l-3.098-3.589-128-128c-11.361-11.361-29.138-12.393-41.666-3.098l-3.589 3.098-64 64c-12.497 12.497-12.497 32.758 0 45.255 11.361 11.361 29.138 12.393 41.666 3.098l3.589-3.098 41.373-41.358 105.373 105.358c12.497 12.497 32.758 12.497 45.255 0z" />
<glyph unicode="&#xe944;" glyph-name="editing_cloud" d="M682.667 266.667c16.2 0 29.589-12.039 31.708-27.658l0.292-4.342v-136.491l30.526 30.936c11.27 11.451 29.038 12.626 41.64 3.431l3.614-3.070c11.451-11.27 12.626-29.038 3.431-41.64l-3.070-3.614-107.331-109.061-108.782 108.89c-12.491 12.503-12.481 32.764 0.022 45.255 11.366 11.355 29.145 12.379 41.667 3.078l3.588-3.1 30.695-30.723v136.107c0 17.673 14.327 32 32 32zM554.667 949.333c6.79 0 13.357-2.158 18.784-6.093l3.843-3.279 170.667-170.667c4.801-4.801 7.919-10.97 8.974-17.591l0.399-5.036v-128c0-17.673-14.327-32-32-32-16.2 0-29.589 12.039-31.708 27.658l-0.292 4.342-0.043 114.773-151.893 151.893h-458.539c-5.038 0-9.284-3.539-10.388-8.253l-0.279-2.444 2.347-767.982c0.018-5.051 3.529-9.271 8.229-10.374l2.438-0.281h256.128c17.673 0 32-14.327 32-32 0-16.2-12.039-29.589-27.658-31.708l-4.342-0.292h-256.128c-39.081 0-71.16 30.041-74.398 68.33l-0.268 6.111-2.347 768.040c-0.071 39.224 30.113 71.477 68.535 74.604l6.132 0.249h471.808zM575.996 565.342c89.88 0 168.237-58.129 203.594-143.21l0.912-2.335 6.943 3.328c17.467 7.919 36.406 12.707 56.023 13.914l9.861 0.303c88.5 0 160-71.5 160-160 0-71.781-47.428-134.046-115.301-153.702-16.976-4.916-34.722 4.86-39.638 21.836s4.86 34.722 21.836 39.638c40.669 11.778 69.104 49.108 69.104 92.228 0 53.154-42.846 96-96 96-25.754 0-49.927-10.276-67.826-28.174-18.046-18.046-48.92-8.742-53.99 16.27-16.57 81.746-81.342 139.904-155.518 139.904-87.676 0-160-80.435-160-181.333 0-58.903 24.906-112.779 65.917-146.688 13.62-11.262 15.532-31.433 4.271-45.053s-31.433-15.532-45.053-4.271c-55.842 46.172-89.134 118.189-89.134 196.011 0 134.818 99.372 245.333 224 245.333z" />
<glyph unicode="&#xe945;" glyph-name="editing_contract" d="M682.667 864c39.164 0 71.303-30.181 74.419-68.544l0.248-6.122v-42.667c0-17.673-14.327-32-32-32-16.2 0-29.589 12.039-31.708 27.658l-0.292 4.342v42.667c0 5.039-3.518 9.276-8.225 10.384l-2.442 0.282h-597.333c-5.039 0-9.276-3.518-10.384-8.225l-0.282-2.442v-768c0-5.039 3.518-9.276 8.225-10.384l2.442-0.282h597.333c5.039 0 9.276 3.518 10.384 8.225l0.282 2.442v256c0 17.673 14.327 32 32 32 16.2 0 29.589-12.039 31.708-27.658l0.292-4.342v-256c0-39.164-30.181-71.303-68.544-74.419l-6.122-0.248h-597.333c-39.164 0-71.303 30.181-74.419 68.544l-0.248 6.122v768c0 39.164 30.181 71.303 68.544 74.419l6.122 0.248h597.333zM341.333 352c28.253 0 43.811-20.41 44.715-45.983l0.001-7.813-0.75-8.183-0.564-3.882-1.667-9.604-4.838-25.795-2.167-13.682c-0.16-1.175-0.29-2.244-0.39-3.217l-0.21-4.759c0.162-3.131 1.2-4.333 3.366-4.795l3.156-0.274 2.014-0.013c11.169 0 25.691 5.809 40.916 15.959 10.016 6.677 17.827 13.373 21.79 17.335 12.497 12.497 32.758 12.497 45.255 0 15.047-15.047 30.743-24.464 46.159-29.603 2.841-0.947 5.396-1.673 7.617-2.22l5.613-1.146 3.317-0.326c17.673 0 32-14.327 32-32s-14.327-32-32-32c-23.338 0-53.685 8.56-84.686 31.78l-1.117 0.903-1.72-1.327-6.727-4.648c-24.775-16.517-50.253-26.708-76.417-26.708-60.371 0-77.571 38.259-69.933 94.435l1.783 11.156 3.297 17.545c-14.702-6.589-28.876-19.418-42.222-37.754l-4.965-7.133c-8.24-12.359-15.406-25.797-21.384-39.246l-5.041-12.069-1.843-5.054c-5.589-16.766-23.711-25.827-40.477-20.239s-25.827 23.711-20.239 40.477c6.155 18.465 17.889 44.866 35.732 71.631 31.992 47.988 72.341 78.25 122.626 78.25zM870.251 730.044c26.112 26.112 68.523 26.112 94.677-0.043 24.48-24.48 26.010-63.247 4.59-89.584l-4.59-5.094-294.592-294.417-103.68-20.693-2.52-0.184-2.77 0.562c-1.264 0.508-2.099 1.007-2.845 1.614-2.033 1.648-3.41 4.091-3.64 6.833l0.17 2.824 20.693 103.637 294.507 294.545z" />
<glyph unicode="&#xe946;" glyph-name="editing_display_framed_grid_big" d="M938.667 906.667c16.2 0 29.589-12.039 31.708-27.658l0.292-4.342v-853.333c0-16.2-12.039-29.589-27.658-31.708l-4.342-0.292h-853.333c-16.2 0-29.589 12.039-31.708 27.658l-0.292 4.342v853.333c0 16.2 12.039 29.589 27.658 31.708l4.342 0.292h853.333zM906.667 842.667h-789.333v-789.333h789.333v789.333zM426.667 394.667c16.2 0 29.589-12.039 31.708-27.658l0.292-4.342v-170.667c0-16.2-12.039-29.589-27.658-31.708l-4.342-0.292h-170.667c-16.2 0-29.589 12.039-31.708 27.658l-0.292 4.342v170.667c0 16.2 12.039 29.589 27.658 31.708l4.342 0.292h170.667zM768 394.667c16.2 0 29.589-12.039 31.708-27.658l0.292-4.342v-170.667c0-16.2-12.039-29.589-27.658-31.708l-4.342-0.292h-170.667c-16.2 0-29.589 12.039-31.708 27.658l-0.292 4.342v170.667c0 16.2 12.039 29.589 27.658 31.708l4.342 0.292h170.667zM394.667 330.667h-106.667v-106.667h106.667v106.667zM736 330.667h-106.667v-106.667h106.667v106.667zM426.667 736c16.2 0 29.589-12.039 31.708-27.658l0.292-4.342v-170.667c0-16.2-12.039-29.589-27.658-31.708l-4.342-0.292h-170.667c-16.2 0-29.589 12.039-31.708 27.658l-0.292 4.342v170.667c0 16.2 12.039 29.589 27.658 31.708l4.342 0.292h170.667zM768 736c16.2 0 29.589-12.039 31.708-27.658l0.292-4.342v-170.667c0-16.2-12.039-29.589-27.658-31.708l-4.342-0.292h-170.667c-16.2 0-29.589 12.039-31.708 27.658l-0.292 4.342v170.667c0 16.2 12.039 29.589 27.658 31.708l4.342 0.292h170.667zM394.667 672h-106.667v-106.667h106.667v106.667zM736 672h-106.667v-106.667h106.667v106.667z" />
<glyph unicode="&#xe947;" glyph-name="editing_display_framed_grid_small" d="M938.667 906.667c16.2 0 29.589-12.039 31.708-27.658l0.292-4.342v-853.333c0-16.2-12.039-29.589-27.658-31.708l-4.342-0.292h-853.333c-16.2 0-29.589 12.039-31.708 27.658l-0.292 4.342v853.333c0 16.2 12.039 29.589 27.658 31.708l4.342 0.292h853.333zM906.667 842.667h-789.333v-789.333h789.333v789.333zM341.333 309.333c16.2 0 29.589-12.039 31.708-27.658l0.292-4.342v-85.333c0-16.2-12.039-29.589-27.658-31.708l-4.342-0.292h-85.333c-16.2 0-29.589 12.039-31.708 27.658l-0.292 4.342v85.333c0 16.2 12.039 29.589 27.658 31.708l4.342 0.292h85.333zM554.667 309.333c16.2 0 29.589-12.039 31.708-27.658l0.292-4.342v-85.333c0-16.2-12.039-29.589-27.658-31.708l-4.342-0.292h-85.333c-16.2 0-29.589 12.039-31.708 27.658l-0.292 4.342v85.333c0 16.2 12.039 29.589 27.658 31.708l4.342 0.292h85.333zM768 309.333c16.2 0 29.589-12.039 31.708-27.658l0.292-4.342v-85.333c0-16.2-12.039-29.589-27.658-31.708l-4.342-0.292h-85.333c-16.2 0-29.589 12.039-31.708 27.658l-0.292 4.342v85.333c0 16.2 12.039 29.589 27.658 31.708l4.342 0.292h85.333zM309.333 245.333h-21.333v-21.333h21.333v21.333zM522.667 245.333h-21.333v-21.333h21.333v21.333zM736 245.333h-21.333v-21.333h21.333v21.333zM341.333 522.667c16.2 0 29.589-12.039 31.708-27.658l0.292-4.342v-85.333c0-16.2-12.039-29.589-27.658-31.708l-4.342-0.292h-85.333c-16.2 0-29.589 12.039-31.708 27.658l-0.292 4.342v85.333c0 16.2 12.039 29.589 27.658 31.708l4.342 0.292h85.333zM554.667 522.667c16.2 0 29.589-12.039 31.708-27.658l0.292-4.342v-85.333c0-16.2-12.039-29.589-27.658-31.708l-4.342-0.292h-85.333c-16.2 0-29.589 12.039-31.708 27.658l-0.292 4.342v85.333c0 16.2 12.039 29.589 27.658 31.708l4.342 0.292h85.333zM768 522.667c16.2 0 29.589-12.039 31.708-27.658l0.292-4.342v-85.333c0-16.2-12.039-29.589-27.658-31.708l-4.342-0.292h-85.333c-16.2 0-29.589 12.039-31.708 27.658l-0.292 4.342v85.333c0 16.2 12.039 29.589 27.658 31.708l4.342 0.292h85.333zM309.333 458.667h-21.333v-21.333h21.333v21.333zM522.667 458.667h-21.333v-21.333h21.333v21.333zM736 458.667h-21.333v-21.333h21.333v21.333zM341.333 736c16.2 0 29.589-12.039 31.708-27.658l0.292-4.342v-85.333c0-16.2-12.039-29.589-27.658-31.708l-4.342-0.292h-85.333c-16.2 0-29.589 12.039-31.708 27.658l-0.292 4.342v85.333c0 16.2 12.039 29.589 27.658 31.708l4.342 0.292h85.333zM554.667 736c16.2 0 29.589-12.039 31.708-27.658l0.292-4.342v-85.333c0-16.2-12.039-29.589-27.658-31.708l-4.342-0.292h-85.333c-16.2 0-29.589 12.039-31.708 27.658l-0.292 4.342v85.333c0 16.2 12.039 29.589 27.658 31.708l4.342 0.292h85.333zM768 736c16.2 0 29.589-12.039 31.708-27.658l0.292-4.342v-85.333c0-16.2-12.039-29.589-27.658-31.708l-4.342-0.292h-85.333c-16.2 0-29.589 12.039-31.708 27.658l-0.292 4.342v85.333c0 16.2 12.039 29.589 27.658 31.708l4.342 0.292h85.333zM309.333 672h-21.333v-21.333h21.333v21.333zM522.667 672h-21.333v-21.333h21.333v21.333zM736 672h-21.333v-21.333h21.333v21.333z" />
<glyph unicode="&#xe948;" glyph-name="editing_display_framed_list" d="M938.667 906.667c16.2 0 29.589-12.039 31.708-27.658l0.292-4.342v-853.333c0-16.2-12.039-29.589-27.658-31.708l-4.342-0.292h-853.333c-16.2 0-29.589 12.039-31.708 27.658l-0.292 4.342v853.333c0 16.2 12.039 29.589 27.658 31.708l4.342 0.292h853.333zM906.667 842.667h-789.333v-789.333h789.333v789.333zM768 288c16.2 0 29.589-12.039 31.708-27.658l0.292-4.342v-42.667c0-16.2-12.039-29.589-27.658-31.708l-4.342-0.292h-512c-16.2 0-29.589 12.039-31.708 27.658l-0.292 4.342v42.667c0 16.2 12.039 29.589 27.658 31.708l4.342 0.292h512zM768 501.333c16.2 0 29.589-12.039 31.708-27.658l0.292-4.342v-42.667c0-16.2-12.039-29.589-27.658-31.708l-4.342-0.292h-512c-16.2 0-29.589 12.039-31.708 27.658l-0.292 4.342v42.667c0 16.2 12.039 29.589 27.658 31.708l4.342 0.292h512zM768 714.667c16.2 0 29.589-12.039 31.708-27.658l0.292-4.342v-42.667c0-16.2-12.039-29.589-27.658-31.708l-4.342-0.292h-512c-16.2 0-29.589 12.039-31.708 27.658l-0.292 4.342v42.667c0 16.2 12.039 29.589 27.658 31.708l4.342 0.292h512z" />
<glyph unicode="&#xe949;" glyph-name="editing_display_grid_big" d="M426.667 394.667c16.2 0 29.589-12.039 31.708-27.658l0.292-4.342v-298.667c0-16.2-12.039-29.589-27.658-31.708l-4.342-0.292h-298.667c-16.2 0-29.589 12.039-31.708 27.658l-0.292 4.342v298.667c0 16.2 12.039 29.589 27.658 31.708l4.342 0.292h298.667zM896 394.667c16.2 0 29.589-12.039 31.708-27.658l0.292-4.342v-298.667c0-16.2-12.039-29.589-27.658-31.708l-4.342-0.292h-298.667c-16.2 0-29.589 12.039-31.708 27.658l-0.292 4.342v298.667c0 16.2 12.039 29.589 27.658 31.708l4.342 0.292h298.667zM394.667 330.667h-234.667v-234.667h234.667v234.667zM864 330.667h-234.667v-234.667h234.667v234.667zM426.667 864c16.2 0 29.589-12.039 31.708-27.658l0.292-4.342v-298.667c0-16.2-12.039-29.589-27.658-31.708l-4.342-0.292h-298.667c-16.2 0-29.589 12.039-31.708 27.658l-0.292 4.342v298.667c0 16.2 12.039 29.589 27.658 31.708l4.342 0.292h298.667zM896 864c16.2 0 29.589-12.039 31.708-27.658l0.292-4.342v-298.667c0-16.2-12.039-29.589-27.658-31.708l-4.342-0.292h-298.667c-16.2 0-29.589 12.039-31.708 27.658l-0.292 4.342v298.667c0 16.2 12.039 29.589 27.658 31.708l4.342 0.292h298.667zM394.667 800h-234.667v-234.667h234.667v234.667zM864 800h-234.667v-234.667h234.667v234.667z" />
<glyph unicode="&#xe94a;" glyph-name="editing_display_grid_small" d="M298.667 266.667c16.2 0 29.589-12.039 31.708-27.658l0.292-4.342v-170.667c0-16.2-12.039-29.589-27.658-31.708l-4.342-0.292h-170.667c-16.2 0-29.589 12.039-31.708 27.658l-0.292 4.342v170.667c0 16.2 12.039 29.589 27.658 31.708l4.342 0.292h170.667zM597.333 266.667c16.2 0 29.589-12.039 31.708-27.658l0.292-4.342v-170.667c0-16.2-12.039-29.589-27.658-31.708l-4.342-0.292h-170.667c-16.2 0-29.589 12.039-31.708 27.658l-0.292 4.342v170.667c0 16.2 12.039 29.589 27.658 31.708l4.342 0.292h170.667zM896 266.667c16.2 0 29.589-12.039 31.708-27.658l0.292-4.342v-170.667c0-16.2-12.039-29.589-27.658-31.708l-4.342-0.292h-170.667c-16.2 0-29.589 12.039-31.708 27.658l-0.292 4.342v170.667c0 16.2 12.039 29.589 27.658 31.708l4.342 0.292h170.667zM266.667 202.667h-106.667v-106.667h106.667v106.667zM565.333 202.667h-106.667v-106.667h106.667v106.667zM864 202.667h-106.667v-106.667h106.667v106.667zM298.667 565.333c16.2 0 29.589-12.039 31.708-27.658l0.292-4.342v-170.667c0-16.2-12.039-29.589-27.658-31.708l-4.342-0.292h-170.667c-16.2 0-29.589 12.039-31.708 27.658l-0.292 4.342v170.667c0 16.2 12.039 29.589 27.658 31.708l4.342 0.292h170.667zM597.333 565.333c16.2 0 29.589-12.039 31.708-27.658l0.292-4.342v-170.667c0-16.2-12.039-29.589-27.658-31.708l-4.342-0.292h-170.667c-16.2 0-29.589 12.039-31.708 27.658l-0.292 4.342v170.667c0 16.2 12.039 29.589 27.658 31.708l4.342 0.292h170.667zM896 565.333c16.2 0 29.589-12.039 31.708-27.658l0.292-4.342v-170.667c0-16.2-12.039-29.589-27.658-31.708l-4.342-0.292h-170.667c-16.2 0-29.589 12.039-31.708 27.658l-0.292 4.342v170.667c0 16.2 12.039 29.589 27.658 31.708l4.342 0.292h170.667zM266.667 501.333h-106.667v-106.667h106.667v106.667zM565.333 501.333h-106.667v-106.667h106.667v106.667zM864 501.333h-106.667v-106.667h106.667v106.667zM298.667 864c16.2 0 29.589-12.039 31.708-27.658l0.292-4.342v-170.667c0-16.2-12.039-29.589-27.658-31.708l-4.342-0.292h-170.667c-16.2 0-29.589 12.039-31.708 27.658l-0.292 4.342v170.667c0 16.2 12.039 29.589 27.658 31.708l4.342 0.292h170.667zM597.333 864c16.2 0 29.589-12.039 31.708-27.658l0.292-4.342v-170.667c0-16.2-12.039-29.589-27.658-31.708l-4.342-0.292h-170.667c-16.2 0-29.589 12.039-31.708 27.658l-0.292 4.342v170.667c0 16.2 12.039 29.589 27.658 31.708l4.342 0.292h170.667zM896 864c16.2 0 29.589-12.039 31.708-27.658l0.292-4.342v-170.667c0-16.2-12.039-29.589-27.658-31.708l-4.342-0.292h-170.667c-16.2 0-29.589 12.039-31.708 27.658l-0.292 4.342v170.667c0 16.2 12.039 29.589 27.658 31.708l4.342 0.292h170.667zM266.667 800h-106.667v-106.667h106.667v106.667zM565.333 800h-106.667v-106.667h106.667v106.667zM864 800h-106.667v-106.667h106.667v106.667z" />
<glyph unicode="&#xe94b;" glyph-name="editing_display_list" d="M842.667 234.667c23.558 0 42.667-19.109 42.667-42.667 0-21.875-16.476-39.914-37.692-42.38l-4.975-0.287h-426.667c-23.558 0-42.667 19.109-42.667 42.667 0 21.875 16.476 39.914 37.692 42.38l4.975 0.287h426.667zM181.333 234.667c23.558 0 42.667-19.109 42.667-42.667 0-19.113-12.655-35.588-31.965-41.094l-4.963-1.143-5.739-0.429c-23.558 0-42.667 19.109-42.667 42.667s19.109 42.667 42.667 42.667zM842.667 490.667c23.558 0 42.667-19.109 42.667-42.667 0-21.875-16.476-39.914-37.692-42.38l-4.975-0.287h-426.667c-23.558 0-42.667 19.109-42.667 42.667 0 21.875 16.476 39.914 37.692 42.38l4.975 0.287h426.667zM181.333 490.667c23.558 0 42.667-19.109 42.667-42.667 0-19.113-12.655-35.588-31.965-41.094l-4.963-1.143-5.739-0.429c-23.558 0-42.667 19.109-42.667 42.667s19.109 42.667 42.667 42.667zM842.667 746.667c23.558 0 42.667-19.109 42.667-42.667 0-21.875-16.476-39.914-37.692-42.38l-4.975-0.287h-426.667c-23.558 0-42.667 19.109-42.667 42.667 0 21.875 16.476 39.914 37.692 42.38l4.975 0.287h426.667zM181.333 746.667c23.558 0 42.667-19.109 42.667-42.667 0-19.113-12.655-35.588-31.965-41.094l-4.963-1.143-5.739-0.429c-23.558 0-42.667 19.109-42.667 42.667s19.109 42.667 42.667 42.667z" />
<glyph unicode="&#xe94c;" glyph-name="editing_download" d="M725.333 522.667c159.028 0 288-128.972 288-288s-128.972-288-288-288c-159.028 0-288 128.972-288 288s128.972 288 288 288zM725.333 458.667c-123.682 0-224-100.318-224-224s100.318-224 224-224c123.682 0 224 100.318 224 224s-100.318 224-224 224zM554.667 949.333c6.79 0 13.357-2.158 18.784-6.093l3.843-3.279 170.667-170.667c4.801-4.801 7.919-10.97 8.974-17.591l0.399-5.036v-128c0-17.673-14.327-32-32-32-16.2 0-29.589 12.039-31.708 27.658l-0.292 4.342-0.043 114.773-151.893 151.893h-458.539c-5.038 0-9.284-3.539-10.388-8.253l-0.279-2.444 2.347-767.982c0.018-5.051 3.529-9.271 8.229-10.374l2.438-0.281h256.128c17.673 0 32-14.327 32-32 0-16.2-12.039-29.589-27.658-31.708l-4.342-0.292h-256.128c-39.081 0-71.16 30.041-74.398 68.33l-0.268 6.111-2.347 768.040c-0.071 39.224 30.113 71.477 68.535 74.604l6.132 0.249h471.808zM725.333 394.667c16.2 0 29.589-12.039 31.708-27.658l0.292-4.342v-178.688l30.706 30.649c11.361 11.361 29.138 12.393 41.666 3.098l3.589-3.098c11.361-11.361 12.393-29.138 3.098-41.666l-3.098-3.589-85.333-85.333c-1.495-1.495-3.101-2.811-4.792-3.949l-4.106-2.339-4.421-1.708c-2.922-0.893-6.058-1.377-9.308-1.377l-2.434 0.091-3.876 0.534-1.579 0.355-4.517 1.514-2.939 1.416-3.693 2.364c-1.417 1.072-2.539 2.049-3.589 3.098l-85.333 85.333c-12.497 12.497-12.497 32.758 0 45.255 11.361 11.361 29.138 12.393 41.666 3.098l3.589-3.098 30.706-30.691v178.731c0 17.673 14.327 32 32 32z" />
<glyph unicode="&#xe94d;" glyph-name="editing_dragndrop_table" d="M768 352c17.673 0 32-14.327 32-32 0-16.2-12.039-29.589-27.658-31.708l-4.342-0.292h-512c-17.673 0-32 14.327-32 32 0 16.2 12.039 29.589 27.658 31.708l4.342 0.292h512zM768 608c17.673 0 32-14.327 32-32 0-16.2-12.039-29.589-27.658-31.708l-4.342-0.292h-512c-17.673 0-32 14.327-32 32 0 16.2 12.039 29.589 27.658 31.708l4.342 0.292h512z" />
<glyph unicode="&#xe94e;" glyph-name="editing_draw" d="M170.667 277.333c42.667 42.667 128 42.667 170.667 0s42.667-128 0-170.667c-41.573-41.573-103.399-62.892-155.877-73.825l-16.227-3.119c-2.641-0.466-5.248-0.906-7.816-1.322l-14.906-2.212-13.767-1.695-12.42-1.246-19.973-1.421-15.014-0.493 0.208 8.654 0.715 13.619 0.927 11.988 1.402 13.97c0.558 4.954 1.211 10.19 1.976 15.658l2.648 17.051 3.418 18.149c10.868 52.698 32.193 115.065 74.039 156.911zM757.874 824.462c27.463 27.463 70.912 29.078 100.256 4.846l5.329-4.846 25.003-25.003c27.463-27.463 29.078-70.912 4.846-100.256l-4.846-5.329-419.129-419.129-130.588 130.588 419.129 419.129zM818.205 779.207c-3.488 3.488-8.725 4.070-12.796 1.744l-2.279-1.744-373.859-373.874 40.064-40.064 373.874 373.859c2.791 2.791 3.721 6.7 2.791 10.237l-1.046 2.559-1.744 2.279-25.003 25.003z" />
<glyph unicode="&#xe94f;" glyph-name="editing_duplicate" d="M128 693.666c16.2 0 29.589-12.039 31.708-27.658l0.292-4.342v-555.392c0-3.155 2.994-6.474 7.752-7.493l3.057-0.316 554.667-2.475c17.673-0.079 31.936-14.47 31.857-32.142-0.073-16.2-12.171-29.535-27.799-31.584l-4.343-0.273-554.524 2.474c-38.603 0-71.077 28.403-74.389 65.541l-0.278 6.267v555.392c0 17.673 14.327 32 32 32zM810.667 821.333c39.164 0 71.303-30.181 74.419-68.544l0.248-6.122v-384c0-6.79-2.158-13.357-6.093-18.784l-3.279-3.843-170.667-170.667c-4.801-4.801-10.97-7.919-17.591-8.974l-5.036-0.399h-384c-39.164 0-71.303 30.181-74.419 68.544l-0.248 6.122v512c0 39.164 30.181 71.303 68.544 74.419l6.122 0.248h512zM810.667 757.333h-512c-5.039 0-9.276-3.518-10.384-8.225l-0.282-2.442v-512c0-5.039 3.518-9.276 8.225-10.384l2.442-0.282h352v96c0 39.164 30.181 71.303 68.544 74.419l6.122 0.248h96v352c0 4.031-2.251 7.549-5.562 9.363l-2.663 1.022-2.442 0.282zM586.667 661.333v-138.667h138.667v-64h-138.667v-138.667h-64v138.667h-138.667v64h138.667v138.667h64z" />
<glyph unicode="&#xe950;" glyph-name="editing_email_sent" d="M341.333 480c9.171 0 17.822-3.929 23.843-10.657l2.782-3.592 75.86-113.75h136.32l75.902 113.75c4.239 6.359 10.548 10.904 17.706 12.982l4.387 0.946 4.532 0.322h213.333c16.2 0 29.589-12.039 31.708-27.658l0.292-4.342v-213.333c0-57.858-53.087-113.089-110.672-117.101l-6.662-0.233h-597.333c-57.858 0-113.089 53.087-117.101 110.672l-0.233 6.662v213.333c0 16.2 12.039 29.589 27.658 31.708l4.342 0.292h213.333zM324.181 416h-164.181v-181.333c0-21.645 21.894-46.245 43.939-52.056l4.718-0.95 4.676-0.327h597.333c23.191 0 49.774 25.133 53.006 48.658l0.327 4.676v181.333h-164.224l-75.817-113.75c-4.239-6.359-10.548-10.904-17.706-12.982l-4.387-0.946-4.532-0.322h-170.667c-9.171 0-17.822 3.929-23.843 10.657l-2.782 3.592-75.86 113.75zM787.038 900.392l3.589-3.098 128-128c11.361-11.361 12.393-29.138 3.098-41.666l-3.098-3.589-128-128c-12.497-12.497-32.758-12.497-45.255 0-11.361 11.361-12.393 29.138-3.098 41.666l3.098 3.589 73.358 73.373h-136.064c-73.937 0-134.367-57.881-138.447-130.798l-0.22-7.868h-64c0 108.815 85.772 197.609 193.39 202.458l9.276 0.209h136.064l-73.358 73.373c-11.361 11.361-12.393 29.138-3.098 41.666l3.098 3.589c11.361 11.361 29.138 12.393 41.666 3.098z" />
<glyph unicode="&#xe951;" glyph-name="editing_eraser" d="M623.463 765.308l5.329-4.846 242.176-242.176c27.817-27.817 29.073-71.989 4.008-101.3l-4.696-5.012-236.894-230.641h262.613c16.2 0 29.589-12.039 31.708-27.658l0.292-4.342c0-16.2-12.039-29.589-27.658-31.708l-4.342-0.292h-597.333c-6.79 0-13.357 2.158-18.784 6.093l-3.843 3.279-140.501 140.501c-27.463 27.463-29.078 70.912-4.846 100.256l4.846 5.329 387.669 387.669c27.463 27.463 70.912 29.078 100.256 4.846zM401.44 548.235l-220.647-220.697c-3.488-3.488-4.070-8.725-1.744-12.796l1.744-2.279 131.143-131.129h229.675l114.891 111.84-255.061 255.061z" />
<glyph unicode="&#xe952;" glyph-name="editing_eye_closed" d="M512 757.333c134.696 0 247.067-51.702 337.61-137.937l10.9-10.652 109.888 39.996c16.609 6.040 34.97-2.529 41.009-19.138 5.536-15.225-1.202-31.922-15.157-39.251l-3.981-1.758-86.064-31.29c8.469-10.711 16.433-21.531 23.902-32.391l10.833-16.31 9.167-14.755 7.506-12.918 3.136-5.707 5.052-9.785 8.198-17.628-6.423-13.532-3.635-7.366c-6.63-12.962-16.25-29.586-28.983-48.658-22.98-34.421-50.571-68.211-83.015-99.411-91.196-87.698-204.374-140.176-339.942-140.176-134.696 0-247.067 51.702-337.61 137.937l-10.9 10.652-109.888-39.996c-16.609-6.040-34.97 2.529-41.009 19.138-5.536 15.225 1.202 31.922 15.157 39.251l3.981 1.758 86.064 31.29c-8.469 10.711-16.433 21.531-23.902 32.391l-10.833 16.31-9.167 14.755-7.506 12.918-3.136 5.707-5.052 9.785-8.11 17.437 6.189 13.41 4.244 8.64 5.865 10.88 7.506 12.918 9.167 14.755c22.012 34.338 48.916 68.628 80.979 100.691 92.283 92.283 208.084 148.039 347.961 148.039zM842.392 534.135l-132.161-48.089c2.905-12.246 4.435-24.97 4.435-38.046 0-101.167-91.621-181.333-202.667-181.333-71.949 0-135.743 33.654-171.746 84.869l-109.497-39.861c77.080-68.749 170.291-109.008 281.242-109.008 117.718 0 215.584 45.378 295.581 122.307 28.91 27.801 53.607 58.048 74.149 88.816 5.615 8.411 10.508 16.218 14.681 23.255l3.933 6.774 2.312 4.224-7.633 13.219-7.963 12.802c-12.954 20.208-27.837 40.437-44.668 60.071zM649.378 463.95l-245.489-89.297c25.27-26.668 64.063-43.986 108.111-43.986 77.46 0 138.667 53.555 138.667 117.333 0 5.399-0.439 10.724-1.288 15.95zM512 693.333c-121.457 0-221.656-48.244-302.706-129.294-23.836-23.836-44.542-49.135-62.156-74.65l-10.198-15.325-7.963-12.802-7.675-13.262 7.675-13.262 7.963-12.802c12.945-20.194 27.815-40.408 44.631-60.028l132.187 48.089c-2.898 12.233-4.425 24.943-4.425 38.003 0 101.167 91.621 181.333 202.667 181.333 71.929 0 135.708-33.635 171.715-84.826l109.524 39.821c-77.079 68.748-170.29 109.005-281.239 109.005zM512 565.333c-77.46 0-138.667-53.555-138.667-117.333 0-5.384 0.436-10.695 1.281-15.907l245.496 89.254c-25.27 26.668-64.063 43.986-108.111 43.986z" />
<glyph unicode="&#xe953;" glyph-name="editing_eye_opened" d="M512 757.333c139.876 0 255.678-55.756 347.961-148.039 27.483-27.483 51.175-56.602 71.245-85.984l9.734-14.707 9.167-14.755 7.506-12.918 3.136-5.707 5.052-9.785 8.198-17.628-6.423-13.532-3.635-7.366c-6.63-12.962-16.25-29.586-28.983-48.658-22.98-34.421-50.571-68.211-83.015-99.411-91.196-87.698-204.374-140.176-339.942-140.176-139.876 0-255.678 55.756-347.961 148.039-27.483 27.483-51.175 56.602-71.245 85.984l-9.734 14.707-9.167 14.755-7.506 12.918-3.136 5.707-5.052 9.785-8.11 17.437 6.189 13.41 4.244 8.64 5.865 10.88 7.506 12.918 9.167 14.755c22.012 34.338 48.916 68.628 80.979 100.691 92.283 92.283 208.084 148.039 347.961 148.039zM512 693.333c-121.457 0-221.656-48.244-302.706-129.294-23.836-23.836-44.542-49.135-62.156-74.65l-10.198-15.325-7.963-12.802-7.675-13.262 7.675-13.262 7.963-12.802c19.655-30.662 43.751-61.372 72.354-89.975 81.050-81.050 181.249-129.294 302.706-129.294 117.718 0 215.584 45.378 295.581 122.307 28.91 27.801 53.607 58.048 74.149 88.816 5.615 8.411 10.508 16.218 14.681 23.255l3.933 6.774 2.312 4.224-7.633 13.219-7.963 12.802c-19.655 30.662-43.751 61.372-72.354 89.975-81.050 81.050-181.249 129.294-302.706 129.294zM512 629.333c111.046 0 202.667-80.166 202.667-181.333s-91.621-181.333-202.667-181.333c-111.046 0-202.667 80.166-202.667 181.333s91.621 181.333 202.667 181.333zM512 565.333c-77.46 0-138.667-53.555-138.667-117.333s61.207-117.333 138.667-117.333c77.46 0 138.667 53.555 138.667 117.333s-61.207 117.333-138.667 117.333z" />
<glyph unicode="&#xe954;" glyph-name="editing_file_draft" d="M769.164 449.294c47.867 47.867 125.387 47.867 173.255 0 45.953-45.953 47.791-119.233 5.514-167.372l-5.514-5.883-298.667-298.667c-3.917-3.917-8.765-6.733-14.057-8.204l-4.045-0.847-149.333-21.333c-19.711-2.816-36.794 12.765-36.534 32.026l0.33 4.178 21.333 149.333c0.783 5.483 2.973 10.645 6.324 14.997l2.727 3.105 298.667 298.667zM897.164 404.039c-21.349 21.349-55.001 22.772-77.99 4.27l-4.755-4.27-291.112-291.058-13.781-96.597 96.512 13.824 291.126 291.086c19.926 19.926 22.494 50.569 7.705 73.257l-3.435 4.733-4.27 4.755zM557.124 949.333c6.79 0 13.357-2.158 18.784-6.093l3.843-3.279 170.667-170.667c4.801-4.801 7.919-10.97 8.974-17.591l0.399-5.036v-213.333c0-17.673-14.327-32-32-32-16.2 0-29.589 12.039-31.708 27.658l-0.292 4.342-0.026 200.107-151.893 151.893h-458.556c-5.038 0-9.284-3.539-10.388-8.253l-0.279-2.444 2.347-767.982c0.018-5.051 3.529-9.271 8.229-10.374l2.438-0.281h256.128c17.673 0 32-14.327 32-32 0-16.2-12.039-29.589-27.658-31.708l-4.342-0.292h-256.128c-39.081 0-71.16 30.041-74.398 68.33l-0.268 6.111-2.347 768.040c-0.071 39.224 30.113 71.477 68.535 74.604l6.132 0.249h471.808zM386.458 288v-64h-170.667v64h170.667zM557.124 458.667v-64h-341.333v64h341.333zM557.124 629.333v-64h-341.333v64h341.333z" />
<glyph unicode="&#xe955;" glyph-name="editing_file_format_doc" d="M683.9 906.667h-471.808c-41.292 0-74.741-33.564-74.667-74.852l2.347-768.040c0.075-41.122 33.509-74.441 74.667-74.441l597.755 2.304c41.13 0.149 74.373 33.53 74.373 74.666v637.696c0 8.487-3.371 16.626-9.373 22.627l-170.667 170.667c-6.001 6.001-14.14 9.373-22.627 9.373zM670.635 842.667l151.893-151.893 0.038-624.469c0-5.888-4.737-10.646-10.612-10.667l-597.639-2.304c-5.757 0-10.533 4.759-10.543 10.597l-2.347 768.040c-0.011 5.88 4.789 10.697 10.667 10.697h458.543z" />
<glyph unicode="&#xe956;" glyph-name="editing_file_format_editor" d="M766.706 449.294c47.867 47.867 125.387 47.867 173.255 0 45.953-45.953 47.791-119.233 5.514-167.372l-5.514-5.883-298.667-298.667c-3.917-3.917-8.765-6.733-14.057-8.204l-4.045-0.847-149.333-21.333c-19.711-2.816-36.794 12.765-36.534 32.026l0.33 4.178 21.333 149.333c0.783 5.483 2.973 10.645 6.324 14.997l2.727 3.105 298.667 298.667zM894.706 404.039c-21.349 21.349-55.001 22.772-77.99 4.27l-4.755-4.27-291.129-291.101-13.781-96.555 96.512 13.824 291.143 291.086c19.926 19.926 22.494 50.569 7.705 73.257l-3.435 4.733-4.27 4.755zM554.667 949.333c6.79 0 13.357-2.158 18.784-6.093l3.843-3.279 170.667-170.667c4.801-4.801 7.919-10.97 8.974-17.591l0.399-5.036v-213.333c0-17.673-14.327-32-32-32-16.2 0-29.589 12.039-31.708 27.658l-0.292 4.342-0.043 200.107-151.893 151.893h-458.539c-5.038 0-9.284-3.539-10.388-8.253l-0.279-2.444 2.347-767.982c0.018-5.051 3.529-9.271 8.229-10.374l2.438-0.281h256.128c17.673 0 32-14.327 32-32 0-16.2-12.039-29.589-27.658-31.708l-4.342-0.292h-256.128c-39.081 0-71.16 30.041-74.398 68.33l-0.268 6.111-2.347 768.040c-0.071 39.224 30.113 71.477 68.535 74.604l6.132 0.249h471.808z" />
<glyph unicode="&#xe957;" glyph-name="editing_file_format_fav" d="M752.875 421.672l2.165-4.455 60.234-150.551h123.397c28.852 0 42.287-34.608 23.103-54.18l-3.303-2.958-91.698-72.184 58.931-146.754c10.516-26.19-15.327-51.419-40.57-42.042l-3.777 1.67-156.024 80.374-156.007-80.374c-25.090-12.922-52.628 10.445-45.656 36.455l1.309 3.917 58.871 146.711-91.659 72.227c-22.666 17.852-11.806 53.353 15.375 56.858l4.425 0.28h123.358l60.269 150.551c10.097 25.243 44.322 26.728 57.258 4.455zM554.667 949.333c6.79 0 13.357-2.158 18.784-6.093l3.843-3.279 170.667-170.667c4.801-4.801 7.919-10.97 8.974-17.591l0.399-5.036v-213.333c0-17.673-14.327-32-32-32-16.2 0-29.589 12.039-31.708 27.658l-0.292 4.342-0.043 200.107-151.893 151.893h-458.539c-5.038 0-9.284-3.539-10.388-8.253l-0.279-2.444 2.347-767.982c0.018-5.051 3.529-9.271 8.229-10.374l2.438-0.281h256.128c17.673 0 32-14.327 32-32 0-16.2-12.039-29.589-27.658-31.708l-4.342-0.292h-256.128c-39.081 0-71.16 30.041-74.398 68.33l-0.268 6.111-2.347 768.040c-0.071 39.224 30.113 71.477 68.535 74.604l6.132 0.249h471.808zM725.333 319.189l-38.56-96.407-1.57-3.356-2.109-3.368-1.692-2.179-3.422-3.438-2.728-2.106-4.606-2.643-4.070-1.58-5.176-1.154-2.547-0.25-54.523-0.043 37.968-29.901 2.733-2.399 2.263-2.482c0.503-0.634 0.977-1.261 1.426-1.902 5.216-7.484 7.149-16.97 4.837-26.141l-1.347-4.138-35.848-89.239 94.328 48.545c7.661 3.946 16.518 4.603 24.578 1.973l4.724-1.973 94.311-48.588-35.72 88.977c-0.829 2.003-1.443 4.066-1.845 6.155l-0.528 4.276 0.061 4.43 0.812 4.978c1.27 5.236 3.889 10.208 7.78 14.329l2.463 2.354 38.966 30.746-55.455 0.118-3.624 0.521-4.711 1.345-4.307 1.964-3.802 2.447-3.418 2.978-1.699 1.837-1.559 1.953-1.95 3.030-1.884 3.923-38.551 96.407z" />
<glyph unicode="&#xe958;" glyph-name="editing_file_format_image" d="M896 778.667c16.2 0 29.589-12.039 31.708-27.658l0.292-4.342v-597.333c0-16.2-12.039-29.589-27.658-31.708l-4.342-0.292h-768c-16.2 0-29.589 12.039-31.708 27.658l-0.292 4.342v597.333c0 16.2 12.039 29.589 27.658 31.708l4.342 0.292h768zM864 714.667h-704v-533.333h704v533.333zM667.691 563.541c7.429 6.16 17.897 6.505 25.628 1.265l3.129-2.587 114.219-114.219v-213.333h-597.333v85.333l112.896 112.896c7.433 7.433 18.912 8.259 27.245 2.478l2.963-2.478 70.229-70.229 241.024 200.875zM277.333 661.333c35.371 0 64-28.629 64-64s-28.629-64-64-64c-35.371 0-64 28.629-64 64s28.629 64 64 64z" />
<glyph unicode="&#xe959;" glyph-name="editing_file_format_pdf" d="M213.325 906.667l474.913-0.292 4.165-0.851 3.949-1.372 2.678-1.281 4.42-2.872 3.073-2.705 170.667-170.667c4.812-4.812 7.933-10.999 8.981-17.637l0.391-5.048-1.152-640.086c-0.071-39.102-30.247-71.167-68.554-74.276l-6.113-0.247h-597.419c-39.164 0-71.303 30.181-74.419 68.544l-0.248 6.122v768c0 41.225 33.442 74.667 74.667 74.667zM670.635 842.667h-457.31c-5.039 0-9.276-3.518-10.384-8.225l-0.282-2.442v-768c0-5.039 3.518-9.276 8.225-10.384l2.442-0.282h597.419c5.025 0 9.265 3.515 10.38 8.206l0.287 2.433 1.075 626.844-151.851 151.851zM358.187 437.239c10.752 0 20.267-1.408 28.416-4.224 8.192-2.816 15.616-7.808 22.272-14.976 6.699-7.168 11.264-15.573 13.867-25.131 2.517-9.6 3.84-22.613 3.84-38.997 0-12.288-0.725-22.656-2.133-31.104s-4.437-16.384-9.003-23.808c-5.376-8.96-12.587-15.957-21.504-20.907-9.003-4.992-20.736-7.509-35.328-7.509h-20.011v-106.752h-39.168v273.408h58.752zM513.711 437.239c22.571 0 39.637-6.144 51.285-18.432s17.493-29.696 17.493-52.224v-127.872c0-25.6-6.229-44.501-18.645-56.619-12.416-12.16-30.293-18.261-53.589-18.261h-54.528v273.408h57.984zM736.047 437.239v-36.864h-77.568v-82.944h67.584v-36.864h-67.584v-116.736h-39.168v273.408h116.736zM512.986 400.375h-18.091v-199.68h18.091c11.008 0 18.773 2.731 23.424 8.277 4.565 5.504 6.912 14.123 6.912 25.899v131.712c0 10.752-2.219 19.072-6.571 24.96s-12.288 8.832-23.765 8.832zM358.997 400.375h-20.395v-92.928h18.816c7.936 0 14.080 1.152 18.432 3.456 4.395 2.304 7.595 5.504 9.643 9.6 2.005 3.84 3.243 8.576 3.627 14.208s0.555 11.904 0.555 18.816c0 6.4-0.128 12.459-0.384 18.261-0.213 5.717-1.408 10.795-3.456 15.147-2.005 4.352-5.12 7.68-9.173 9.984-4.139 2.304-10.027 3.456-17.664 3.456z" />
<glyph unicode="&#xe95a;" glyph-name="editing_file_format_text" d="M683.9 906.667c6.79 0 13.357-2.158 18.784-6.093l3.843-3.279 170.667-170.667c4.801-4.801 7.919-10.97 8.974-17.591l0.399-5.036v-637.696c0-39.080-30.001-71.16-68.265-74.398l-6.107-0.268-597.755-2.304c-39.1 0-71.229 30.070-74.408 68.334l-0.258 6.107-2.347 768.040c-0.071 39.224 30.113 71.477 68.535 74.604l6.132 0.249h471.808zM670.635 842.667h-458.543c-5.038 0-9.284-3.539-10.388-8.253l-0.279-2.444 2.347-768.040c0.009-5.004 3.519-9.215 8.147-10.316l2.396-0.281 597.639 2.304c5.036 0.018 9.235 3.516 10.333 8.223l0.28 2.444-0.038 624.469-151.893 151.893zM512 266.667v-64h-170.667v64h170.667zM682.667 437.333v-64h-341.333v64h341.333zM682.667 608v-64h-341.333v64h341.333z" />
<glyph unicode="&#xe95b;" glyph-name="editing_file_format_xls" d="M683.9 906.667c6.79 0 13.357-2.158 18.784-6.093l3.843-3.279 170.667-170.667c4.801-4.801 7.919-10.97 8.974-17.591l0.399-5.036v-637.696c0-39.080-30.001-71.16-68.265-74.398l-6.107-0.268-597.755-2.304c-39.1 0-71.229 30.070-74.408 68.334l-0.258 6.107-2.347 768.040c-0.071 39.224 30.113 71.477 68.535 74.604l6.132 0.249h471.808zM670.635 842.667h-458.543c-5.038 0-9.284-3.539-10.388-8.253l-0.279-2.444 2.347-768.040c0.009-5.004 3.519-9.215 8.147-10.316l2.396-0.281 597.639 2.304c5.036 0.018 9.235 3.516 10.333 8.223l0.28 2.444-0.038 624.469-151.893 151.893zM714.667 565.333v-405.333h-405.333v405.333h405.333zM415.995 373.333h-42.667l0.005-149.333h42.662v149.333zM650.662 373.333h-170.667v-149.333h170.671l-0.005 149.333zM543.995 501.333h-64v-64h64v64zM415.995 501.333h-42.662l-0.005-64h42.667v64zM650.667 501.333h-42.671v-64h42.667l0.005 64z" />
</font>
</defs>
</svg>
