<svg width="80" height="80" viewBox="0 0 80 80" fill="none" xmlns="http://www.w3.org/2000/svg">
<path d="M57.925 39.8623L7.24023 69.0719L22.0898 77.3679L72.7602 48.1647L57.925 39.8623Z" fill="url(#paint0_linear_11940_20150)"/>
<path d="M21.1553 49.9859L21.8897 50.5299L47.3265 49.9955L72.6817 21.2115L71.9857 20.7267L47.3265 15.6035L21.1553 49.9859Z" fill="#CAC9C9"/>
<path d="M21.9649 77.0687L21.8897 50.5407L21.1553 49.9951V76.2591L21.9649 77.0687Z" fill="#CAC9C9"/>
<path d="M25.1699 28.3921L69.2387 3.39209L69.3139 35.8465L25.2419 60.8097L25.1699 28.3921Z" fill="#EFEFEF"/>
<path d="M65.4205 42.1905C65.7117 42.0225 65.9469 42.1569 65.9485 42.4913C65.9485 42.8257 65.7149 43.2321 65.4237 43.4001L29.6813 64.0369C29.3901 64.2049 29.1533 64.0705 29.1533 63.7361C29.1533 63.4017 29.3869 62.9953 29.6781 62.8273L65.4205 42.1905Z" fill="#A4B0C2"/>
<path d="M65.4098 38.7345C65.701 38.5665 65.9362 38.7009 65.9378 39.0353C65.9394 39.3697 65.7042 39.7745 65.413 39.9425L29.6706 60.5793C29.3794 60.7473 29.1426 60.6129 29.1426 60.2801C29.1426 59.9473 29.3762 59.5393 29.6674 59.3713L65.4098 38.7345Z" fill="#A4B0C2"/>
<path d="M65.4 35.2784C65.6912 35.1104 65.9264 35.2448 65.928 35.5792C65.928 35.9136 65.6944 36.32 65.4032 36.488L29.6608 57.1248C29.3696 57.2928 29.1328 57.1584 29.1328 56.824C29.1328 56.4896 29.3664 56.0832 29.6576 55.9152L65.4 35.2784Z" fill="#A4B0C2"/>
<path d="M65.3902 31.8229C65.6814 31.6549 65.9166 31.7893 65.9182 32.1237C65.9182 32.4581 65.6846 32.8645 65.3934 33.0325L29.651 53.6693C29.3598 53.8373 29.123 53.7029 29.123 53.3685C29.123 53.0341 29.3566 52.6277 29.6478 52.4597L65.3902 31.8229Z" fill="#A4B0C2"/>
<path d="M65.3805 28.3683C65.6717 28.2003 65.9069 28.3347 65.9085 28.6691C65.9085 29.0035 65.6749 29.4099 65.3837 29.5779L29.6413 50.2147C29.3501 50.3827 29.1133 50.2483 29.1133 49.9139C29.1133 49.5795 29.3469 49.1731 29.6381 49.0051L65.3805 28.3683Z" fill="#A4B0C2"/>
<path d="M45.2497 36.1251C45.5409 35.9571 45.7761 36.0915 45.7777 36.4259C45.7777 36.7587 45.5441 37.1667 45.2529 37.3347L29.6305 46.3539C29.3393 46.5219 29.1025 46.3859 29.1025 46.0531C29.1025 45.7187 29.3361 45.3123 29.6273 45.1443L45.2497 36.1251Z" fill="#A4B0C2"/>
<path d="M36.8193 33.4753C37.1089 33.3089 37.3457 33.4449 37.3457 33.7777C37.3457 34.1105 37.1121 34.5185 36.8225 34.6849L29.6081 38.8497C29.3169 39.0177 29.0801 38.8833 29.0801 38.5489C29.0801 38.2161 29.3137 37.8081 29.6049 37.6401L36.8193 33.4753Z" fill="#A4B0C2"/>
<path d="M38.6998 29.9684C38.991 29.8004 39.2262 29.9348 39.2278 30.2692C39.2278 30.6036 38.9942 31.01 38.703 31.178L29.6022 36.4324C29.311 36.6004 29.0742 36.466 29.0742 36.1316C29.0742 35.7972 29.3078 35.3908 29.599 35.2228L38.6998 29.9684Z" fill="#A4B0C2"/>
<path d="M33.8626 30.3363C34.1522 30.1699 34.389 30.3027 34.3906 30.6371C34.3906 30.9715 34.1554 31.3779 33.8658 31.5459L29.5954 34.0115C29.3042 34.1795 29.0674 34.0451 29.0674 33.7107C29.0674 33.3763 29.301 32.9699 29.5922 32.8019L33.8626 30.3363Z" fill="#A4B0C2"/>
<path d="M21.8926 50.5457L47.379 45.5793L72.6846 21.2129L72.7598 47.7425L21.9646 77.0385L21.8926 50.5457Z" fill="#E3E3E2"/>
<path d="M61.1399 13.0754C64.2263 11.293 66.3927 12.3986 66.4023 15.6754C66.4087 17.8994 65.6071 19.701 64.2647 20.4754C63.5479 20.8882 63.0343 20.8002 62.8423 20.1778C62.4087 21.1618 61.7271 21.941 60.8327 22.4578C59.2887 23.349 58.1447 22.6594 58.1383 20.7298C58.1335 18.8274 59.2695 16.8194 60.8135 15.9282C61.5959 15.477 62.2455 15.4114 62.6839 15.7634V14.9282L63.9239 14.2114L63.9367 18.581C63.9383 19.2354 64.2071 19.2994 64.5207 19.1186C65.1239 18.7698 65.4583 17.7666 65.4535 16.2498C65.4455 13.4994 63.6951 12.6562 61.1447 14.1298C58.5495 15.6274 56.8327 18.6146 56.8407 21.4162C56.8487 24.2562 58.5543 25.253 61.1271 23.7682C61.8103 23.3746 62.6151 22.7426 63.2967 21.9506L63.6007 22.805C62.9191 23.597 61.9591 24.357 61.1303 24.8354C57.9543 26.669 55.8231 25.4162 55.8135 22.0098C55.8039 18.6418 57.9447 14.9218 61.1431 13.0754H61.1399ZM61.0631 21.0754C62.0023 20.533 62.7159 19.3746 62.7127 18.0898C62.7095 16.8178 61.9911 16.4978 61.0519 17.0402C60.0791 17.6018 59.3975 18.7682 59.4023 20.0018C59.4055 21.2482 60.0903 21.6386 61.0647 21.077" fill="#EB5C5E"/>
<path d="M23.3668 34.0447C31.2561 34.0447 37.6516 27.6492 37.6516 19.7599C37.6516 11.8706 31.2561 5.4751 23.3668 5.4751C15.4776 5.4751 9.08203 11.8706 9.08203 19.7599C9.08203 27.6492 15.4776 34.0447 23.3668 34.0447Z" fill="#154496"/>
<path d="M13.541 23.1484L14.485 22.0124C14.9698 22.6764 15.557 23.0332 16.2594 23.0332C17.1778 23.0332 17.6514 22.4844 17.6514 21.3868V16.766H14.4722V15.374H19.3106V21.2972C19.3106 23.4044 18.2642 24.438 16.2978 24.438C15.1746 24.438 14.1538 23.9788 13.541 23.1484Z" fill="white"/>
<path d="M27.1494 20.4796H24.8902V22.7132H23.5238V20.4796H21.2646V19.2028H23.5238V16.9692H24.8902V19.2028H27.1494V20.4796Z" fill="white"/>
<path d="M31.3633 15.3742V24.3102H29.7041V16.7646H27.8145V15.3726H31.3633V15.3742Z" fill="white"/>
<defs>
<linearGradient id="paint0_linear_11940_20150" x1="7.24023" y1="58.6159" x2="72.7602" y2="58.6159" gradientUnits="userSpaceOnUse">
<stop stop-opacity="0.2"/>
<stop offset="0.67" stop-opacity="0.5"/>
</linearGradient>
</defs>
</svg>
