<?xml version="1.0" encoding="UTF-8"?>
<svg xmlns="http://www.w3.org/2000/svg" xmlns:xlink="http://www.w3.org/1999/xlink" width="20px" height="20px" viewBox="0 0 20 20" version="1.1">
<defs>
<filter id="alpha" filterUnits="objectBoundingBox" x="0%" y="0%" width="100%" height="100%">
  <feColorMatrix type="matrix" in="SourceGraphic" values="0 0 0 0 1 0 0 0 0 1 0 0 0 0 1 0 0 0 1 0"/>
</filter>
<mask id="mask0">
  <g filter="url(#alpha)">
<rect x="0" y="0" width="20" height="20" style="fill:rgb(0%,0%,0%);fill-opacity:0.439216;stroke:none;"/>
  </g>
</mask>
<linearGradient id="linear0" gradientUnits="userSpaceOnUse" x1="232.820007" y1="192.350998" x2="200.550003" y2="136.460999" gradientTransform="matrix(0.04,0,0,0.04,0,0)">
<stop offset="0" style="stop-color:rgb(67.058824%,67.058824%,67.058824%);stop-opacity:1;"/>
<stop offset="1" style="stop-color:rgb(0%,0%,0%);stop-opacity:1;"/>
</linearGradient>
<clipPath id="clip1">
  <rect x="0" y="0" width="20" height="20"/>
</clipPath>
<g id="surface5" clip-path="url(#clip1)">
<path style=" stroke:none;fill-rule:nonzero;fill:url(#linear0);" d="M 1.441406 9.261719 L 1.925781 11.484375 C 1.972656 11.691406 2.207031 11.796875 2.394531 11.6875 L 15.214844 4.234375 L 15.214844 1.304688 Z M 1.441406 9.261719 "/>
</g>
<mask id="mask1">
  <g filter="url(#alpha)">
<rect x="0" y="0" width="20" height="20" style="fill:rgb(0%,0%,0%);fill-opacity:0.439216;stroke:none;"/>
  </g>
</mask>
<linearGradient id="linear1" gradientUnits="userSpaceOnUse" x1="52.830101" y1="281.049011" x2="297.609985" y2="281.049011" gradientTransform="matrix(0.04,0,0,0.04,0,0)">
<stop offset="0" style="stop-color:rgb(0%,0%,0%);stop-opacity:0.2;"/>
<stop offset="0.67" style="stop-color:rgb(0%,0%,0%);stop-opacity:0.501961;"/>
</linearGradient>
<clipPath id="clip2">
  <rect x="0" y="0" width="20" height="20"/>
</clipPath>
<g id="surface8" clip-path="url(#clip2)">
<path style=" stroke:none;fill-rule:nonzero;fill:url(#linear1);" d="M 2.113281 16.007812 L 2.113281 12.125 L 11.90625 6.476562 L 11.90625 10.363281 Z M 2.113281 16.007812 "/>
</g>
<linearGradient id="linear2" gradientUnits="userSpaceOnUse" x1="-7.46992" y1="360.899994" x2="319.769989" y2="360.899994" gradientTransform="matrix(0.04,0,0,0.04,0,0)">
<stop offset="0" style="stop-color:rgb(0%,0%,0%);stop-opacity:0.2;"/>
<stop offset="0.67" style="stop-color:rgb(0%,0%,0%);stop-opacity:0.501961;"/>
</linearGradient>
</defs>
<g id="surface1">
<path style=" stroke:none;fill-rule:nonzero;fill:rgb(78.039217%,77.64706%,77.64706%);fill-opacity:1;" d="M 1.28125 9.179688 L 15.054688 1.226562 L 15.222656 1.273438 L 15.054688 8.355469 L 1.441406 16.394531 L 1.28125 16.3125 Z M 1.28125 9.179688 "/>
<path style=" stroke:none;fill-rule:nonzero;fill:rgb(91.37255%,91.37255%,91.37255%);fill-opacity:1;" d="M 1.441406 9.261719 L 15.214844 1.304688 L 15.214844 8.4375 L 1.441406 16.394531 Z M 1.441406 9.261719 "/>
<use xlink:href="#surface5" mask="url(#mask0)"/>
<path style=" stroke:none;fill-rule:nonzero;fill:rgb(91.37255%,91.37255%,91.37255%);fill-opacity:1;" d="M 1.441406 9.261719 L 1.972656 10.394531 C 2.128906 10.726562 2.53125 10.851562 2.851562 10.671875 L 15.527344 3.382812 C 15.804688 3.222656 15.917969 2.878906 15.789062 2.585938 L 15.214844 1.304688 Z M 1.441406 9.261719 "/>
<path style=" stroke:none;fill-rule:nonzero;fill:rgb(63.921571%,63.921571%,63.529414%);fill-opacity:1;" d="M 15.226562 1.277344 L 15.804688 2.578125 C 15.941406 2.878906 15.824219 3.234375 15.539062 3.398438 L 2.859375 10.6875 C 2.761719 10.746094 2.652344 10.773438 2.539062 10.773438 C 2.472656 10.773438 2.40625 10.761719 2.34375 10.742188 C 2.171875 10.691406 2.03125 10.566406 1.953125 10.402344 L 1.414062 9.253906 C 1.414062 9.253906 1.40625 9.242188 1.382812 9.226562 C 1.359375 9.210938 1.28125 9.183594 1.28125 9.183594 L 1.308594 9.167969 C 1.308594 9.167969 1.359375 9.175781 1.414062 9.207031 C 1.464844 9.238281 1.464844 9.269531 1.464844 9.269531 L 1.988281 10.386719 C 2.0625 10.539062 2.195312 10.65625 2.355469 10.707031 C 2.519531 10.757812 2.695312 10.738281 2.839844 10.652344 L 15.519531 3.363281 C 15.789062 3.210938 15.894531 2.878906 15.769531 2.59375 L 15.199219 1.3125 Z M 15.226562 1.277344 "/>
<path style=" stroke:none;fill-rule:nonzero;fill:rgb(94.901961%,94.901961%,94.901961%);fill-opacity:1;" d="M 1.308594 9.167969 C 1.308594 9.167969 1.355469 9.171875 1.394531 9.195312 C 1.4375 9.222656 1.460938 9.25 1.460938 9.25 L 15.203125 1.3125 L 15.226562 1.277344 L 15.054688 1.226562 Z M 1.308594 9.167969 "/>
<use xlink:href="#surface8" mask="url(#mask1)"/>
<path style=" stroke:none;fill-rule:nonzero;fill:url(#linear2);" d="M 2.113281 16.003906 L 4.753906 17.511719 L 12.789062 12.878906 L 10.164062 11.359375 Z M 2.113281 16.003906 "/>
<path style=" stroke:none;fill-rule:nonzero;fill:rgb(97.254902%,75.686276%,31.764707%);fill-opacity:1;" d="M 4.671875 10.332031 L 18.46875 2.394531 L 18.695312 2.523438 L 18.527344 9.699219 L 4.917969 17.609375 L 4.644531 17.445312 Z M 4.671875 10.332031 "/>
<path style=" stroke:none;fill-rule:nonzero;fill:rgb(100%,85.882354%,53.333336%);fill-opacity:1;" d="M 4.917969 10.480469 L 18.695312 2.523438 L 18.695312 9.652344 L 4.917969 17.609375 Z M 4.917969 10.480469 "/>
<path style=" stroke:none;fill-rule:nonzero;fill:rgb(91.37255%,92.156863%,96.862745%);fill-opacity:1;" d="M 5.398438 10.746094 L 11.09375 7.457031 L 11.09375 9.652344 L 5.394531 12.945312 Z M 5.398438 10.746094 "/>
<path style=" stroke:none;fill-rule:nonzero;fill:rgb(91.37255%,92.156863%,96.862745%);fill-opacity:1;" d="M 5.394531 15.6875 L 11.09375 12.394531 L 11.09375 13.492188 L 5.394531 16.78125 Z M 5.394531 15.6875 "/>
<path style=" stroke:none;fill-rule:nonzero;fill:rgb(100%,100%,100%);fill-opacity:1;" d="M 5.394531 15.140625 L 11.09375 11.847656 L 11.09375 12.394531 L 5.394531 15.6875 Z M 5.394531 15.140625 "/>
<path style=" stroke:none;fill-rule:nonzero;fill:rgb(100%,100%,100%);fill-opacity:1;" d="M 5.394531 13.488281 L 10.140625 10.753906 L 10.140625 11.851562 L 5.394531 14.589844 Z M 5.394531 13.488281 "/>
<path style=" stroke:none;fill-rule:nonzero;fill:rgb(100%,100%,100%);fill-opacity:1;" d="M 12.308594 12.851562 L 17.730469 9.722656 L 17.730469 6.679688 L 12.308594 9.808594 Z M 12.308594 12.851562 "/>
<path style=" stroke:none;fill-rule:nonzero;fill:rgb(100%,100%,100%);fill-opacity:1;" d="M 12.308594 9.496094 L 17.742188 6.359375 L 17.742188 4.488281 L 12.296875 7.617188 Z M 12.308594 9.496094 "/>
<path style=" stroke:none;fill-rule:nonzero;fill:rgb(92.156863%,36.078432%,36.862746%);fill-opacity:1;" d="M 17.734375 3.625 L 13.9375 5.820312 L 13.9375 6.273438 L 17.734375 4.082031 Z M 17.734375 3.625 "/>
<path style=" stroke:none;fill-rule:nonzero;fill:rgb(28.627452%,30.19608%,31.37255%);fill-opacity:1;" d="M 14.730469 6.507812 L 14.457031 6.667969 L 14.453125 7.9375 L 14.730469 7.777344 Z M 14.730469 6.507812 "/>
<path style=" stroke:none;fill-rule:nonzero;fill:rgb(28.627452%,30.19608%,31.37255%);fill-opacity:1;" d="M 16.226562 5.640625 L 15.949219 5.800781 L 15.949219 7.074219 L 16.226562 6.914062 Z M 16.226562 5.640625 "/>
<path style=" stroke:none;fill-rule:nonzero;fill:rgb(28.627452%,30.19608%,31.37255%);fill-opacity:1;" d="M 14.320312 6.75 L 14.183594 6.832031 L 14.179688 8.101562 L 14.320312 8.023438 Z M 14.320312 6.75 "/>
<path style=" stroke:none;fill-rule:nonzero;fill:rgb(28.627452%,30.19608%,31.37255%);fill-opacity:1;" d="M 14.046875 6.910156 L 13.90625 6.992188 L 13.90625 8.261719 L 14.046875 8.179688 Z M 14.046875 6.910156 "/>
<path style=" stroke:none;fill-rule:nonzero;fill:rgb(28.627452%,30.19608%,31.37255%);fill-opacity:1;" d="M 13.769531 7.066406 L 13.628906 7.148438 L 13.628906 8.421875 L 13.769531 8.339844 Z M 13.769531 7.066406 "/>
<path style=" stroke:none;fill-rule:nonzero;fill:rgb(28.627452%,30.19608%,31.37255%);fill-opacity:1;" d="M 13.488281 7.226562 L 13.351562 7.308594 L 13.351562 8.578125 L 13.488281 8.5 Z M 13.488281 7.226562 "/>
<path style=" stroke:none;fill-rule:nonzero;fill:rgb(28.627452%,30.19608%,31.37255%);fill-opacity:1;" d="M 15.835938 5.871094 L 15.695312 5.953125 L 15.695312 7.222656 L 15.835938 7.144531 Z M 15.835938 5.871094 "/>
<path style=" stroke:none;fill-rule:nonzero;fill:rgb(28.627452%,30.19608%,31.37255%);fill-opacity:1;" d="M 15.5625 6.03125 L 15.421875 6.113281 L 15.421875 7.382812 L 15.5625 7.304688 Z M 15.5625 6.03125 "/>
<path style=" stroke:none;fill-rule:nonzero;fill:rgb(28.627452%,30.19608%,31.37255%);fill-opacity:1;" d="M 15.28125 6.191406 L 15.144531 6.269531 L 15.144531 7.542969 L 15.28125 7.460938 Z M 15.28125 6.191406 "/>
<path style=" stroke:none;fill-rule:nonzero;fill:rgb(28.627452%,30.19608%,31.37255%);fill-opacity:1;" d="M 17.074219 5.15625 L 16.9375 5.234375 L 16.933594 6.507812 L 17.074219 6.425781 Z M 17.074219 5.15625 "/>
<path style=" stroke:none;fill-rule:nonzero;fill:rgb(28.627452%,30.19608%,31.37255%);fill-opacity:1;" d="M 16.796875 5.316406 L 16.660156 5.394531 L 16.660156 6.667969 L 16.796875 6.585938 Z M 16.796875 5.316406 "/>
<path style=" stroke:none;fill-rule:nonzero;fill:rgb(28.627452%,30.19608%,31.37255%);fill-opacity:1;" d="M 16.519531 5.472656 L 16.382812 5.554688 L 16.382812 6.824219 L 16.519531 6.746094 Z M 16.519531 5.472656 "/>
<path style=" stroke:none;fill-rule:nonzero;fill:rgb(28.627452%,30.19608%,31.37255%);fill-opacity:1;" d="M 15.003906 6.347656 L 14.867188 6.429688 L 14.867188 7.699219 L 15.003906 7.621094 Z M 15.003906 6.347656 "/>
<path style=" stroke:none;fill-rule:nonzero;fill:rgb(28.627452%,30.19608%,31.37255%);fill-opacity:1;" d="M 13.21875 7.378906 L 13.078125 7.457031 L 13.078125 8.730469 L 13.21875 8.648438 Z M 13.21875 7.378906 "/>
<path style=" stroke:none;fill-rule:nonzero;fill:rgb(100%,100%,100%);fill-opacity:1;" d="M 4.917969 17.609375 L 4.898438 10.46875 L 4.910156 10.460938 L 18.695312 2.523438 L 4.9375 10.492188 Z M 4.917969 17.609375 "/>
<path style=" stroke:none;fill-rule:nonzero;fill:rgb(100%,89.019608%,67.450982%);fill-opacity:1;" d="M 4.898438 10.46875 L 4.671875 10.332031 L 18.46875 2.394531 L 18.695312 2.523438 Z M 4.898438 10.46875 "/>
<path style="fill:none;stroke-width:1;stroke-linecap:butt;stroke-linejoin:miter;stroke:rgb(37.254903%,38.039216%,45.882353%);stroke-opacity:1;stroke-miterlimit:10;" d="M 161.328125 382.519531 L 161.328125 399.511719 L 176.171875 391.015625 L 176.171875 374.023438 Z M 161.328125 382.519531 " transform="matrix(0.04,0,0,0.04,0,0)"/>
<path style="fill:none;stroke-width:1;stroke-linecap:butt;stroke-linejoin:miter;stroke:rgb(37.254903%,38.039216%,45.882353%);stroke-opacity:1;stroke-miterlimit:10;" d="M 198.730469 360.742188 L 198.730469 377.734375 L 213.476562 369.238281 L 213.476562 352.148438 Z M 198.730469 360.742188 " transform="matrix(0.04,0,0,0.04,0,0)"/>
<path style="fill:none;stroke-width:1;stroke-linecap:butt;stroke-linejoin:miter;stroke:rgb(37.254903%,38.039216%,45.882353%);stroke-opacity:1;stroke-miterlimit:10;" d="M 236.035156 338.378906 L 236.035156 355.46875 L 250.78125 346.972656 L 250.78125 329.882812 Z M 236.035156 338.378906 " transform="matrix(0.04,0,0,0.04,0,0)"/>
<path style=" stroke:none;fill-rule:nonzero;fill:rgb(8.235294%,26.666668%,58.823532%);fill-opacity:1;" d="M 5.542969 7.382812 C 7.515625 7.382812 9.113281 5.785156 9.113281 3.8125 C 9.113281 1.839844 7.515625 0.238281 5.542969 0.238281 C 3.570312 0.238281 1.972656 1.839844 1.972656 3.8125 C 1.972656 5.785156 3.570312 7.382812 5.542969 7.382812 Z M 5.542969 7.382812 "/>
<path style=" stroke:none;fill-rule:nonzero;fill:rgb(100%,100%,100%);fill-opacity:1;" d="M 2.886719 4.660156 L 3.121094 4.375 C 3.242188 4.539062 3.390625 4.628906 3.566406 4.628906 C 3.796875 4.628906 3.914062 4.492188 3.914062 4.21875 L 3.914062 3.0625 L 3.121094 3.0625 L 3.121094 2.714844 L 4.328125 2.714844 L 4.328125 4.195312 C 4.328125 4.722656 4.066406 4.980469 3.574219 4.980469 C 3.292969 4.980469 3.039062 4.867188 2.886719 4.660156 Z M 2.886719 4.660156 "/>
<path style=" stroke:none;fill-rule:nonzero;fill:rgb(100%,100%,100%);fill-opacity:1;" d="M 6.289062 3.992188 L 5.722656 3.992188 L 5.722656 4.550781 L 5.382812 4.550781 L 5.382812 3.992188 L 4.816406 3.992188 L 4.816406 3.671875 L 5.382812 3.671875 L 5.382812 3.113281 L 5.722656 3.113281 L 5.722656 3.671875 L 6.289062 3.671875 Z M 6.289062 3.992188 "/>
<path style=" stroke:none;fill-rule:nonzero;fill:rgb(100%,100%,100%);fill-opacity:1;" d="M 8.15625 4.277344 C 8.15625 4.65625 7.871094 4.980469 7.273438 4.980469 C 6.957031 4.980469 6.640625 4.882812 6.433594 4.722656 L 6.609375 4.398438 C 6.769531 4.535156 7.011719 4.621094 7.265625 4.621094 C 7.5625 4.621094 7.738281 4.488281 7.738281 4.28125 C 7.738281 4.074219 7.589844 3.949219 7.253906 3.949219 L 7.046875 3.949219 L 7.046875 3.664062 L 7.554688 3.0625 L 6.542969 3.0625 L 6.542969 2.714844 L 8.0625 2.714844 L 8.0625 2.992188 L 7.519531 3.636719 C 7.941406 3.691406 8.15625 3.941406 8.15625 4.277344 Z M 8.15625 4.277344 "/>
</g>
</svg>
