<svg width="20" height="20" viewBox="0 0 20 20" fill="none" xmlns="http://www.w3.org/2000/svg">
<rect width="20" height="20" fill="white"/>
<path d="M3.95829 13.3333V16.4583H8.12496C8.12496 16.4583 7.29163 13.5416 9.79163 13.5416C12.5 13.5416 11.4583 16.4583 11.4583 16.4583H16.0416V13.3333C16.0416 13.3333 18.3333 13.9583 18.3333 11.6666C18.3333 9.37498 16.0416 9.99998 16.0416 9.99998V6.04165H11.875C11.875 6.04165 12.9166 2.70831 9.79163 2.70831C6.66663 2.70831 7.70829 6.04165 7.70829 6.04165H3.95829V9.99998C3.95829 9.99998 1.66663 9.37498 1.66663 11.6666C1.66663 13.9583 3.95829 13.3333 3.95829 13.3333Z" stroke="#0F62FE" stroke-width="1.66667" stroke-linejoin="round"/>
</svg>
