<svg width="33" height="33" xmlns="http://www.w3.org/2000/svg"><g fill="none" fill-rule="evenodd"><g stroke="#FFF"><path d="M16.52 16.52 5.545 5.546C8.575 2.515 12.235 1 16.52 1v15.52Z" fill="#C2CE5C"/><path d="M16.52 16.52H1c0-4.285 1.515-7.944 4.545-10.975L16.52 16.521Z" fill="#7ABA47"/><path d="M16.52 16.52 5.545 27.496C2.515 24.465 1 20.805 1 16.52h15.52Z" fill="#44B1FF"/><path d="M16.52 16.52v15.52c-4.285 0-7.945-1.514-10.975-4.545L16.52 16.52Z" fill="#3380B8"/><path d="m16.52 16.52 10.974 10.975c-3.03 3.03-6.69 4.545-10.974 4.545V16.52Z" fill="#FF3876"/><path d="M16.52 16.52h15.52c0 4.286-1.516 7.944-4.546 10.975L16.52 16.52Z" fill="#FF6952"/><path d="M16.52 16.52 27.494 5.546c3.03 3.031 4.545 6.69 4.545 10.976H16.52Z" fill="#FFA745"/><path d="M16.52 16.52V1c4.285 0 7.944 1.515 10.974 4.545L16.52 16.521Z" fill="#FFC73F"/></g><path d="M21 16.5a4.5 4.5 0 1 1-9 0 4.5 4.5 0 0 1 9 0" fill="#FFF"/></g></svg>